<?xml version="1.0" encoding="utf-8"?>
<!-- Generator: Adobe Illustrator 15.0.0, SVG Export Plug-In . SVG Version: 6.00 Build 0)  -->
<!DOCTYPE svg PUBLIC "-//W3C//DTD SVG 1.1//EN" "http://www.w3.org/Graphics/SVG/1.1/DTD/svg11.dtd">
<svg version="1.1" id="Layer_1" xmlns="http://www.w3.org/2000/svg" xmlns:xlink="http://www.w3.org/1999/xlink" x="0px" y="0px"
	 width="40px" height="40px" viewBox="0 0 40 40" enable-background="new 0 0 40 40" xml:space="preserve">
<g>
	<path fill="#FF0A0A" d="M18.542,7.39c0-2.345,0-4.689,0-7.035c5.921-2.169,0.224,7.28,4.221,7.035
		c-0.235,1.639-2.225,1.528-4.221,1.406C18.542,8.327,18.542,7.858,18.542,7.39z"/>
	<path fill="#FF0A0A" d="M17.135,24.272c-0.624-1.254-1.235-2.517-2.814-2.813C14.564,1.915,37.009,24.356,17.135,24.272z"/>
	<path fill="#FF0A0A" d="M8.693,17.237c0.468,0,0.938,0,1.406,0c0.121,1.996,0.233,3.984-1.406,4.222c-2.813,0-5.628,0-8.441,0
		C-1.734,15.252,8.67,21.435,8.693,17.237z"/>
	<path fill="#FF0A0A" d="M31.204,21.459c-0.123-1.996-0.233-3.984,1.405-4.221c-0.244,3.995,9.204-1.7,7.035,4.221
		c-2.346,0-4.688,0-7.035,0C32.142,21.459,31.672,21.459,31.204,21.459z"/>
	<path fill="#FF0A0A" d="M18.542,31.308c0.237-1.64,2.225-1.529,4.221-1.406c0,0.467,0,0.938,0,1.406
		c-4.199,0.024,1.983,10.426-4.221,8.439C18.542,36.935,18.542,34.12,18.542,31.308z"/>
	<path fill="#FF4848" d="M8.693,17.237c1.542-5.024,4.824-8.306,9.848-9.849c0,0.469,0,0.938,0,1.407
		c-1.197-0.259-1.327,0.549-1.407,1.407c-2.481,1.271-4.357,3.147-5.628,5.628c-1.198-0.259-1.326,0.549-1.407,1.408
		C9.631,17.237,9.162,17.237,8.693,17.237z"/>
	<path fill="#FF6868" d="M29.797,22.866c1.242-9.684-2.979-13.905-12.662-12.664c0.08-0.858,0.209-1.666,1.407-1.407
		c1.997,0.121,3.986,0.232,4.221-1.407c5.438,0.188,5.547,5.707,9.847,7.035c0,0.938,0,1.876,0,2.813
		c-1.639,0.237-1.528,2.225-1.405,4.22C31.124,22.314,30.995,23.123,29.797,22.866z"/>
	<path fill="#FFDFDF" d="M17.135,10.203c9.683-1.242,13.904,2.979,12.662,12.664c-1.27,2.48-3.146,4.357-5.628,5.627
		c-6.946,1.317-9.541-1.712-12.663-4.221c0-2.813,0-5.628,0-8.442C12.778,13.35,14.654,11.474,17.135,10.203z M14.321,21.459
		c1.579,0.297,2.19,1.56,2.814,2.813C37.009,24.356,14.564,1.915,14.321,21.459z"/>
	<path fill="#FF4848" d="M29.797,22.866c1.198,0.257,1.327-0.552,1.407-1.407c0.468,0,0.938,0,1.405,0
		c-1.54,5.022-4.824,8.306-9.847,9.849c0-0.469,0-0.939,0-1.406c0.856-0.08,1.665-0.211,1.406-1.408
		C26.65,27.224,28.527,25.347,29.797,22.866z"/>
	<path fill="#FF6868" d="M11.507,15.831c0,2.814,0,5.628,0,8.442c3.121,2.509,5.716,5.538,12.663,4.221
		c0.259,1.199-0.551,1.328-1.406,1.408c-1.997-0.123-3.985-0.233-4.221,1.406c-6.199,1.04-5.764-4.555-9.849-5.629
		c0-1.406,0-2.812,0-4.22c1.639-0.237,1.528-2.226,1.407-4.222C10.181,16.379,10.31,15.571,11.507,15.831z"/>
</g>
</svg>
