<?xml version="1.0" encoding="utf-8"?>
<!-- Generator: Adobe Illustrator 15.0.0, SVG Export Plug-In . SVG Version: 6.00 Build 0)  -->
<!DOCTYPE svg PUBLIC "-//W3C//DTD SVG 1.1//EN" "http://www.w3.org/Graphics/SVG/1.1/DTD/svg11.dtd">
<svg version="1.1" id="Layer_1" xmlns="http://www.w3.org/2000/svg" xmlns:xlink="http://www.w3.org/1999/xlink" x="0px" y="0px"
	 width="1000px" height="800px" viewBox="0 0 1000 800" enable-background="new 0 0 1000 800" xml:space="preserve">
<g>
	<path fill-rule="evenodd" clip-rule="evenodd" fill="#FFFFFF" d="M354.969,800.643c13.625-41.993,11.112-90.177,19.685-135.642
		c1.057-6.644-6.879-4.839-6.562-10.788c6.154-66.15,17.507-127.413,39.372-178.8c-8.428-16.694-2.679-34.014-1.64-52.405
		c1.593-28.205-7.138-41.674-14.764-58.573c-7.417-16.431-8.49-35.561-14.764-50.865c-2.283-5.566-7.309-9.635-8.204-15.414
		c-8.556,5.319-13.579,13.957-19.685,21.579c-9.681,8.914-19.727,13.192-31.168,20.038c-16.52,9.884-27.288,26.278-44.293,36.993
		c-45.431,28.624-113.696,22.611-162.405,50.866c-7.587,28.468-30.736,42.678-39.371,67.819c-2.776,8.082,2.382,17.891-9.843,23.122
		c-8.325-11.744,0.461-30.449,4.921-40.076c-17.048,5.046-13.107,29.815-22.966,41.616c-12.58-1.871-5.347-37.234,3.281-43.159
		c-17.16,0.327-12.648,34.351-34.449,35.452c-0.446-18.691,12.263-37.589,22.965-50.865c-17.477,1.048-16.249,19.669-31.168,23.122
		c-8.474-30.269,39.208-40.446,42.652-64.738c37.811-20.703,77.429-39.184,111.551-64.737c14.087-10.549,24.687-19.951,37.73-27.745
		c14.406-8.607,28.719-11.894,45.933-20.038c38.477-18.204,65.38-60.948,90.225-89.399c0.523-3.619,2.591-5.786,1.641-10.79
		c9.934-8.136,19.942-16.201,31.168-23.121c3.828,0,7.655,0,11.484,0c18.511-20.514,75.132-21.463,82.022-50.865
		c2.528-10.787-6.371-19.825-3.281-35.451c-9.703-7.839-14.093-20.667-16.404-35.452c3.03-3.318,4.795-7.824,13.124-6.165
		c-17.667-75.931,113.009-77.264,96.788-1.542c1.025,3.661,10.097-0.239,11.482,3.083c3.054,15.134-3.622,31.87-14.764,38.534
		c-1.28,29.755-6.903,37.551,9.843,52.406c4.825,4.28,12.897,12.268,16.404,13.873c4.562,2.088,11.757,0.074,16.404,1.542
		c5.342,1.686,7.471,6.91,11.483,9.248c10.12,5.896,23.175,6.344,26.247,13.872c5.691,1.236,6.305-2.295,11.482-1.542
		c7.859,11.741,23.35,16.122,32.81,26.204c11.665,12.429,15.899,28.885,19.686,49.324c3.675,4.105,8.22-2.179,11.483,1.541
		c8.477,22.349,33.011,29.612,49.214,44.7c41.224,7.508,50.854,20.038,78.742,43.158c5.103-0.343,9.333,7.743,9.842,3.083
		c35.557,24.649,75.491,45.187,114.833,66.279c6.891,26.638,50.993,33.98,42.651,64.738c-14.066-3.738-13.594-21.138-29.527-23.122
		c9.192,14.051,23.178,31.548,21.326,50.865c-21.736-3.211-15.853-32.373-34.45-38.533c7.898,10.379,16.787,34.433,6.562,47.78
		c-11.392-11.388-8.845-35.875-24.607-43.156c-0.741,8.131,14.858,28.153,4.921,40.076c-13.788-2.955-8.106-15.803-11.483-24.662
		c-8.34-21.883-31.727-39.272-37.729-63.197c-44.73-31.442-124.438-30.023-170.608-60.113c-1.5-5.27-2.465-11.042-4.921-15.413
		c-4.288-4.054-5.028,3.097-9.843,3.083c-23.357-19.158-57.066-28.586-77.102-50.865c-11.593,14.986-10.407,35.621-18.044,53.947
		c-2.718,6.521-9.023,11.788-11.484,18.497c-11.522,31.41,5.856,63.357-6.562,94.024c22.66,64.353,45.001,144.062,41.012,226.581
		c-1.846,38.188,3.791,68.413,11.483,100.188c-26.794,0-53.59,0-80.383,0c-2.02-24.535-21.101-44.297-26.248-69.362
		c-2.163-10.528,0.263-21.362-1.64-32.37c-3.073-17.781-12.569-34.948-18.046-52.405c-5.805-18.514-7.534-37.917-18.044-52.406
		c-12.898,13.581-13.529,35.289-19.686,53.949c-6.135,18.597-12.977,37.152-21.326,52.406
		c9.643,34.162-17.555,67.016-24.606,100.188C408.557,800.643,381.763,800.643,354.969,800.643z"/>
	<path fill-rule="evenodd" clip-rule="evenodd" fill="#FFFFFF" d="M564.947,800.643c-43.201,0-86.397,0-129.596,0
		c7.051-33.173,34.249-66.026,24.606-100.188c8.349-15.254,15.19-33.81,21.326-52.406c6.156-18.66,6.788-40.368,19.686-53.949
		c10.51,14.489,12.24,33.893,18.044,52.406c5.477,17.457,14.973,34.624,18.046,52.405c1.902,11.008-0.523,21.842,1.64,32.37
		C543.847,756.346,562.928,776.107,564.947,800.643z"/>
</g>
</svg>
