<?xml version="1.0" encoding="utf-8"?>
<!-- Generator: Adobe Illustrator 15.0.0, SVG Export Plug-In . SVG Version: 6.00 Build 0)  -->
<!DOCTYPE svg PUBLIC "-//W3C//DTD SVG 1.1//EN" "http://www.w3.org/Graphics/SVG/1.1/DTD/svg11.dtd">
<svg version="1.1" id="Layer_1" xmlns="http://www.w3.org/2000/svg" xmlns:xlink="http://www.w3.org/1999/xlink" x="0px" y="0px"
	 width="200px" height="200px" viewBox="0 0 200 200" enable-background="new 0 0 200 200" xml:space="preserve">
<g>
	<path fill-rule="evenodd" clip-rule="evenodd" fill="#ABE251" d="M128.314,30.294c1.855-1.585,6.632-0.245,9.629-0.688
		c0,0.229,0,0.459,0,0.688C134.733,30.294,131.524,30.294,128.314,30.294z"/>
	<path fill-rule="evenodd" clip-rule="evenodd" fill="#FFFFFF" d="M68.484,76.37c-1.445,1.51-3.057,0.142-4.126-0.688
		C64.273,72.009,69.149,72.454,68.484,76.37z"/>
	<path fill-rule="evenodd" clip-rule="evenodd" fill="#163B0C" d="M117.312,74.995c-4.98,6.937-14.498,9.342-22.005,13.753
		C101.033,82.985,108.069,74.96,117.312,74.995z"/>
	<path fill-rule="evenodd" clip-rule="evenodd" fill="#38D80C" d="M100.808,88.749c0.741-1.138,6.134-1.138,6.878,0
		C105.391,88.749,103.1,88.749,100.808,88.749z"/>
	<path fill-rule="evenodd" clip-rule="evenodd" fill="#FFFFFF" d="M101.496,90.812c0.229,0,0.459,0,0.688,0c0.459,0,0.915,0,1.374,0
		c0.945,0.881,1.197,4.112-0.688,4.126C100.27,95.527,100.437,91.859,101.496,90.812z"/>
	<path fill-rule="evenodd" clip-rule="evenodd" fill="#163B0C" d="M104.933,91.499c3.704-0.494,3.618,2.803,3.441,6.19
		c-2.009,3.697-10.176,1.526-7.566-2.751C103.46,97.076,106.661,93.95,104.933,91.499z"/>
	<path fill-rule="evenodd" clip-rule="evenodd" fill="#ABE251" d="M156.51,98.376c1.142,0.964,1.142,6.603,0,7.565
		C156.51,103.42,156.51,100.898,156.51,98.376z"/>
	<path fill-rule="evenodd" clip-rule="evenodd" fill="#ABE251" d="M11.405,106.629c2.316,0.435,6.389-0.887,7.565,0.687
		C16.655,106.881,12.583,108.202,11.405,106.629z"/>
	<path fill-rule="evenodd" clip-rule="evenodd" fill="#ABE251" d="M22.41,107.315c0.085-1.518,2.917-0.291,4.126-0.687
		c2.062,0,4.126,0,6.188,0c0,0.229,0,0.457,0,0.687c-1.375,0-2.751,0-4.126,0C26.536,107.315,24.472,107.315,22.41,107.315z"/>
	<path fill-rule="evenodd" clip-rule="evenodd" fill="#1FAF01" d="M28.598,107.315c1.375,0,2.75,0,4.126,0
		c0.038,0.881,0.881,0.954,0.688,2.064c-0.999,0.375-3.555-0.806-3.439,0.688c-0.458,0-0.916,0-1.375,0
		c-0.085-1.52-2.917-0.294-4.126-0.688C24.717,107.562,27.977,108.759,28.598,107.315z"/>
	<path fill-rule="evenodd" clip-rule="evenodd" fill="#163B0C" d="M10.718,116.943c0.295-1.536,3.389-0.276,4.813-0.686
		C15.854,119.558,11.534,118.236,10.718,116.943z"/>
	<path fill-rule="evenodd" clip-rule="evenodd" fill="#CEEBC4" d="M93.931,158.893c3.22-1.592,9.39-0.234,13.755-0.686
		C109.566,159.587,97.668,158.596,93.931,158.893z"/>
	<path fill-rule="evenodd" clip-rule="evenodd" fill="#CEEBC4" d="M82.927,17.916c-0.924,1.753-1.311-2.75-2.062-3.439
		c-1.363,0.301-6.333-0.271-2.751-0.688c1.146,0,2.292,0,3.438,0C82.101,15.074,82.701,16.308,82.927,17.916z"/>
	<path fill-rule="evenodd" clip-rule="evenodd" fill="#CEEBC4" d="M91.867,44.047c0,0.229,0,0.459,0,0.688
		c-1.359-3.239-4.09-8.732-3.438-11.691C89.601,36.688,91.691,39.411,91.867,44.047z"/>
	<path fill-rule="evenodd" clip-rule="evenodd" fill="#CEEBC4" d="M62.983,50.237c2.008,0.972,2.183,3.777,3.439,5.501
		c2.141,0.347,6.186-4.616,4.814-1.375c-2.006,0.744-2.588,2.913-5.503,2.75C65.39,54.25,63.329,53.101,62.983,50.237z"/>
	<path fill-rule="evenodd" clip-rule="evenodd" fill="#CEEBC4" d="M45.791,38.546c-0.841,2.082-2.625-0.485-3.438-0.687
		C40.477,27.76,58.222,26.518,56.795,37.17c-0.081-6.03-9.113-9.213-12.38-4.126C42.869,34.737,42.305,38.557,45.791,38.546z"/>
	<path fill-rule="evenodd" clip-rule="evenodd" fill="#CEEBC4" d="M54.044,70.181c1.597-5.051,6.326-6.969,8.939-11.003
		c-1.987-6.724-6.602-10.821-8.939-17.193c3.365,3.052,4.851,7.985,7.564,11.691c0.571,1.721,1.885,2.7,2.063,4.813
		c-1.442,4.061-5.554,5.45-7.565,8.94c0.501,1.876-1.367,1.384-1.375,2.751C54.501,70.181,54.272,70.181,54.044,70.181z"/>
	<path fill-rule="evenodd" clip-rule="evenodd" fill="#CEEBC4" d="M27.911,56.427c-0.229,0-0.459,0-0.688,0
		c4.466-2.159,9.404,1.129,8.94,6.188C34.642,59.323,33.085,56.066,27.911,56.427z"/>
	<path fill-rule="evenodd" clip-rule="evenodd" fill="#CEEBC4" d="M47.166,74.995c-2.108-0.669-6.75-2.384-6.188-3.439
		c1.3-0.154,1.517,0.775,2.751,0.688c0.179,0.967,1.508,0.784,2.062,1.375C45.961,74.365,47.159,74.085,47.166,74.995z"/>
	<path fill-rule="evenodd" clip-rule="evenodd" fill="#CEEBC4" d="M12.094,119.006c-4.449-0.693-11.256-13.585-4.126-13.064
		c-3.284-0.535-2.339,5.649-0.688,6.189C7.921,115.385,10.64,116.566,12.094,119.006z"/>
	<path fill-rule="evenodd" clip-rule="evenodd" fill="#CEEBC4" d="M18.282,111.442c1.478-1.273,5.038-0.462,7.565-0.686
		c-2.707,1.187-7.728,0.064-8.252,3.437c0-0.459,0-0.918,0-1.377C18.131,112.665,18.394,112.243,18.282,111.442z"/>
	<path fill-rule="evenodd" clip-rule="evenodd" fill="#CEEBC4" d="M14.845,171.272c2.062-5.513,15.013-12.962,21.318-18.569
		c6.698-5.952,12.149-12.069,18.568-16.504c-1.872-4.097-6.708-8.871-6.189-13.065c1.96,4.457,4.472,8.366,6.878,12.377
		C43.404,148.942,28.432,159.416,14.845,171.272z"/>
	<path fill-rule="evenodd" clip-rule="evenodd" fill="#CEEBC4" d="M22.41,179.527c-3.56,3.582-10.536-0.157-9.629-5.502
		c1.868-0.492-0.491,3.241,1.375,2.748c0.599,1.696,1.603,2.983,4.126,2.754C19.659,179.527,21.034,179.527,22.41,179.527z"/>
	<path fill-rule="evenodd" clip-rule="evenodd" fill="#CEEBC4" d="M75.363,152.018c0.826,0.789,0.267,1.743,0,0.686
		c-7.679-2.636-12.343-8.289-17.881-13.062c-11.462,8.708-21.695,18.647-31.635,28.881c0.785,1.128,2.218,9.209,0.688,6.189
		c-0.767-1.983-1.238-4.264-1.375-6.875c3.267-2.694,6.247-5.675,8.939-8.943c0.691,0.006,0.818-0.554,1.375-0.686
		c3.269-2.694,6.249-5.672,8.94-8.94c3.797-2.849,6.489-6.806,11.004-8.94c0.611-0.305,1.23-0.604,1.375-1.374
		c3.828,1.215,4.991,5.093,8.252,6.876C68.904,147.471,71.358,150.521,75.363,152.018z"/>
	<path fill-rule="evenodd" clip-rule="evenodd" fill="#CEEBC4" d="M71.924,187.776c-5.327-0.305,6.591-0.68,6.189-3.437
		c0.106,1.71-1.08,2.127-1.375,3.437C75.133,187.776,73.528,187.776,71.924,187.776z"/>
	<path fill-rule="evenodd" clip-rule="evenodd" fill="#CEEBC4" d="M64.358,190.53c-0.063,4.874,3.194,6.433,6.19,8.249
		c-2.991,0.686-7.358-3.173-6.877-8.249C63.901,190.53,64.129,190.53,64.358,190.53z"/>
	<path fill-rule="evenodd" clip-rule="evenodd" fill="#CEEBC4" d="M122.125,154.08c4.211-1.749,7.637-4.287,11.691-6.19
		c0.308,0.613,0.604,1.231,1.376,1.377c0.297,1.31,1.483,1.729,1.377,3.437c-1.74-0.549-1.757-2.829-2.753-4.125
		C130.273,150.316,125.779,154.74,122.125,154.08z"/>
	<path fill-rule="evenodd" clip-rule="evenodd" fill="#CEEBC4" d="M146.195,171.272c0,0.688,0,1.377,0,2.065
		c0.392-0.639-5.288-10.572-2.751-8.943C144.242,166.81,146.15,168.11,146.195,171.272z"/>
	<path fill-rule="evenodd" clip-rule="evenodd" fill="#CEEBC4" d="M147.572,180.901c0.146,5.355,1.937,9.063,8.249,8.252
		c-4.058,3.476-10.012-2.107-8.938-8.252C147.113,180.901,147.343,180.901,147.572,180.901z"/>
	<path fill-rule="evenodd" clip-rule="evenodd" fill="#CEEBC4" d="M159.264,176.773c-1.813-0.71-2.317-2.726-4.128-3.436
		c-7.356-3.188-10.787-10.304-14.441-17.193C145.742,164.159,151.993,170.979,159.264,176.773z"/>
	<path fill-rule="evenodd" clip-rule="evenodd" fill="#CEEBC4" d="M161.326,131.386c-4.419,0.291-6.467-1.785-10.317-2.062
		c-4.147,5.712-7.368,12.344-13.754,15.818c4.69-5.171,9.68-10.034,13.065-16.507c3.582-0.372,5.099,1.321,8.255,1.374
		C158.083,131.878,161.815,129.52,161.326,131.386z"/>
	<path fill-rule="evenodd" clip-rule="evenodd" fill="#CEEBC4" d="M195.022,136.887c1.371,4.763-7.021,8.468-10.317,3.439
		c0.309-0.999,0.604,0.07,1.377,0c2.16-0.324,1.819,1.85,3.439,2.062C192.607,141.807,193.761,139.294,195.022,136.887z"/>
	<path fill-rule="evenodd" clip-rule="evenodd" fill="#CEEBC4" d="M191.584,123.822c-0.229,0-0.459,0-0.688,0
		c1.838-3.484,8.3,0.4,5.501,3.438c0.106-1.712-1.08-2.129-1.374-3.438C193.878,123.822,192.73,123.822,191.584,123.822z"/>
	<path fill-rule="evenodd" clip-rule="evenodd" fill="#CEEBC4" d="M159.264,125.196c1.746-0.801,6.794,0.979,8.249,2.753
		c-2.552-0.425-4.32-1.64-6.875-2.064C159.946,125.887,159.817,125.327,159.264,125.196z"/>
	<path fill-rule="evenodd" clip-rule="evenodd" fill="#CEEBC4" d="M177.83,89.437c-0.73-7.533,8.529-12.767,9.629-3.439
		c-0.229,0-0.459,0-0.688,0c-0.772-1.749-1.69-3.354-2.751-4.814c-3.663,0.924-4.689,4.48-5.501,8.254
		C178.289,89.437,178.06,89.437,177.83,89.437z"/>
	<path fill-rule="evenodd" clip-rule="evenodd" fill="#CEEBC4" d="M153.073,68.118c-0.554,1.739-2.831,1.753-4.127,2.75
		c-0.179,2.014,1.556,2.113,1.374,4.126c-1.855-0.206-1.231-2.894-2.748-3.439C148.888,69.891,150.617,68.643,153.073,68.118z"/>
	<path fill-rule="evenodd" clip-rule="evenodd" fill="#CEEBC4" d="M182.646,51.612c0.244,0.887-10.258,6.603-8.943,4.126
		c2.435-1.462,5.519-2.278,7.567-4.126C181.728,51.612,182.187,51.612,182.646,51.612z"/>
	<path fill-rule="evenodd" clip-rule="evenodd" fill="#CEEBC4" d="M192.96,44.047c-2.168-2.875-5.681-4.406-8.94-6.188
		C186.944,36.191,195.49,44.725,192.96,44.047z"/>
	<path fill-rule="evenodd" clip-rule="evenodd" fill="#CEEBC4" d="M160.638,57.802c-0.229,0-0.459,0-0.686,0
		c1.268-2.008,13.141-5.145,15.815-10.316C175.443,53.09,165.845,54.84,160.638,57.802z"/>
	<path fill-rule="evenodd" clip-rule="evenodd" fill="#CEEBC4" d="M133.816,56.427c4.852,1.797,7.085,6.212,11.002,8.939
		c3.378-1.082,11.694-7.109,11.691-4.813c-1.503,1.017-3.699,1.34-4.812,2.75c-2.553,0.43-4.027,1.934-6.19,2.75
		c-0.459,0-0.918,0-1.374,0c-2.006-2.58-4.295-4.873-6.878-6.876c-2.157,0.325-1.816-1.851-3.438-2.064
		C133.816,56.884,133.816,56.655,133.816,56.427z"/>
	<path fill-rule="evenodd" clip-rule="evenodd" fill="#CEEBC4" d="M137.943,29.605c2.692-0.399,3.993,0.592,5.501,1.375
		c-0.311,4.742-7.026,6.716-8.252,8.253c0.112-3.557,4.724-2.614,5.502-5.501c1.524,0.378,0.979-1.314,2.064-1.377
		c-0.626-1.665-2.765-1.82-4.815-2.062C137.943,30.064,137.943,29.835,137.943,29.605z"/>
	<path fill-rule="evenodd" clip-rule="evenodd" fill="#CEEBC4" d="M131.754,41.985c0.092,4.448-1.173,7.539-1.374,11.691
		c-3.638-0.26-5.373-2.423-8.255-3.439c1.902-1.633,4.203,2.188,6.878,2.063c1.704-3.559,2.896-13.591-1.377-15.13
		c2.328-0.033,2.983,1.602,4.128,2.751C131.754,40.61,131.754,41.297,131.754,41.985z"/>
	<path fill-rule="evenodd" clip-rule="evenodd" fill="#CEEBC4" d="M97.368,44.736c0.478,1.604,10.899-0.826,12.38,2.062
		C106.544,45.189,99.191,47.726,97.368,44.736z"/>
	<path fill-rule="evenodd" clip-rule="evenodd" fill="#CEEBC4" d="M74.674,1.41c4.4-3.815,11.055,1.067,11.003,6.189
		C83.839,3.884,80.249-0.792,74.674,1.41z"/>
	<path fill-rule="evenodd" clip-rule="evenodd" fill="#38D80C" d="M74.674,1.41c5.574-2.202,9.165,2.474,11.003,6.189
		c1.104,6.002,3.258,10.956,4.814,16.504C84.134,17.625,85.05,3.873,69.86,6.225C70.975,4.13,71.979,1.923,74.674,1.41z"/>
	<path fill-rule="evenodd" clip-rule="evenodd" fill="#38D80C" d="M88.429,33.044c0-0.229,0-0.459,0-0.688
		c0.662,2.502,5.167,3.067,4.126-1.375c2.233,3.957,3.105,9.275,4.813,13.755c1.823,2.99,9.176,0.453,12.38,2.062
		c5.255,0.019,8.588,1.959,12.377,3.439c2.882,1.016,4.617,3.179,8.255,3.439c0.201-4.153,1.466-7.243,1.374-11.691
		c0.92,0.868,1.352,2.067,2.75,0.687c-0.017,4.214-3.979,10.686-0.688,13.755c0,0.228,0,0.458,0,0.687
		c1.622,0.213,1.281,2.389,3.438,2.064c2.007,2.58,4.296,4.872,6.878,6.876c0.456,0,0.915,0,1.374,0
		c-2.597,1.453-6.234-3.877-8.938-5.501c-10.488-6.302-46.229-12.429-59.144-2.751c-2.17,0.336-2.429-1.24-4.813-0.688
		c-2.194,5.601-6.799,8.791-9.629,13.755c0.815,0.989,6.714-2.401,8.94,0c-4.926-0.343-8.672,0.497-11.003,2.751
		c-0.229,0-0.459,0-0.688,0c-2.202,1.922-4.872,3.38-5.501,6.876c-1.357,0.478,0.169,3.837-1.375,4.126c0-0.688,0-1.375,0-2.064
		c-8.079,12.704-5.937,37.5,2.063,48.139c6.053,8.054,14.594,11.138,19.255,17.881c5.388,1.489,8.827,4.928,12.378,8.255
		c-4.402-1.103-8.406-2.597-11.69-4.815c-4.004-1.497-6.458-4.547-10.316-6.189c-2.234-2.81-4.756-5.331-7.565-7.564
		c-0.991,0.387-1.678,1.072-2.062,2.062c-4.515,2.135-7.207,6.092-11.004,8.94c-3.267,2.692-6.247,5.672-8.94,8.94
		c-0.557,0.132-0.684,0.691-1.375,0.686c-3.267,2.695-6.248,5.675-8.939,8.943c0.137,2.611,0.609,4.892,1.375,6.875
		c-0.229,0-0.459,0-0.688,0c-1.161-2.602-10.292,3.487-7.565,4.816c-2.523,0.229-3.527-1.058-4.126-2.754
		c-0.301-2.361,0.272-3.853,0.688-5.501c13.587-11.856,28.559-22.33,40.575-35.762c-2.406-4.011-4.918-7.92-6.878-12.377
		c-1.48-3.792-3.421-7.122-3.438-12.377c0-0.229,0-0.459,0-0.688c-5.044,0-10.086,0-15.13,0c-0.116-1.494,2.44-0.313,3.439-0.688
		c0.193-1.11-0.651-1.184-0.688-2.064c0-0.229,0-0.457,0-0.687c3.668,0,7.335,0,11.004,0c2.057-2.963,0.704-5.521,0.687-9.628
		c1.528-6.037,1.861-13.27,4.814-17.879c3.347-2.393-0.463-5.354-3.439-5.501c-0.554-0.592-1.883-0.409-2.062-1.375
		c3.212-0.047-0.806-1.573-0.688-2.75c3.379,0.839,9.191,7.264,11.004,1.375c0-0.229,0-0.458,0-0.688c0.228,0,0.458,0,0.687,0
		c0.008-1.367,1.876-0.875,1.375-2.751c2.414-2.639,7.995-5.746,7.565-8.94c-0.179-2.113-1.493-3.092-2.063-4.813
		c3.144,0.022,0.036-2.414,0.688-4.127c0.584-0.126,0.647,0.269,0.687,0.688c0.345,2.864,2.406,4.013,2.75,6.876
		c2.915,0.163,3.497-2.006,5.503-2.75c5.647-4.21,12.981-6.731,21.318-8.252c0.059-0.977,0.114-1.948-0.688-2.064
		C91.691,39.411,89.601,36.688,88.429,33.044z"/>
	<path fill-rule="evenodd" clip-rule="evenodd" fill="#38D80C" d="M127.626,37.17c-2.132-1.307-3.855-3.019-3.437-6.876
		c1.377,0,2.751,0,4.125,0c3.21,0,6.419,0,9.629,0c2.051,0.242,4.189,0.397,4.815,2.062c-1.085,0.063-0.54,1.755-2.064,1.377
		c-3.174-1.547-8.532,0.621-11.003,2.062c-0.372,2.436,2.435,1.691,2.062,4.126C130.609,38.772,129.954,37.137,127.626,37.17z"/>
	<path fill-rule="evenodd" clip-rule="evenodd" fill="#ABE251" d="M137.255,59.178c2.583,2.003,4.872,4.297,6.878,6.876
		C141.551,64.049,139.262,61.758,137.255,59.178z"/>
	<path fill-rule="evenodd" clip-rule="evenodd" fill="#1FAF01" d="M82.24,83.247c0.464-0.165,0.806,0.319,0.687,0.687
		c2.156-6.699-2.99-24.124-9.628-26.132c-2.049,4.995,4.505,12.774,6.19,18.568c-2.561-1.796-4.203-4.508-7.565-5.501
		c-2.226-2.401-8.125,0.989-8.94,0c2.83-4.964,7.435-8.154,9.629-13.755c2.384-0.551,2.643,1.024,4.813,0.688
		c12.915-9.678,48.656-3.551,59.144,2.751c2.703,1.624,6.341,6.954,8.938,5.501c2.163-0.817,3.638-2.321,6.19-2.75
		c8.714-3.842,18.082-6.167,25.447-11.003c4.97-3.266,8.806-10.19,15.815-8.253c2.925,6.274-7.925,4.352-10.314,7.565
		c-0.459,0-0.918,0-1.376,0c-2.866,1.033-5.843,1.952-7.567,4.126c-6.76,4.242-14.489,7.515-20.629,12.379
		c-2.456,0.524-4.186,1.772-5.501,3.438c1.517,0.546,0.893,3.233,2.748,3.439c2.306,5.947,4.491,12.014,6.189,18.568
		c6.845-0.722,13.583-1.547,19.258-3.439c3.819-0.536,6.425-2.285,9.626-3.438c0.904,0.242,1.083,1.21,2.065,1.375
		c0.898,2.535,2.563,5.622,1.374,8.252c-7.889-7.104-21.508-2.176-32.323-0.688c0,0.918,0,1.834,0,2.751c0,2.522,0,5.044,0,7.565
		c-0.05,6.595-1.746,11.548-3.437,16.507c1.483,1.491,4.013,1.941,6.19,2.748c0.554,0.131,0.683,0.69,1.374,0.688
		c-0.451,2.516,1.488,2.639,1.374,4.812c-0.795-0.576-1.842-0.906-3.437-0.688c-3.156-0.053-4.673-1.746-8.255-1.374
		c-3.386,6.473-8.375,11.336-13.065,16.507c-2.768-0.621-1.268,4.839-3.438,2.748c-4.055,1.903-7.48,4.441-11.691,6.19
		c-4.268,1.919-9.671,2.706-14.439,4.127c-4.365,0.451-10.535-0.906-13.755,0.686c-1.494,1.489-1.946,4.019-2.75,6.19
		c-0.554,0.363-1.117,0.719-2.064,0.688c-0.912-1.149-1.822-2.306-1.375-4.812c-0.085-1.147,2.228-4.377-0.688-4.125
		c-3.551-3.327-6.99-6.766-12.378-8.255c-4.661-6.743-13.202-9.827-19.255-17.881c-8-10.639-10.142-35.435-2.063-48.139
		c0,0.688,0,1.375,0,2.064C51.785,106.072,86.928,103.806,82.24,83.247z M153.762,114.193c-2.18,9.514-8.573,18.474-11.69,24.759
		c4.919-3.104,3.92-12.128,13.064-11.003c-0.153-1.304,0.775-1.52,0.686-2.753c-1.004-1.285-3.771-0.812-3.436-3.437
		C152.782,119.605,155.587,116.289,153.762,114.193z M95.306,88.749c7.507-4.412,17.025-6.817,22.005-13.753
		C108.069,74.96,101.033,82.985,95.306,88.749z M100.808,88.749c-0.535,0.154-1.357,0.02-1.375,0.688
		c-15.789,3.777-12.069,27.784,3.438,28.195c9.528,0.252,18.32-8.644,13.753-20.631c-0.036-0.878-0.878-0.951-0.688-2.062
		c-2.193-2.388-3.766-5.4-7.561-6.189c-0.229,0-0.459,0-0.688,0C106.941,87.611,101.549,87.611,100.808,88.749z M61.608,116.258
		c-1.591-0.005-3.674-5.327-4.126-2.064c-0.643,0.201-0.643,1.86,0,2.064c0,0.459,0,0.915,0,1.374
		c-0.938,0.138,0.513,4.338,2.063,6.876c4.256,6.976,18.952,24.258,24.756,24.07c4.74-0.15,8.274-5.146,11.004-11.691
		c0.115-1.947,1.261-2.865,1.375-4.812c0.052-1.197-0.154-2.138-0.688-2.751c-2.852-0.789-2.68,1.447-4.813,1.374
		C78.622,129.041,69.625,120.165,61.608,116.258z"/>
	<path fill-rule="evenodd" clip-rule="evenodd" fill="#ABE251" d="M54.731,80.496c0.63-3.496,3.299-4.954,5.501-6.876
		C58.443,75.955,56.203,77.842,54.731,80.496z"/>
	<path fill-rule="evenodd" clip-rule="evenodd" fill="#ABE251" d="M65.047,145.828c-3.261-1.783-4.424-5.661-8.252-6.876
		c-0.146,0.77-0.764,1.069-1.375,1.374c0.385-0.99,1.072-1.676,2.062-2.062C60.291,140.497,62.812,143.019,65.047,145.828z"/>
	<path fill-rule="evenodd" clip-rule="evenodd" fill="#ABE251" d="M35.475,158.207c2.693-3.269,5.674-6.248,8.94-8.94
		C41.723,152.535,38.743,155.513,35.475,158.207z"/>
	<path fill-rule="evenodd" clip-rule="evenodd" fill="#ABE251" d="M25.16,167.836c2.692-3.269,5.672-6.248,8.939-8.943
		C31.407,162.161,28.427,165.142,25.16,167.836z"/>
	<path fill-rule="evenodd" clip-rule="evenodd" fill="#ABE251" d="M49.229,79.121c1.039-2.137,0.826-4.223-2.063-4.126
		c-0.007-0.91-1.205-0.63-1.375-1.375C48.767,73.767,52.576,76.729,49.229,79.121z"/>
	<path fill-rule="evenodd" clip-rule="evenodd" fill="#ABE251" d="M54.044,70.869c-1.813,5.889-7.625-0.536-11.004-1.375
		c-1.296-0.998-3.574-1.012-4.126-2.752c4.437,1.983,8.246,4.592,13.066,6.19C53.279,72.855,52.458,70.658,54.044,70.869z"/>
	<path fill-rule="evenodd" clip-rule="evenodd" fill="#ABE251" d="M56.106,67.43c2.011-3.491,6.123-4.88,7.565-8.94
		C64.101,61.684,58.52,64.791,56.106,67.43z"/>
	<path fill-rule="evenodd" clip-rule="evenodd" fill="#1FAF01" d="M44.415,33.044c8.345-0.32,10.317,5.729,14.442,9.627
		c0.619,2.821,2.104,4.774,3.439,6.877c-0.652,1.714,2.456,4.15-0.688,4.127c-2.713-3.707-4.199-8.64-7.564-11.691
		c0.105-1.711-1.082-2.129-1.376-3.439c-2.292,0-4.583,0-6.877,0C42.305,38.557,42.869,34.737,44.415,33.044z"/>
	<path fill-rule="evenodd" clip-rule="evenodd" fill="#38D80C" d="M175.768,47.486c-0.772-3.208-1.41-8.782,0.688-11.003
		c2.703-1.382,5.062,0.598,7.563,1.375c3.26,1.783,6.772,3.313,8.94,6.188c-7.01-1.937-10.846,4.988-15.815,8.253
		c-7.365,4.835-16.733,7.161-25.447,11.003c1.113-1.41,3.31-1.733,4.812-2.75c1.299-0.998,3.576-1.012,4.128-2.751
		C165.845,54.84,175.443,53.09,175.768,47.486z"/>
	<path fill-rule="evenodd" clip-rule="evenodd" fill="#38D80C" d="M56.795,37.17c-0.16,2.681,1.478,3.566,2.062,5.501
		c-4.125-3.898-6.097-9.948-14.442-9.627C47.682,27.958,56.714,31.14,56.795,37.17z"/>
	<path fill-rule="evenodd" clip-rule="evenodd" fill="#38D80C" d="M173.702,55.739c1.725-2.174,4.701-3.094,7.567-4.126
		C179.221,53.461,176.137,54.276,173.702,55.739z"/>
	<path fill-rule="evenodd" clip-rule="evenodd" fill="#38D80C" d="M177.83,89.437c0.229,0,0.459,0,0.688,0
		c0.812-3.774,1.838-7.33,5.501-8.254c1.061,1.461,1.979,3.066,2.751,4.814c-0.196,1.111,0.649,1.184,0.688,2.064
		c-0.982-0.165-1.161-1.133-2.065-1.375c-3.201,1.153-5.807,2.902-9.626,3.438C175.88,89.318,177.021,89.544,177.83,89.437z"/>
	<path fill-rule="evenodd" clip-rule="evenodd" fill="#163B0C" d="M152.386,121.76c-0.336,2.625,2.432,2.151,3.436,3.437
		c0.09,1.233-0.839,1.449-0.686,2.753c-9.145-1.125-8.146,7.899-13.064,11.003c3.117-6.285,9.511-15.245,11.69-24.759
		C155.587,116.289,152.782,119.605,152.386,121.76z"/>
	<path fill-rule="evenodd" clip-rule="evenodd" fill="#38D80C" d="M27.911,56.427c5.174-0.361,6.731,2.896,8.252,6.188
		c0.845,1.219,0.502,3.625,2.064,4.126c-2.156,0.322-1.939-1.728-2.752-2.75c-2.317,0.524-9.534-1.266-7.563,1.375
		c-2.626-0.582-3.311-3.109-4.126-5.501C24.577,58.135,26.663,57.702,27.911,56.427z"/>
	<path fill-rule="evenodd" clip-rule="evenodd" fill="#ABE251" d="M60.921,73.62c2.331-2.254,6.077-3.094,11.003-2.751
		c3.362,0.994,5.004,3.705,7.565,5.501c0,0.229,0,0.458,0,0.687c-2.605-0.608-0.35,3.484-0.688,4.814
		C75.279,95.744,53.29,88.326,60.921,73.62z M68.484,73.62c-2.997-3.636-6.732,2.226-2.75,4.126c-0.812-0.099-1.559-1.224-2.062,0
		c0.905,2.532,2.857,4.019,6.877,3.438c2.882-2.126,2.667-8.308-2.064-8.252C68.484,73.161,68.484,73.39,68.484,73.62z"/>
	<path fill-rule="evenodd" clip-rule="evenodd" fill="#CEEBC4" d="M65.734,77.746c-3.982-1.9-0.246-7.762,2.75-4.126
		c0.132,0.557,0.691,0.686,0.688,1.375C69.044,76.929,67.977,77.925,65.734,77.746z M64.358,75.682
		c1.069,0.83,2.681,2.198,4.126,0.688C69.149,72.454,64.273,72.009,64.358,75.682z"/>
	<path fill-rule="evenodd" clip-rule="evenodd" fill="#38D80C" d="M108.374,88.749c3.795,0.789,5.367,3.801,7.561,6.189
		C113.311,92.978,111.359,90.345,108.374,88.749z"/>
	<path fill-rule="evenodd" clip-rule="evenodd" fill="#ABE251" d="M99.432,89.437c0.018-0.669,0.841-0.535,1.375-0.688
		c2.292,0,4.583,0,6.878,0c0.229,0,0.459,0,0.688,0c2.985,1.596,4.937,4.229,7.561,6.189c-0.189,1.111,0.652,1.184,0.688,2.062
		c-0.845-0.299-1.41-0.88-1.374-2.062c3.736,14.196-22.166,18.743-19.256,0C96.346,92.949,102.063,89.931,99.432,89.437z
		 M102.185,90.812c-0.229,0-0.459,0-0.688,0c-1.886,0.014-1.634,3.243-0.688,4.126c-2.609,4.277,5.558,6.448,7.566,2.751
		c0.177-3.387,0.263-6.684-3.441-6.19C104.018,91.603,102.858,88.704,102.185,90.812z"/>
	<path fill-rule="evenodd" clip-rule="evenodd" fill="#CEEBC4" d="M116.623,97c4.567,11.988-4.225,20.883-13.753,20.631
		c-15.507-0.411-19.227-24.417-3.438-28.195c2.631,0.494-3.086,3.512-3.439,5.501c-2.91,18.743,22.992,14.196,19.256,0
		C115.213,96.121,115.778,96.701,116.623,97z"/>
	<path fill-rule="evenodd" clip-rule="evenodd" fill="#CEEBC4" d="M102.185,90.812c0.674-2.108,1.833,0.791,2.748,0.687
		c1.729,2.451-1.473,5.577-4.125,3.439c-0.946-0.883-1.198-4.112,0.688-4.126c-1.06,1.047-1.226,4.715,1.374,4.126
		c1.886-0.014,1.634-3.245,0.688-4.126C103.1,90.812,102.644,90.812,102.185,90.812z"/>
	<path fill-rule="evenodd" clip-rule="evenodd" fill="#ABE251" d="M18.282,111.442c1.147-2.751,7.014-0.78,10.316-1.374
		c0.459,0,0.917,0,1.375,0c5.044,0,10.086,0,15.13,0c0,0.229,0,0.459,0,0.688c-6.419,0-12.837,0-19.256,0
		C23.32,110.98,19.76,110.169,18.282,111.442z"/>
	<path fill-rule="evenodd" clip-rule="evenodd" fill="#1FAF01" d="M17.595,112.816c0,0.459,0,0.918,0,1.377
		c-1.373,2.064-1.382,5.496-5.501,4.812c-1.454-2.439-4.172-3.621-4.814-6.875C10.717,111.837,16.262,108.72,17.595,112.816z
		 M15.531,116.258c-1.424,0.409-4.518-0.851-4.813,0.686C11.534,118.236,15.854,119.558,15.531,116.258z"/>
	<path fill-rule="evenodd" clip-rule="evenodd" fill="#163B0C" d="M57.482,117.632c0.806,1.027,0.855,2.812,2.063,3.439
		c0.242,0.901,1.21,1.08,1.375,2.062c6.561,5.269,21.363,36.509,32.321,16.507c1.225-0.507,0.1-1.254,0-2.065
		c0.947,0.028,1.51-0.324,2.064-0.688c-2.73,6.546-6.264,11.541-11.004,11.691c-5.805,0.188-20.5-17.095-24.756-24.07
		C57.995,121.97,56.544,117.77,57.482,117.632z"/>
	<path fill-rule="evenodd" clip-rule="evenodd" fill="#163B0C" d="M72.612,125.196c-3.638-3.012-7.574-5.72-11.004-8.938
		c8.017,3.907,17.014,12.783,29.572,14.439C82.323,131.531,77.709,128.123,72.612,125.196z"/>
	<path fill-rule="evenodd" clip-rule="evenodd" fill="#ABE251" d="M57.482,114.193c6.134,5.099,11.059,11.405,17.192,16.504
		c-5.886-1.908-10.959-10.583-17.192-14.439C56.839,116.054,56.839,114.395,57.482,114.193z"/>
	<path fill-rule="evenodd" clip-rule="evenodd" fill="#CEEBC4" d="M85.677,138.264c2.288,0.691,7.481-1.522,7.565,1.377
		c-10.958,20.002-25.761-11.238-32.321-16.507c8.53,4.911,19.901,34.338,31.634,16.507
		C91.814,137.632,86.419,140.273,85.677,138.264z"/>
	<path fill-rule="evenodd" clip-rule="evenodd" fill="#FFFFFF" d="M60.921,123.134c-0.165-0.982-1.133-1.161-1.375-2.062
		c-0.095-1.281-0.453-2.3-1.375-2.754c6.873,2.76,11.609,13.605,21.319,15.819c3.098,0.111,2.163,4.256,5.501,4.127
		c0.229,0,0.459,0,0.687,0c0.742,2.01,6.137-0.632,6.878,1.377C80.822,157.472,69.451,128.045,60.921,123.134z"/>
	<path fill-rule="evenodd" clip-rule="evenodd" fill="#FFFFFF" d="M72.612,125.196c5.097,2.927,9.711,6.335,18.568,5.501
		c2.133,0.073,1.961-2.163,4.813-1.374c0.534,0.613,0.74,1.554,0.688,2.751c-1.93,0.593-1.464,3.582-2.751,4.812
		c-12.161-1.365-19.616-7.432-26.821-13.753C68.795,121.272,70.225,125.481,72.612,125.196z"/>
	<path fill-rule="evenodd" clip-rule="evenodd" fill="#CEEBC4" d="M96.682,132.074c-0.115,1.947-1.261,2.865-1.375,4.812
		c-0.554,0.364-1.117,0.717-2.064,0.688c-1.712-2.183-8.928,1.137-9.627-2.064c-1.864,0.624,1.573,1.539,1.375,2.753
		c-3.338,0.129-2.404-4.016-5.501-4.127c-9.71-2.214-14.446-13.06-21.319-15.819c0.922,0.454,1.28,1.473,1.375,2.754
		c-1.208-0.627-1.258-2.412-2.063-3.439c0-0.459,0-0.915,0-1.374c6.233,3.856,11.306,12.531,17.192,14.439
		c-6.134-5.099-11.059-11.405-17.192-16.504c0.452-3.263,2.535,2.06,4.126,2.064c3.431,3.219,7.366,5.927,11.004,8.938
		c-2.387,0.285-3.817-3.924-5.503-2.062c7.206,6.321,14.66,12.388,26.821,13.753C95.218,135.656,94.752,132.667,96.682,132.074z"/>
	<path fill-rule="evenodd" clip-rule="evenodd" fill="#38D80C" d="M161.326,131.386c0.489-1.866-3.243,0.492-2.751-1.377
		c1.595-0.218,2.642,0.112,3.437,0.688c0.114-2.174-1.825-2.297-1.374-4.812c2.555,0.425,4.323,1.64,6.875,2.064
		c4.606,0.666,7.841,2.703,12.38,3.437c4.097-2.322,7.096-5.742,11.691-7.563c1.146,0,2.294,0,3.438,0
		c0.294,1.31,1.48,1.727,1.374,3.438c-0.431,2.088,0.882,5.922-0.686,6.876c-1.601-5.238-16.814-0.003-24.756-1.374
		c0.437,1.394,3.212,0.453,3.436,2.062C169.74,133.977,166.293,131.917,161.326,131.386z"/>
	<path fill-rule="evenodd" clip-rule="evenodd" fill="#ABE251" d="M84.99,138.264c0.197-1.214-3.239-2.129-1.375-2.753
		c0.7,3.201,7.915-0.118,9.627,2.064c0.1,0.812,1.225,1.559,0,2.065c-0.084-2.899-5.277-0.686-7.565-1.377
		C85.449,138.264,85.22,138.264,84.99,138.264z"/>
	<path fill-rule="evenodd" clip-rule="evenodd" fill="#1FAF01" d="M135.192,149.267c1.287-1.466,2.149,3.313,3.437,4.125
		c0,0.229,0,0.459,0,0.688c-0.979-0.163-1.158-1.131-2.06-1.377C136.676,150.996,135.489,150.576,135.192,149.267z"/>
	<path fill-rule="evenodd" clip-rule="evenodd" fill="#38D80C" d="M143.444,164.395c-1.785-4.402-4.874-7.503-6.875-11.691
		c0.901,0.246,1.08,1.214,2.06,1.377c0-0.229,0-0.459,0-0.688c0.932,0.677,1.377,1.835,2.065,2.753
		c3.654,6.89,7.085,14.006,14.441,17.193c1.752,2.143,3.744,4.046,4.816,6.875c-0.028,2.499,0.383,5.429-1.377,6.189
		c-1.587-6.209-7.539-8.051-11.003-12.377c0,2.289,0,4.584,0,6.876c-0.229,0-0.459,0-0.688,0c-0.442-2.997,0.896-7.773-0.688-9.629
		C146.15,168.11,144.242,166.81,143.444,164.395z"/>
	<path fill-rule="evenodd" clip-rule="evenodd" fill="#ABE251" d="M155.136,173.338c1.811,0.71,2.314,2.726,4.128,3.436
		c-0.283,1.657,1.254,1.494,0.688,3.439C158.88,177.384,156.888,175.48,155.136,173.338z"/>
	<path fill-rule="evenodd" clip-rule="evenodd" fill="#38D80C" d="M78.113,184.34c3.558-7.443,6.572-15.435,9.627-23.382
		c-0.446,2.507,0.463,3.663,1.375,4.812c0.947,0.031,1.51-0.324,2.064-0.688c-2.155,5.87-4.382,11.666-6.878,17.192
		c-0.227-2.519,0.764-3.82,1.375-5.502c0.917,1.145-14.623,19.023-13.753,21.32c0.653,1.727,3.494,0.07,4.126,0.686
		c-0.944,1.774-4.213,0.154-5.501,0c-2.996-1.816-6.253-3.375-6.19-8.249c0-0.229,0-0.459,0-0.688
		c1.598-1.612,5.564-0.856,7.565-2.065c1.604,0,3.209,0,4.814,0C77.033,186.467,78.22,186.05,78.113,184.34z"/>
	<path fill-rule="evenodd" clip-rule="evenodd" fill="#1FAF01" d="M76.05,198.779c-0.632-0.615-3.473,1.041-4.126-0.686
		c-0.869-2.297,14.67-20.176,13.753-21.32c-0.611,1.682-1.602,2.983-1.375,5.502C80.824,187.049,82.016,196.496,76.05,198.779z"/>
	<path fill-rule="evenodd" clip-rule="evenodd" fill="#1FAF01" d="M25.847,174.711c0.588,3.339-1.598,3.904-3.438,4.816
		c-1.375,0-2.751,0-4.127,0C15.555,178.198,24.686,172.109,25.847,174.711z"/>
	<path fill-rule="evenodd" clip-rule="evenodd" fill="#1FAF01" d="M158.575,186.402c-0.621,1.212-1.539,2.13-2.754,2.751
		c-6.312,0.812-8.104-2.896-8.249-8.252c0-2.292,0-4.587,0-6.876C151.036,178.352,156.988,180.193,158.575,186.402z"/>
	<path fill-rule="evenodd" clip-rule="evenodd" fill="#1FAF01" d="M69.86,6.225c15.19-2.352,14.274,11.4,20.632,17.879
		c0.181,2.8,1.294,4.666,2.063,6.877c1.041,4.442-3.464,3.877-4.126,1.375c-2.018-4.629-3.3-9.995-5.502-14.44
		c-0.226-1.607-0.826-2.841-1.375-4.127c-1.146,0-2.292,0-3.438,0C74.485,12.476,67.163,11.615,69.86,6.225z"/>
	<path fill-rule="evenodd" clip-rule="evenodd" fill="#1FAF01" d="M140.694,33.733c-0.778,2.888-5.39,1.945-5.502,5.501
		c-1.491-0.116-0.313,2.438-0.688,3.438c-1.398,1.38-1.83,0.181-2.75-0.687c0-0.688,0-1.375,0-2.063
		c0.372-2.435-2.435-1.69-2.062-4.126C132.162,34.354,137.521,32.186,140.694,33.733z"/>
	<path fill-rule="evenodd" clip-rule="evenodd" fill="#1FAF01" d="M38.227,66.741c0.228,0,0.458,0.001,0.687,0
		c0.552,1.741,2.83,1.755,4.126,2.752c-0.118,1.178,3.901,2.703,0.688,2.75c-1.234,0.087-1.451-0.842-2.751-0.688
		c-3.801-2.618-9.341-3.498-13.066-6.189c-1.97-2.642,5.247-0.851,7.563-1.375C36.288,65.014,36.071,67.063,38.227,66.741z"/>
	<path fill-rule="evenodd" clip-rule="evenodd" fill="#163B0C" d="M65.734,77.746c2.243,0.179,3.311-0.817,3.439-2.75
		c0.003-0.69-0.557-0.819-0.688-1.375c0-0.229,0-0.459,0-0.688c4.73-0.056,4.946,6.125,2.064,8.252
		c-4.02,0.581-5.972-0.905-6.877-3.438C64.175,76.521,64.922,77.646,65.734,77.746z"/>
	<path fill-rule="evenodd" clip-rule="evenodd" fill="#CEEBC4" d="M79.489,77.057c0.817,2.163,2.321,3.639,2.751,6.19
		c4.688,20.559-30.455,22.825-28.884,1.375c1.544-0.29,0.018-3.649,1.375-4.126c1.472-2.654,3.712-4.542,5.501-6.876
		c0.229,0,0.459,0,0.688,0C53.29,88.326,75.279,95.744,78.8,81.872C79.139,80.541,76.884,76.449,79.489,77.057z"/>
	<path fill-rule="evenodd" clip-rule="evenodd" fill="#163B0C" d="M82.24,83.247c-0.43-2.551-1.934-4.027-2.751-6.19
		c0-0.229,0-0.458,0-0.687c-1.685-5.793-8.239-13.573-6.19-18.568c6.638,2.008,11.784,19.433,9.628,26.132
		C83.045,83.566,82.704,83.082,82.24,83.247z"/>
	<path fill-rule="evenodd" clip-rule="evenodd" fill="#CEEBC4" d="M44.415,97c0.017,4.107,1.37,6.666-0.687,9.628
		c-3.669,0-7.336,0-11.004,0c-2.062,0-4.126,0-6.188,0c4.273-1.916,12.865,0.487,17.193-1.373
		C43.745,102.922,43.456,91.814,44.415,97z"/>
	<path fill-rule="evenodd" clip-rule="evenodd" fill="#38D80C" d="M7.968,105.941c1.943-0.568,1.781,0.971,3.438,0.688
		c1.178,1.573,5.25,0.252,7.565,0.687c1.146,0,2.292,0,3.439,0c2.062,0,4.126,0,6.188,0c-0.622,1.443-3.881,0.246-4.126,2.064
		c1.208,0.395,4.041-0.831,4.126,0.688c-3.302,0.594-9.168-1.377-10.316,1.374c0.112,0.801-0.151,1.223-0.687,1.374
		c-1.333-4.097-6.878-0.979-10.316-0.686C5.628,111.591,4.684,105.406,7.968,105.941z"/>
	<path fill-rule="evenodd" clip-rule="evenodd" fill="#1FAF01" d="M174.391,134.825c-0.224-1.609-2.999-0.669-3.436-2.062
		c7.941,1.371,23.155-3.864,24.756,1.374c0.087,1.233-0.842,1.452-0.688,2.75c-1.262,2.407-2.415,4.92-5.501,5.502
		c-1.62-0.213-1.279-2.387-3.439-2.062C183.284,137.396,178.295,136.652,174.391,134.825z"/>
</g>
</svg>
