<?xml version="1.0" encoding="utf-8"?>
<!-- Generator: Adobe Illustrator 15.0.0, SVG Export Plug-In . SVG Version: 6.00 Build 0)  -->
<!DOCTYPE svg PUBLIC "-//W3C//DTD SVG 1.1//EN" "http://www.w3.org/Graphics/SVG/1.1/DTD/svg11.dtd">
<svg version="1.1" id="Pill_xA0_Image_1_" xmlns="http://www.w3.org/2000/svg" xmlns:xlink="http://www.w3.org/1999/xlink" x="0px"
	 y="0px" width="1254px" height="1098px" viewBox="0 0 1254 1098" enable-background="new 0 0 1254 1098" xml:space="preserve">
<g>
	<path fill-rule="evenodd" clip-rule="evenodd" fill="#C7BFBA" d="M1183,156c-0.032,3.634-2.94,4.393-7,4
		C1175.883,155.517,1180.276,154.948,1183,156z"/>
	<path fill-rule="evenodd" clip-rule="evenodd" fill="#6F5C55" d="M488,217c5.499-0.364,6.83-1.021,12,0c0.89,0.443,1.789,0.878,2,2
		C499.214,217.47,492.442,219.168,488,217z"/>
	<path fill-rule="evenodd" clip-rule="evenodd" fill="#FFFFFF" d="M489,230c0.333,0,0.667,0,1,0c17.473-0.473,28.341,5.659,39,12
		c-6.836,6.28-19.303,1.104-24,4c-0.333,0-0.667,0-1,0c-18.612-4.266-35.146-4.522-55-7C460.683,232.135,474.522,233.486,489,230z"
		/>
	<path fill-rule="evenodd" clip-rule="evenodd" fill="#C7BFBA" d="M541,261c-3.087-1.246-7.844-0.823-8-5
		C536.69,256.441,543.616,257.407,541,261z"/>
	<path fill-rule="evenodd" clip-rule="evenodd" fill="#FFFFFF" d="M397,291c17.87-14.797,36.506-28.827,67-31
		c-2.666,2-7.373,1.961-9,5c-0.333,0-0.667,0-1,0c-26.169,3.498-34.418,24.915-57,32c0-1.667,0-3.333,0-5
		C397,291.667,397,291.333,397,291z"/>
	<path fill-rule="evenodd" clip-rule="evenodd" fill="#C7BFBA" d="M549,264c3.044-0.044,3.889,2.111,6,3
		C554.003,270.915,549.796,266.294,549,264z"/>
	<path fill-rule="evenodd" clip-rule="evenodd" fill="#EC0020" d="M498,265c22.02,1.314,39.098,7.568,55,15
		c12.832,10.295,30.958,12.126,43,22c10.075,8.261,13.335,21.77,24,29c4.119,4.215,7.095,9.571,12,13c0.443,0.89,0.878,1.789,2,2
		c6.506,8.161,13.059,16.275,20,24c5.532,8.467,9.937,18.063,15,27c2.825,6.175,5.289,12.711,9,18c9.983,24.017,20.307,47.693,35,67
		c1.313,3.687,3.323,6.676,6,9c-0.356,5.644-1.229,10.771-2,16c-1.65,0.444-1.65,7.556,0,8c0,0.667,0,1.333,0,2c0,1,0,2,0,3
		c-2.497,4.169-6.878,6.456-9,11c-4.002,2.665-6.57,6.763-9,11c-3.133,4.201-6.556,8.111-9,13c-5.012,4.988-8.914,11.086-12,18
		c-3.008,3.326-4.045,8.622-7,12c-3.835,4.499-7.698,8.968-13,12c-2.38,1.287-4.771,2.562-7,4c-3.289,1.377-6.711,2.623-10,4
		c-5.547,3.12-12.745,4.588-18,8c-15.326,3.674-25.844,12.156-40,17c-4.609,3.01-7.391-8.01-12-5c-1.376-0.043-2.196,0.471-3,1
		c-4.327,0.007-6.345,2.321-11,2c-12.745,2.872-20.142,5.148-34,3c-10.055-1.611-22.06-1.273-31-4c-3.53-1.137-6.234-3.099-11-3
		c-4.224-3.109-10.715-3.951-15-7c-1.5-1.167-2.445-2.889-5-3c-2.955-2.712-4.844-6.489-6-11c2.582-5.084-3.308-7.203-6-10
		c-3.793-6.874-8.464-12.869-14-18c-0.19-0.81-1.003-0.997-1-2c-5.729-7.604-9.99-16.677-15-25c-3.782-12.218-10.662-21.338-16-32
		c-1.171-1.496-1.243-4.09-3-5c-0.325-3.675-2.467-5.533-3-9c-0.914-1.753-0.344-4.99-2-6c-0.553-8.113-3.66-13.673-6-20
		c-4.346-9.987-6.21-22.457-9-34c-0.422-10.912-3.754-18.912-6-28c-3.942-11.012-5.287-27.841-3-42c2.245-7.088,3.371-15.296,5-23
		c0.872-4.128,1.796-8.204,3-12c1.413-4.92,4.226-8.441,6-13c1.714-1.286,3.932-2.068,4-5c2.039-0.294,1.961-2.706,4-3
		c4.295-4.039,9.82-6.846,14-11c8.645-4.688,17.122-9.544,24-16c3.901-1.433,7.144-3.522,10-6c2.555-0.445,4.598-1.402,6-3
		c4.6-2.066,10.125-3.208,14-6c8.899-1.434,14.225-6.441,24-7c3.059,0.725,2.941-1.725,6-1C493.072,265.405,497.569,267.236,498,265
		z"/>
	<path fill-rule="evenodd" clip-rule="evenodd" fill="#FFFFFF" d="M616,299c-5.075,2.869-8.466-4.332-13-8
		c-7.155-5.789-16.496-9.357-22-17c-0.163-1.163,0.221-1.779,1-2C595.161,279.172,605.694,288.973,616,299z"/>
	<path fill-rule="evenodd" clip-rule="evenodd" fill="#FFFFFF" d="M659,344c-15.221-9.78-24.663-25.337-37-38
		c-0.163-1.163,0.221-1.779,1-2C640.271,312.062,651.43,326.236,659,344z"/>
	<path fill-rule="evenodd" clip-rule="evenodd" fill="#C7BFBA" d="M348,323c0.638-3.695-1.295-9.961,1-12
		C348.362,314.695,350.295,320.961,348,323z"/>
	<path fill-rule="evenodd" clip-rule="evenodd" fill="#C7BFBA" d="M338,315c-0.627,3.04,1.28,8.613-1,10
		C337.627,321.96,335.72,316.387,338,315z"/>
	<path fill-rule="evenodd" clip-rule="evenodd" fill="#FFFFFF" d="M704,436c-8.562-3.951-12.053-15.408-14-23
		C696.541,414.802,700.263,428.064,704,436z"/>
	<path fill-rule="evenodd" clip-rule="evenodd" fill="#6F5C55" d="M380,442c2.79,11.543,4.654,24.013,9,34
		C382.279,466.864,380.337,455.443,380,442z"/>
	<path fill-rule="evenodd" clip-rule="evenodd" fill="#C7BFBA" d="M362,456c-3.582,0.582-3.041-2.959-3-6
		C362.033,449.967,361.492,453.508,362,456z"/>
	<path fill-rule="evenodd" clip-rule="evenodd" fill="#FFFFFF" d="M736,485c2.447-0.415,7.578,5.064,7,11
		C739.481,493.519,738.32,488.68,736,485z"/>
	<path fill-rule="evenodd" clip-rule="evenodd" fill="#C7BFBA" d="M723,504c-0.805,4.195-3.516,6.485-4,11
		c-0.211,1.122-1.109,1.557-2,2c0-0.667,0-1.333,0-2c1.637-4.419,1.567-7.022,5-11C722.333,504,722.667,504,723,504z"/>
	<path fill-rule="evenodd" clip-rule="evenodd" fill="#FFFFFF" d="M761,523c3.126,7.541,5.299,16.035,7,25
		c-6.568-8.813-14.221-21.713-14-34c2.767,2.233,3.724,6.276,7,8C761,522.333,761,522.667,761,523z"/>
	<path fill-rule="evenodd" clip-rule="evenodd" fill="#BA9C1D" d="M568,626c-1.418,2.915-6.508,2.159-9,4
		c-0.89-0.443-1.789-0.878-2-2C561.655,628.321,563.673,626.007,568,626z"/>
	<path fill-rule="evenodd" clip-rule="evenodd" fill="#6F5C55" d="M492,627c8.94,2.727,20.945,2.389,31,4
		C511.706,631.532,499.272,632.731,492,627z"/>
	<path fill-rule="evenodd" clip-rule="evenodd" fill="#6F5C55" d="M611,641c-0.09-2.729,1.666-2.013,0-4
		c3.989,0.988,3.011-2.988,7-2C617.746,639.079,612.528,638.195,611,641z"/>
	<path fill-rule="evenodd" clip-rule="evenodd" fill="#F4D520" d="M601,643c-3.333,0-6.667,0-10,0c4.817-2.85,11.06-4.273,19-4
		c-1.149,2.851-5.659,2.342-8,4C601.667,643,601.333,643,601,643z"/>
	<path fill-rule="evenodd" clip-rule="evenodd" fill="#6F5C55" d="M817,650c4.205-0.348,6.79,4.479,5,7
		C818.42,656.58,817.188,653.812,817,650z"/>
	<path fill-rule="evenodd" clip-rule="evenodd" fill="#FFFFFF" d="M502,707c0.171-5.505-5.88-4.786-4-12
		c6.134,8.532,13.873,15.46,16,28c-4.831-4.169-8.177-9.823-12-15C502,707.667,502,707.333,502,707z"/>
	<path fill-rule="evenodd" clip-rule="evenodd" fill="#6F5C55" d="M836,701c3.759,0.946,4.589,8.898,4,11
		C838.682,708.318,835.362,706.638,836,701z"/>
	<path fill-rule="evenodd" clip-rule="evenodd" fill="#6F5C55" d="M890,782c1.663,4.026,1.663,14.974,0,19
		C890,794.667,890,788.333,890,782z"/>
	<path fill-rule="evenodd" clip-rule="evenodd" fill="#C7BFBA" d="M823,814c0,3.667,0,7.333,0,11
		C821.343,823.6,821.343,815.4,823,814z"/>
	<path fill-rule="evenodd" clip-rule="evenodd" fill="#C7BFBA" d="M891,814c2.295,2.038,0.362,8.305,1,12
		c-1.165-0.168-1.086-1.581-1-3c0-0.667,0-1.333,0-2C891,818.667,891,816.333,891,814z"/>
	<path fill-rule="evenodd" clip-rule="evenodd" fill="#C7BFBA" d="M582,832c-2.962-0.705-4.743-2.59-5-6
		C579.743,826.923,581.18,829.153,582,832z"/>
	<path fill-rule="evenodd" clip-rule="evenodd" fill="#FFFFFF" d="M826,865c2.904,1.394-0.283,4.936-1,6
		C822.096,869.605,825.283,866.064,826,865z"/>
	<path fill-rule="evenodd" clip-rule="evenodd" fill="#F4D520" d="M762,903c9.159,0.152,14.045-8.152,22-6
		c-5.005,2.662-10.035,5.299-15,8c-0.334,0-0.667,0-1,0c-0.742-0.999-7.657,0.286-9,2c-3.295-1.489,1.7-2.823,2-4
		C761.333,903,761.667,903,762,903z"/>
	<path fill-rule="evenodd" clip-rule="evenodd" fill="#FFFFFF" d="M696,905c0,0.333,0,0.667,0,1c-6.379-0.288-10.188-3.145-13-7
		c5.975,0.025,9.883,2.117,13,5C696,904.334,696,904.666,696,905z"/>
	<path fill-rule="evenodd" clip-rule="evenodd" fill="#FFFFFF" d="M650,910c-2.699-0.968-4.825-2.508-5-6
		C647.699,904.968,649.825,906.508,650,910z"/>
	<path fill-rule="evenodd" clip-rule="evenodd" fill="#F4D520" d="M755,906c-2.938,3.729-8.462,4.871-14,6
		C745.274,909.607,747.785,905.452,755,906z"/>
	<path fill-rule="evenodd" clip-rule="evenodd" fill="#F4D520" d="M711,908c-2.161,3.775-5.838,0.686-9,0
		C704.169,904.938,707.629,908.959,711,908z"/>
	<path fill-rule="evenodd" clip-rule="evenodd" fill="#6F5C55" d="M673,910c3.418-0.418,5.698,0.302,5,4
		c-1.794-0.127-2.109,1.225-4,1C672.532,912.642,671.89,913.14,673,910z"/>
	<path fill-rule="evenodd" clip-rule="evenodd" fill="#C7BFBA" d="M450,224c8.278-6.365,24.262-8.166,36-8
		c-6.558,0.789-14.793,1.438-22,4c-1.333,0-2.667,0-4,0C455.398,220.064,453.509,222.842,450,224z"/>
	<path fill-rule="evenodd" clip-rule="evenodd" fill="#C7BFBA" d="M405,243c3.4-13.933,22.798-11.869,36-16
		c-0.247,1.086-1.988,0.678-2,2c-0.333,0-0.667,0-1,0c-2.874,1.126-7.797,0.203-10,2c-0.333,0-0.667,0-1,0
		C416.263,231.597,409.281,235.947,405,243z"/>
	<path fill-rule="evenodd" clip-rule="evenodd" fill="#C7BFBA" d="M401,254c-2.115,5.552-5.223,10.11-11,12
		C394.769,263.103,397.697,258.364,401,254z"/>
	<path fill-rule="evenodd" clip-rule="evenodd" fill="#C7BFBA" d="M371,282c3.801-7.532,11.692-10.974,19-15
		C383.944,272.278,375.584,275.251,371,282z"/>
	<path fill-rule="evenodd" clip-rule="evenodd" fill="#C7BFBA" d="M358,320c1.995-2.702,4.005-10.621,6-10c0,0.333,0,0.667,0,1
		C361.121,313.121,361.413,318.413,358,320z"/>
	<path fill-rule="evenodd" clip-rule="evenodd" fill="#C7BFBA" d="M348,380c2.715-0.715-0.715,4.715,2,4c0,0.333,0,0.667,0,1
		c-0.496,11.163,5.226,16.107,5,27C352.425,401.575,348.792,392.208,348,380z"/>
	<path fill-rule="evenodd" clip-rule="evenodd" fill="#C7BFBA" d="M355,413c2.318,5.682,3.625,12.375,5,19
		C357.407,426.593,355.668,420.332,355,413z"/>
	<path fill-rule="evenodd" clip-rule="evenodd" fill="#C7BFBA" d="M360,433c1.47,0.894-0.271,6.996-1,9
		c-5.845-8.822-9.336-19.997-13-31c4.169,9.497,8.318,19.015,12,29C359.817,438.817,358.786,434.786,360,433z"/>
	<path fill-rule="evenodd" clip-rule="evenodd" fill="#C7BFBA" d="M344,379c1.965,7.896-0.396,21.189,2,31
		C342.232,401.844,343.95,388.427,344,379z"/>
	<path fill-rule="evenodd" clip-rule="evenodd" fill="#C7BFBA" d="M341,364c1.725,2.275,2.139,5.861,2,10
		c-2.831,0.164,0.831-6.164-2-6c0-0.333,0-0.667,0-1C341,366,341,365,341,364z"/>
	<path fill-rule="evenodd" clip-rule="evenodd" fill="#C7BFBA" d="M341,302c-2.439-5.795,5.043-10.273,10-12
		c1.352,1.705,3.599,7.658,1,10c0.309-3.643-0.159-6.508-1-9c-4.622,0.712-6.615,4.052-9,7C342.423,300.09,341.314,300.648,341,302z
		"/>
	<path fill-rule="evenodd" clip-rule="evenodd" fill="#C7BFBA" d="M350,455c3.418,4.582,4.582,11.418,8,16c0,0.333,0,0.667,0,1
		c-0.589,3.589,1.162,4.838,2,7C355.624,472.043,353.378,462.956,350,455z"/>
	<path fill-rule="evenodd" clip-rule="evenodd" fill="#C7BFBA" d="M375,529c0.333,0,0.667,0,1,0c2.954,6.38,6.473,12.193,8,20
		C380.044,543.29,377.269,536.398,375,529z"/>
	<path fill-rule="evenodd" clip-rule="evenodd" fill="#C7BFBA" d="M398,579c4.502,2.498,5.699,8.301,9,12
		C402.851,588.149,401.16,582.84,398,579z"/>
	<path fill-rule="evenodd" clip-rule="evenodd" fill="#C7BFBA" d="M407,592c3.063,0.937,2.457,5.543,5,7c0,0.333,0,0.667,0,1
		C421.939,613.254,409.118,599.659,407,592z"/>
	<path fill-rule="evenodd" clip-rule="evenodd" fill="#C7BFBA" d="M423,623c2.657,2.01,2.425,6.908,6,8c0,0.333,0,0.667,0,1
		c-0.282,1.615,0.945,1.722,1,3C427.252,631.414,424.313,628.021,423,623z"/>
	<path fill-rule="evenodd" clip-rule="evenodd" fill="#C7BFBA" d="M441,659c2.242,1.091,1.758,4.909,4,6c0,0.333,0,0.667,0,1
		c-0.127,1.794,1.224,2.109,1,4C443.678,666.989,442.453,662.88,441,659z"/>
	<path fill-rule="evenodd" clip-rule="evenodd" fill="#C7BFBA" d="M446,671c4.183,2.816,5.479,8.521,8,13
		C450.371,680.629,449.158,674.842,446,671z"/>
	<path fill-rule="evenodd" clip-rule="evenodd" fill="#C7BFBA" d="M454,685c3.253,5.747,8.032,9.968,11,16
		C461.442,695.558,455.611,692.39,454,685z"/>
	<path fill-rule="evenodd" clip-rule="evenodd" fill="#C7BFBA" d="M471,711c3.25,3.75,6.188,7.812,8,13
		C476.146,719.854,473.219,715.78,471,711z"/>
	<path fill-rule="evenodd" clip-rule="evenodd" fill="#C7BFBA" d="M493,756c-2.669-6.997-5.78-13.553-8-21
		c3.875,5.125,7.009,10.991,8,19C493,754.667,493,755.333,493,756z"/>
	<path fill-rule="evenodd" clip-rule="evenodd" fill="#C7BFBA" d="M506,778c4.058,2.275,3.481,9.186,8,11c0,0.333,0,0.666,0,1
		c8.84,11.493,17.959,22.707,26,35C528.348,809.652,515.506,795.493,506,778z"/>
	<path fill-rule="evenodd" clip-rule="evenodd" fill="#C7BFBA" d="M540,826c3.066,2.268,4.354,6.312,7,9
		C543.035,833.632,542.208,829.126,540,826z"/>
	<path fill-rule="evenodd" clip-rule="evenodd" fill="#C7BFBA" d="M554,845c0.81,0.189,0.997,1.003,2,1c0,0.333,0,0.667,0,1
		c-0.027,4.36,3.19,5.477,4,9C556.714,853.619,555.479,849.188,554,845z"/>
	<path fill-rule="evenodd" clip-rule="evenodd" fill="#C7BFBA" d="M560,857c5.683,11.65,15.244,19.423,24,28
		C574.217,877.45,564.46,869.873,560,857z"/>
	<path fill-rule="evenodd" clip-rule="evenodd" fill="#C7BFBA" d="M584,886c3.792,3.541,8.435,6.231,11,11
		C591.265,893.402,587.096,890.237,584,886z"/>
	<path fill-rule="evenodd" clip-rule="evenodd" fill="#C7BFBA" d="M595,898c3.648,3.353,7.062,6.938,9,12c0,0.333,0,0.667,0,1
		s0,0.667,0,1C601.337,906.996,598.235,902.432,595,898z"/>
	<path fill-rule="evenodd" clip-rule="evenodd" fill="#C7BFBA" d="M604,913c3.604,2.063,5.396,5.937,9,8c0.776,0.89,1.075,2.258,1,4
		c2.8,5.2,10.468,5.532,14,10C615.715,931.951,611.644,920.689,604,913z"/>
	<path fill-rule="evenodd" clip-rule="evenodd" fill="#C7BFBA" d="M634,937c8.809,2.191,13.163,8.837,21,12
		c3.866,0.134,3.944,4.056,7,5c0.658,1.342,2.138,1.862,4,2C655.534,953.461,645.04,942.297,634,937z"/>
	<path fill-rule="evenodd" clip-rule="evenodd" fill="#C7BFBA" d="M685,958c3.863-0.196,7.369-0.035,10,1c0.667,0,1.333,0,2,0
		c-0.184,0.851,0.39,0.943,1,1C696.497,960.458,688.271,959.098,685,958z"/>
	<path fill-rule="evenodd" clip-rule="evenodd" fill="#C7BFBA" d="M720,963c3.322-1.345,7.618-1.715,10-4
		C728.081,961.747,725.316,963.649,720,963z"/>
	<path fill-rule="evenodd" clip-rule="evenodd" fill="#C7BFBA" d="M793,944c3.712-0.621,10.292,1.626,11-2c0.333,0,0.667,0,1,0
		C807.194,944.265,795.895,946.824,793,944z"/>
	<path fill-rule="evenodd" clip-rule="evenodd" fill="#C7BFBA" d="M838,925c3.256-2.744,4.309-7.691,8-10
		C843.466,918.466,842.033,923.033,838,925z"/>
	<path fill-rule="evenodd" clip-rule="evenodd" fill="#C7BFBA" d="M851,909c3.487-6.18,8.284-11.049,13-16
		C860.218,898.885,855.379,903.712,851,909z"/>
	<path fill-rule="evenodd" clip-rule="evenodd" fill="#C7BFBA" d="M864,892c3.965-3.368,4.985-9.682,9-13
		C870.225,883.558,868.78,889.447,864,892z"/>
	<path fill-rule="evenodd" clip-rule="evenodd" fill="#C7BFBA" d="M848,664c-1.876-1.124-2.124-3.876-4-5
		c0.253-3.586-3.003-3.664-3-7C843.883,651.48,845.882,660.43,848,664z"/>
	<path fill-rule="evenodd" clip-rule="evenodd" fill="#C7BFBA" d="M828,622c-3.15-3.85-6.996-7.004-8-13
		C822.707,613.293,825.634,617.366,828,622z"/>
	<path fill-rule="evenodd" clip-rule="evenodd" fill="#C7BFBA" d="M811,593c1.9,4.433,6.219,6.447,7,12
		C816.089,600.578,811.996,598.338,811,593z"/>
	<path fill-rule="evenodd" clip-rule="evenodd" fill="#C7BFBA" d="M778,533c3.271,2.396,5.414,5.919,8,9c0,0.333,0,0.667,0,1
		C782.901,540.099,780.364,536.635,778,533z"/>
	<path fill-rule="evenodd" clip-rule="evenodd" fill="#C7BFBA" d="M770,519c3.176,3.825,6.487,7.513,8,13
		C775.379,527.621,772.22,523.781,770,519z"/>
	<path fill-rule="evenodd" clip-rule="evenodd" fill="#C7BFBA" d="M736,459c1.493,7.507,8.517,9.483,10,17c-0.333,0-0.667,0-1,0
		c-2.01-5.99-8.62-7.38-9-15C736,460.333,736,459.667,736,459z"/>
	<path fill-rule="evenodd" clip-rule="evenodd" fill="#C7BFBA" d="M723,437c2.84,3.16,4.967,7.033,7,11
		C726.983,445.017,724.739,441.261,723,437z"/>
	<path fill-rule="evenodd" clip-rule="evenodd" fill="#C7BFBA" d="M721,431c-3.165-2.834-4.278-7.721-7-11
		C717.71,422.29,718.951,427.049,721,431z"/>
	<path fill-rule="evenodd" clip-rule="evenodd" fill="#C7BFBA" d="M706,403c-4.81-2.857-5.146-10.187-9-14
		C701.819,391.847,702.364,398.969,706,403z"/>
	<path fill-rule="evenodd" clip-rule="evenodd" fill="#C7BFBA" d="M684,367c2.346,2.987,3.962,6.705,6,10
		c-2.651-1.015-2.709-4.624-5-6c-0.055-1.278-1.282-1.385-1-3C684,367.667,684,367.333,684,367z"/>
	<path fill-rule="evenodd" clip-rule="evenodd" fill="#C7BFBA" d="M675,354c3.479,3.522,5.22,8.78,9,12
		c-3.675-1.992-5.587-5.746-8-9c0-0.333,0-0.667,0-1C675.811,355.19,674.997,355.003,675,354z"/>
	<path fill-rule="evenodd" clip-rule="evenodd" fill="#C7BFBA" d="M654,318c6.104,6.229,10.32,14.347,15,22
		C663.336,333.331,658.797,325.537,654,318z"/>
	<path fill-rule="evenodd" clip-rule="evenodd" fill="#C7BFBA" d="M573,256c7.058,0.285,13.984,9.342,24,10
		c13.54,22.46,41.924,30.076,57,51c-15.681-19.319-42.867-27.133-56-49C588.271,265.395,581.421,259.913,573,256z"/>
	<path fill-rule="evenodd" clip-rule="evenodd" fill="#C7BFBA" d="M538,231c12.871,6.796,23.986,15.347,34,25
		c-9.519-7.481-19.905-14.095-29-22c-0.333,0-0.667,0-1,0c-0.15-1.85-3.386-0.614-4-2C538,231.667,538,231.333,538,231z"/>
	<path fill-rule="evenodd" clip-rule="evenodd" fill="#C7BFBA" d="M537,231c-5.418-1.249-7.409-5.924-14-6c-0.333,0-0.667,0-1,0
		c-0.226-1.44-2.985-0.349-3-2C527.147,223.52,532.166,227.168,537,231z"/>
	<path fill-rule="evenodd" clip-rule="evenodd" fill="#C7BFBA" d="M500,217c-5.17-1.021-6.501-0.364-12,0c-0.333,0-0.667,0-1,0
		c0-0.333,0-0.667,0-1C492.256,215.891,496.404,213.936,500,217z"/>
	<path fill-rule="evenodd" clip-rule="evenodd" fill="#6F5C55" d="M464,220c7.207-2.562,15.442-3.211,22-4c0.333,0,0.667,0,1,0
		c0,0.333,0,0.667,0,1c-8.995,1.143-14.918,1.678-23,4C464,220.667,464,220.333,464,220z"/>
	<path fill-rule="evenodd" clip-rule="evenodd" fill="#6F5C55" d="M503,219c4.533,2.134,11.34,1.994,16,4
		c0.015,1.651,2.774,0.56,3,2C515.932,222.735,507.725,222.609,503,219z"/>
	<path fill-rule="evenodd" clip-rule="evenodd" fill="#6F5C55" d="M523,225c6.591,0.076,8.582,4.751,14,6c0.333,0,0.667,0,1,0
		c0,0.333,0,0.667,0,1c0.614,1.386,3.85,0.15,4,2C534.463,232.204,529.672,227.662,523,225z"/>
	<path fill-rule="evenodd" clip-rule="evenodd" fill="#6F5C55" d="M543,234c9.095,7.905,19.481,14.519,29,22c0.333,0,0.667,0,1,0
		c8.421,3.913,15.271,9.395,25,12c13.133,21.867,40.319,29.681,56,49c0,0.333,0,0.667,0,1c4.797,7.537,9.336,15.331,15,22
		c-0.282,1.615,0.945,1.722,1,3c-14.314-23.353-31.796-43.537-57-56c-0.314-1.352-1.423-1.91-1-4c-6.823-2.844-12.061-7.272-15-14
		c-21.233-8.1-38.115-20.552-54-34C543,234.667,543,234.333,543,234z"/>
	<path fill-rule="evenodd" clip-rule="evenodd" fill="#6F5C55" d="M670,344c3.135,1.865,2.861,7.139,5,10
		c-0.003,1.003,0.811,1.19,1,2C672.214,353.787,672.209,347.791,670,344z"/>
	<path fill-rule="evenodd" clip-rule="evenodd" fill="#6F5C55" d="M676,357c2.413,3.254,4.325,7.008,8,9c0,0.333,0,0.667,0,1
		c0,0.333,0,0.667,0,1C680.812,364.854,677.321,362.012,676,357z"/>
	<path fill-rule="evenodd" clip-rule="evenodd" fill="#6F5C55" d="M685,371c2.291,1.376,2.349,4.985,5,6
		c0.954,5.379,4.692,7.974,7,12c3.854,3.813,4.19,11.143,9,14c0.891,5.776,4.307,9.027,6,14C703.324,401.342,693.793,386.54,685,371
		z"/>
	<path fill-rule="evenodd" clip-rule="evenodd" fill="#6F5C55" d="M712,418c0.891,0.443,1.789,0.878,2,2
		c2.722,3.279,3.835,8.166,7,11c0.329,2.337,1.202,4.131,2,6c1.739,4.261,3.983,8.017,7,11c0.775,4.891,4.857,6.475,6,11
		c0,0.667,0,1.333,0,2C727.256,447.411,720.026,432.307,712,418z"/>
	<path fill-rule="evenodd" clip-rule="evenodd" fill="#6F5C55" d="M754,492c5.394,7.273,10.353,14.981,14,24
		C763.277,508.056,758.177,500.49,754,492z"/>
	<path fill-rule="evenodd" clip-rule="evenodd" fill="#6F5C55" d="M768,517c0.891,0.443,1.789,0.878,2,2
		c2.22,4.781,5.379,8.621,8,13c0,0.333,0,0.667,0,1c2.364,3.635,4.901,7.099,8,10c-0.451,5.785,4.812,5.855,5,11
		C783.226,541.775,774.773,530.227,768,517z"/>
	<path fill-rule="evenodd" clip-rule="evenodd" fill="#6F5C55" d="M794,561c3.1,1.9,5.609,4.391,5,10c-1.454-3.213-1.721-7.613-5-9
		C794,561.667,794,561.333,794,561z"/>
	<path fill-rule="evenodd" clip-rule="evenodd" fill="#6F5C55" d="M803,579c3.664,3.67,5.771,8.896,8,14
		c0.996,5.338,5.089,7.578,7,12c-0.729,2.729,1.987,2.013,2,4c1.004,5.996,4.85,9.15,8,13c1.949,9.051,7.582,14.418,10,23
		C826.682,622.652,813.543,602.124,803,579z"/>
	<path fill-rule="evenodd" clip-rule="evenodd" fill="#6F5C55" d="M844,659c1.876,1.124,2.124,3.876,4,5
		c7.313,13.687,13.571,28.428,21,42C859.044,691.956,853.217,673.783,844,659z"/>
	<path fill-rule="evenodd" clip-rule="evenodd" fill="#6F5C55" d="M871,714c1.812,3.188,3.587,6.413,4,11
		C873.572,721.428,871.1,718.9,871,714z"/>
	<path fill-rule="evenodd" clip-rule="evenodd" fill="#6F5C55" d="M879,739c4.006,1.994,2.487,9.514,4,14
		C879.887,750.114,881.833,742.167,879,739z"/>
	<path fill-rule="evenodd" clip-rule="evenodd" fill="#6F5C55" d="M883,754c2.388,4.961,5.502,14.478,5,19
		C886.291,766.709,884.278,760.722,883,754z"/>
	<path fill-rule="evenodd" clip-rule="evenodd" fill="#6F5C55" d="M890,802c0.074,4.26,1.673,6.994,1,12c0,2.333,0,4.667,0,7
		c-2.189-4.811-0.199-13.801-2-19C889.333,802,889.667,802,890,802z"/>
	<path fill-rule="evenodd" clip-rule="evenodd" fill="#6F5C55" d="M891,823c-0.086,1.419-0.165,2.832,1,3
		c-1.531,11.136-5.628,19.706-10,28c2.305-10.385,10.535-18.972,8-31C890.334,823,890.666,823,891,823z"/>
	<path fill-rule="evenodd" clip-rule="evenodd" fill="#6F5C55" d="M873,876c2.194-3.473,1.145-10.188,5-12
		C875.388,867.055,876.467,873.801,873,876z"/>
	<path fill-rule="evenodd" clip-rule="evenodd" fill="#6F5C55" d="M873,877c0,0.667,0,1.333,0,2c-4.015,3.318-5.035,9.632-9,13
		c0,0.333,0,0.667,0,1c-4.716,4.951-9.513,9.82-13,16c-3.355,0.311-3.988,3.345-5,6c-3.691,2.309-4.744,7.256-8,10
		c-7.5,7.833-18.678,11.989-30,16c8.342-5.992,19.45-6.7,27-13c5.137-4.287,7.565-12.443,12-18
		C855.91,898.835,868.324,888.006,873,877z"/>
	<path fill-rule="evenodd" clip-rule="evenodd" fill="#6F5C55" d="M781,946c6.187-2.813,15.535-2.465,23-4
		c-0.708,3.626-7.288,1.379-11,2C788.941,944.608,786.735,947.068,781,946z"/>
	<path fill-rule="evenodd" clip-rule="evenodd" fill="#6F5C55" d="M717,963c12.48-2.854,19.855-10.812,34-12
		c-7.074,2.593-15.033,4.301-21,8c-2.382,2.285-6.678,2.655-10,4C719,963,718,963,717,963z"/>
	<path fill-rule="evenodd" clip-rule="evenodd" fill="#6F5C55" d="M708,961c-2.145,2.4-5.507-2.436-10-1
		c-0.61-0.057-1.184-0.149-1-1C702.047,958.286,704.301,960.366,708,961z"/>
	<path fill-rule="evenodd" clip-rule="evenodd" fill="#6F5C55" d="M685,958c-0.851,0.184-0.943-0.39-1-1
		c4.091,0.243,9.641-0.974,11,2C692.369,957.965,688.863,957.804,685,958z"/>
	<path fill-rule="evenodd" clip-rule="evenodd" fill="#6F5C55" d="M655,949c-7.837-3.163-12.191-9.809-21-12
		c-2.091-0.576-2.854-2.479-6-2c-3.532-4.468-11.2-4.8-14-10c13.05,8.283,28.788,13.879,41,23C655,948.333,655,948.667,655,949z"/>
	<path fill-rule="evenodd" clip-rule="evenodd" fill="#6F5C55" d="M613,921c-3.604-2.063-5.396-5.937-9-8c0-0.333,0-0.667,0-1
		s0-0.667,0-1C605.92,915.413,611.634,916.032,613,921z"/>
	<path fill-rule="evenodd" clip-rule="evenodd" fill="#6F5C55" d="M556,847c9.772,27.229,36.706,37.295,48,63
		c-1.938-5.062-5.352-8.647-9-12c0-0.333,0-0.667,0-1c-2.565-4.769-7.208-7.459-11-11c0-0.333,0-0.667,0-1
		c-8.756-8.577-18.317-16.35-24-28c0-0.334,0-0.666,0-1C559.19,852.477,555.973,851.36,556,847z"/>
	<path fill-rule="evenodd" clip-rule="evenodd" fill="#6F5C55" d="M554,845c-1.272-4.395-3.032-8.301-7-10
		c-2.646-2.688-3.934-6.732-7-9c0-0.333,0-0.667,0-1c-8.041-12.293-17.16-23.507-26-35c15.937,16.73,28.981,36.353,42,56
		C554.997,846.003,554.81,845.189,554,845z"/>
	<path fill-rule="evenodd" clip-rule="evenodd" fill="#6F5C55" d="M514,789c-4.519-1.814-3.942-8.725-8-11
		c-4.984-6.683-7.746-15.588-13-22c0-0.667,0-1.333,0-2C499.831,765.836,507.335,776.998,514,789z"/>
	<path fill-rule="evenodd" clip-rule="evenodd" fill="#6F5C55" d="M445,666c11.572,23.428,28.32,41.68,39,66
		c-3.372-0.962-3.832-4.835-5-8c-1.812-5.188-4.75-9.25-8-13c-0.602-4.731-3.846-6.821-6-10c-2.968-6.032-7.747-10.253-11-16
		c0-0.333,0-0.667,0-1c-2.521-4.479-3.817-10.184-8-13c0-0.333,0-0.667,0-1C446.224,668.109,444.873,667.794,445,666z"/>
	<path fill-rule="evenodd" clip-rule="evenodd" fill="#6F5C55" d="M441,659c-0.239-4.095-3.397-5.27-4-9c3.3,4.366,6.64,8.694,8,15
		C442.758,663.909,443.242,660.091,441,659z"/>
	<path fill-rule="evenodd" clip-rule="evenodd" fill="#6F5C55" d="M429,632c2.501,2.832,3.969,6.698,5,11
		c-2.368-1.632-2.129-5.871-4-8C429.945,633.722,428.718,633.615,429,632z"/>
	<path fill-rule="evenodd" clip-rule="evenodd" fill="#6F5C55" d="M429,631c-3.575-1.092-3.343-5.99-6-8
		c-0.608-5.059-2.545-8.788-4-13C423.731,615.603,423.888,625.779,429,631z"/>
	<path fill-rule="evenodd" clip-rule="evenodd" fill="#6F5C55" d="M389,563c6.866,12.801,17.352,21.981,23,36
		c-2.543-1.457-1.937-6.063-5-7c0-0.333,0-0.667,0-1c-3.301-3.699-4.498-9.502-9-12C395.269,573.397,390.866,569.468,389,563z"/>
	<path fill-rule="evenodd" clip-rule="evenodd" fill="#6F5C55" d="M375,529c-0.503-7.163-5.526-9.807-6-17
		c2.145,5.855,6.381,9.619,7,17C375.667,529,375.333,529,375,529z"/>
	<path fill-rule="evenodd" clip-rule="evenodd" fill="#6F5C55" d="M362,485c3.432,7.568,4.14,17.86,7,26
		C365.198,503.802,363.51,494.489,362,485z"/>
	<path fill-rule="evenodd" clip-rule="evenodd" fill="#6F5C55" d="M358,472c1.65,3.683,3.663,7.003,4,12
		c-1.486-0.847-1.447-3.22-2-5C359.162,476.838,357.411,475.589,358,472z"/>
	<path fill-rule="evenodd" clip-rule="evenodd" fill="#6F5C55" d="M350,452c3.132,5.868,5.829,12.171,8,19
		c-3.418-4.582-4.582-11.418-8-16C350,454,350,453,350,452z"/>
	<path fill-rule="evenodd" clip-rule="evenodd" fill="#6F5C55" d="M336,411c2.129,2.871,2.405,7.595,4,11
		C337.389,419.611,336.62,415.38,336,411z"/>
	<path fill-rule="evenodd" clip-rule="evenodd" fill="#6F5C55" d="M333,383c0.962,9.038,2.011,17.989,3,27
		C333.598,403.059,332.021,389.992,333,383z"/>
	<path fill-rule="evenodd" clip-rule="evenodd" fill="#6F5C55" d="M331,370c-5.2-15.699,0.508-31.162,7-41
		C332.763,340.644,327.645,352.339,331,370z"/>
	<path fill-rule="evenodd" clip-rule="evenodd" fill="#6F5C55" d="M338,315c-0.086-1.419-0.165-2.832,1-3
		c0.086,5.753,0.216,11.549-1,16c-1.172-0.162-0.843-1.823-1-3C339.28,323.613,337.373,318.04,338,315z"/>
	<path fill-rule="evenodd" clip-rule="evenodd" fill="#6F5C55" d="M342,298c2.385-2.948,4.378-6.288,9-7
		c0.841,2.492,1.309,5.357,1,9c-1.386,0.614-0.15,3.85-2,4c0.493-3.507,1.491-6.509,1-11c-4.22,0.113-5.709,2.957-8,5
		C342.667,298,342.333,298,342,298z"/>
	<path fill-rule="evenodd" clip-rule="evenodd" fill="#6F5C55" d="M343,345c5.869-9.798,0.975-30.358,7-40
		c-1.151,1.182-1.132,3.535-1,6c-2.295,2.039-0.362,8.305-1,12C346.267,330.267,347.946,340.946,343,345z"/>
	<path fill-rule="evenodd" clip-rule="evenodd" fill="#6F5C55" d="M342,351c-0.049,4.364-3.954,8.807-1,13c0,1,0,2,0,3
		C337.696,362.816,339.132,354.54,342,351z"/>
	<path fill-rule="evenodd" clip-rule="evenodd" fill="#6F5C55" d="M341,368c2.831-0.164-0.831,6.164,2,6
		c-0.319,2.319,0.161,3.839,1,5c-0.05,9.427-1.768,22.844,2,31c0,0.333,0,0.667,0,1c3.664,11.003,7.155,22.178,13,31
		c0.729-2.004,2.47-8.106,1-9c0-0.333,0-0.667,0-1c-1.375-6.625-2.682-13.318-5-19c0-0.333,0-0.667,0-1
		c0.226-10.893-5.496-15.837-5-27c3.353,19.699,13.573,39.587,10,60C344.938,427.294,342.045,397.077,341,368z"/>
	<path fill-rule="evenodd" clip-rule="evenodd" fill="#6F5C55" d="M348,380c0.575-1.758-1.208-5.875,1-6
		c-0.783,4.449,1.332,6.001,1,10C347.285,384.715,350.715,379.285,348,380z"/>
	<path fill-rule="evenodd" clip-rule="evenodd" fill="#6F5C55" d="M352,347c0.919-4.747,3.007-8.326,4-13
		C356.67,340.336,353.797,343.13,352,347z"/>
	<path fill-rule="evenodd" clip-rule="evenodd" fill="#6F5C55" d="M357,327c-1.737-0.532,1.087-4.818,1-7
		c3.413-1.587,3.121-6.879,6-9C362.551,317.218,358.143,320.477,357,327z"/>
	<path fill-rule="evenodd" clip-rule="evenodd" fill="#6F5C55" d="M365,306c0.934-4.066,1.615-8.385,3-12
		C368.327,299.327,366.949,302.949,365,306z"/>
	<path fill-rule="evenodd" clip-rule="evenodd" fill="#6F5C55" d="M368,293c-0.227-4.894,3.048-6.285,3-11
		c4.584-6.749,12.944-9.722,19-15c0-0.333,0-0.667,0-1c5.777-1.89,8.885-6.448,11-12c0.86-0.807,0.594-2.739,2-3
		C398.263,271.93,371.76,271.094,368,293z"/>
	<path fill-rule="evenodd" clip-rule="evenodd" fill="#6F5C55" d="M403,250c0.167-2.833,1.833-4.167,2-7
		c4.281-7.053,11.263-11.403,22-12C415.077,233.41,406.208,238.875,403,250z"/>
	<path fill-rule="evenodd" clip-rule="evenodd" fill="#6F5C55" d="M428,231c2.203-1.797,7.126-0.874,10-2
		C436.164,231.164,432.105,231.105,428,231z"/>
	<path fill-rule="evenodd" clip-rule="evenodd" fill="#6F5C55" d="M439,229c0.012-1.322,1.753-0.914,2-2
		c4.291,0.291,6.608-1.392,9-3c3.509-1.158,5.398-3.936,10-4C453.368,223.368,447.6,227.6,439,229z"/>
	<path fill-rule="evenodd" clip-rule="evenodd" fill="#6F5C55" d="M534,243c-16.461,10.445-37.11,1.944-56,0
		c-11.099-1.143-22.033,1.09-31-3c2.746-6.065,14.034-8.739,22-10C494.896,225.899,520.983,230.511,534,243z M505,246
		c7.295,1.388,18.486,0.426,27-2c-9.303-8.7-24.984-16.345-42-14c-0.333,0-0.667,0-1,0c-16.6,1.423-29.681,1.439-41,9
		c15.221,3.377,39.487,4.85,56,7C504.333,246,504.667,246,505,246z"/>
	<path fill-rule="evenodd" clip-rule="evenodd" fill="#C7BFBA" d="M490,230c17.016-2.345,32.697,5.3,42,14
		c-8.514,2.426-19.705,3.388-27,2c4.697-2.896,17.164,2.28,24-4C518.341,235.659,507.473,229.527,490,230z"/>
	<path fill-rule="evenodd" clip-rule="evenodd" fill="#C7BFBA" d="M504,246c-16.513-2.15-40.779-3.623-56-7
		c11.319-7.561,24.4-7.577,41-9c-14.478,3.486-28.317,2.135-40,9C468.854,241.478,485.388,241.734,504,246z"/>
	<path fill-rule="evenodd" clip-rule="evenodd" fill="#6F5C55" d="M440,252c-3.642,9.358-16.07,9.93-26,13
		C417.92,255.92,428.29,253.29,440,252z M417,263c7.598-2.068,16.307-3.027,20-9C430.825,253.657,419.912,256.79,417,263z"/>
	<path fill-rule="evenodd" clip-rule="evenodd" fill="#C7BFBA" d="M437,254c-3.693,5.973-12.402,6.932-20,9
		C419.912,256.79,430.825,253.657,437,254z M420,261c4.383-0.951,8.761-1.906,11-5C426.93,257.263,422.82,258.487,420,261z"/>
	<path fill-rule="evenodd" clip-rule="evenodd" fill="#FFFFFF" d="M431,256c-2.239,3.094-6.617,4.049-11,5
		C422.82,258.487,426.93,257.263,431,256z"/>
	<path fill-rule="evenodd" clip-rule="evenodd" fill="#6F5C55" d="M531,255c4.126-1.954,14.764,2.063,11,8
		C538.203,260.464,531.164,261.169,531,255z M533,256c0.156,4.177,4.913,3.754,8,5C543.616,257.407,536.69,256.441,533,256z"/>
	<path fill-rule="evenodd" clip-rule="evenodd" fill="#6F5C55" d="M468,259c-4.976,7.024-15.646,8.354-26,10
		c-15.55,11.45-29.516,24.484-49,32c-2.392-3.905,3.869-6.426,3-12C414.333,274.594,438.597,255.694,468,259z M455,265
		c2.995-2.672,10.122-1.211,11-6c-31.856,1.81-52.024,15.309-69,32c0,0.333,0,0.667,0,1c-0.333,0-0.667,0-1,0
		c1.821,3.69-4.556,6.886,0,7c22.314-8.352,33.096-28.238,58-34C454.333,265,454.667,265,455,265z"/>
	<path fill-rule="evenodd" clip-rule="evenodd" fill="#C7BFBA" d="M397,292c0,1.667,0,3.333,0,5c22.582-7.085,30.831-28.502,57-32
		c-24.904,5.762-35.686,25.648-58,34c-4.556-0.114,1.821-3.31,0-7C396.333,292,396.667,292,397,292z"/>
	<path fill-rule="evenodd" clip-rule="evenodd" fill="#C7BFBA" d="M397,291c16.976-16.691,37.144-30.19,69-32
		c-0.878,4.789-8.005,3.328-11,6c1.627-3.039,6.334-3,9-5C433.506,262.173,414.87,276.203,397,291z"/>
	<path fill-rule="evenodd" clip-rule="evenodd" fill="#6F5C55" d="M485,267c21.923-9.85,53.114,2.779,68,13
		c-15.902-7.432-32.98-13.686-55-15c-0.24-1.446-8.23-2.325-7,1C487.941,265.275,488.059,267.725,485,267z"/>
	<path fill-rule="evenodd" clip-rule="evenodd" fill="#6F5C55" d="M461,274c-3.875,2.792-9.4,3.934-14,6
		c-0.99-1.883-6.092,0.496-6,3c-2.856,2.478-6.099,4.567-10,6C437.828,280.829,448.271,276.271,461,274z"/>
	<path fill-rule="evenodd" clip-rule="evenodd" fill="#6F5C55" d="M407,305c-4.18,4.154-9.705,6.961-14,11
		C396.466,311.132,398.555,304.888,407,305z"/>
	<path fill-rule="evenodd" clip-rule="evenodd" fill="#6F5C55" d="M389,319c-0.068,2.932-2.286,3.714-4,5
		c-4.503,1.186-8.433,8.204-6,13c-1.204,3.796-2.128,7.872-3,12C374.86,337.52,378.92,322.592,389,319z"/>
	<path fill-rule="evenodd" clip-rule="evenodd" fill="#6F5C55" d="M371,372c-2.287,14.159-0.942,30.988,3,42
		c-6.968-9.435-7.59-28.421-4-42C370.333,372,370.667,372,371,372z"/>
	<path fill-rule="evenodd" clip-rule="evenodd" fill="#6F5C55" d="M395,496c1.656,1.01,1.086,4.247,2,6c-3.377,2.8,2.104,10.473,3,9
		c1.757,0.91,1.829,3.504,3,5C397.256,512.947,392.886,503.624,395,496z"/>
	<path fill-rule="evenodd" clip-rule="evenodd" fill="#6F5C55" d="M419,548c5.01,8.323,9.271,17.396,15,25
		C426.923,566.744,421.208,559.125,419,548z"/>
	<path fill-rule="evenodd" clip-rule="evenodd" fill="#6F5C55" d="M435,575c5.536,5.131,10.207,11.126,14,18
		c-0.928,2.302,3.879,7.424,6,10c1.156,4.511,3.045,8.288,6,11c-0.729,2.729,1.987,2.013,2,4c1.419,0.086,2.832,0.165,3-1
		c4.285,3.049,10.776,3.891,15,7c-9.118,0.452-12.425-4.908-20-6C454.025,601.975,443.387,589.613,435,575z"/>
	<path fill-rule="evenodd" clip-rule="evenodd" fill="#6F5C55" d="M559,630c2.492-1.841,7.582-1.085,9-4
		c0.804-0.529,1.624-1.043,3-1C568.281,627.947,564.854,630.188,559,630z"/>
	<path fill-rule="evenodd" clip-rule="evenodd" fill="#6F5C55" d="M641,605c-5.366,3.634-9.972,8.028-18,9c0-0.333,0-0.667,0-1
		C628.255,609.588,635.453,608.12,641,605z"/>
	<path fill-rule="evenodd" clip-rule="evenodd" fill="#6F5C55" d="M658,597c0.184,0.851-0.39,0.943-1,1
		c5.263,0.905,14.344-8.299,14-13c2.955-3.378,3.992-8.674,7-12c-3.722,10.616-9.707,27.623-27,28
		C653.229,599.562,655.62,598.287,658,597z"/>
	<path fill-rule="evenodd" clip-rule="evenodd" fill="#6F5C55" d="M699,542c0.251,7.251-4.425,9.575-8,13c-0.333,0-0.667,0-1,0
		C692.444,550.111,695.867,546.201,699,542z"/>
	<path fill-rule="evenodd" clip-rule="evenodd" fill="#6F5C55" d="M708,531c2.122-4.544,6.503-6.831,9-11
		c3.799-2.438,0.731,2.428,1,5C714.341,523.136,711.385,529.383,708,531z"/>
	<path fill-rule="evenodd" clip-rule="evenodd" fill="#6F5C55" d="M693,565c3.277-12.057,10.639-20.028,19-27
		c-3.848,4.153-4.349,11.651-10,14c-1.009,1.991-1.729,4.271-4,5C695.683,559.016,696.665,564.331,693,565z"/>
	<path fill-rule="evenodd" clip-rule="evenodd" fill="#6F5C55" d="M681,584c0.615-9.385,7.438-12.562,12-18
		c-0.791,3.21-3.631,4.369-5,7C685.794,576.794,682.947,579.947,681,584z"/>
	<path fill-rule="evenodd" clip-rule="evenodd" fill="#6F5C55" d="M644,626c-3.766,0.648-9.343,3.417-12,2
		c8.479-9.188,17.223-18.11,30-23c-1.795,3.205-6.079,3.921-9,6c-2.429,0.074-5.791,4.72-9,7c-3.094,3.573-6.557,6.777-11,9
		C635.108,629.042,638.906,624.289,644,626z"/>
	<path fill-rule="evenodd" clip-rule="evenodd" fill="#6F5C55" d="M656,618c3.971-4.696,10.735-6.598,15-11
		C667.578,612.245,661.122,614.456,656,618z"/>
	<path fill-rule="evenodd" clip-rule="evenodd" fill="#6F5C55" d="M681,602c0.658-1.342,2.138-1.862,4-2c0.594,3.19-1.877,3.093,0,5
		c4.335,0.668,2.692-4.641,3-8c2.558-1.442,5.056-2.944,7-5c-0.499,3.167-3.246,4.087-6,5c0.319,3.986,0.055,7.389-2,9
		C682.976,606.691,684.545,601.789,681,602z"/>
	<path fill-rule="evenodd" clip-rule="evenodd" fill="#6F5C55" d="M702,572c0-0.333,0-0.667,0-1c2.716,0.716-0.715-4.716,2-4
		c-0.354,4.646-1.283,8.717-3,12C700.198,575.531,702.489,575.156,702,572z"/>
	<path fill-rule="evenodd" clip-rule="evenodd" fill="#6F5C55" d="M704,566c1.742-4.591,3.135-9.532,7-12
		C708.045,557.378,707.008,562.674,704,566z"/>
	<path fill-rule="evenodd" clip-rule="evenodd" fill="#6F5C55" d="M720,552c-0.822,5.511-4.516,8.151-7,12
		C714.574,559.241,718.029,556.362,720,552z"/>
	<path fill-rule="evenodd" clip-rule="evenodd" fill="#6F5C55" d="M712,567c0,1.333,0,2.667,0,4c4.901-3.432,10.185-6.481,13-12
		c0-0.333,0-0.667,0-1c1.44-0.227,0.349-2.984,2-3c-1.666,9.334-8.833,13.167-16,17c0-1.667,0-3.333,0-5
		C711.333,567,711.667,567,712,567z"/>
	<path fill-rule="evenodd" clip-rule="evenodd" fill="#6F5C55" d="M734,533c-2.381,5.62-4.456,11.544-6,18c0-1.667,0-3.333,0-5
		c0-0.333,0-0.667,0-1C730.465,541.464,730.805,535.805,734,533z"/>
	<path fill-rule="evenodd" clip-rule="evenodd" fill="#6F5C55" d="M717,507c3.706-1.627,4.976-5.691,10-6
		c4.787,5.546,6.427,14.24,11,20c0.811,5.477-2.99,6.343-3,11c-0.333,0-0.667,0-1,0c-1.494-1.506-5.701-0.299-5-4
		c1.86,4.021,6.617,1.246,5-4c5.559-1.752-0.665-7.405-2-11c0.086-1.419,0.165-2.832-1-3c-0.83-2.503-2.739-3.927-3-7c-1,0-2,0-3,0
		c-1.163-0.163-1.779,0.221-2,1c-0.333,0-0.667,0-1,0c-3.433,3.978-3.363,6.581-5,11C715.35,514.556,715.35,507.444,717,507z"/>
	<path fill-rule="evenodd" clip-rule="evenodd" fill="#6F5C55" d="M713,482c1.768,2.6,6.977,6.978,6,9
		C716.323,488.676,714.313,485.687,713,482z"/>
	<path fill-rule="evenodd" clip-rule="evenodd" fill="#6F5C55" d="M669,397c4.268,4.732,7.229,10.771,9,18
		C674.289,409.711,671.825,403.175,669,397z"/>
	<path fill-rule="evenodd" clip-rule="evenodd" fill="#6F5C55" d="M634,346c7.775,6.892,14.771,14.562,20,24
		C647.059,362.275,640.506,354.161,634,346z"/>
	<path fill-rule="evenodd" clip-rule="evenodd" fill="#6F5C55" d="M620,331c4.882,3.452,8.695,7.972,12,13
		C627.095,340.571,624.119,335.215,620,331z"/>
	<path fill-rule="evenodd" clip-rule="evenodd" fill="#C7BFBA" d="M658,597c5.302-3.032,9.165-7.501,13-12
		c0.344,4.701-8.737,13.905-14,13C657.61,597.943,658.184,597.851,658,597z"/>
	<path fill-rule="evenodd" clip-rule="evenodd" fill="#C7BFBA" d="M449,593c2.692,2.797,8.582,4.916,6,10
		C452.879,600.424,448.072,595.302,449,593z"/>
	<path fill-rule="evenodd" clip-rule="evenodd" fill="#6F5C55" d="M659,340c2.445,1.888,3.102,5.564,4,9
		c-17.235-9.118-31.973-29.346-45-46c-16.018-7.982-30.737-17.263-40-32c10.908-1.952,20.029,9.875,28,16
		c4.914,3.775,10.507,7.091,12,12c18.825,8.174,32.327,21.673,41,40c-10.506-15.828-20.768-31.899-41-38
		c-10.13-12.536-21.716-23.617-38-30c5.592,15.074,23.045,18.288,32,30c3.156-0.489,3.531,1.802,7,1
		c11.214,16.786,24.699,31.301,40,44C661.226,345.58,659.783,340.694,659,340z"/>
	<path fill-rule="evenodd" clip-rule="evenodd" fill="#C7BFBA" d="M659,340c0.783,0.694,2.226,5.58,0,6
		c-15.301-12.699-28.786-27.214-40-44c-3.469,0.802-3.844-1.489-7-1c-8.955-11.712-26.408-14.926-32-30
		c16.284,6.383,27.87,17.464,38,30c20.232,6.101,30.494,22.172,41,38C659,339.333,659,339.667,659,340z M582,272
		c-0.779,0.221-1.163,0.837-1,2c5.504,7.643,14.845,11.211,22,17c4.534,3.668,7.925,10.869,13,8
		C605.694,288.973,595.161,279.172,582,272z M623,304c-0.779,0.221-1.163,0.837-1,2c12.337,12.663,21.779,28.22,37,38
		C651.43,326.236,640.271,312.062,623,304z"/>
	<path fill-rule="evenodd" clip-rule="evenodd" fill="#C7BFBA" d="M379,337c-2.433-4.796,1.497-11.814,6-13
		C383.226,328.559,380.413,332.08,379,337z"/>
	<path fill-rule="evenodd" clip-rule="evenodd" fill="#6F5C55" d="M705,433c-5.917-6.75-7.251-18.083-15-23
		c-1.87,17.207,12.862,26.469,20,38c0.771-3.134-4.341-8.97-5-14c3.319,5.347,6.541,10.792,8,18c-8.704-3.362-12.775-19.843-22-26
		c-0.266-6.734-3.362-10.637-4-17C699.057,410.944,699.45,424.55,705,433z"/>
	<path fill-rule="evenodd" clip-rule="evenodd" fill="#C7BFBA" d="M705,434c0.659,5.03,5.771,10.866,5,14
		c-7.138-11.531-21.87-20.793-20-38c7.749,4.917,9.083,16.25,15,23C705,433.333,705,433.667,705,434z M690,413
		c1.947,7.592,5.438,19.049,14,23C700.263,428.064,696.541,414.802,690,413z"/>
	<path fill-rule="evenodd" clip-rule="evenodd" fill="#6F5C55" d="M359,448c4.964,2.036,3.962,10.038,5,16
		C359.342,462.306,356.862,453.163,359,448z M359,450c-0.041,3.041-0.582,6.582,3,6C361.492,453.508,362.033,449.967,359,450z"/>
	<path fill-rule="evenodd" clip-rule="evenodd" fill="#6F5C55" d="M374,499c4.673,16.327,8.668,33.332,18,45
		c3.157-4.86-2.098-9.875-3-14c0-0.333,0-0.667,0-1c-1.401-10.599-6.071-17.928-8-28c4.713,13.988,12.823,29.797,12,46
		C383.236,534.43,376.944,518.389,374,499z"/>
	<path fill-rule="evenodd" clip-rule="evenodd" fill="#6F5C55" d="M374,498c-2.535-6.798-3.992-14.675-5-23
		c5.763,6.571,9.213,15.454,12,25c-3.022-5.311-4.727-11.939-8-17C368.81,486.283,375.255,491.532,374,498z"/>
	<path fill-rule="evenodd" clip-rule="evenodd" fill="#C7BFBA" d="M389,529c-5.187-14.48-9.779-29.554-15-44
		c1.259,19.077,7.718,41.613,17,56c3.093-3.484-3.433-5.856-2-11c0.902,4.125,6.157,9.14,3,14c-9.332-11.668-13.327-28.673-18-45
		c0-0.333,0-0.667,0-1c1.255-6.468-5.19-11.717-1-15c3.273,5.061,4.978,11.689,8,17c0,0.333,0,0.667,0,1
		C382.929,511.072,387.599,518.401,389,529z"/>
	<path fill-rule="evenodd" clip-rule="evenodd" fill="#6F5C55" d="M734,479c7.975,4.031,13.303,16.022,12,26
		C741.643,497.282,731.882,489.887,734,479z M734,481c2.033,6.633,4.184,13.149,9,17C745.942,490.189,739.182,483.966,734,481z"/>
	<path fill-rule="evenodd" clip-rule="evenodd" fill="#C7BFBA" d="M743,498c-4.816-3.851-6.967-10.367-9-17
		C739.182,483.966,745.942,490.189,743,498z M743,496c0.578-5.936-4.553-11.415-7-11C738.32,488.68,739.481,493.519,743,496z"/>
	<path fill-rule="evenodd" clip-rule="evenodd" fill="#FFFFFF" d="M389,530c-1.433,5.144,5.093,7.516,2,11
		c-9.282-14.387-15.741-36.923-17-56c5.221,14.446,9.813,29.52,15,44C389,529.333,389,529.667,389,530z"/>
	<path fill-rule="evenodd" clip-rule="evenodd" fill="#C7BFBA" d="M400,511c-0.896,1.473-6.377-6.2-3-9
		C397.533,505.467,399.675,507.325,400,511z"/>
	<path fill-rule="evenodd" clip-rule="evenodd" fill="#C7BFBA" d="M731,510c-2.412-1.921-3.971-4.696-6-7c1,0,2,0,3,0
		C728.261,506.073,730.17,507.497,731,510z"/>
	<path fill-rule="evenodd" clip-rule="evenodd" fill="#BA9C1D" d="M732,513c1.335,3.595,7.559,9.248,2,11
		c0.969-4.844-2.896-2.314-5-2c0,2,0,4,0,6c-0.701,3.701,3.506,2.494,5,4c0,0.333,0,0.667,0,1c-3.195,2.805-3.535,8.464-6,12
		c0.312-3.908-5.681-4.818-2-9c2.039-2.009,1.961,0.442,4,1c0.934-0.733,1.515-1.818,2-3c-5.547,1.23-3.813-5.576-4-12
		c1.907-0.426,1.81-2.857,5-2C733.58,516.753,732.319,515.348,732,513z"/>
	<path fill-rule="evenodd" clip-rule="evenodd" fill="#BA9C1D" d="M728,546c0,1.667,0,3.333,0,5c-0.776,0.89-1.075,2.258-1,4
		c-1.651,0.016-0.56,2.773-2,3C725.935,553.934,726.615,549.616,728,546z"/>
	<path fill-rule="evenodd" clip-rule="evenodd" fill="#BA9C1D" d="M702,571c2.974-11.026,5.292-22.708,19-23
		c1.239,10.572-6.803,11.864-8,20c6.231-0.769,7.509-6.491,12-9c-2.815,5.519-8.099,8.568-13,12c0-1.333,0-2.667,0-4
		c0.529-0.805,1.043-1.623,1-3c2.484-3.849,6.178-6.489,7-12c0-1,0-2,0-3c-5.214-0.547-7.514,1.819-9,5
		c-3.865,2.468-5.258,7.409-7,12c0,0.333,0,0.667,0,1C701.285,566.284,704.716,571.716,702,571z"/>
	<path fill-rule="evenodd" clip-rule="evenodd" fill="#BA9C1D" d="M702,572c0.489,3.156-1.802,3.531-1,7
		c-1.337,4.997-3.795,8.872-6,13c-1.944,2.056-4.442,3.558-7,5c-0.308,3.359,1.335,8.668-3,8c-1.877-1.907,0.594-1.81,0-5
		c-1.862,0.138-3.342,0.658-4,2c-4.486,0.514-6.877,3.123-10,5c-4.265,4.402-11.029,6.304-15,11c-4.585,0.415-4.083,5.917-9,6
		C663.032,604.366,697.264,602.93,702,572z"/>
	<path fill-rule="evenodd" clip-rule="evenodd" fill="#BA9C1D" d="M644,626c-5.094-1.711-8.892,3.042-11,1
		c4.443-2.223,7.906-5.427,11-9c-0.655,2.678-2.864,3.803-4,6c1.011,2.815,4.247-0.276,6,0C645.557,624.891,645.122,625.789,644,626
		z"/>
	<path fill-rule="evenodd" clip-rule="evenodd" fill="#F4D520" d="M644,618c3.209-2.28,6.571-6.926,9-7
		c12.621-4.379,22.83-11.17,28-23c0-1.333,0-2.667,0-4c1.947-4.053,4.794-7.206,7-11c4.725-3.941,8.746-8.588,10-16
		c2.271-0.729,2.991-3.009,4-5c2.338-0.329,4.131-1.202,6-2c1.342-13.33,16.049-18.612,11-35c0.484-4.515,3.195-6.805,4-11
		c0.221-0.779,0.837-1.163,2-1c2.029,2.304,3.588,5.079,6,7c1.165,0.168,1.086,1.581,1,3c0.319,2.348,1.58,3.753,1,7
		c-3.19-0.857-3.093,1.574-5,2c0.187,6.424-1.547,13.23,4,12c-0.485,1.182-1.066,2.267-2,3c-2.039-0.558-1.961-3.009-4-1
		c-3.681,4.182,2.312,5.092,2,9c0,0.333,0,0.667,0,1c-1.385,3.616-2.065,7.934-3,12c0,0.333,0,0.667,0,1
		c-4.491,2.509-5.769,8.231-12,9c1.197-8.136,9.239-9.428,8-20c-13.708,0.292-16.026,11.974-19,23c0,0.333,0,0.667,0,1
		c-4.736,30.93-38.968,32.366-55,52c-0.333,0-0.667,0-1,0c-1.753-0.276-4.989,2.815-6,0C641.136,621.803,643.345,620.678,644,618z"
		/>
	<path fill-rule="evenodd" clip-rule="evenodd" fill="#BA9C1D" d="M653,611c2.921-2.079,7.205-2.795,9-6
		c10.118-1.882,13.426-10.574,19-17C675.83,599.83,665.621,606.621,653,611z"/>
	<path fill-rule="evenodd" clip-rule="evenodd" fill="#BA9C1D" d="M688,573c1.369-2.631,4.209-3.79,5-7c0-0.333,0-0.667,0-1
		c3.665-0.669,2.683-5.984,5-8C696.746,564.412,692.725,569.059,688,573z"/>
	<path fill-rule="evenodd" clip-rule="evenodd" fill="#BA9C1D" d="M719,515c5.049,16.388-9.658,21.67-11,35
		c-1.869,0.798-3.662,1.671-6,2c5.651-2.349,6.152-9.847,10-14c2.269-4.065,6.712-5.955,6-13c-0.269-2.572,2.799-7.438-1-5
		c0-1,0-2,0-3C717.891,516.557,718.789,516.122,719,515z"/>
	<path fill-rule="evenodd" clip-rule="evenodd" fill="#6F5C55" d="M755,526c3.872,8.794,7.191,18.142,14,24
		c0.855-8.522-3.811-11.523-4-19c3.159,7.174,5.46,15.207,7,24C763.37,548.296,758.364,537.969,755,526z"/>
	<path fill-rule="evenodd" clip-rule="evenodd" fill="#6F5C55" d="M755,525c-4.08-2.486-5.566-10.849-1-14
		c4.298,5.369,9.546,9.787,11,18c-2.045-1.289-1.055-5.612-4-6c0-0.333,0-0.667,0-1c-1.288-4.045-4.628-6.039-7-9
		C749.623,515.991,753.849,521.61,755,525z"/>
	<path fill-rule="evenodd" clip-rule="evenodd" fill="#C7BFBA" d="M761,523c2.945,0.388,1.955,4.711,4,6c0,0.667,0,1.333,0,2
		c0.189,7.477,4.855,10.478,4,19c-6.809-5.858-10.128-15.206-14-24c0-0.333,0-0.667,0-1c-1.151-3.39-5.377-9.009-1-12
		c2.372,2.961,5.712,4.955,7,9c-3.276-1.724-4.233-5.767-7-8c-0.221,12.287,7.432,25.187,14,34
		C766.299,539.035,764.126,530.541,761,523z"/>
	<path fill-rule="evenodd" clip-rule="evenodd" fill="#1A0F13" d="M729,528c0-2,0-4,0-6c2.104-0.314,5.969-2.844,5,2
		C735.617,529.246,730.86,532.021,729,528z"/>
	<path fill-rule="evenodd" clip-rule="evenodd" fill="#6F5C55" d="M733,547c-0.084,3.582-1.555,5.778-2,9
		c-0.776,0.89-1.075,2.258-1,4c-0.333,0-0.667,0-1,0C730.007,555.34,730.837,550.504,733,547z"/>
	<path fill-rule="evenodd" clip-rule="evenodd" fill="#6F5C55" d="M643,646c2.115-3.218,6.897-3.769,10-6
		C651.124,643.457,646.072,643.739,643,646z"/>
	<path fill-rule="evenodd" clip-rule="evenodd" fill="#6F5C55" d="M598,655c1.811-2.188,7.83-0.17,10-2
		c-0.247,1.086-1.988,0.678-2,2c-0.333,0-0.667,0-1,0C602.667,655,600.333,655,598,655z"/>
	<path fill-rule="evenodd" clip-rule="evenodd" fill="#6F5C55" d="M554,667c6.379-1.288,11.907-3.426,18-5c0,0.333,0,0.667,0,1
		c-4.997-0.997-4.895,3.105-9,3C559.708,666.042,558.021,667.688,554,667z"/>
	<path fill-rule="evenodd" clip-rule="evenodd" fill="#6F5C55" d="M506,667c4.793-1.541,10.808-1.859,17-2
		c-0.444,2.889-7.556-0.889-8,2c-0.333,0-0.667,0-1,0C511.333,667,508.667,667,506,667z"/>
	<path fill-rule="evenodd" clip-rule="evenodd" fill="#6F5C55" d="M499,667c-3.253,5.933,3.739,9.342,5,14
		C501.341,678.427,493.812,670.839,499,667z"/>
	<path fill-rule="evenodd" clip-rule="evenodd" fill="#6F5C55" d="M507,687c5.905,9.428,11.073,19.594,19,27
		c0.047,4.952,3.957,6.043,5,10c2.717,6.95,7.845,11.488,11,18c0,0.333,0,0.666,0,1c3.408,5.926,7.333,11.334,11,17
		C536.493,736.84,521.911,711.756,507,687z"/>
	<path fill-rule="evenodd" clip-rule="evenodd" fill="#6F5C55" d="M553,761c2.306-0.306,1.111,2.889,3,3
		c-0.423,2.09,0.686,2.648,1,4c1.212,5.455,6.403,6.931,8,12C559.063,775.604,555.775,768.559,553,761z"/>
	<path fill-rule="evenodd" clip-rule="evenodd" fill="#6F5C55" d="M565,781c2.768,2.232,4.425,5.575,5,10
		C567.493,788.507,567.164,783.837,565,781z"/>
	<path fill-rule="evenodd" clip-rule="evenodd" fill="#6F5C55" d="M570,792c0.333,0,0.667,0,1,0c0,0.333,0,0.667,0,1
		c5.287,10.713,12.941,19.059,20,28c-0.282,1.615,0.945,1.722,1,3c3.654,4.346,6.42,9.58,11,13c0.851-0.184,0.943,0.39,1,1
		c0.448-0.051,8.161,6.442,9,6c2.828,2.838,8.214,3.119,10,7c8.943,6.723,15.282,16.051,25,22c0.333,0,0.667,0,1,0
		c0.62,3.38,6.697,1.303,8,4c-20.911-3.681-28.161-25.482-44-31c-3.875-2.125-5.374-6.626-11-7
		C591.368,823.298,578.562,809.772,570,792z"/>
	<path fill-rule="evenodd" clip-rule="evenodd" fill="#6F5C55" d="M658,877c1.794-0.127,2.109,1.225,4,1
		c7.97,2.03,16.057,3.943,22,8c11.29,7.71,24.678,13.322,40,17c-19.836,0.1-33.805-15.436-49-21
		C669.443,879.965,661.47,882.032,658,877z"/>
	<path fill-rule="evenodd" clip-rule="evenodd" fill="#6F5C55" d="M730,903c6.685-2.201,12.466-1.319,17-4
		c-0.294,2.039-2.706,1.961-3,4C740.873,898.836,733.884,905.541,730,903z"/>
	<path fill-rule="evenodd" clip-rule="evenodd" fill="#6F5C55" d="M748,899c3.017-3.317,10.117-2.549,15-4
		C759.096,899.161,754.017,896.477,748,899z"/>
	<path fill-rule="evenodd" clip-rule="evenodd" fill="#6F5C55" d="M764,895c3.803-2.863,7.895-5.439,14-6
		C773.206,890.872,768.842,893.175,764,895z"/>
	<path fill-rule="evenodd" clip-rule="evenodd" fill="#6F5C55" d="M810,870c3.996-4.671,9.914-7.42,13-13
		c1.157-2.509,3.984-3.349,4-7c0-0.334,0-0.667,0-1c6.728-11.939,18.731-18.602,22-34c0.859-0.807,0.594-2.739,2-3
		c-2.269,20.064-20.094,24.573-24,43C820.72,859.386,817.572,866.906,810,870z"/>
	<path fill-rule="evenodd" clip-rule="evenodd" fill="#6F5C55" d="M848,782c0.109-2.487,1.874-3.096,0-5
		c-0.438-8.562-0.871-17.129-4-23c1.422-3.073,0.448-4.497-1-7c-1.917-6.416-3.366-13.301-6-19c-0.844-6.415-3.848-10.442-4-15
		c-2.258-6.742-3.562-14.438-8-19c0-0.333,0-0.667,0-1c0.513-8.18-5.42-9.913-9-14c0.306-14.972-7.579-21.755-12-32
		c0-0.333,0-0.667,0-1c-13.108-22.559-21.814-49.52-39-68c0-0.333,0-0.667,0-1c-4.316-9.684-8.972-19.028-15-27c0-0.333,0-0.667,0-1
		c-1.212-5.122-5.543-7.123-7-12c-4.028,0.972-5.631,4.369-8,7c-0.81,0.19-0.997,1.003-2,1c2.123-3.544,5.373-5.96,8-9
		c12.561,11.192,17.5,28.434,27,43c17.238,26.434,33.78,60.021,49,91c0,2.333,0,4.667,0,7c1.81,4.856,6.19,7.144,9,11
		c10.744,36.263,24.412,66.394,25,111c-0.973-0.027-0.775-1.225-1-2C849.953,791.38,850.555,785.112,848,782z"/>
	<path fill-rule="evenodd" clip-rule="evenodd" fill="#C7BFBA" d="M735,544c2.369-2.631,3.972-6.028,8-7
		c1.457,4.877,5.788,6.878,7,12c-3.225-3.108-5.195-7.472-8-11c-1.857,2.81-6.22,3.113-6,8c-0.851,0.184-0.943-0.39-1-1
		C735,544.667,735,544.333,735,544z"/>
	<path fill-rule="evenodd" clip-rule="evenodd" fill="#C7BFBA" d="M750,550c6.028,7.972,10.684,17.316,15,27
		C759.523,568.477,755.021,558.979,750,550z"/>
	<path fill-rule="evenodd" clip-rule="evenodd" fill="#C7BFBA" d="M765,578c17.186,18.48,25.892,45.441,39,68
		c-3.215-2.118-2.76-7.907-7-9c-0.896-2.104-1.555-4.445-3-6C787.714,613.951,776.483,593.185,765,578z"/>
	<path fill-rule="evenodd" clip-rule="evenodd" fill="#FFFFFF" d="M794,631c-7.652-5.948-11.039-14.681-17-22
		c-15.141-18.59-34.96-35.52-41-63c-0.22-4.887,4.143-5.19,6-8c2.805,3.528,4.775,7.892,8,11c0,0.333,0,0.667,0,1
		c5.021,8.979,9.523,18.477,15,27c0,0.333,0,0.667,0,1C776.483,593.185,787.714,613.951,794,631z"/>
	<path fill-rule="evenodd" clip-rule="evenodd" fill="#BA9C1D" d="M733,545c1.003,0.003,1.19-0.81,2-1c0,0.333,0,0.667,0,1
		c-2.273,2.727-0.85,9.15-4,11c0.445-3.222,1.916-5.418,2-9C733,546.333,733,545.667,733,545z"/>
	<path fill-rule="evenodd" clip-rule="evenodd" fill="#BA9C1D" d="M822,857c0.333,0,0.667,0,1,0c-3.086,5.58-9.004,8.329-13,13
		c-9.803,7.197-21.508,12.492-32,19c-6.105,0.561-10.197,3.137-14,6c-0.333,0-0.667,0-1,0c-4.883,1.451-11.983,0.683-15,4
		c-0.333,0-0.667,0-1,0c-4.534,2.681-10.315,1.799-17,4c-0.805-0.529-1.623-1.043-3-1C761.589,896.548,800.229,881.524,822,857z"/>
	<path fill-rule="evenodd" clip-rule="evenodd" fill="#BA9C1D" d="M724,903c-15.322-3.678-28.71-9.29-40-17
		c13.551,5.782,24.821,13.846,42,16C725.973,902.973,724.775,902.776,724,903z"/>
	<path fill-rule="evenodd" clip-rule="evenodd" fill="#BA9C1D" d="M657,877c-1.303-2.697-7.38-0.62-8-4c4.08,1.92,10.054,1.947,13,5
		c-1.891,0.225-2.206-1.127-4-1C657.667,877,657.333,877,657,877z"/>
	<path fill-rule="evenodd" clip-rule="evenodd" fill="#BA9C1D" d="M623,851c10.016,5.65,16.506,14.827,25,22
		C638.282,867.051,631.943,857.723,623,851z"/>
	<path fill-rule="evenodd" clip-rule="evenodd" fill="#F4D520" d="M623,851c-1.786-3.881-7.172-4.162-10-7
		c-2.125-2.875-4.374-5.626-9-6c-0.057-0.61-0.149-1.184-1-1c-3.728-4.272-6.151-9.849-11-13c-0.055-1.278-1.282-1.385-1-3
		c-5.892-10.108-13.66-18.34-20-28c0-0.333,0-0.667,0-1c-1.49-11.176-8.729-16.604-14-24c-0.314-1.352-1.423-1.91-1-4
		c-4.106-7.561-8.395-14.938-14-21c0-0.334,0-0.667,0-1c-1.985-7.682-7.439-11.895-11-18c-1.043-3.957-4.953-5.048-5-10
		c-10.213-14.121-20.03-28.637-27-46c4.686-0.647,11.975,1.308,15-1c0.333,0,0.667,0,1,0c4.368,0.035,9.035,0.369,11-2
		c0.333,0,0.667,0,1,0c10.323,2.823,26.595,5.692,36,1c4.105,0.105,4.003-3.997,9-3c10.17-3.496,21.186-6.147,33-8
		c0.333,0,0.667,0,1,0c2.17-1.83,8.189,0.188,10-2c0.333,0,0.667,0,1,0c5,0.962,13.234-1.594,18-4c0.333,0,0.667,0,1,0
		c19.053-3.613,25.891-19.442,43-25c0.333,0,0.667,0,1,0c20.927-13.74,27.953-41.381,49-55c0.841-2.492,1.309-5.357,1-9
		c-0.075-1.742,0.224-3.11,1-4c3.15-1.85,1.727-8.273,4-11c0.057,0.61,0.149,1.184,1,1c6.04,27.48,25.859,44.41,41,63
		c5.961,7.319,9.348,16.052,17,22c1.445,1.555,2.104,3.896,3,6c3.332,38.149,18.785,72.774,22,111c0.543,6.458-0.817,12.535,0,19
		c1.533,12.124,5.635,31.112,4,47c-1.657,1.4-1.657,9.6,0,11c0.695,7.695,0.695,11.305,0,19c-2.3,2.366-0.358,8.976-1,13
		c-21.771,24.524-60.411,39.548-95,45c-0.333,0-0.667,0-1,0c-17.179-2.154-28.449-10.218-42-16c-5.943-4.057-14.03-5.97-22-8
		c-2.946-3.053-8.92-3.08-13-5c-0.333,0-0.667,0-1,0C639.506,865.827,633.016,856.65,623,851z"/>
	<path fill-rule="evenodd" clip-rule="evenodd" fill="#BA9C1D" d="M613,844c-0.839,0.442-8.552-6.051-9-6
		C608.626,838.374,610.875,841.125,613,844z"/>
	<path fill-rule="evenodd" clip-rule="evenodd" fill="#BA9C1D" d="M592,824c4.849,3.151,7.272,8.728,11,13
		C598.42,833.58,595.654,828.346,592,824z"/>
	<path fill-rule="evenodd" clip-rule="evenodd" fill="#BA9C1D" d="M571,793c6.34,9.66,14.108,17.892,20,28
		C583.941,812.059,576.287,803.713,571,793z"/>
	<path fill-rule="evenodd" clip-rule="evenodd" fill="#BA9C1D" d="M557,768c5.271,7.396,12.51,12.824,14,24c-0.333,0-0.667,0-1,0
		c0-0.333,0-0.667,0-1c-0.575-4.425-2.232-7.768-5-10c0-0.333,0-0.667,0-1C563.403,774.931,558.212,773.455,557,768z"/>
	<path fill-rule="evenodd" clip-rule="evenodd" fill="#BA9C1D" d="M542,743c5.605,6.062,9.894,13.439,14,21
		c-1.889-0.111-0.694-3.306-3-3c0-0.333,0-0.667,0-1C549.333,754.334,545.408,748.926,542,743z"/>
	<path fill-rule="evenodd" clip-rule="evenodd" fill="#BA9C1D" d="M531,724c3.561,6.105,9.015,10.318,11,18
		C538.845,735.488,533.717,730.95,531,724z"/>
	<path fill-rule="evenodd" clip-rule="evenodd" fill="#BA9C1D" d="M514,667c-3.025,2.308-10.314,0.353-15,1
		c6.97,17.363,16.787,31.879,27,46c-7.927-7.406-13.095-17.572-19-27c0.044-3.045-2.111-3.889-3-6c-1.261-4.658-8.253-8.067-5-14
		c2.333,0,4.667,0,7,0C508.667,667,511.333,667,514,667z"/>
	<path fill-rule="evenodd" clip-rule="evenodd" fill="#BA9C1D" d="M515,667c0.444-2.889,7.556,0.889,8-2c1,0,2,0,3,0
		C524.035,667.369,519.368,667.035,515,667z"/>
	<path fill-rule="evenodd" clip-rule="evenodd" fill="#BA9C1D" d="M527,665c8.686,0.437,19.629,3.538,27,2
		c4.021,0.688,5.708-0.958,9-1C553.595,670.692,537.323,667.823,527,665z"/>
	<path fill-rule="evenodd" clip-rule="evenodd" fill="#BA9C1D" d="M572,662c8.556-2.444,16.598-5.402,26-7c2.333,0,4.667,0,7,0
		c-11.814,1.853-22.83,4.504-33,8C572,662.667,572,662.333,572,662z"/>
	<path fill-rule="evenodd" clip-rule="evenodd" fill="#BA9C1D" d="M606,655c0.012-1.322,1.753-0.914,2-2c2.667,0,5.333,0,8,0
		C614.189,655.188,608.17,653.17,606,655z"/>
	<path fill-rule="evenodd" clip-rule="evenodd" fill="#BA9C1D" d="M617,653c3.906-0.702,11.745-2.696,18-4
		C630.234,651.406,622,653.962,617,653z"/>
	<path fill-rule="evenodd" clip-rule="evenodd" fill="#BA9C1D" d="M636,649c1.395-1.939,5.176-1.491,7-3
		c3.072-2.261,8.124-2.543,10-6c7.65-6.35,14.974-13.025,26-16C661.891,629.558,655.053,645.387,636,649z"/>
	<path fill-rule="evenodd" clip-rule="evenodd" fill="#BA9C1D" d="M680,624c19.825-14.176,26.021-41.979,48-54
		c0.281-3.386,1.591-5.742,1-10c0.333,0,0.667,0,1,0c0.309,3.643-0.159,6.508-1,9C707.953,582.619,700.927,610.26,680,624z"/>
	<path fill-rule="evenodd" clip-rule="evenodd" fill="#6F5C55" d="M427,602c-6.705-8.962-9.493-21.841-16-31
		c-0.317,12.322,10.695,21.968,14,34c1.086-0.247,0.678-1.988,2-2c-3.828,9.083-4.597-7.96-9-8c-1.61-10.466-11.351-17.881-10-28
		C417.679,575.321,421.145,589.855,427,602z"/>
	<path fill-rule="evenodd" clip-rule="evenodd" fill="#6F5C55" d="M793,591c-3.325-2.675-4.465-7.535-7-11
		c-5.09,5.555,3.881,11.409,6,17c4.221,11.135,9.2,23.665,16,32c1.351-2.725-2.937-8.367-3-13c3.176,7.414,7.579,18.068,8,25
		c-11.454-21.225-26.689-43.961-32-68C785.896,578.104,789.886,584.114,793,591z"/>
	<path fill-rule="evenodd" clip-rule="evenodd" fill="#6F5C55" d="M793,592c4.784,6.883,8.597,14.736,12,23
		C800.188,608.146,796.919,599.748,793,592z"/>
	<path fill-rule="evenodd" clip-rule="evenodd" fill="#C7BFBA" d="M805,616c0.063,4.633,4.351,10.275,3,13
		c-6.8-8.335-11.779-20.865-16-32c-2.119-5.591-11.09-11.445-6-17c2.535,3.465,3.675,8.325,7,11c0,0.333,0,0.667,0,1
		c3.919,7.748,7.188,16.146,12,23C805,615.333,805,615.667,805,616z M785,582c6.606,14.394,12.878,29.122,21,42
		C800.921,608.079,793.695,594.305,785,582z"/>
	<path fill-rule="evenodd" clip-rule="evenodd" fill="#FFFFFF" d="M806,624c-8.122-12.878-14.394-27.606-21-42
		C793.695,594.305,800.921,608.079,806,624z"/>
	<path fill-rule="evenodd" clip-rule="evenodd" fill="#6F5C55" d="M811,604c7.611,10.056,13.936,21.397,18,35
		C821.496,629.463,811.584,617.138,811,604z M818,618c-2.621-0.712-0.958-5.708-4-6C813.555,615.179,816.709,619.868,818,618z"/>
	<path fill-rule="evenodd" clip-rule="evenodd" fill="#C7BFBA" d="M814,612c3.042,0.292,1.379,5.288,4,6
		C816.709,619.868,813.555,615.179,814,612z"/>
	<path fill-rule="evenodd" clip-rule="evenodd" fill="#6F5C55" d="M625,624c-2.869,3.131-6.59,5.41-13,5
		c0.345-2.655,2.625-3.375,5-4c-0.247,1.086-1.988,0.678-2,2C618.049,629.658,621.868,624.578,625,624z"/>
	<path fill-rule="evenodd" clip-rule="evenodd" fill="#6F5C55" d="M626,624c2.05-1.422,4.201-3.088,1-5
		c-0.428-2.762,3.729-0.938,4-3C633.327,618.718,630.109,624.398,626,624z"/>
	<path fill-rule="evenodd" clip-rule="evenodd" fill="#BA9C1D" d="M627,619c3.201,1.912,1.05,3.578-1,5c-0.333,0-0.667,0-1,0
		c-3.132,0.578-6.951,5.658-10,3c0.012-1.322,1.753-0.914,2-2C622.244,624.91,623.5,620.833,627,619z"/>
	<path fill-rule="evenodd" clip-rule="evenodd" fill="#6F5C55" d="M480,634c-1.314,1.02-3.686,0.98-5,2c2.622,1.711,3.651,5.016,6,7
		c-3.918-1.385-8.98-5.935-6-11c2.826-0.826,2.591,1.409,5,1C480,633.333,480,633.667,480,634z"/>
	<path fill-rule="evenodd" clip-rule="evenodd" fill="#6F5C55" d="M494,642c0.909-3.629,2.951-0.608,6-1c0,1.667,0,3.333,0,5
		c3.999-0.332,5.551,1.783,10,1c-2.823,3.08-6.902-1.041-11,0C500.293,642.357,496.642,639.652,494,642z"/>
	<path fill-rule="evenodd" clip-rule="evenodd" fill="#6F5C55" d="M529,646c0.721-2.336,8.205-3.052,10-1
		C535.137,644.804,531.631,644.965,529,646z"/>
	<path fill-rule="evenodd" clip-rule="evenodd" fill="#6F5C55" d="M540,639c3.463-3.723,16.767,2.574,9,4
		C551.598,639.425,544.585,638.546,540,639z"/>
	<path fill-rule="evenodd" clip-rule="evenodd" fill="#6F5C55" d="M481,634c15.478-1.077,29.219,7.546,47,5
		c-1.064,2.27-6.286,0.381-9,1c-1.738-1.237-6.641,0.764-11,0c-2.988-2.012-7.91-2.09-12-3c-7.055-0.63-8.969-3.422-15-2
		C481,634.667,481,634.333,481,634z"/>
	<path fill-rule="evenodd" clip-rule="evenodd" fill="#BA9C1D" d="M496,637c4.09,0.91,9.012,0.988,12,3
		C503.551,639.449,498.79,639.21,496,637z"/>
	<path fill-rule="evenodd" clip-rule="evenodd" fill="#BA9C1D" d="M519,640c2.714-0.619,7.936,1.27,9-1
		c4.161,1.762,9.392,0.172,12,0c4.585-0.454,11.598,0.425,9,4c-5.055-1.055-5.721,2.279-10,2c-1.795-2.052-9.279-1.336-10,1
		c-4.732-1.172-12.239-0.479-19,1c-4.449,0.783-6.001-1.332-10-1c0-1.667,0-3.333,0-5c-3.049,0.392-5.091-2.629-6,1
		c-1.667,0-3.333,0-5,0c3.839-1.799,7.16-3.722,12-2c0.7,3.078,0.7,1.922,0,5c18.44,1.018,30.184-1.264,46-3
		C538.767,637.146,529.062,643.439,519,640z"/>
	<path fill-rule="evenodd" clip-rule="evenodd" fill="#F4D520" d="M481,643c-2.349-1.984-3.378-5.289-6-7c1.314-1.02,3.686-0.98,5-2
		c0.333,0,0.667,0,1,0c0,0.333,0,0.667,0,1c6.031-1.422,7.945,1.37,15,2c2.79,2.21,7.551,2.449,12,3c4.359,0.764,9.262-1.237,11,0
		c10.062,3.439,19.767-2.854,28,2c-15.816,1.736-27.56,4.018-46,3c0.7-3.078,0.7-1.922,0-5c-4.84-1.722-8.161,0.201-12,2
		C486.605,642.604,484.438,643.438,481,643z"/>
	<path fill-rule="evenodd" clip-rule="evenodd" fill="#6F5C55" d="M600,644c-2.566,1.848-11.361,1.399-14,0
		c0.87-1.464,1.497-3.17,4-3c-0.247,1.086-1.988,0.678-2,2C590.039,645.295,596.305,643.362,600,644z"/>
	<path fill-rule="evenodd" clip-rule="evenodd" fill="#BA9C1D" d="M590,641c7.075-1.259,13.62-3.046,21-4
		c1.666,1.987-0.09,1.271,0,4c-3.332,0.335-4.436,2.897-9,2c2.341-1.658,6.851-1.149,8-4c-7.94-0.273-14.183,1.15-19,4
		c3.333,0,6.667,0,10,0c0.184,0.851-0.39,0.943-1,1c-3.695-0.638-9.961,1.295-12-1C588.012,641.678,589.753,642.086,590,641z"/>
	<path fill-rule="evenodd" clip-rule="evenodd" fill="#C7BFBA" d="M804,647c4.421,10.245,12.306,17.028,12,32
		c3.58,4.087,9.513,5.82,9,14c-1.542-6.458-5.709-10.291-10-14C815.83,663.837,806.76,658.573,804,647z"/>
	<path fill-rule="evenodd" clip-rule="evenodd" fill="#C7BFBA" d="M825,694c4.438,4.562,5.742,12.258,8,19
		C829.126,707.874,828.562,699.438,825,694z"/>
	<path fill-rule="evenodd" clip-rule="evenodd" fill="#FFFFFF" d="M833,713c0.152,4.558,3.156,8.585,4,15
		c1.148,7.185,2.995,13.672,6,19c1.448,2.503,2.422,3.927,1,7c1.932,7.068,1.867,16.133,4,23c1.874,1.904,0.109,2.513,0,5
		c1.367,4.299,0.062,11.271,2,15c0.225,0.775,0.027,1.973,1,2c1.477,3.961,0.168,6.906,0,13c-1.406,0.261-1.141,2.193-2,3
		c-4.682,13.985-16.161,21.173-22,34c0,0.333,0,0.666,0,1c-1.352,0.982-1.998,2.668-3,4c-2.28-1.387-0.373-6.961-1-10
		c0.695-7.695,0.695-11.305,0-19c0-3.667,0-7.333,0-11c1.635-15.888-2.467-34.876-4-47c-0.817-6.465,0.543-12.542,0-19
		c-3.215-38.226-18.668-72.851-22-111c4.24,1.093,3.785,6.882,7,9c0,0.333,0,0.667,0,1c2.76,11.573,11.83,16.837,11,32
		c4.291,3.709,8.458,7.542,10,14c0,0.333,0,0.667,0,1C828.562,699.438,829.126,707.874,833,713z"/>
	<path fill-rule="evenodd" clip-rule="evenodd" fill="#C7BFBA" d="M837,728c2.634,5.699,4.083,12.584,6,19
		C839.995,741.672,838.148,735.185,837,728z"/>
	<path fill-rule="evenodd" clip-rule="evenodd" fill="#C7BFBA" d="M844,754c3.129,5.871,3.562,14.438,4,23
		C845.867,770.133,845.932,761.068,844,754z"/>
	<path fill-rule="evenodd" clip-rule="evenodd" fill="#C7BFBA" d="M848,782c2.555,3.112,1.953,9.38,2,15
		C848.062,793.271,849.367,786.299,848,782z"/>
	<path fill-rule="evenodd" clip-rule="evenodd" fill="#C7BFBA" d="M849,815c-3.269,15.398-15.272,22.061-22,34
		C832.839,836.173,844.318,828.985,849,815z"/>
	<path fill-rule="evenodd" clip-rule="evenodd" fill="#C7BFBA" d="M827,850c-0.016,3.651-2.843,4.491-4,7c-0.333,0-0.667,0-1,0
		c0.642-4.024-1.3-10.634,1-13c0.627,3.039-1.28,8.613,1,10C825.002,852.668,825.648,850.982,827,850z"/>
	<path fill-rule="evenodd" clip-rule="evenodd" fill="#6F5C55" d="M456,655c-3.581-4.753-7.061-9.605-11-14
		c-0.445,7.111,4.345,8.988,4,16c24.951,40.716,47.419,83.913,69,128c8.127,7.742,13.4,17.865,20,27c2.805,3.882,7.017,6.106,10,10
		c4.402,5.745,7.782,14.073,12,20c5.932,8.334,12.083,22.106,23,28c10.291,16.042,25.446,27.221,34,45
		c9.323,6.344,18.386,12.947,29,18c3.401-1.891-1.713-3.506-1-6c0-0.333,0-0.667,0-1c-7.649-18.684-24.378-28.289-36-43
		c0-0.333,0-0.667,0-1c-23.082-32.918-52.244-59.757-72-96c0-0.334,0-0.666,0-1c0-0.333,0-0.667,0-1c6.857,8.81,13,18.333,18,29
		c14.36,23.914,38.757,41.625,54,65c3.723,5.709,5.969,12.069,11,17c10.16,9.958,26.167,20.127,28,39
		c-12.894-3.106-20.189-11.811-31-17c-0.329-2.338-1.202-4.131-2-6c-23.896-28.771-49.798-55.535-69-89
		c-2.184-3.149-5.601-5.066-9-7c-3.633-12.367-11.904-20.096-20-28c-20.619-45.381-43.825-88.176-69-129
		c0.731-9.064-5.813-10.854-5-20C449.223,641.777,452.298,648.702,456,655z"/>
	<path fill-rule="evenodd" clip-rule="evenodd" fill="#6F5C55" d="M485,708c13.569,28.765,34.871,49.797,52,75
		C518.553,759.114,497.398,737.935,485,708z"/>
	<path fill-rule="evenodd" clip-rule="evenodd" fill="#6F5C55" d="M456,656c12.278,14.389,19.943,33.391,29,51
		C474.61,690.724,467.166,671.5,456,656z"/>
	<path fill-rule="evenodd" clip-rule="evenodd" fill="#FFFFFF" d="M645,927c-2.995,0.658,0.956,2.138,0,4
		c-9.66-4.006-16.539-10.795-26-15c-1.094-2.239-1.656-5.011-3-7c-8.053-7.226-13.107-16.467-20-25
		c-6.456-7.992-15.472-13.897-22-22c-12.175-15.111-18.08-35.66-34-48c-4.869-11.798-13.458-19.876-21-29
		c-21.404-47.596-48.452-89.548-71-136c9.75,4.588,13.901,23.429,23,32c8.237,21.43,19.101,40.232,30,59
		c1.317,2.017,3.283,3.384,6,4c7.576,16.09,20.392,26.941,30,41c0,0.334,0,0.666,0,1c18.794,37.205,47.661,64.339,72,96
		c0,0.333,0,0.667,0,1c10.562,15.771,27.302,25.365,36,43C645,926.333,645,926.667,645,927z"/>
	<path fill-rule="evenodd" clip-rule="evenodd" fill="#C7BFBA" d="M537,786c19.756,36.243,48.918,63.082,72,96
		C584.661,850.339,555.794,823.205,537,786z"/>
	<path fill-rule="evenodd" clip-rule="evenodd" fill="#C7BFBA" d="M609,883c11.622,14.711,28.351,24.316,36,43
		C636.302,908.365,619.562,898.771,609,883z"/>
	<path fill-rule="evenodd" clip-rule="evenodd" fill="#C7BFBA" d="M645,927c-0.713,2.494,4.401,4.109,1,6
		c-10.614-5.053-19.677-11.656-29-18c-8.554-17.779-23.709-28.958-34-45c-10.917-5.894-17.068-19.666-23-28
		c-4.218-5.927-7.598-14.255-12-20c-2.983-3.894-7.195-6.118-10-10c-6.6-9.135-11.873-19.258-20-27
		c-21.581-44.087-44.049-87.284-69-128c0.345-7.012-4.445-8.889-4-16c3.939,4.395,7.419,9.247,11,14c0,0.333,0,0.667,0,1
		c11.166,15.5,18.61,34.724,29,51c0,0.333,0,0.667,0,1c12.398,29.935,33.553,51.114,52,75c0,0.333,0,0.667,0,1s0,0.667,0,1
		c-9.608-14.059-22.424-24.91-30-41c-2.717-0.616-4.683-1.983-6-4c-10.899-18.768-21.763-37.57-30-59
		c-9.099-8.571-13.25-27.412-23-32c22.548,46.452,49.596,88.404,71,136c7.542,9.124,16.131,17.202,21,29
		c15.92,12.34,21.825,32.889,34,48c6.528,8.103,15.544,14.008,22,22c6.893,8.533,11.947,17.774,20,25c1.344,1.989,1.906,4.761,3,7
		c9.461,4.205,16.34,10.994,26,15C645.956,929.138,642.005,927.658,645,927z"/>
	<path fill-rule="evenodd" clip-rule="evenodd" fill="#6F5C55" d="M853,702c2.963,1.704,2.458,6.875,4,10
		c2.581,14.086,9.073,24.261,11,39C862.811,734.855,857.518,718.816,853,702z"/>
	<path fill-rule="evenodd" clip-rule="evenodd" fill="#6F5C55" d="M868,752c2.716-0.716-0.716,4.716,2,4c0,0.667,0,1.333,0,2
		c-1.967,3.341-1.504,12.807,1,15c0,1.333,0,2.667,0,4C866.471,770.921,868.935,759.381,868,752z"/>
	<path fill-rule="evenodd" clip-rule="evenodd" fill="#6F5C55" d="M871,778c-0.282,1.615,0.945,1.722,1,3
		c0.22,8.447,1.611,15.722,1,25c-1.811,2.522-3.429,5.238-3,10c-1.086,0.247-0.678,1.988-2,2
		C873.165,807.619,871.705,789.023,871,778z"/>
	<path fill-rule="evenodd" clip-rule="evenodd" fill="#6F5C55" d="M868,819c-0.319,2.348-1.58,3.754-1,7
		c-0.776,0.89-1.075,2.258-1,4c-1.96,2.707-4.168,5.165-4,10c0,0.333,0,0.667,0,1c-2.716-0.716,0.716,4.716-2,4
		C861.004,834.671,865.486,827.819,868,819z"/>
	<path fill-rule="evenodd" clip-rule="evenodd" fill="#6F5C55" d="M858,852c0.164,3.164-2.657,3.343-2,7c0,0.333,0,0.667,0,1
		c-3.049,3.618-5.824,7.51-6,14c0,0.333,0,0.667,0,1c-1.086,0.247-0.678,1.988-2,2C849.546,866.88,854.229,859.896,858,852z"/>
	<path fill-rule="evenodd" clip-rule="evenodd" fill="#6F5C55" d="M847,882c-2.713,10.621-8.958,17.709-12,28
		c13.32-10.347,25.349-21.984,31-40c0-0.333,0-0.667,0-1c2.732-3.602,4.423-8.244,6-13c1.436-4.564,5.837-6.163,6-12
		c2.752-3.581,2.942-9.725,5-14c-10.137,34.863-23.876,66.124-51,84C835.988,902.321,842.024,892.691,847,882z"/>
	<path fill-rule="evenodd" clip-rule="evenodd" fill="#6F5C55" d="M872,737c9.832,24.053,14.439,60.963,11,92c0-4.667,0-9.333,0-14
		c0-0.333,0-0.667,0-1c-1.308-11.697,0.881-35.544-4-47c0-0.334,0-0.666,0-1c-0.899-3.767-1.769-7.564-3-11
		c0.424-2.09-0.686-2.648-1-4c-0.302-4.364-1.04-8.294-3-11c0-0.334,0-0.666,0-1C872,738.333,872,737.667,872,737z"/>
	<path fill-rule="evenodd" clip-rule="evenodd" fill="#6F5C55" d="M872,736c-2.487-1.18-2.384-4.949-4-7c0-0.333,0-0.667,0-1
		c-4.907-15.76-9.161-32.172-19-43c-1.7,3.402,2.457,9.516,4,13c0,1,0,2,0,3c-3.663-6.945-5.975-13.71-6-22
		C859.31,694.281,866.188,717.157,872,736z"/>
	<path fill-rule="evenodd" clip-rule="evenodd" fill="#6F5C55" d="M502,710c4.676,5.324,8.12,11.88,14,16
		c-3.826-18.508-15.679-28.988-24-43c-0.178,7.521,6.055,17.271,10,24c0,0.333,0,0.667,0,1s0,0.667,0,1
		c-5.48-8.186-9.862-17.471-13-28c13.51,11.49,22.691,27.31,29,46C511.066,726.803,505.624,716.807,502,710z"/>
	<path fill-rule="evenodd" clip-rule="evenodd" fill="#C7BFBA" d="M502,707c-3.945-6.729-10.178-16.479-10-24
		c8.321,14.012,20.174,24.492,24,43c-5.88-4.12-9.324-10.676-14-16c0-0.334,0-0.666,0-1c0-0.333,0-0.667,0-1
		c3.823,5.177,7.169,10.831,12,15c-2.127-12.54-9.866-19.468-16-28C496.12,702.214,502.171,701.495,502,707z"/>
	<path fill-rule="evenodd" clip-rule="evenodd" fill="#C7BFBA" d="M853,698c-1.543-3.484-5.7-9.598-4-13
		c9.839,10.828,14.093,27.24,19,43c-5.739-14.261-10.38-29.62-18-42C849.145,687.901,853.042,693.591,853,698z"/>
	<path fill-rule="evenodd" clip-rule="evenodd" fill="#FFFFFF" d="M853,698c0.042-4.409-3.855-10.099-3-12
		c7.62,12.38,12.261,27.739,18,42c0,0.333,0,0.667,0,1c-0.281,4.948,2.802,6.531,4,10c0,0.334,0,0.666,0,1
		c0.722,3.945,1.24,8.094,3,11c0.314,1.352,1.424,1.91,1,4c-0.54,5.207,1.204,8.13,3,11c0,0.334,0,0.666,0,1
		c3.49,13.51,0.75,33.25,4,47c0,0.333,0,0.667,0,1c-1.292,10.041-1.845,20.821-5,29c-0.163,5.837-4.564,7.436-6,12
		c-2.982,3.352-4.44,8.226-6,13c0,0.333,0,0.667,0,1c-6.496,15.171-16.483,26.85-28,37c1.173-9.5,10.673-19.322,12-32
		c0-0.333,0-0.667,0-1c1.737-4.93,3.725-9.608,6-14c0-0.333,0-0.667,0-1c2.71-5.29,5.243-10.757,6-18c0-0.333,0-0.667,0-1
		c1.358-3.308,2.911-6.423,4-10c-0.075-1.742,0.224-3.11,1-4c1.581-2.752,1.729-6.938,3-10c-0.429-4.762,1.189-7.478,3-10
		c2.312-6.996,0.793-18.779-1-25c-0.055-1.278-1.282-1.385-1-3c0-0.333,0-0.667,0-1c0-1.333,0-2.667,0-4
		c-1.107-4.226-1.152-9.515-1-15c0-0.667,0-1.333,0-2c-2.287-16.713-8.025-29.975-13-44c-1.542-3.125-1.037-8.296-4-10
		c0-0.333,0-0.667,0-1C853,700,853,699,853,698z"/>
	<path fill-rule="evenodd" clip-rule="evenodd" fill="#C7BFBA" d="M868,729c1.616,2.051,1.513,5.82,4,7c0,0.333,0,0.667,0,1
		c0,0.667,0,1.333,0,2C870.802,735.531,867.719,733.948,868,729z"/>
	<path fill-rule="evenodd" clip-rule="evenodd" fill="#C7BFBA" d="M872,740c1.96,2.706,2.698,6.636,3,11
		C873.24,748.094,872.722,743.945,872,740z"/>
	<path fill-rule="evenodd" clip-rule="evenodd" fill="#C7BFBA" d="M876,755c1.231,3.436,2.101,7.233,3,11
		C877.204,763.13,875.46,760.207,876,755z"/>
	<path fill-rule="evenodd" clip-rule="evenodd" fill="#C7BFBA" d="M879,767c4.881,11.456,2.692,35.303,4,47
		C879.75,800.25,882.49,780.51,879,767z"/>
	<path fill-rule="evenodd" clip-rule="evenodd" fill="#C7BFBA" d="M883,815c0,4.667,0,9.333,0,14c0,0.333,0,0.667,0,1
		c-2.058,4.275-2.248,10.419-5,14C881.155,835.821,881.708,825.041,883,815z"/>
	<path fill-rule="evenodd" clip-rule="evenodd" fill="#C7BFBA" d="M872,856c-1.577,4.756-3.268,9.398-6,13
		C867.56,864.226,869.018,859.352,872,856z"/>
	<path fill-rule="evenodd" clip-rule="evenodd" fill="#C7BFBA" d="M866,870c-5.651,18.016-17.68,29.653-31,40
		c3.042-10.291,9.287-17.379,12-28c-0.319-2.319,0.16-3.839,1-5c1.322-0.012,0.914-1.753,2-2c-1.327,12.678-10.827,22.5-12,32
		C849.517,896.85,859.504,885.171,866,870z"/>
	<path fill-rule="evenodd" clip-rule="evenodd" fill="#C7BFBA" d="M850,874c0.176-6.49,2.951-10.382,6-14
		C853.725,864.392,851.737,869.07,850,874z"/>
	<path fill-rule="evenodd" clip-rule="evenodd" fill="#C7BFBA" d="M856,859c-0.657-3.657,2.164-3.836,2-7
		c-0.589-3.589,1.162-4.838,2-7c2.716,0.716-0.716-4.716,2-4C861.243,848.243,858.71,853.71,856,859z"/>
	<path fill-rule="evenodd" clip-rule="evenodd" fill="#C7BFBA" d="M862,840c-0.168-4.835,2.04-7.293,4-10
		C864.911,833.577,863.358,836.692,862,840z"/>
	<path fill-rule="evenodd" clip-rule="evenodd" fill="#C7BFBA" d="M868,819c0-0.333,0-0.667,0-1c1.322-0.012,0.914-1.753,2-2
		c-1.271,3.062-1.419,7.248-3,10C866.42,822.754,867.681,821.348,868,819z"/>
	<path fill-rule="evenodd" clip-rule="evenodd" fill="#C7BFBA" d="M872,781c1.793,6.221,3.312,18.004,1,25
		C873.611,796.722,872.22,789.447,872,781z"/>
	<path fill-rule="evenodd" clip-rule="evenodd" fill="#C7BFBA" d="M871,773c-2.504-2.193-2.967-11.659-1-15
		C869.848,763.485,869.893,768.774,871,773z"/>
	<path fill-rule="evenodd" clip-rule="evenodd" fill="#C7BFBA" d="M857,712c4.975,14.025,10.713,27.287,13,44
		c-2.716,0.716,0.716-4.716-2-4c0-0.334,0-0.666,0-1C866.073,736.261,859.581,726.086,857,712z"/>
	<path fill-rule="evenodd" clip-rule="evenodd" fill="#6F5C55" d="M584,833c-4.051,2.729-10.426-4.251-7-9
		C581.122,825.212,582.217,829.449,584,833z M577,826c0.257,3.41,2.038,5.295,5,6C581.18,829.153,579.743,826.923,577,826z"/>
	<path fill-rule="evenodd" clip-rule="evenodd" fill="#6F5C55" d="M844,841c0.236-4.431,2.192-7.141,6-8
		C852.008,836.247,848.584,841.171,844,841z"/>
	<path fill-rule="evenodd" clip-rule="evenodd" fill="#6F5C55" d="M821,870c-1.646,6.021-7.336,7.998-11,12
		C813.17,877.503,817.794,874.461,821,870z"/>
	<path fill-rule="evenodd" clip-rule="evenodd" fill="#6F5C55" d="M800,888c2.774-1.226,4.677-3.322,7-5
		c-0.426,1.907-2.857,1.81-2,5c2.729,0.729,2.013-1.987,4-2c-1.209,3.791-7.443,2.557-8,7c-2.881-0.119-6.546,0.546-8-1
		c1.067-0.933,0.312-3.688,3-3c-0.19,0.811-1.003,0.996-1,2c2.225,2.801,7.559,0.292,8-2c-0.027-0.973-1.225-0.776-2-1
		C800.667,888,800.333,888,800,888z"/>
	<path fill-rule="evenodd" clip-rule="evenodd" fill="#6F5C55" d="M810,886c4.38-4.287,8.456-8.878,13-13
		c2.656-2.011,5.897-3.436,5-9c-2.992,0.008-4.202,1.797-5,4c-0.811,0.189-0.997,1.003-2,1c1.838-2.495,2.759-5.908,7-6
		C830.436,875.19,815.757,878.691,810,886z"/>
	<path fill-rule="evenodd" clip-rule="evenodd" fill="#6F5C55" d="M699,929c13.719,4.819,26.895,10.148,43,10
		c-13.047,13.388-44.197,6.02-62,3c-0.309-2.358-3.473-1.86-3-5c-11.873-4.127-20.699-11.301-26-22
		c-9.824-8.194-16.057-21.336-25-31c-5.448-5.888-15.587-9.893-15-19c8.773,2.962,20.381,11.568,25,22
		c-6.426-8.907-15.005-15.662-24-22c-1.644,7.652,6.477,9.637,11,14c9.935,9.582,16.449,25.088,28,33
		c-0.57-8.526-10.75-15.845-15-24c11.824,13.176,19.52,30.48,40,35c-8.891-2.109-16.05-5.95-23-10c3.852,14.85,21.904,24.07,38,30
		c0.333,0,0.667,0,1,0c9.383,1.2,22.646,2.992,36,1c0.333,0,0.667,0,1,0c3.673,2.955,7.679-2.283,11-3c0.276-2.688-7.044-2.85-8-1
		c-0.334,0-0.667,0-1,0c-4.983-1.35-10.454-2.213-15-4c-0.333,0-0.667,0-1,0C709.426,933.907,703.729,931.938,699,929z"/>
	<path fill-rule="evenodd" clip-rule="evenodd" fill="#6F5C55" d="M690,928c-3.1-2.9-9.265-2.735-13-5
		c7.977,1.023,14.331,3.669,21,6c-0.667,0-1.333,0-2,0C694.818,927.849,692.465,927.868,690,928z"/>
	<path fill-rule="evenodd" clip-rule="evenodd" fill="#C7BFBA" d="M823,868c0.798-2.203,2.008-3.992,5-4
		c0.897,5.564-2.344,6.989-5,9C823,871.333,823,869.667,823,868z M825,871c0.717-1.064,3.904-4.606,1-6
		C825.283,866.064,822.096,869.605,825,871z"/>
	<path fill-rule="evenodd" clip-rule="evenodd" fill="#C7BFBA" d="M636,888c4.25,8.155,14.43,15.474,15,24
		c-11.551-7.912-18.065-23.418-28-33c-4.523-4.363-12.644-6.348-11-14c8.995,6.338,17.574,13.093,24,22
		C636,887.334,636,887.666,636,888z M615,868c-2.1,7.524,16.379,11.554,17,23c6.192,0.491,7.504,11.14,12,10
		C635.923,888.41,627.475,876.192,615,868z M645,904c0.175,3.492,2.301,5.032,5,6C649.825,906.508,647.699,904.968,645,904z"/>
	<path fill-rule="evenodd" clip-rule="evenodd" fill="#FFFFFF" d="M644,901c-4.496,1.14-5.808-9.509-12-10
		c-0.621-11.446-19.1-15.476-17-23C627.475,876.192,635.923,888.41,644,901z"/>
	<path fill-rule="evenodd" clip-rule="evenodd" fill="#BA9C1D" d="M821,869c1.003,0.003,1.189-0.811,2-1c0,1.667,0,3.333,0,5
		c-4.544,4.122-8.62,8.713-13,13c-0.333,0-0.667,0-1,0c-1.987,0.013-1.271,2.729-4,2c-0.857-3.19,1.574-3.093,2-5
		c1.615,0.282,1.722-0.945,3-1c3.664-4.002,9.354-5.979,11-12C821,869.667,821,869.333,821,869z"/>
	<path fill-rule="evenodd" clip-rule="evenodd" fill="#6F5C55" d="M750,905c5.066-0.292,11.172-4.796,15-3
		c-1.419-0.086-2.832-0.165-3,1c-0.333,0-0.667,0-1,0C757.595,903.928,755.135,905.802,750,905z"/>
	<path fill-rule="evenodd" clip-rule="evenodd" fill="#6F5C55" d="M744,913c-0.125,2.209-4.242,0.425-6,1
		c-1.571-7.237,6.59-4.743,9-8c-0.391,3.942-6.59,2.077-8,5c-1.008,3.008,2.228,1.772,4,2C743.333,913,743.667,913,744,913z"/>
	<path fill-rule="evenodd" clip-rule="evenodd" fill="#6F5C55" d="M776,903c0.673-4.66,9.059-1.608,10-6
		c-0.227-1.44-2.984-0.349-3-2c4.589,0.923,4.832-2.502,9-2C789.157,898.823,781.864,900.197,776,903z"/>
	<path fill-rule="evenodd" clip-rule="evenodd" fill="#6F5C55" d="M696,903c-3.282-3.718-9.178-4.822-15-6
		c1.723,6.943,8.182,9.152,16,10c5.789,1.068,11.201,6.643,17,2c-0.189-0.81-1.003-0.997-1-2c0.81,0.19,0.997,1.003,2,1
		c-3.861,8.336-9.156,1.37-16,0c-10.732-2.149-22.062-5.798-24-14c12.427,1.906,20.703,7.964,31,12
		C701.714,905.952,698.41,904.923,696,903z"/>
	<path fill-rule="evenodd" clip-rule="evenodd" fill="#C7BFBA" d="M697,907c-7.818-0.848-14.277-3.057-16-10
		c5.822,1.178,11.718,2.282,15,6c0,0.333,0,0.667,0,1c-3.117-2.883-7.025-4.975-13-5c2.812,3.855,6.621,6.712,13,7
		c0-0.333,0-0.667,0-1C696.973,905.027,696.776,906.225,697,907z"/>
	<path fill-rule="evenodd" clip-rule="evenodd" fill="#BA9C1D" d="M765,902c6.12-2.213,10.735-5.932,18-7
		c0.016,1.651,2.773,0.56,3,2c-0.941,4.392-9.327,1.34-10,6c-3.104-0.104-2.854,3.146-7,2c4.965-2.701,9.995-5.338,15-8
		c-7.955-2.152-12.841,6.152-22,6C762.168,901.835,763.581,901.914,765,902z"/>
	<path fill-rule="evenodd" clip-rule="evenodd" fill="#BA9C1D" d="M768,905c-9.635,2.523-15.372,3.739-24,8c-0.333,0-0.667,0-1,0
		c-1.772-0.228-5.008,1.008-4-2c1.41-2.923,7.609-1.058,8-5c1.615,0.282,1.722-0.945,3-1c5.135,0.802,7.595-1.072,11-2
		c-0.3,1.177-5.295,2.511-2,4C760.343,905.286,767.258,904.001,768,905z M741,912c5.538-1.129,11.062-2.271,14-6
		C747.785,905.452,745.274,909.607,741,912z"/>
	<path fill-rule="evenodd" clip-rule="evenodd" fill="#BA9C1D" d="M696,904c0-0.333,0-0.667,0-1c2.41,1.923,5.714,2.952,10,3
		c1.289,1.378,4.344,0.99,7,1c-0.003,1.003,0.811,1.19,1,2c-5.799,4.643-11.211-0.932-17-2c-0.224-0.775-0.027-1.973-1-2
		C696,904.666,696,904.334,696,904z M702,908c3.162,0.686,6.839,3.775,9,0C707.629,908.959,704.169,904.938,702,908z"/>
	<path fill-rule="evenodd" clip-rule="evenodd" fill="#6F5C55" d="M820,909c-2.785,7.549-8.573,12.094-18,13
		C805.275,914.941,810.653,909.986,820,909z M805,920c6.162-1.505,11.688-3.646,13-10C812.216,911.883,806.964,914.297,805,920z"/>
	<path fill-rule="evenodd" clip-rule="evenodd" fill="#C7BFBA" d="M818,910c-1.312,6.354-6.838,8.495-13,10
		C806.964,914.297,812.216,911.883,818,910z M806,919c3.747-0.95,9.751-4.875,9-7C811.554,913.887,807.688,915.355,806,919z"/>
	<path fill-rule="evenodd" clip-rule="evenodd" fill="#FFFFFF" d="M815,912c0.751,2.125-5.253,6.05-9,7
		C807.688,915.355,811.554,913.887,815,912z"/>
	<path fill-rule="evenodd" clip-rule="evenodd" fill="#6F5C55" d="M766,932c-18.478-0.527-35.306,3.675-51-6
		c6.595-7.996,18.88-1.487,28-2c13.143-0.738,25.485-8.862,38-9c-0.951,4.049-10.262-0.263-11,4c-0.333,0-0.667,0-1,0
		c-7.462,0.538-13.397,2.603-19,5c-0.333,0-0.667,0-1,0c-9.019,3.018-26.002-4.459-32,2c4.827,3.668,10.398,2.08,17,5
		c1.333,0,2.667,0,4,0C744.695,931.1,758.852,930.226,766,932z"/>
	<path fill-rule="evenodd" clip-rule="evenodd" fill="#6F5C55" d="M768,932c9.755-4.245,18.472-9.528,25-17
		c-2.29-3.866-7.264-0.425-11,0c2.352-2.353,9.28-4.207,13-2C789.274,922.608,779.831,928.498,768,932z"/>
	<path fill-rule="evenodd" clip-rule="evenodd" fill="#C7BFBA" d="M782,915c3.736-0.425,8.71-3.866,11,0
		c-6.528,7.472-15.245,12.755-25,17c-0.667,0-1.333,0-2,0c-7.148-1.774-21.305-0.9-28-1c21.016-1.192,44.162,0.865,53-16
		c-6.181-1.632-13.175,4-21,4c0.738-4.263,10.049,0.049,11-4C781.333,915,781.667,915,782,915z"/>
	<path fill-rule="evenodd" clip-rule="evenodd" fill="#C7BFBA" d="M749,924c-7.226,4.257-22.488-1.539-31,1
		c3.56,3.773,12.988,1.678,16,6c-6.602-2.92-12.173-1.332-17-5C722.998,919.541,739.981,927.018,749,924z"/>
	<path fill-rule="evenodd" clip-rule="evenodd" fill="#C7BFBA" d="M750,924c5.603-2.397,11.538-4.462,19-5
		C762.967,920.967,756.82,922.82,750,924z"/>
	<path fill-rule="evenodd" clip-rule="evenodd" fill="#C7BFBA" d="M696,929c0.667,0,1.333,0,2,0c0.333,0,0.666,0,1,0
		c4.729,2.938,10.426,4.907,16,7C706.921,935.412,702.319,931.348,696,929z"/>
	<path fill-rule="evenodd" clip-rule="evenodd" fill="#C7BFBA" d="M716,936c4.546,1.787,10.017,2.65,15,4
		C724.178,940.488,719.72,938.614,716,936z"/>
	<path fill-rule="evenodd" clip-rule="evenodd" fill="#C7BFBA" d="M732,940c0.956-1.85,8.276-1.688,8,1
		c-3.321,0.717-7.327,5.955-11,3C733.861,945.211,739.263,939.701,732,940z"/>
	<path fill-rule="evenodd" clip-rule="evenodd" fill="#C7BFBA" d="M692,943c11.315-0.837,20.599,1.477,36,1
		C714.646,945.992,701.383,944.2,692,943z"/>
	<path fill-rule="evenodd" clip-rule="evenodd" fill="#C7BFBA" d="M690,928c-13.07-3.264-25.641-7.025-36-13
		c7.11,14.557,22.816,20.517,37,28c-16.096-5.93-34.148-15.15-38-30c6.95,4.05,14.109,7.891,23,10c0.333,0,0.667,0,1,0
		C680.735,925.265,686.9,925.1,690,928z"/>
	<path fill-rule="evenodd" clip-rule="evenodd" fill="#C7BFBA" d="M498,265c-0.431,2.236-4.928,0.405-7,1
		C489.77,262.675,497.76,263.554,498,265z"/>
	<path fill-rule="evenodd" clip-rule="evenodd" fill="#C7BFBA" d="M447,280c-1.402,1.598-3.445,2.555-6,3
		C440.908,280.496,446.01,278.117,447,280z"/>
	<path fill-rule="evenodd" clip-rule="evenodd" fill="#C7BFBA" d="M461,614c2.555,0.111,3.5,1.833,5,3c-0.168,1.165-1.581,1.086-3,1
		C462.987,616.013,460.271,616.729,461,614z"/>
	<path fill-rule="evenodd" clip-rule="evenodd" fill="#FFFFFF" d="M690,928c2.465-0.132,4.818-0.151,6,1
		c6.319,2.348,10.921,6.412,19,7c0.333,0,0.667,0,1,0c3.72,2.614,8.178,4.488,15,4c0.333,0,0.666,0,1,0c7.263-0.299,1.861,5.211-3,4
		c-0.333,0-0.667,0-1,0c-15.401,0.477-24.685-1.837-36-1c-0.333,0-0.667,0-1,0c-14.184-7.483-29.89-13.443-37-28
		C664.359,920.975,676.93,924.736,690,928z"/>
	<path fill-rule="evenodd" clip-rule="evenodd" fill="#FFFFFF" d="M738,931c-1.333,0-2.667,0-4,0c-3.012-4.322-12.44-2.227-16-6
		c8.512-2.539,23.774,3.257,31-1c0.333,0,0.667,0,1,0c6.82-1.18,12.967-3.033,19-5c0.333,0,0.667,0,1,0c7.825,0,14.819-5.632,21-4
		C782.162,931.865,759.016,929.808,738,931z"/>
	<path fill-rule="evenodd" clip-rule="evenodd" fill="#C7BFBA" d="M427,603c-1.322,0.012-0.914,1.753-2,2
		c-3.305-12.032-14.317-21.678-14-34c6.507,9.159,9.295,22.038,16,31C427,602.333,427,602.667,427,603z"/>
	<path fill-rule="evenodd" clip-rule="evenodd" fill="#BA9C1D" d="M796,889c2.09,0.424,2.648-0.686,4-1c0.333,0,0.667,0,1,0
		c0.775,0.224,1.973,0.027,2,1c-0.441,2.292-5.775,4.801-8,2C794.997,889.996,795.81,889.811,796,889z"/>
	<path fill-rule="evenodd" clip-rule="evenodd" fill="#6F5C55" d="M545,260c6.54,2.794,12.77,5.897,16,12
		C551.873,272.33,545.233,265.277,545,260z M555,267c-2.111-0.889-2.956-3.044-6-3C549.796,266.294,554.003,270.915,555,267z"/>
	<path fill-rule="evenodd" clip-rule="evenodd" fill="#1A0F13" d="M464,220c0,0.333,0,0.667,0,1c8.082-2.322,14.005-2.857,23-4
		c0.333,0,0.667,0,1,0c4.442,2.168,11.214,0.47,14,2c0.333,0,0.667,0,1,0c4.725,3.609,12.932,3.735,19,6c0.333,0,0.667,0,1,0
		c6.672,2.662,11.463,7.204,19,9c0.333,0,0.667,0,1,0c0,0.333,0,0.667,0,1c15.885,13.448,32.767,25.9,54,34
		c2.939,6.728,8.177,11.156,15,14c-0.423,2.09,0.686,2.648,1,4c25.204,12.463,42.686,32.647,57,56c0,0.333,0,0.667,0,1
		c2.209,3.791,2.214,9.787,6,12c0,0.333,0,0.667,0,1c1.321,5.012,4.812,7.854,8,11c-0.282,1.615,0.945,1.722,1,3
		c8.793,15.54,18.324,30.342,27,46c0,0.333,0,0.667,0,1c8.026,14.307,15.256,29.411,24,43c0.38,7.62,6.99,9.01,9,15
		c1.3,7.034,6.264,10.402,9,16c4.177,8.49,9.277,16.056,14,24c0,0.333,0,0.667,0,1c6.773,13.227,15.226,24.775,23,37
		c0.261,3.073,2.17,4.497,3,7c0,0.333,0,0.667,0,1c3.279,1.387,3.546,5.787,5,9c-0.236,4.236,2.917,5.083,4,8
		c10.543,23.124,23.682,43.652,35,66c-0.604,3.938,1.474,5.193,3,7c-0.003,3.336,3.253,3.414,3,7c9.217,14.783,15.044,32.956,25,47
		c-0.581,3.914,0.86,5.807,2,8c0.1,4.9,2.572,7.428,4,11c0.197,5.803,3.347,8.653,4,14c2.833,3.167,0.887,11.114,4,14
		c0,0.333,0,0.667,0,1c1.278,6.722,3.291,12.709,5,19c-0.061,3.727,1.009,6.325,2,9c0,6.333,0,12.667,0,19c0,0.333,0,0.667,0,1
		c-0.333,0-0.667,0-1,0c1.801,5.199-0.189,14.189,2,19c0,0.667,0,1.333,0,2c-0.334,0-0.666,0-1,0c2.535,12.028-5.695,20.615-8,31
		c-0.866,3.801-4.519,4.814-4,10c-3.855,1.812-2.806,8.527-5,12c0,0.333,0,0.667,0,1c-4.676,11.006-17.09,21.835-26,33
		c-4.435,5.557-6.863,13.713-12,18c-7.55,6.3-18.658,7.008-27,13c-1.419-0.086-2.832-0.165-3,1c-0.333,0-0.667,0-1,0
		c-7.465,1.535-16.813,1.187-23,4c-11.741-0.074-23.22,0.113-30,5c-14.145,1.188-21.52,9.146-34,12c-2.963-0.704-4.354-2.979-9-2
		c-3.699-0.634-5.953-2.714-11-2c-0.667,0-1.333,0-2,0c-1.359-2.974-6.909-1.757-11-2c-9.947,1.022-14.949,0.312-22-3
		c-3.056-0.944-3.134-4.866-7-5c0-0.333,0-0.667,0-1c-12.212-9.121-27.95-14.717-41-23c0.075-1.742-0.224-3.11-1-4
		c-1.366-4.968-7.08-5.587-9-10c0-0.333,0-0.667,0-1c-11.294-25.705-38.228-35.771-48-63c0-0.333,0-0.667,0-1
		c-13.019-19.647-26.063-39.27-42-56c0-0.334,0-0.667,0-1c-6.665-12.002-14.169-23.164-21-35c-0.991-8.009-4.125-13.875-8-19
		c0.282-1.615-0.945-1.722-1-3c-10.68-24.32-27.428-42.572-39-66c0-0.333,0-0.667,0-1c-1.36-6.306-4.7-10.634-8-15
		c-0.26-3.073-2.169-4.497-3-7c-1.031-4.302-2.499-8.168-5-11c0-0.333,0-0.667,0-1c-5.112-5.221-5.269-15.397-10-21
		c-1.193-4.474-3.617-7.717-7-10c0-0.333,0-0.667,0-1c-5.648-14.019-16.134-23.199-23-36c-1.576-4.757-3.062-9.604-5-14
		c-1.527-7.807-5.046-13.62-8-20c-0.619-7.381-4.855-11.145-7-17c0-0.333,0-0.667,0-1c-2.86-8.14-3.568-18.432-7-26
		c0-0.333,0-0.667,0-1c-0.337-4.997-2.35-8.317-4-12c0-0.333,0-0.667,0-1c-2.171-6.829-4.868-13.132-8-19
		c-1.714-11.619-5.536-21.131-10-30c-1.595-3.405-1.871-8.129-4-11c0-0.333,0-0.667,0-1c-0.989-9.011-2.038-17.962-3-27
		c1.251-2.764-0.06-10.236-2-13c-3.355-17.661,1.763-29.356,7-41c0-0.333,0-0.667,0-1c1.216-4.451,1.086-10.247,1-16
		c0.424-3.576,2.664-5.336,2-10c0.314-1.352,1.423-1.91,1-4c0.333,0,0.667,0,1,0c2.291-2.043,3.78-4.887,8-5
		c0.491,4.491-0.507,7.493-1,11c0,0.333,0,0.667,0,1c-6.025,9.642-1.131,30.202-7,40c-1.151,1.182-1.132,3.535-1,6
		c-2.868,3.54-4.304,11.816-1,16c0,0.333,0,0.667,0,1c1.045,29.077,3.938,59.294,19,77c3.573-20.413-6.647-40.301-10-60
		c0-0.333,0-0.667,0-1c0.332-3.999-1.783-5.551-1-10c2.97-7.03,2.317-17.683,3-27c1.797-3.87,4.67-6.664,4-13
		c1.378-1.289,0.99-4.344,1-7c1.143-6.523,5.551-9.782,7-16c0-0.333,0-0.667,0-1c1.357-0.31,0.83-2.504,1-4
		c1.949-3.051,3.327-6.673,3-12c0-0.333,0-0.667,0-1c3.76-21.906,30.263-21.07,35-42c0-0.333,0-0.667,0-1
		c3.208-11.125,12.077-16.59,24-19c0.333,0,0.667,0,1,0c4.105,0.105,8.164,0.164,10-2c0.333,0,0.667,0,1,0
		c8.6-1.4,14.368-5.632,21-9C461.333,220,462.667,220,464,220z M469,230c-7.966,1.261-19.254,3.935-22,10
		c8.967,4.09,19.901,1.857,31,3c18.89,1.944,39.539,10.445,56,0C520.983,230.511,494.896,225.899,469,230z M414,265
		c9.93-3.07,22.358-3.642,26-13C428.29,253.29,417.92,255.92,414,265z M542,263c3.764-5.937-6.874-9.954-11-8
		C531.164,261.169,538.203,260.464,542,263z M396,289c0.869,5.574-5.392,8.095-3,12c19.484-7.516,33.45-20.55,49-32
		c10.354-1.646,21.024-2.976,26-10C438.597,255.694,414.333,274.594,396,289z M561,272c-3.23-6.103-9.46-9.206-16-12
		C545.233,265.277,551.873,272.33,561,272z M553,280c-14.886-10.221-46.077-22.85-68-13c-9.775,0.559-15.101,5.566-24,7
		c-12.729,2.271-23.172,6.829-30,15c-6.878,6.456-15.355,11.312-24,16c-8.445-0.112-10.534,6.132-14,11
		c-2.039,0.294-1.961,2.706-4,3c-10.08,3.592-14.14,18.52-13,30c-1.629,7.704-2.755,15.912-5,23c-0.333,0-0.667,0-1,0
		c-3.59,13.579-2.968,32.565,4,42c2.246,9.088,5.578,17.088,6,28c0.337,13.443,2.279,24.864,9,34c2.34,6.327,5.447,11.887,6,20
		c-2.114,7.624,2.256,16.947,8,20c5.338,10.662,12.218,19.782,16,32c2.208,11.125,7.923,18.744,15,25c-0.003,1.003,0.81,1.19,1,2
		c8.387,14.613,19.025,26.975,26,43c7.575,1.092,10.882,6.452,20,6c4.766-0.099,7.47,1.863,11,3c7.272,5.731,19.706,4.532,31,4
		c13.858,2.148,21.255-0.128,34-3c0.211,1.122,1.11,1.557,2,2c5.854,0.188,9.281-2.053,12-5c4.609-3.01,7.391,8.01,12,5
		c14.156-4.844,24.674-13.326,40-17c0,0.333,0,0.667,0,1c8.028-0.972,12.634-5.366,18-9c3.289-1.377,6.711-2.623,10-4
		c17.293-0.377,23.278-17.384,27-28c3.086-6.914,6.988-13.012,12-18c0.333,0,0.667,0,1,0c3.575-3.425,8.251-5.749,8-13
		c2.43-4.237,4.998-8.335,9-11c3.385-1.617,6.341-7.864,10-6c0.712,7.045-3.731,8.935-6,13c-8.361,6.972-15.723,14.943-19,27
		c0,0.333,0,0.667,0,1c-4.562,5.438-11.385,8.615-12,18c0,1.333,0,2.667,0,4c-5.574,6.426-8.882,15.118-19,17
		c-12.777,4.89-21.521,13.812-30,23c2.657,1.417,8.234-1.352,12-2c1.122-0.211,1.557-1.109,2-2c0.333,0,0.667,0,1,0
		c4.917-0.083,4.415-5.585,9-6c5.122-3.544,11.578-5.755,15-11c3.123-1.877,5.514-4.486,10-5c3.545-0.211,1.976,4.691,6,4
		c2.055-1.611,2.319-5.014,2-9c2.754-0.913,5.501-1.833,6-5c2.205-4.128,4.663-8.003,6-13c1.717-3.283,2.646-7.354,3-12
		c0-0.333,0-0.667,0-1c3.008-3.326,4.045-8.622,7-12c1.486-3.181,3.786-5.547,9-5c0,1,0,2,0,3c-1.971,4.362-5.426,7.241-7,12
		c0.043,1.377-0.471,2.195-1,3c-0.333,0-0.667,0-1,0c0,1.667,0,3.333,0,5c7.167-3.833,14.334-7.666,16-17
		c-0.075-1.742,0.224-3.11,1-4c1.544-6.456,3.619-12.38,6-18c0-0.333,0-0.667,0-1c0.333,0,0.667,0,1,0c0.01-4.657,3.811-5.523,3-11
		c-4.573-5.76-6.213-14.454-11-20c-5.024,0.309-6.294,4.373-10,6c0.771-5.229,1.644-10.356,2-16c0.977-2.022-4.232-6.4-6-9
		c-14.693-19.307-25.017-42.983-35-67c-1.771-7.229-4.732-13.268-9-18c-5.063-8.937-9.468-18.533-15-27
		c-5.229-9.438-12.225-17.108-20-24c-1.122-0.211-1.557-1.11-2-2c-3.305-5.028-7.118-9.548-12-13c-10.665-7.23-13.925-20.739-24-29
		C583.958,292.126,565.832,290.295,553,280z M659,339c-8.673-18.327-22.175-31.826-41-40c-1.493-4.909-7.086-8.225-12-12
		c-7.971-6.125-17.092-17.952-28-16c9.263,14.737,23.982,24.018,40,32c13.027,16.654,27.765,36.882,45,46
		c-0.898-3.436-1.555-7.112-4-9C659,339.667,659,339.333,659,339z M705,433c-5.55-8.45-5.943-22.056-18-24
		c0.638,6.363,3.734,10.266,4,17c9.225,6.157,13.296,22.638,22,26c-1.459-7.208-4.681-12.653-8-18C705,433.667,705,433.333,705,433z
		 M364,464c-1.038-5.962-0.036-13.964-5-16C356.862,453.163,359.342,462.306,364,464z M381,500c-2.787-9.546-6.237-18.429-12-25
		c1.008,8.325,2.465,16.202,5,23c0,0.333,0,0.667,0,1c2.944,19.389,9.236,35.43,19,48c0.823-16.203-7.287-32.012-12-46
		C381,500.667,381,500.333,381,500z M746,505c1.303-9.978-4.025-21.969-12-26C731.882,489.887,741.643,497.282,746,505z M765,529
		c-1.454-8.213-6.702-12.631-11-18c-4.566,3.151-3.08,11.514,1,14c0,0.333,0,0.667,0,1c3.364,11.969,8.37,22.296,17,29
		c-1.54-8.793-3.841-16.826-7-24C765,530.333,765,529.667,765,529z M851,799c-0.588-44.606-14.256-74.737-25-111
		c-2.81-3.856-7.19-6.144-9-11c0-2.333,0-4.667,0-7c-15.22-30.979-31.762-64.566-49-91c-9.5-14.566-14.439-31.808-27-43
		c-2.627,3.04-5.877,5.456-8,9c0,0.667,0,1.333,0,2c-2.163,3.504-2.993,8.34-4,13c0.591,4.258-0.719,6.614-1,10
		c-21.979,12.021-28.175,39.824-48,54c-0.333,0-0.667,0-1,0c-11.026,2.975-18.35,9.65-26,16c-3.103,2.231-7.885,2.782-10,6
		c-1.824,1.509-5.605,1.061-7,3c-0.333,0-0.667,0-1,0c-6.255,1.304-14.094,3.298-18,4c-0.333,0-0.667,0-1,0c-2.667,0-5.333,0-8,0
		c-2.17,1.83-8.189-0.188-10,2c-9.402,1.598-17.444,4.556-26,7c-6.093,1.574-11.621,3.712-18,5c-7.371,1.538-18.314-1.563-27-2
		c-0.333,0-0.667,0-1,0c-1,0-2,0-3,0c-6.192,0.141-12.207,0.459-17,2c-2.333,0-4.667,0-7,0c-5.188,3.839,2.341,11.427,5,14
		c0.889,2.111,3.044,2.955,3,6c14.911,24.756,29.493,49.84,46,73c0,0.333,0,0.667,0,1c2.775,7.559,6.063,14.604,12,19
		c0,0.333,0,0.667,0,1c2.164,2.837,2.493,7.507,5,10c0,0.333,0,0.667,0,1c8.562,17.772,21.368,31.298,32,47
		c5.626,0.374,7.125,4.875,11,7c15.839,5.518,23.089,27.319,44,31c0.333,0,0.667,0,1,0c3.47,5.032,11.443,2.965,17,5
		c15.195,5.564,29.164,21.1,49,21c0.775-0.224,1.973-0.027,2-1c0.333,0,0.667,0,1,0c1.377-0.043,2.195,0.471,3,1
		c3.884,2.541,10.873-4.164,14,0c0.294-2.039,2.706-1.961,3-4c0.333,0,0.667,0,1,0c6.017-2.523,11.096,0.161,15-4
		c0.333,0,0.667,0,1,0c4.842-1.825,9.206-4.128,14-6c10.492-6.508,22.197-11.803,32-19c7.572-3.094,10.72-10.614,17-15
		c3.906-18.427,21.731-22.936,24-43C851.168,805.906,852.477,802.961,851,799z M427,602c-5.855-12.145-9.321-26.679-19-35
		c-1.351,10.119,8.39,17.534,10,28c4.403,0.04,5.172,17.083,9,8C427,602.667,427,602.333,427,602z M793,591
		c-3.114-6.886-7.104-12.896-12-18c5.311,24.039,20.546,46.775,32,68c-0.421-6.932-4.824-17.586-8-25c0-0.333,0-0.667,0-1
		c-3.403-8.264-7.216-16.117-12-23C793,591.667,793,591.333,793,591z M829,639c-4.064-13.603-10.389-24.944-18-35
		C811.584,617.138,821.496,629.463,829,639z M627,619c-3.5,1.833-4.756,5.91-10,6c-2.375,0.625-4.655,1.345-5,4
		c6.41,0.41,10.131-1.869,13-5c0.333,0,0.667,0,1,0c4.109,0.398,7.327-5.282,5-8C630.729,618.062,626.572,616.238,627,619z M480,634
		c0-0.333,0-0.667,0-1c-2.409,0.409-2.174-1.826-5-1c-2.98,5.065,2.082,9.615,6,11c3.438,0.438,5.605-0.396,8-1c1.667,0,3.333,0,5,0
		c2.642-2.348,6.293,0.357,5,5c4.098-1.041,8.177,3.08,11,0c6.761-1.479,14.268-2.172,19-1c2.631-1.035,6.137-1.196,10-1
		c4.279,0.279,4.945-3.055,10-2c7.767-1.426-5.537-7.723-9-4c-2.608,0.172-7.839,1.762-12,0c-17.781,2.546-31.522-6.077-47-5
		C480.667,634,480.333,634,480,634z M611,637c-7.38,0.954-13.925,2.741-21,4c-2.503-0.17-3.13,1.536-4,3
		c2.639,1.399,11.434,1.848,14,0c0.61-0.057,1.184-0.149,1-1c0.333,0,0.667,0,1,0c4.564,0.897,5.668-1.665,9-2
		c1.528-2.805,6.746-1.921,7-6C614.011,634.012,614.989,637.988,611,637z M456,655c-3.702-6.298-6.777-13.223-13-17
		c-0.813,9.146,5.731,10.936,5,20c25.175,40.824,48.381,83.619,69,129c8.096,7.904,16.367,15.633,20,28c3.399,1.934,6.816,3.851,9,7
		c19.202,33.465,45.104,60.229,69,89c0.798,1.869,1.671,3.662,2,6c10.811,5.189,18.106,13.894,31,17
		c-1.833-18.873-17.84-29.042-28-39c-5.031-4.931-7.277-11.291-11-17c-15.243-23.375-39.64-41.086-54-65
		c-5-10.667-11.143-20.19-18-29c0-0.333,0-0.667,0-1c-17.129-25.203-38.431-46.235-52-75c0-0.333,0-0.667,0-1
		c-9.057-17.609-16.722-36.611-29-51C456,655.667,456,655.333,456,655z M822,657c1.79-2.521-0.795-7.348-5-7
		C817.188,653.812,818.42,656.58,822,657z M872,736c-5.812-18.843-12.69-41.719-25-57c0.025,8.29,2.337,15.055,6,22
		c0,0.333,0,0.667,0,1c4.518,16.816,9.811,32.855,15,49c0,0.334,0,0.666,0,1c0.935,7.381-1.529,18.921,3,25c0,0.333,0,0.667,0,1
		c0.705,11.023,2.165,29.619-3,40c0,0.333,0,0.667,0,1c-2.514,8.819-6.996,15.671-8,26c-0.838,2.162-2.589,3.411-2,7
		c-3.771,7.896-8.454,14.88-10,25c-0.84,1.161-1.319,2.681-1,5c-4.976,10.691-11.012,20.321-15,32
		c27.124-17.876,40.863-49.137,51-84c0-0.333,0-0.667,0-1c3.439-31.037-1.168-67.947-11-92C872,736.667,872,736.333,872,736z
		 M502,710c3.624,6.807,9.066,16.803,16,17c-6.309-18.69-15.49-34.51-29-46c3.138,10.529,7.52,19.814,13,28
		C502,709.334,502,709.666,502,710z M840,712c0.589-2.102-0.241-10.054-4-11C835.362,706.638,838.682,708.318,840,712z M577,824
		c-3.426,4.749,2.949,11.729,7,9C582.217,829.449,581.122,825.212,577,824z M850,833c-3.808,0.859-5.764,3.569-6,8
		C848.584,841.171,852.008,836.247,850,833z M810,886c5.757-7.309,20.436-10.81,18-23c-4.241,0.092-5.162,3.505-7,6
		c0,0.333,0,0.667,0,1c-3.206,4.461-7.83,7.503-11,12c-1.278,0.055-1.385,1.282-3,1c-2.323,1.678-4.226,3.774-7,5
		c-1.352,0.314-1.91,1.424-4,1c-2.688-0.688-1.933,2.067-3,3c1.454,1.546,5.119,0.881,8,1c0.557-4.443,6.791-3.209,8-7
		C809.333,886,809.667,886,810,886z M636,887c-4.619-10.432-16.227-19.038-25-22c-0.587,9.107,9.552,13.112,15,19
		c8.943,9.664,15.176,22.806,25,31c5.301,10.699,14.127,17.873,26,22c-0.473,3.14,2.691,2.642,3,5c17.803,3.02,48.953,10.388,62-3
		c-16.105,0.148-29.281-5.181-43-10c-0.334,0-0.667,0-1,0c-6.669-2.331-13.023-4.977-21-6c-0.333,0-0.667,0-1,0
		c-20.48-4.52-28.176-21.824-40-35C636,887.666,636,887.334,636,887z M783,895c-7.265,1.068-11.88,4.787-18,7
		c-3.828-1.796-9.934,2.708-15,3c-1.278,0.055-1.385,1.282-3,1c-2.41,3.257-10.571,0.763-9,8c1.758-0.575,5.875,1.209,6-1
		c8.628-4.261,14.365-5.477,24-8c0.333,0,0.666,0,1,0c4.146,1.146,3.896-2.104,7-2c5.864-2.803,13.157-4.177,16-10
		C787.832,892.498,787.589,895.923,783,895z M706,906c-10.297-4.036-18.573-10.094-31-12c1.938,8.202,13.268,11.851,24,14
		c6.844,1.37,12.139,8.336,16,0c-1.003,0.003-1.19-0.81-2-1C710.344,906.99,707.289,907.378,706,906z M802,922
		c9.427-0.906,15.215-5.451,18-13C810.653,909.986,805.275,914.941,802,922z M674,915c1.891,0.225,2.206-1.127,4-1
		c0.698-3.698-1.582-4.418-5-4C671.89,913.14,672.532,912.642,674,915z M768,932c11.831-3.502,21.274-9.392,27-19
		c-3.72-2.207-10.648-0.353-13,2c-0.333,0-0.667,0-1,0c-12.515,0.138-24.857,8.262-38,9c-9.12,0.513-21.405-5.996-28,2
		c15.694,9.675,32.522,5.473,51,6C766.667,932,767.333,932,768,932z"/>
</g>
</svg>
