<?xml version="1.0" encoding="utf-8"?>
<!-- Generator: Adobe Illustrator 15.0.0, SVG Export Plug-In . SVG Version: 6.00 Build 0)  -->
<!DOCTYPE svg PUBLIC "-//W3C//DTD SVG 1.1//EN" "http://www.w3.org/Graphics/SVG/1.1/DTD/svg11.dtd">
<svg version="1.1" id="Pink_Germ_xA0_Image_1_" xmlns="http://www.w3.org/2000/svg" xmlns:xlink="http://www.w3.org/1999/xlink"
	 x="0px" y="0px" width="1536px" height="2048px" viewBox="0 0 1536 2048" enable-background="new 0 0 1536 2048"
	 xml:space="preserve">
<g>
	<path fill-rule="evenodd" clip-rule="evenodd" fill="#DE0A7E" d="M750,839c3.937,1.869,3.447,9.85-1,11
		C748.384,845.234,748.018,842.88,750,839z"/>
	<path fill-rule="evenodd" clip-rule="evenodd" fill="#B596AF" d="M806,855c5.346-2.321,14.99-0.343,22-1
		c-1.063,2.27-6.286,0.381-9,1C814.667,855,810.333,855,806,855z"/>
	<path fill-rule="evenodd" clip-rule="evenodd" fill="#830741" d="M805,856c0-0.333,0-0.667,0-1c0.333,0,0.667,0,1,0
		c4.333,0,8.667,0,13,0C816.305,857.304,809.355,855.355,805,856z"/>
	<path fill-rule="evenodd" clip-rule="evenodd" fill="#830741" d="M831,855c8,0,16,0,24,0c0,0.333,0,0.667,0,1
		C847.325,855.341,837.011,857.323,831,855z"/>
	<path fill-rule="evenodd" clip-rule="evenodd" fill="#DE0A7E" d="M754,861c-0.437,1.23-1.28,2.054-3,2
		c-0.839-1.161-1.319-2.681-1-5C752.039,858.294,751.961,860.706,754,861z"/>
	<path fill-rule="evenodd" clip-rule="evenodd" fill="#DE0A7E" d="M701,883c-4.862-2.486-14.007-5.974-11-13
		C694.228,870.004,701.192,875.305,701,883z"/>
	<path fill-rule="evenodd" clip-rule="evenodd" fill="#270110" d="M818,897c0.586,10.252-5.637,13.696-14,15
		c-3.321-1.915-3.897-8.813-2-13C806.417,897.493,813.938,892.731,818,897z"/>
	<path fill-rule="evenodd" clip-rule="evenodd" fill="#C3086A" d="M840,918c0.908,2.075,1.284,5.816,1,7
		C836.747,925.302,839.982,919.668,840,918z"/>
	<path fill-rule="evenodd" clip-rule="evenodd" fill="#C3086A" d="M851,919c4.121,1.212,5.218,5.449,7,9
		c-6.194-3.062-7.858,1.129-16,2C844.317,925.65,849.643,924.31,851,919z"/>
	<path fill-rule="evenodd" clip-rule="evenodd" fill="#C3086A" d="M822,924c0.367,3.034-3.258,2.076-5,3
		C816.542,923.875,819.137,923.803,822,924z"/>
	<path fill-rule="evenodd" clip-rule="evenodd" fill="#C3086A" d="M833,925c-0.835,3.498-6.308,2.359-9,4
		C823.976,925.266,831.447,923.839,833,925z"/>
	<path fill-rule="evenodd" clip-rule="evenodd" fill="#DE0A7E" d="M890,933c-1.996,2.049-6.793,6.78-7,0
		C884.674,931.234,886.351,933.888,890,933z"/>
	<path fill-rule="evenodd" clip-rule="evenodd" fill="#DE0A7E" d="M857,934c1.23,0.436,2.054,1.28,2,3c-3.64-0.973-0.462,4.871-5,3
		C853.459,936.458,857.541,937.541,857,934z"/>
	<path fill-rule="evenodd" clip-rule="evenodd" fill="#DE0A7E" d="M804,943c1.57,0.43,0.854,3.146,4,2c0,1.333,0,2.667,0,4
		C806.932,946.719,801.48,945.813,804,943z"/>
	<path fill-rule="evenodd" clip-rule="evenodd" fill="#DE0A7E" d="M787,946c-0.586,2.081-2.102,3.232-3,5
		c-1.975-0.691-2.666-2.667-3-5C783.338,945.691,785.131,944.042,787,946z"/>
	<path fill-rule="evenodd" clip-rule="evenodd" fill="#DE0A7E" d="M853,949c0,1.333,0,2.667,0,4c-1.912-0.421-4.305-0.362-4-3
		C849.891,949.224,851.258,948.925,853,949z"/>
	<path fill-rule="evenodd" clip-rule="evenodd" fill="#DE0A7E" d="M816,950c2.638-0.304,2.579,2.087,3,4
		C815.662,955.004,815.721,952.612,816,950z"/>
	<path fill-rule="evenodd" clip-rule="evenodd" fill="#DE0A7E" d="M757,951c3.244,1.733-2.598,2.62-1,6
		c-2.615,0.282-4.301-0.365-4-3C754.242,953.576,755.188,951.854,757,951z"/>
	<path fill-rule="evenodd" clip-rule="evenodd" fill="#DE0A7E" d="M786,951c2.828,0.839,6.172,1.161,9,2
		c-1.958,1.869-0.309,3.663,0,6C791.393,956.486,787.916,956.733,786,951z"/>
	<path fill-rule="evenodd" clip-rule="evenodd" fill="#DE0A7E" d="M827,959c-0.741,3.755,2.183,2.835,4,6
		c-3.657-0.218-3.836-1.374-7,0C823.326,961.221,822.775,959.623,827,959z"/>
	<path fill-rule="evenodd" clip-rule="evenodd" fill="#DE0A7E" d="M875,960c1,0,2,0,3,0c0,1.333,0,2.667,0,4
		C875.365,964.302,874.718,962.615,875,960z"/>
	<path fill-rule="evenodd" clip-rule="evenodd" fill="#DE0A7E" d="M735,965c3.213-0.879,1.37,3.296,4,3c-0.256,2.34-4.394,0.576-5,0
		C734.529,967.196,735.043,966.376,735,965z"/>
	<path fill-rule="evenodd" clip-rule="evenodd" fill="#DE0A7E" d="M902,967c0,1,0,2,0,3c-1.667,0-3.333,0-5,0
		C897.914,968.247,898.859,966.526,902,967z"/>
	<path fill-rule="evenodd" clip-rule="evenodd" fill="#DE0A7E" d="M834,971c3.638-0.638,3.93,2.071,4,5
		C835.345,975.655,834.625,973.375,834,971z"/>
	<path fill-rule="evenodd" clip-rule="evenodd" fill="#270110" d="M730,1032c-6.165,6.169-11.767,12.899-18,19
		c-16.481-3.729-22.032,9.202-29,18c-5.035-0.631-10.176-1.157-15-2c-1.308-9.188-14.476-10.165-13-19c-0.776-3.557-4.896-3.771-6-7
		c1.601-8.812-2.717-15.785-1-23c3.539-14.873,22.154-14.56,31-25c9.06-2.781,18.419-5.758,28-2
		C713.577,1005.756,727.112,1013.554,730,1032z M660,1013c-10.6,19.704,1.769,44.275,21,49c6.76-0.73,7.839-11.658,13-15
		c4.592-2.974,11.688-0.847,17-3c7.862-3.187,13.882-12.619,12-21c-0.956-4.256-8.969-11.838-11-14
		c-6.198-6.601-13.735-15.606-27-11c-3.121,1.783,0.32,3.917-2,6C673.465,1005.131,667.981,1010.314,660,1013z"/>
	<path fill-rule="evenodd" clip-rule="evenodd" fill="#C3086A" d="M639,1010c1.23,0.436,2.054,1.28,2,3
		c-1.161,0.839-2.681,1.319-5,1C635.121,1010.787,639.296,1012.63,639,1010z"/>
	<path fill-rule="evenodd" clip-rule="evenodd" fill="#C3086A" d="M592,1056c1.097-2.569,4.993-2.34,6-5
		C600.436,1055.266,595.881,1056.037,592,1056z"/>
	<path fill-rule="evenodd" clip-rule="evenodd" fill="#270110" d="M973,1073c-1.246,7.604-4.68,15.078-11,15
		c-10.598-0.132-14.58-23.251,1-23C966.949,1067.051,969.761,1070.239,973,1073z"/>
	<path fill-rule="evenodd" clip-rule="evenodd" fill="#DE0A7E" d="M474,1089c-3.295-2.342-1.141-6.671,2-8
		c6.991,1.343,9.613,7.053,16,9c0.056,4.723-3.842,5.491-5,9c-5.923-1.41-6.438-8.229-12-10C474.667,1089,474.333,1089,474,1089z"/>
	<path fill-rule="evenodd" clip-rule="evenodd" fill="#270110" d="M847,1146c6.842,1.842,3.9-6.1,9-6c0.483-3.149-3.069-2.264-2-6
		c4.732-0.268,5.631-4.369,9-6c7.323,0.343,7.844,7.489,9,14c-5.501,5.499-15.233,6.767-20,13c-9.132,0.465-10.216-7.117-15-11
		c3.165-6.168,2.554-16.113,7-21c4.331-0.336,10.475,1.142,12-2c3.239,1.127,3.494,5.834,2,9
		C847.278,1127.849,842.037,1138.778,847,1146z"/>
	<path fill-rule="evenodd" clip-rule="evenodd" fill="#C3086A" d="M850,1145c-6.284,0.115-4.61-15.927,4-13
		c-1.209,2.263-2.892,4.397,0,6C850.969,1140.093,849.754,1141.778,850,1145z"/>
	<path fill-rule="evenodd" clip-rule="evenodd" fill="#270110" d="M990,1146c-0.059,9.393,11.495,7.172,15,13
		c-0.076,13.257-1.229,25.438-5,35c-7.99-1.247-10.251,6.108-16,7c-15.163,2.351-24.691-14.116-32-23c0-5,0-10,0-15
		C964.143,1156.81,971.155,1145.489,990,1146z M977,1157c-5.625,1.046-7.969,9.217-14,6c-1.181,4.819-3.066,8.934-3,15
		c6.521,11.5,22.232,21.283,34,9c1.544-8.308,7.377-15.335,3-24C989.643,1160.531,984.833,1155.544,977,1157z"/>
	<path fill-rule="evenodd" clip-rule="evenodd" fill="#B596AF" d="M467,1149c0,3.333,0,6.667,0,10c-0.057,0.61-0.149,1.184-1,1
		C466.633,1156.633,464.711,1150.712,467,1149z"/>
	<path fill-rule="evenodd" clip-rule="evenodd" fill="#830741" d="M1080,1157c2.288,1.712,0.367,7.633,1,11
		C1078.712,1166.288,1080.633,1160.367,1080,1157z"/>
	<path fill-rule="evenodd" clip-rule="evenodd" fill="#270110" d="M517,1176c5.24-2.532,13.273-6.117,21-3
		c9.384,7.441,14.555,14.304,18,31c1.637,7.932,6.146,11.932,3,20c-2.27,5.82-18.311,14.936-20,15c-7.932,0.304-20.28-6.094-22-16
		c-0.329-1.896,1.461-4.832,1-7C515.395,1203.74,508.225,1192.17,517,1176z M529,1222c-2.584,4.191,2.709,3.091,2,8
		c21.987,4.903,22.171-15.621,19-35c-9.562-3.104-12.281-13.053-25-13c-7.8,13.821,2.045,32.316,16,34
		C542.041,1223.04,532.785,1219.785,529,1222z"/>
	<path fill-rule="evenodd" clip-rule="evenodd" fill="#830741" d="M1089,1193c0.333,0,0.667,0,1,0c0,0.333,0,0.667,0,1c0,3,0,6,0,9
		C1087.72,1201.613,1089.627,1196.039,1089,1193z"/>
	<path fill-rule="evenodd" clip-rule="evenodd" fill="#270110" d="M828,1305c-24.74-2.26-30.677-23.323-48-33
		c-19.738-0.262-26.926-13.074-41-19c-2.061-11.606-11.115-16.218-13-28c9.654-2.522,16.991,5.579,24,9
		c4.474,5.105,5.876,13.062,12,17c5.541,3.562,13.85,3.04,20,6c11.783,5.67,18.132,14.967,28,20
		C812.472,1289.248,829.133,1292.462,828,1305z"/>
	<path fill-rule="evenodd" clip-rule="evenodd" fill="#830741" d="M1091,1240c2.311,3.356,0.351,10.983,1,16
		C1089.689,1252.644,1091.649,1245.017,1091,1240z"/>
	<path fill-rule="evenodd" clip-rule="evenodd" fill="#C3086A" d="M1018,1247c0,1,0,2,0,3c-1.772-0.228-5.008,1.008-4-2
		C1014.89,1247.223,1016.258,1246.925,1018,1247z"/>
	<path fill-rule="evenodd" clip-rule="evenodd" fill="#270110" d="M1030,1251c1.52,3.931,4.609,8.313,1,12
		c-3.549,3.255-4.625-2.025-8-2c-10.587,6.414-17.728,16.272-28,23c-21.376,2.22-39.549-0.096-58,7
		c-17.396,6.689-30.112,20.592-44,30c-0.91-1.757-3.504-1.829-5-3c-0.188-7.854,5.198-10.135,7-16
		c25.227-15.107,53.346-27.321,87-34C1005.573,1273.59,1008.297,1250.527,1030,1251z"/>
	<path fill-rule="evenodd" clip-rule="evenodd" fill="#830741" d="M1092,1258c0.333,0,0.667,0,1,0c0,0.333,0,0.667,0,1
		c-0.659,7.675,1.322,17.989-1,24C1092,1274.667,1092,1266.333,1092,1258z"/>
	<path fill-rule="evenodd" clip-rule="evenodd" fill="#DE0A7E" d="M691,1323c13.487-4.18,21.417-13.917,38-15
		c4.022-16.673,37.227-15.467,43,2c-5.019,21.32-26.026,27.804-47,37c-4.232,1.855-10.596,6.763-13,7
		C697.126,1355.471,683.605,1340.227,691,1323z"/>
	<path fill-rule="evenodd" clip-rule="evenodd" fill="#C3086A" d="M935,1323c2.397-9.363-4.334-12.993-7-20
		c2.599,0.599,3.599-0.401,3-3c1.486,0.847,1.447,3.22,2,5c3.685-2.507,3.577-2.588,9-3c0.534-1.44-3.896-2.44-1-3
		c4.525-1.526,2.163,3.837,4,5c10.537-2.604,13.411,3.033,19,3c3.347,0.903,0.873,2.236,0,4c3.001,1.206,9.284-1.715,13-3
		c-0.593,4.748,9.283-0.004,15,2c6.41,2.247,10.596,9.216,8,19c-6.667,1.333-7.789,8.211-12,12c5.706,2.967-3.692,12.002,3,12
		c-1.792,4.25-3.526,5.328-2,11c-2.076,0.591-3.409,1.924-4,4c-21.874-5.022-32.203-22.67-38-41
		C942.662,1326.004,939.201,1324.133,935,1323z"/>
	<path fill-rule="evenodd" clip-rule="evenodd" fill="#C3086A" d="M630,1332c0.553-3.441,3.867-0.579,6,0
		c-0.396,2.79-4.425,9.128-5,3C634.335,1337.901,632.016,1332.289,630,1332z"/>
	<path fill-rule="evenodd" clip-rule="evenodd" fill="#830741" d="M916,1340c0.954,2.824-6.504,4.938-6,1
		C911.182,1339.849,913.535,1339.868,916,1340z"/>
	<path fill-rule="evenodd" clip-rule="evenodd" fill="#830741" d="M570,1344c1.03,4.081-4.67,5.334-4,1
		C566.89,1344.223,568.258,1343.925,570,1344z"/>
	<path fill-rule="evenodd" clip-rule="evenodd" fill="#C3086A" d="M623,1365c-8.257-0.076-8.988-7.679-18-7
		c-0.427-5.094,1.536-7.798,3-11C616.204,1349.797,620.674,1356.325,623,1365z"/>
	<path fill-rule="evenodd" clip-rule="evenodd" fill="#830741" d="M773,1360c-6.166,4.834-14.574,7.426-22,11
		C753.568,1363.387,763.476,1354.189,773,1360z M755,1367c4.876-2.124,10.515-3.485,14-7
		C761.371,1359.371,758.154,1363.154,755,1367z"/>
	<path fill-rule="evenodd" clip-rule="evenodd" fill="#C3086A" d="M769,1360c-3.485,3.515-9.124,4.876-14,7
		C758.154,1363.154,761.371,1359.371,769,1360z"/>
	<path fill-rule="evenodd" clip-rule="evenodd" fill="#830741" d="M740,1363c-1.71,4.623-1.589,11.077-6,13
		C735.512,1371.179,732.941,1362.275,740,1363z"/>
	<path fill-rule="evenodd" clip-rule="evenodd" fill="#C3086A" d="M876,1406c-6.957-14.728,0.928-36.683,15-42
		C885.746,1377.498,877.072,1391.492,876,1406z M878,1381c3.822-0.845,5.543-3.79,7-7C880.478,1374.145,880.332,1378.665,878,1381z
		 M877,1393c-0.169-3.287,6.159-9.217,1-11C878.691,1385.57,874.224,1388.615,877,1393z"/>
	<path fill-rule="evenodd" clip-rule="evenodd" fill="#C3086A" d="M917,1370c-2.696,3.637-7.962,4.704-14,5
		C904.501,1370.168,910.856,1370.19,917,1370z"/>
	<path fill-rule="evenodd" clip-rule="evenodd" fill="#FFFFFF" d="M763,1372c9.086-2.741,15.016,3.016,15,3
		c16.279,16.279-22.198,37.335-23,10C754.849,1379.846,757.604,1373.628,763,1372z"/>
	<path fill-rule="evenodd" clip-rule="evenodd" fill="#C3086A" d="M973,1377c1.167,1.5,2.889,2.445,3,5c-3.14-0.493-2.642,3.447-5,1
		C970.521,1379.854,972.424,1379.091,973,1377z"/>
	<path fill-rule="evenodd" clip-rule="evenodd" fill="#C3086A" d="M650,1418c-2.928-0.898-3.072-0.898-6,0
		c0.968-4.087-2.436-5.926-7-7c-1.335-13.331-13.632-15.701-15-29c4.44-2.517,7.366,0.866,11,2
		C636.81,1397.19,652.006,1398.994,650,1418z"/>
	<path fill-rule="evenodd" clip-rule="evenodd" fill="#DE0A7E" d="M878,1382c5.159,1.783-1.169,7.713-1,11
		C874.224,1388.615,878.691,1385.57,878,1382z"/>
	<path fill-rule="evenodd" clip-rule="evenodd" fill="#FFFFFF" d="M925,1391c5.195,1.066,8.94,7.8,9,8
		c6.007,20.271-26.577,25.703-26,5C908.229,1395.809,914.576,1388.861,925,1391z"/>
	<path fill-rule="evenodd" clip-rule="evenodd" fill="#270110" d="M824,1409c4.518,19.008-14.392,32.712-25,21
		C804.637,1420.371,809.44,1397.524,824,1409z"/>
	<path fill-rule="evenodd" clip-rule="evenodd" fill="#C3086A" d="M775,1406c-2.373,2.627-6.494,3.506-11,4
		C765.361,1406.361,771.28,1407.28,775,1406z"/>
	<path fill-rule="evenodd" clip-rule="evenodd" fill="#830741" d="M935,1407c2.905,2.973-0.528,8.089-4,8
		C932.475,1412.475,934.533,1410.533,935,1407z"/>
	<path fill-rule="evenodd" clip-rule="evenodd" fill="#270110" d="M848,1441c-5.129-7.204-8.801-15.866-8-29
		C856.692,1396.46,875.64,1443.273,848,1441z"/>
	<path fill-rule="evenodd" clip-rule="evenodd" fill="#C3086A" d="M946,1408c0.045,3.045-2.111,3.889-3,6
		C940.639,1412.533,941.869,1406.281,946,1408z"/>
	<path fill-rule="evenodd" clip-rule="evenodd" fill="#DE0A7E" d="M890,1423c2.827-0.16,2.329,3.004,5,3
		C893.536,1428.669,889.514,1425.582,890,1423z"/>
	<path fill-rule="evenodd" clip-rule="evenodd" fill="#830741" d="M1010,1431c-3.268,8.399-11.062,12.271-17,18
		c-2.041,4.292-3.722,8.944-11,8C985.483,1442.483,997.812,1436.811,1010,1431z"/>
	<path fill-rule="evenodd" clip-rule="evenodd" fill="#830741" d="M655,1442c2.635-0.302,3.282,1.385,3,4c-1,0-2,0-3,0
		C655,1444.667,655,1443.333,655,1442z"/>
	<path fill-rule="evenodd" clip-rule="evenodd" fill="#C3086A" d="M897,1446c-1.292,2.498-4.848-1.058-4-4
		C895.66,1442.006,895.551,1444.782,897,1446z"/>
	<path fill-rule="evenodd" clip-rule="evenodd" fill="#830741" d="M736,1474c-1.618,4.382-4.208,7.792-8,10
		c0.841-2.492,1.309-5.357,1-9C732.715,1474.312,731.614,1474.518,736,1474z"/>
	<path fill-rule="evenodd" clip-rule="evenodd" fill="#830741" d="M596,1484c-1.563,3.104-2.617,6.717-5,9
		c-3.769-0.769-4.78,1.22-8,1C584.23,1487.563,590.638,1486.305,596,1484z"/>
	<path fill-rule="evenodd" clip-rule="evenodd" fill="#830741" d="M972,1487c1,0,2,0,3,0c1.151,1.182,1.132,3.535,1,6
		C971.459,1493.342,970.36,1490.247,972,1487z"/>
	<path fill-rule="evenodd" clip-rule="evenodd" fill="#270110" d="M705,1495c1.53,3.073-6.53,3.073-5,0
		C700.606,1494.424,704.743,1492.659,705,1495z"/>
	<path fill-rule="evenodd" clip-rule="evenodd" fill="#270110" d="M755,1498c2.612-0.279,5.004-0.338,4,3
		C756.385,1501.282,754.699,1500.635,755,1498z"/>
	<path fill-rule="evenodd" clip-rule="evenodd" fill="#830741" d="M864,1499c1.086,0.247,0.678,1.988,2,2
		c-0.408,3.592-4.413,3.586-4,8c-5.514,0.234-4.922-4.095-4-8C860.874,1501.207,863.08,1500.746,864,1499z"/>
	<path fill-rule="evenodd" clip-rule="evenodd" fill="#830741" d="M642,1505c-7.025,7.642-7.448,21.885-20,24
		c0.219-13.447,11.617-15.717,16-25C640.09,1503.576,640.648,1504.686,642,1505z"/>
	<path fill-rule="evenodd" clip-rule="evenodd" fill="#830741" d="M783,1504c2.635-0.302,3.282,1.385,3,4
		c-2.615,0.282-4.302-0.365-4-3C782.851,1505.184,782.943,1504.61,783,1504z"/>
	<path fill-rule="evenodd" clip-rule="evenodd" fill="#B596AF" d="M738,847c-6.21-4.766-0.82-17.943,3-22
		C738.639,830.764,733.432,840.493,738,847z"/>
	<path fill-rule="evenodd" clip-rule="evenodd" fill="#B596AF" d="M738,848c1.873,2.793,1.894,7.439,4,10
		c0.042,3.292,1.688,4.979,1,9c-0.89,0.443-1.789,0.878-2,2c-14.427-1.635-26.724,21.471-34,3c8.627,16.277,20.899-5.582,35-5
		C742.875,858.458,738.078,855.589,738,848z"/>
	<path fill-rule="evenodd" clip-rule="evenodd" fill="#B596AF" d="M677,877c-4.153-10.499,6.429-14.896,10-21
		c3.499-0.166,6.401,0.266,8,2c-9.969-3.77-13.105,5.612-17,11C675.745,869.745,677.609,874.609,677,877z"/>
	<path fill-rule="evenodd" clip-rule="evenodd" fill="#B596AF" d="M677,878c1.498,1.502,3.008,2.992,5,4c0.057,0.61,0.149,1.184,1,1
		c0.319,2.348,3.095,2.238,4,4C682.61,885.057,678.935,882.398,677,878z"/>
	<path fill-rule="evenodd" clip-rule="evenodd" fill="#B596AF" d="M688,887c2.092,0.908,3.049,2.951,3,6
		c-1.164,4.169-5.209,5.458-9,7c-5.022,3.311-10.175,6.492-15,10c5.779-7.555,17.009-9.658,23-17
		C690.479,889.854,688.576,889.091,688,887z"/>
	<path fill-rule="evenodd" clip-rule="evenodd" fill="#B596AF" d="M655,917c3.588-2.412,8.277-3.723,11-7
		c-1.688,3.645-5.554,5.113-9,7C656.333,917,655.667,917,655,917z"/>
	<path fill-rule="evenodd" clip-rule="evenodd" fill="#B596AF" d="M625,962c6.171-3.684,2.824-10.865,1-17
		c9.315-5.352,17.273-12.06,23-21c-4.541,9.792-12.621,16.046-22,21c0.914,1.753,0.344,4.99,2,6
		C631.635,955.924,628.642,960.406,625,962z"/>
	<path fill-rule="evenodd" clip-rule="evenodd" fill="#B596AF" d="M614,970c3.616-2.384,5.612-6.388,10-8c0.003,1.003-0.81,1.19-1,2
		C618.327,964.327,618.673,969.673,614,970z"/>
	<path fill-rule="evenodd" clip-rule="evenodd" fill="#B596AF" d="M570,1003c13.162-12.172,26.482-24.185,43-33
		c-4.915,5.418-12.798,7.869-18,13c-6.992,4.008-11.498,10.502-18,15C573.288,998.288,574.291,1003.291,570,1003z"/>
	<path fill-rule="evenodd" clip-rule="evenodd" fill="#B596AF" d="M569,1003c-16.081,15.252-31.403,31.264-45,49
		c-2.323,0.677-2.677,3.323-5,4C534.866,1037.533,549.75,1018.084,569,1003z"/>
	<path fill-rule="evenodd" clip-rule="evenodd" fill="#B596AF" d="M485,1073c5.518,1.816,5.752,8.915,12,10
		c9.248-6.752,12.65-19.35,22-26c-1.382,2.951-4.618,4.049-6,7c-2.965,5.368-7.004,9.663-10,15c-2.596,2.282-5.979,7.939-10,3
		c-3.795-1.538-4.205-6.462-8-8C485,1073.667,485,1073.333,485,1073z"/>
	<path fill-rule="evenodd" clip-rule="evenodd" fill="#B596AF" d="M455,1081c1.834-9.401,20.391-15.01,29-8
		c-8.788-4.351-23.692-1.367-27,6C455.914,1079.247,456.322,1080.988,455,1081z"/>
	<path fill-rule="evenodd" clip-rule="evenodd" fill="#B596AF" d="M455,1082c-0.224,0.775-0.028,1.973-1,2
		c0.157,1.177-0.172,2.839,1,3c0.633,5.033,4.891,6.443,9,8c-7.976,0.643-9.505-5.161-11-11
		C454.086,1083.753,453.678,1082.012,455,1082z"/>
	<path fill-rule="evenodd" clip-rule="evenodd" fill="#B596AF" d="M465,1095c0.667,0,1.333,0,2,0c2.837,3.829,5.835,7.498,10,10
		c-0.054,1.721,0.77,2.563,2,3c2.171,1.686,4.632,6.638,2,10c-0.903,1.764-2.237,3.097-4,4
		C487.36,1111.486,470.451,1102.084,465,1095z"/>
	<path fill-rule="evenodd" clip-rule="evenodd" fill="#B596AF" d="M467,1147c-2.277-2.057-3.454-5.213-3-10
		c4.812-4.188,8.887-9.113,13-14c-2.603,6.063-7.408,9.925-12,14c0,1,0,2,0,3C464.011,1143.988,467.989,1143.012,467,1147z"/>
	<path fill-rule="evenodd" clip-rule="evenodd" fill="#B596AF" d="M466,1161c0,0.667,0,1.333,0,2c-2.937,3.063,1.276,13.276-3,15
		C465.573,1173.907,461.892,1163.559,466,1161z"/>
	<path fill-rule="evenodd" clip-rule="evenodd" fill="#B596AF" d="M463,1180c0,0.667,0,1.333,0,2c-4.643,8.357-5.633,20.367-8,31
		C455.582,1199.916,457.981,1188.648,463,1180z"/>
	<path fill-rule="evenodd" clip-rule="evenodd" fill="#B596AF" d="M454,1225c1.328,8.812,0.274,19.522,3,29
		C452.742,1246.613,453.406,1231.944,454,1225z"/>
	<path fill-rule="evenodd" clip-rule="evenodd" fill="#B596AF" d="M457,1257c3.424,0.979-2.674,5.771,1,7
		c2.184,2.816-0.42,10.42,2,13c0,0.334,0,0.666,0,1c-0.427,5.094,0.442,8.892,3,11c0,2.667,0,5.333,0,8
		C459.644,1285.421,456.341,1269.361,457,1257z"/>
	<path fill-rule="evenodd" clip-rule="evenodd" fill="#B596AF" d="M463,1298c2.544,4.122,1.105,12.228,5,15
		c-0.502,4.168,2.923,4.411,2,9C467.478,1314.569,461.984,1305.743,463,1298z"/>
	<path fill-rule="evenodd" clip-rule="evenodd" fill="#B596AF" d="M470,1325c0.333,0,0.667,0,1,0c7.158,13.509,14.033,27.301,19,43
		C483.037,1353.964,477.846,1338.154,470,1325z"/>
	<path fill-rule="evenodd" clip-rule="evenodd" fill="#B596AF" d="M490,1369c7.767,10.899,10.724,26.609,18,38
		c16.267,6.732,22.664,23.336,37,32c0.51,5.824,9.828,2.838,12,7c5.919,4.414,13.759,6.908,18,13c5.75,4.16,18.011,13.107,8,21
		c-7.665,4.74-19.008,10.896-19,20c0.027,5.307,2.662,8.005,7,9c7.695-0.305,14.409-1.591,18-6c-7.681,10.106-26.909,11.117-27-6
		c0.855-9.194,23.036-14.777,24-23c0.948-8.085-25.607-27.416-33-30c-2.895-1.012-6.369-0.012-8-1c-11.224-12.776-21.7-26.3-37-35
		C500.358,1396.642,496.122,1381.878,490,1369z"/>
	<path fill-rule="evenodd" clip-rule="evenodd" fill="#B596AF" d="M590,1503c7.708-9.366,17.495-27.47,32-13
		c3.629,1.09,5.744,7.23,2,10c0.745,3.078-2.745,1.922-2,5c-3.856,3.144-3.608,10.393-8,13c-1.74,3.26-4.995,5.005-6,9
		c-2.951,2.68-3.729,16.754,1,18c14.652,1.71,25.868-5.409,32-17c-4.832,13.652-17.637,19.586-33,18
		c-10.733-21.976,14.247-32.665,17-51c-4.782-4.583-11.279-10.73-17-10C598.765,1486.18,599.255,1501.271,590,1503z"/>
	<path fill-rule="evenodd" clip-rule="evenodd" fill="#B596AF" d="M641,1527c1.196-9.918,9.628-18.947,17-9
		c-5.756,0.409-4.497-4.206-8-4C644.857,1514.302,645.098,1522.244,641,1527z"/>
	<path fill-rule="evenodd" clip-rule="evenodd" fill="#B596AF" d="M659,1518c2.794,1.539,5.863,2.804,7,6
		C663.514,1522.152,660.357,1520.977,659,1518z"/>
	<path fill-rule="evenodd" clip-rule="evenodd" fill="#B596AF" d="M667,1524c19.633,12.367,41.943,22.057,63,33
		C707.48,1547.52,685.578,1537.422,667,1524z"/>
	<path fill-rule="evenodd" clip-rule="evenodd" fill="#B596AF" d="M739,1558c25.064,1.217,36.812-0.451,60-2
		C778.017,1559.104,761.813,1560.924,739,1558z"/>
	<path fill-rule="evenodd" clip-rule="evenodd" fill="#B596AF" d="M800,1556c10.236-1.431,20.368-2.965,30-5
		C821.552,1554.218,811.929,1556.262,800,1556z"/>
	<path fill-rule="evenodd" clip-rule="evenodd" fill="#B596AF" d="M831,1551c5.647-2.686,11.453-5.214,19-6
		C843.748,1547.082,837.892,1549.559,831,1551z"/>
	<path fill-rule="evenodd" clip-rule="evenodd" fill="#B596AF" d="M864,1541c3.957-1.709,6.097-5.236,12-5
		C871.505,1537.172,868.854,1540.187,864,1541z"/>
	<path fill-rule="evenodd" clip-rule="evenodd" fill="#B596AF" d="M877,1536c4.497-3.836,13.708-2.959,18-7
		C891.349,1533.682,883.626,1534.293,877,1536z"/>
	<path fill-rule="evenodd" clip-rule="evenodd" fill="#B596AF" d="M896,1529c10.84-4.16,18.406-11.594,30-15
		C915.472,1518.472,907.933,1525.933,896,1529z"/>
	<path fill-rule="evenodd" clip-rule="evenodd" fill="#B596AF" d="M931,1511c8.549-4.785,16.687-9.98,25-15
		c6.702,6.271,21.153,21.79,30,8c-7.591,15.938-23.998-1.315-31-7C948.047,1502.714,940.131,1507.465,931,1511z"/>
	<path fill-rule="evenodd" clip-rule="evenodd" fill="#B596AF" d="M984,1478c1.912-12.755,13.779-15.555,20-24
		C998.946,1463.613,986.94,1466.273,984,1478z"/>
	<path fill-rule="evenodd" clip-rule="evenodd" fill="#B596AF" d="M1004,1453c9.85-9.483,19.039-19.627,28-30
		c10.17,6.03,20.733,5.432,27-4c1.39-11.39-1.405-18.595-7-23c-0.155-3.822,0.052-7.282,2-9c0.22,3.221-1.769,4.231-1,8
		c13.304,9.556,6.791,34.051-8,34c-5.463-0.019-4.933-4.047-11-5C1022.247,1431.914,1016.03,1445.363,1004,1453z"/>
	<path fill-rule="evenodd" clip-rule="evenodd" fill="#B596AF" d="M1054,1386c5.274-32.059,26.067-48.6,31-81
		C1081.677,1339.011,1060.422,1355.088,1054,1386z"/>
	<path fill-rule="evenodd" clip-rule="evenodd" fill="#B596AF" d="M1085,1304c1.1-8.233,5.335-13.332,7-21
		c2.322-6.011,0.341-16.325,1-24C1097.323,1276.994,1090.534,1292.531,1085,1304z"/>
	<path fill-rule="evenodd" clip-rule="evenodd" fill="#B596AF" d="M1090,1194c1.2,21.133,1.766,42.9,3,64c-0.333,0-0.667,0-1,0
		c0-0.667,0-1.333,0-2c-0.649-5.017,1.311-12.644-1-16c-1.703-10.964-0.774-24.559-1-37C1090,1200,1090,1197,1090,1194z"/>
	<path fill-rule="evenodd" clip-rule="evenodd" fill="#B596AF" d="M1078,1138c4.688,17.646,4.577,40.09,12,55c-0.333,0-0.667,0-1,0
		c-1.438-9.562-6.16-15.84-8-25c-0.633-3.367,1.288-9.288-1-11C1080.654,1149.346,1079.237,1143.763,1078,1138z"/>
	<path fill-rule="evenodd" clip-rule="evenodd" fill="#B596AF" d="M1078,1137c-3.569-7.764-5.966-16.7-9-25
		C1073.201,1119.133,1075.738,1127.929,1078,1137z"/>
	<path fill-rule="evenodd" clip-rule="evenodd" fill="#B596AF" d="M1069,1111c-2.938-4.062-4.938-9.062-6-15
		C1065.383,1100.617,1067.148,1105.852,1069,1111z"/>
	<path fill-rule="evenodd" clip-rule="evenodd" fill="#B596AF" d="M1059,1082c-3.164-4.169-4.081-10.586-6-16
		C1056.164,1070.169,1057.081,1076.586,1059,1082z"/>
	<path fill-rule="evenodd" clip-rule="evenodd" fill="#B596AF" d="M1042,1037c3.304,5.696,5.788,12.212,8,19
		C1046.628,1050.372,1044.096,1043.904,1042,1037z"/>
	<path fill-rule="evenodd" clip-rule="evenodd" fill="#B596AF" d="M1032,1012c3.067,4.6,4.725,10.608,7,16
		C1035.635,1023.698,1033.8,1017.867,1032,1012z"/>
	<path fill-rule="evenodd" clip-rule="evenodd" fill="#B596AF" d="M1032,1011c-17.409-21.59-30.027-47.973-51-66
		c-6.433-6.567-12.076-13.924-19-20c-4.94-14.009-19.633-18.848-30-27c-2.607-2.05-3.379-5.836-6-8
		c-9.011-7.437-27.334-13.549-36-20c10.438,4.174,26.568,11.783,36,19c3.405,2.606,5.514,7.502,9,10c4.054,2.905,9.969,3.586,14,7
		c4.54,3.845,8.848,10.923,13,16c12.339,15.089,26.296,31.105,42,44C1011.17,983.164,1022.701,995.965,1032,1011z"/>
	<path fill-rule="evenodd" clip-rule="evenodd" fill="#B596AF" d="M889,870c-11.682-4.318-23.127-8.873-34-14c0-0.333,0-0.667,0-1
		C866.106,860.227,878.757,863.91,889,870z"/>
	<path fill-rule="evenodd" clip-rule="evenodd" fill="#B596AF" d="M780,860c6.97-3.031,15.969-4.031,25-5c0,0.333,0,0.667,0,1
		c-7.849,0.818-15.667,1.666-22,4C782,860,781,860,780,860z"/>
	<path fill-rule="evenodd" clip-rule="evenodd" fill="#B596AF" d="M756,826c5.129,0.871,6.657,5.343,8,10
		C761.308,832.692,760.185,827.815,756,826z"/>
	<path fill-rule="evenodd" clip-rule="evenodd" fill="#830741" d="M766,857c5.682-0.015,7.301,4.033,14,3c1,0,2,0,3,0
		c-5.696,3.333-12.635-0.677-17-2C766,857.667,766,857.333,766,857z"/>
	<path fill-rule="evenodd" clip-rule="evenodd" fill="#270110" d="M855,856c10.873,5.127,22.318,9.682,34,14c0.333,0,0.667,0,1,0
		c8.666,6.451,26.989,12.563,36,20c2.621,2.164,3.393,5.95,6,8c10.367,8.152,25.06,12.991,30,27c5.997,7.002,11.767,14.233,19,20
		c20.973,18.027,33.591,44.41,51,66c0,0.333,0,0.667,0,1c1.8,5.867,3.635,11.698,7,16c0.046,3.954,2.201,5.799,3,9
		c2.096,6.904,4.628,13.372,8,19c0.263,4.07,1.881,6.785,3,10c1.919,5.414,2.836,11.831,6,16c0.74,5.26,2.731,9.269,4,14
		c1.062,5.938,3.062,10.938,6,15c0,0.333,0,0.667,0,1c3.034,8.3,5.431,17.236,9,25c0,0.333,0,0.667,0,1
		c1.237,5.763,2.654,11.346,2,19c0.633,3.367-1.288,9.288,1,11c1.84,9.16,6.562,15.438,8,25c0.627,3.039-1.28,8.613,1,10
		c0.226,12.441-0.703,26.036,1,37c0.649,5.017-1.311,12.644,1,16c0,0.667,0,1.333,0,2c0,8.333,0,16.667,0,25
		c-1.665,7.668-5.9,12.767-7,21c0,0.333,0,0.667,0,1c-4.933,32.4-25.726,48.941-31,81c0,0.333,0,0.667,0,1
		c-1.948,1.718-2.155,5.178-2,9c5.595,4.405,8.39,11.61,7,23c-6.267,9.432-16.83,10.03-27,4c-8.961,10.373-18.15,20.517-28,30
		c0,0.333,0,0.667,0,1c-6.221,8.445-18.088,11.245-20,24c1.078,8.951,6.534,17.171,2,26c-8.847,13.79-23.298-1.729-30-8
		c-8.313,5.02-16.451,10.215-25,15c-3.14-0.473-2.642,2.691-5,3c-11.594,3.406-19.16,10.84-30,15c-0.333,0-0.667,0-1,0
		c-4.292,4.041-13.503,3.164-18,7c-0.334,0-0.667,0-1,0c-5.903-0.236-8.043,3.291-12,5c-6.405-0.405-9.336,2.664-14,4
		c-7.547,0.786-13.353,3.314-19,6c-0.334,0-0.666,0-1,0c-9.632,2.035-19.764,3.569-30,5c-0.333,0-0.667,0-1,0
		c-23.188,1.549-34.936,3.217-60,2c-1.659-1.675-5.871-0.796-9-1c-21.057-10.943-43.367-20.633-63-33c-0.333,0-0.667,0-1,0
		c-1.137-3.196-4.206-4.461-7-6c-0.333,0-0.667,0-1,0c-7.372-9.947-15.804-0.918-17,9c0,0.333,0,0.667,0,1
		c-6.132,11.591-17.348,18.71-32,17c-3.348-2.955-2.23-13.542-1-18c1.005-3.995,4.26-5.74,6-9c5.044-1.956,5.677-8.323,8-13
		c-0.745-3.078,2.745-1.922,2-5c5.1-1.292,3.144-10.348-2-10c-14.505-14.47-24.292,3.634-32,13c-0.333,0-0.667,0-1,0
		c-3.591,4.409-10.305,5.695-18,6c-3.54-1.793-5.457-5.21-7-9c-0.008-9.104,11.335-15.26,19-20c3.572-1.428,4.167-5.832,8-7
		c-4.138-5.862-9.832-10.168-16-14c-4.241-6.092-12.081-8.586-18-13c-1.461-4.872-9.291-3.376-12-7
		c-14.336-8.664-20.733-25.268-37-32c-7.276-11.391-10.233-27.101-18-38c0-0.333,0-0.667,0-1c-4.967-15.699-11.842-29.491-19-43
		c0.57-5.57-0.963-9.037-3-12c-3.895-2.772-2.456-10.878-5-15c0-0.333,0-0.667,0-1c0-2.667,0-5.333,0-8
		c-1.852-2.815-1.407-7.926-3-11c0-0.334,0-0.666,0-1c-0.419-4.58,1.288-11.288-2-13c-3.674-1.229,2.424-6.021-1-7c0-1,0-2,0-3
		c-2.726-9.478-1.672-20.188-3-29c-0.402-4.736,1.785-6.882,1-12c2.367-10.633,3.357-22.643,8-31c2.971-4.362,3.397-11.27,3-19
		c0-0.667,0-1.333,0-2c0-0.334,0-0.666,0-1c0.851,0.184,0.943-0.39,1-1c2.147-5.172,1.534-16.182-2-19c0-1,0-2,0-3
		c4.592-4.075,9.397-7.937,12-14c0-0.333,0-0.667,0-1c1.763-0.903,3.097-2.236,4-4c4.548-3.155,2.139-8.395-2-10
		c-1.23-0.437-2.054-1.279-2-3c-2.915-3.752-6.248-7.085-10-10c-0.667,0-1.333,0-2,0c-0.333,0-0.667,0-1,0
		c-4.109-1.557-8.367-2.967-9-8c-0.743-4.076,3.223-3.443,2-8c3.308-7.367,18.212-10.351,27-6c0.333,0,0.667,0,1,0
		c0,0.333,0,0.667,0,1c3.795,1.538,4.205,6.462,8,8c2.493,6.299,9.018,0.947,10-3c2.996-5.337,7.035-9.632,10-15
		c4.633-3.033,7.471-7.862,11-12c13.597-17.736,28.919-33.748,45-49c0.333,0,0.667,0,1,0c4.291,0.291,3.288-4.712,7-5
		c7.368-3.632,12.019-9.981,18-15c5.202-5.131,13.085-7.582,18-13c0.333,0,0.667,0,1,0c4.673-0.327,4.327-5.673,9-6
		c4.426-1.548,11.4-7.872,6-13c-1.656-1.01-1.086-4.247-2-6c9.379-4.954,17.459-11.208,22-21c2.142-2.191,3.112-5.555,6-7
		c0.667,0,1.333,0,2,0c9.845-4.155,17.011-10.989,25-17c3.791-1.542,7.836-2.831,9-7c0.851,0.184,0.943-0.39,1-1
		c-0.302-5.698-5.751-6.249-9-9c-0.851,0.184-0.943-0.39-1-1c-3.051-2.616-4.987-6.346-4-13c3.895-5.388,7.031-14.77,17-11
		c4.467,4.2,9.938,7.396,12,14c7.276,18.471,19.573-4.635,34-3c1.313-0.353,1.573-1.761,3-2c0.155-3.822-0.052-7.282-2-9
		c-2.106-2.561-2.127-7.207-4-10c0-0.333,0-0.667,0-1c-4.568-6.507,0.639-16.236,3-22c5.715-2.456,9.122-0.856,15,1
		c4.185,1.815,5.308,6.692,8,10c1.069,8.453-5.848,17.188,2,21c0,0.333,0,0.667,0,1c4.365,1.323,11.304,5.333,17,2
		c6.333-2.334,14.151-3.182,22-4c4.355-0.645,11.305,1.304,14-1c2.714-0.619,7.937,1.27,9-1c1.615-0.282,1.722,0.945,3,1
		C837.011,857.323,847.325,855.341,855,856z M747,844c0,0.667,0,1.333,0,2c1.096,6.571-0.039,15.372,3,20
		c3.044,0.044,3.889-2.111,6-3c-7.94-7.187,5.733-23.35-7-27C746.484,836.818,746.896,840.562,747,844z M640,948
		c-0.729,2.729,1.987,2.013,2,4c-0.623,4.377-7.2,2.8-8,7c-0.148,4.482,1.871,6.795,5,8c-3.193,4.112-9.012,0.89-11-2
		c-49.921,37.411-101.043,73.624-128,134c-7.478,10.188-15.62,19.714-20,33c0,2,0,4,0,6c-5.535,8.069-8.219,19.3-10,30
		c-6.094,36.608-9.045,69.864-4,107c5.143,37.855,23.13,65.346,37,98c4.072,9.587,5.738,22.382,17,26c4.428-6.938,14.893-8.941,24-6
		c-0.044,3.044,2.111,3.889,3,6c8.726-0.108,13.978,6.484,18,13c7.147,11.578,9.286,18.229,6,31c5.468,6.532,13.175,10.824,18,18
		c45.899,24.435,80.185,60.482,131,80c0.909-0.882,2.951-0.174,6-1c47.765,17.616,106.115,0.461,143-13
		c6.855-2.502,14.532-2.578,21-5c9.852-3.688,17.258-13.955,26-15c-1.322-1.603-4.278-3.737-2-6c2.58,0.086,1.052,4.281,5,3
		c9.979-8.191,21.552-9.36,31-17c-13.305,2.309-32.574,4.423-42-6c-9.713,3.13-22.457,0.21-29,8c-0.546,8.787-0.949,17.718-2,26
		c-10.017,10.743-35.868,17.289-35-7c-4.771-0.77-4.438,3.562-9,3c0.794,7.197,1.347,13.011-4,16c-17.63,2.436-25.888,3.958-42,4
		c-6.395-4.709-11.653-0.12-17-1c-3.087-0.508-5.58-4.402-9-5c-0.459-0.08-3.775,2.002-4,2c-13.29-0.129-23.715-11.616-34-13
		c-4.528-9.411-14.846-9.452-16-19c-1.125-9.305,8.526-11.722,8-23c-15.058-8.368-36.663-6.587-50-18c-6.04,3.96-13.369,6.631-20,10
		c-4.923-2.743-6.503-8.83-10-13c5.433-10.567,12.349-19.651,19-29c-0.652-18.864-13.3-26.834-21-41
		c-11.606-4.627-42.325-6.047-45-18c-2.004-8.955,6.653-10.609,9-19c-9.149,1.545-17.851,5.864-19-4
		c-1.995-17.118,22.88-2.816,33-10c20.536,14.465,26.35,43.65,44,61c-0.827,2.826,1.41,2.591,1,5c2.047,2.286,5.136,3.53,6,7
		c2.979,22.265,5.078,43.547,25,50c10.997,3.562,24.08,4.116,38,7c10.882,4.403,26.186,2.062,37,7c2.458,1.122,3.842,4.904,6,6
		c3.027,1.537,7.616,0.369,11,2c5.585,2.691,9.373,9.867,15,13c6.993,3.893,14.081,3.493,20,9c7.012-1.554,11.028-3.445,19-2
		c28.262-6.995,46.834-23.455,75-28c-6.034-7.966-19.568-8.432-23-19c-2.826,0.826-2.591-1.409-5-1
		c-6.844-16.637-22.781-30.192-15-51c-1.817-1.183-0.786-5.214-2-7c5.844-18.823,14.807-34.526,31-43
		c-5.886-2.626-15.476-2.66-15-14c9.896-7.672,32.228-12.277,43-5c7.547-2.482,21.252-1.101,26,5c3.114,20.219,20.096,26.571,30,40
		c-0.725,3.609-7.619,1.048-10,3c-2.685,8.445,2.902,15.947,4,23c3.27,21.007-7.616,34.314-13,46c-10.294,5.039-16.592,14.075-23,23
		c16.908,5.173,21.036-10.913,34-13c5.423-17.91,13.035-33.632,33-37c6.563-6.771,13.787-12.88,17-23
		c13.188-5.146,18.458-18.209,31-24c-0.816-7.26,6.621-10.678,7-18c0.088-1.706-1.521-4.771-1-7c1.633-6.978,6.229-7.592,9-11
		c4.518-5.555,4.542-13.175,7-20c0.624-1.732,3.409-2.736,4-4c3.797-8.125,2.633-14.857,4-23c2.164-12.887,4.571-22.521,6-34
		c2.683-21.547-5.437-40.121-6-61c-1.315-2.685-2.685-5.315-4-8c0.471-20.14-9.174-38.824-12-59c-10.72-14.673-9.753-37.508-20-54
		c0-2.333,0-4.667,0-7c-4.391-10.629-9.316-20.637-14-31c-3.321-7.349-6.007-10.463-9-16c-2.075-3.838-2.257-8.927-5-13
		c-5.284-7.847-15.394-13.66-14-21c-6.946-1.053-7.644-8.356-10-14c-3.542-1.935-5.775,0.025-10,0c-9.034,11.966-20.631,21.37-38,25
		c-4.383-9.509-19.792-9.088-28-12c-5.918-13.514-12.528-24.264-13-39c10.672-10.995,15.042-28.292,23-42
		c-5.625-2.042-8.079-7.254-15-8c-18.03-24.034-61.927-25.039-93-33c-14.422,0.468-32.57,9.565-47,6c-1.16,4.507-6.698,4.636-11,6
		c-0.333,0-0.667,0-1,0c-19.984,0.217-36.748,10.866-54,17c-1.214,1.786-0.183,5.817-2,7c-8.164-0.498-9.346,5.987-18,5
		c-9.593,9.407-24.807,13.193-31,26c-9.476,2.191-12.429,10.904-15,20C640,947.333,640,947.667,640,948z M686,873
		c4.74,5.926,9.507,11.827,18,14C704.775,875.628,691.228,860.149,686,873z M913,943c-2.562,12.626,3.793,22.265,11,32
		c10.343,1.324,16.66,6.673,26,9c14.278-5.388,23.149-16.184,30-29c-6.322-4.345-7.791-13.542-16-16
		c-2.737-14.929-20.883-14.451-28-25c-0.02-2.98,0.093-6.093-3-6C929.656,919.119,915.188,932.216,913,943z M475,1079
		c-11.833,3.27,3.925,19.229,12,22c2.638-2.972,8.53-7.091,7-11C486.58,1087.633,483.592,1076.626,475,1079z M910,1341
		c-0.504,3.938,6.954,1.824,6-1C913.535,1339.868,911.182,1339.849,910,1341z M607,1345c-1.729,4.604-4.312,8.354-4,15
		c7.612-0.94,12.437,5.962,21,7C624.499,1357.404,616.762,1347.643,607,1345z M933,1358c4.225,5.442,11.012,8.322,16,13
		c-3.304-11.968-31.932-26.114-48-13C908.082,1358.277,922.7,1357.803,933,1358z M877,1409c2.771-3.562-1.605-14.271,6-13
		c-4.176-14.726,9.193-27.739,16-38C878.783,1359.229,864.008,1395.798,877,1409z M901,1376c9.249,0.249,17.271-0.729,20-7
		C913.905,1368.871,902.466,1367.794,901,1376z M918,1378c-0.667,0-1.333,0-2,0c-36.504,2.507-15.195,62.42,15,46
		c-0.375,3.292-5.316,2.017-5,6C956.083,1429.896,957.072,1365.218,918,1378z M884,1416c2.856,16.657,30.772,37.387,45,23
		c-26.789-6.029-46.252-17.571-41-51C884.501,1396.6,882.422,1406.798,884,1416z M561,1434c-2.643-10.191-7.374-26.503-21-29
		c0.723-3.056-1.022-3.645-1-6c-6.11-0.109-11.354,0.646-16,2C529.611,1418.056,542.647,1428.687,561,1434z M982,1457
		c7.278,0.944,8.959-3.708,11-8c5.938-5.729,13.732-9.601,17-18C997.812,1436.811,985.483,1442.483,982,1457z M912,1451
		c-13.262-0.747-15.294-12.179-27-16c6.632,13.149,23.846,27.815,41,25c8.074-1.325,8.67-8.252,13-13
		c4.187-4.591,11.728-5.862,12-12C937.853,1439.672,927.448,1451.871,912,1451z M655,1446c1,0,2,0,3,0c0.282-2.615-0.365-4.302-3-4
		C655,1443.333,655,1444.667,655,1446z M729,1475c0.309,3.643-0.159,6.508-1,9c3.792-2.208,6.382-5.618,8-10
		C731.614,1474.518,732.715,1474.312,729,1475z M740,1498c7.856-0.824,11.079,9.152,21,5c2.764,3.57,8.709,3.958,13,6
		c0.164-3.164-2.658-3.343-2-7c3.249-0.085,6.151-0.516,8-2c-3.384-3.276-5.82-3.033-10-4c0.933-1.067,3.688-0.312,3-3
		c-5.935-6.731-13.848-11.485-23-15C747.48,1485.48,741.403,1489.402,740,1498z M583,1494c3.22,0.22,4.231-1.769,8-1
		c2.383-2.283,3.437-5.896,5-9C590.638,1486.305,584.23,1487.563,583,1494z M976,1493c0.132-2.465,0.151-4.818-1-6c-1,0-2,0-3,0
		C970.36,1490.247,971.459,1493.342,976,1493z M858,1501c-0.922,3.905-1.514,8.234,4,8c-0.413-4.414,3.592-4.408,4-8
		c-1.322-0.012-0.914-1.753-2-2C863.08,1500.746,860.874,1501.207,858,1501z M638,1504c-4.383,9.283-15.781,11.553-16,25
		c12.552-2.115,12.975-16.358,20-24C640.648,1504.686,640.09,1503.576,638,1504z M782,1505c-0.302,2.635,1.385,3.282,4,3
		c0.282-2.615-0.365-4.302-3-4C782.943,1504.61,782.851,1505.184,782,1505z"/>
	<path fill-rule="evenodd" clip-rule="evenodd" fill="#830741" d="M962,925c6.924,6.076,12.567,13.433,19,20
		C973.767,939.233,967.997,932.002,962,925z"/>
	<path fill-rule="evenodd" clip-rule="evenodd" fill="#830741" d="M609,1545c-4.729-1.246-3.951-15.32-1-18
		C606.77,1531.458,605.652,1542.045,609,1545z"/>
	<path fill-rule="evenodd" clip-rule="evenodd" fill="#830741" d="M614,1518c4.392-2.607,4.144-9.856,8-13
		C619.677,1509.677,619.044,1516.044,614,1518z"/>
	<path fill-rule="evenodd" clip-rule="evenodd" fill="#830741" d="M624,1500c3.744-2.77,1.629-8.91-2-10
		C627.144,1489.652,629.1,1498.708,624,1500z"/>
	<path fill-rule="evenodd" clip-rule="evenodd" fill="#830741" d="M571,1509c-4.338-0.995-6.973-3.693-7-9
		C565.543,1503.79,567.46,1507.207,571,1509z"/>
	<path fill-rule="evenodd" clip-rule="evenodd" fill="#830741" d="M583,1480c10.011-7.893-2.25-16.84-8-21
		c6.168,3.832,11.862,8.138,16,14C587.167,1474.168,586.572,1478.572,583,1480z"/>
	<path fill-rule="evenodd" clip-rule="evenodd" fill="#830741" d="M557,1446c-2.172-4.162-11.49-1.176-12-7
		C547.709,1442.624,555.539,1441.128,557,1446z"/>
	<path fill-rule="evenodd" clip-rule="evenodd" fill="#830741" d="M468,1313c2.037,2.963,3.57,6.43,3,12c-0.333,0-0.667,0-1,0
		c0-1,0-2,0-3C470.923,1317.411,467.498,1317.168,468,1313z"/>
	<path fill-rule="evenodd" clip-rule="evenodd" fill="#830741" d="M460,1278c1.593,3.074,1.148,8.185,3,11
		C460.442,1286.892,459.573,1283.094,460,1278z"/>
	<path fill-rule="evenodd" clip-rule="evenodd" fill="#830741" d="M458,1264c3.288,1.712,1.581,8.42,2,13
		C457.58,1274.42,460.184,1266.816,458,1264z"/>
	<path fill-rule="evenodd" clip-rule="evenodd" fill="#830741" d="M463,1178c4.276-1.724,0.063-11.937,3-15
		c0.397,7.73-0.029,14.638-3,19c0-0.667,0-1.333,0-2S463,1178.667,463,1178z"/>
	<path fill-rule="evenodd" clip-rule="evenodd" fill="#830741" d="M465,1140c3.534,2.818,4.147,13.828,2,19c0-3.333,0-6.667,0-10
		c0-0.667,0-1.333,0-2C467.989,1143.012,464.011,1143.988,465,1140z"/>
	<path fill-rule="evenodd" clip-rule="evenodd" fill="#830741" d="M479,1108c4.139,1.605,6.548,6.845,2,10
		C483.632,1114.638,481.171,1109.686,479,1108z"/>
	<path fill-rule="evenodd" clip-rule="evenodd" fill="#830741" d="M477,1105c-4.165-2.502-7.163-6.171-10-10
		C470.752,1097.915,474.085,1101.248,477,1105z"/>
	<path fill-rule="evenodd" clip-rule="evenodd" fill="#830741" d="M455,1081c1.322-0.012,0.914-1.753,2-2
		c1.223,4.557-2.743,3.924-2,8c-1.172-0.161-0.843-1.823-1-3c0.972-0.027,0.776-1.225,1-2C455,1081.666,455,1081.334,455,1081z"/>
	<path fill-rule="evenodd" clip-rule="evenodd" fill="#830741" d="M493,1082c4.021,4.939,7.404-0.718,10-3
		C502.018,1082.947,495.493,1088.299,493,1082z"/>
	<path fill-rule="evenodd" clip-rule="evenodd" fill="#830741" d="M513,1064c1.382-2.951,4.618-4.049,6-7c0-0.333,0-0.667,0-1
		c2.323-0.677,2.677-3.323,5-4C520.471,1056.138,517.633,1060.967,513,1064z"/>
	<path fill-rule="evenodd" clip-rule="evenodd" fill="#830741" d="M577,998c6.502-4.498,11.008-10.992,18-15
		C589.019,988.019,584.368,994.368,577,998z"/>
	<path fill-rule="evenodd" clip-rule="evenodd" fill="#830741" d="M623,964c0.19-0.81,1.003-0.997,1-2c0.333,0,0.667,0,1,0
		c3.642-1.594,6.635-6.076,4-11C634.4,956.128,627.426,962.452,623,964z"/>
	<path fill-rule="evenodd" clip-rule="evenodd" fill="#830741" d="M657,917c3.446-1.887,7.312-3.355,9-7c0.333,0,0.667,0,1,0
		c4.825-3.508,9.978-6.689,15-10C674.011,906.011,666.845,912.845,657,917z"/>
	<path fill-rule="evenodd" clip-rule="evenodd" fill="#830741" d="M683,883c3.249,2.751,8.698,3.302,9,9
		c-0.057,0.61-0.149,1.184-1,1c0.049-3.049-0.908-5.092-3-6c-0.333,0-0.667,0-1,0C686.095,885.238,683.319,885.348,683,883z"/>
	<path fill-rule="evenodd" clip-rule="evenodd" fill="#830741" d="M682,882c-1.992-1.008-3.502-2.498-5-4c0-0.333,0-0.667,0-1
		c0.609-2.391-1.255-7.255,1-8C677.013,875.654,678.949,879.384,682,882z"/>
	<path fill-rule="evenodd" clip-rule="evenodd" fill="#830741" d="M741,869c0.211-1.122,1.11-1.557,2-2c0.688-4.021-0.958-5.708-1-9
		c1.948,1.718,2.155,5.178,2,9C742.573,867.239,742.313,868.647,741,869z"/>
	<path fill-rule="evenodd" clip-rule="evenodd" fill="#830741" d="M747,846c3.639,4.027-0.043,15.377,4,19
		c1.479-0.521,2.521-1.479,4-2c-5.803-0.033,2.527-29.323-6-25c-2.121,1.075,0.171,5.929-2,6c-0.104-3.438-0.516-7.182,2-8
		c12.733,3.65-0.94,19.813,7,27c-2.111,0.889-2.956,3.044-6,3C746.961,861.372,748.096,852.571,747,846z"/>
	<path fill-rule="evenodd" clip-rule="evenodd" fill="#C3086A" d="M747,844c2.171-0.071-0.121-4.925,2-6
		c8.527-4.323,0.197,24.967,6,25c-1.479,0.521-2.521,1.479-4,2c-4.043-3.623-0.361-14.973-4-19C747,845.333,747,844.667,747,844z
		 M750,858c-0.319,2.319,0.161,3.839,1,5c1.72,0.054,2.563-0.77,3-2C751.961,860.706,752.039,858.294,750,858z M749,850
		c4.447-1.15,4.937-9.131,1-11C748.018,842.88,748.384,845.234,749,850z"/>
	<path fill-rule="evenodd" clip-rule="evenodd" fill="#830741" d="M760,872c-11.486,2.515-23.761,4.239-31,11c-0.333,0-0.667,0-1,0
		c-8.032-0.365-13.722,1.611-17,6c-0.333,0-0.667,0-1,0c-3.414,0.586-4.729,3.271-4,8c-7.784-1.117-9.126,4.207-15,5
		c-2.09-0.423-2.648,0.686-4,1c-7.698,6.636-19.585,9.082-25,18c-2.182-0.182-3.182,0.819-3,3c-6.977,6.356-16.213,10.454-18,22
		c0,0.333,0,0.667,0,1c-0.333,0-0.667,0-1,0c2.571-9.096,5.524-17.809,15-20c6.193-12.807,21.407-16.593,31-26
		c8.654,0.987,9.836-5.498,18-5c1.817-1.183,0.786-5.214,2-7C723.252,882.866,740.016,872.217,760,872z"/>
	<path fill-rule="evenodd" clip-rule="evenodd" fill="#830741" d="M640,948c2.451,3.276,5.274-0.001,9,2
		c-2.595,3.072-8.382,2.951-10,7c-1,0-2,0-3,0c0,1.333,0,2.667,0,4c-1.307,4.307,2.837,3.163,4,5c-1.031,6.767-11.195,3.681-13,0
		c-1.763,0.903-3.097,2.237-4,4c-0.333,0-0.667,0-1,0c-10.695,10.305-25.614,16.386-35,28c-3.508,3.825-8.067,6.599-12,10
		c-17.506,11.827-30.037,28.63-44,44c0,0.333,0,0.667,0,1c-4.947,4.386-10.308,8.359-13,15c-0.463,3.203-3.808,3.526-4,7
		c-5.115,4.552-8.112,11.222-11,18c-0.529,0.805-1.043,1.623-1,3c-5.281,11.053-14.002,18.665-18,31c0,0.333,0,0.667,0,1
		c-3.699,0.634-3.051,5.615-3,10c-7.026,10.726-8.614,22.953-10,39c-0.747,8.646-4.689,16.51-6,25c-1.95,12.634-0.546,24.285,1,37
		c3.826,31.469,3.646,65.536,19,89c4.507,16.828,13.553,31.724,20,47c3.333,7.896,6.627,17.062,14,22
		c3.497-7.396,27.052-11.449,29,0c9.604,0.213,16.325,8.787,20,19c3.406,9.466,11.262,13.697,5,25c3.33,2.004,3.56,7.106,10,6
		c-0.325,8.766,14.187,11.067,19,18c4.91-1.537,0.111-5.381,7-3c-1.131-3.14,0.288-2.642-1-5c-5.697,2.986-6.115,3.031-13,1
		c2.216-5.38,6.015-3.948,10-2c7.3-2.316-0.585-8.443,4-12c-0.147-2.187-2.52-2.146-5-2c-1.087-4.747,3.732-9.541-3-9
		c3.612-13.639,1.786-21.558-5-34c1.313-1.2,1.573-0.39,3,0c-0.532-2.802-4.818-1.849-7-3c1.325-0.938,5.347-6.166,0-5
		c1.067-2.267,3.033-3.634,6-4c0.75-3.417-4.063-1.271-3-5c2.436-0.564,5.144-0.856,5-4c-10.856-5.532-20.29-21.902-6-31
		c-5.029,0.566-16.017,3.921-19-4c2.082-24.479,23.497-7.113,40-14c18.27,22.396,30.157,51.177,49,73
		c-1.051,9.671,2.979,21.687,6,34c10.879,19.093,43.248,16.294,62,25c11.429-3.761,19.2,3.889,30,4c4.646,4.021,8.59,8.743,18,8
		c8.673,10.403,22.638,12.133,34,18c22.165-4.404,51.604-3.442,63-23c-9.153,2.367-13.36-2.09-20-3
		c-6.875-19.674-24.333-30.978-19-55c7.584-6.133,19.226-4.724,22,2c2.426-12.87,1.971-39.248,14-50
		c-5.928-5.813-8.665-18.768-13-23c0.847-2.82,3.433-3.901,5-6c-0.161-1.172-1.823-0.844-3-1c-0.129-3.463,4.399-2.268,5-5
		c-0.674-2.766-5.247,2.784-4-3c-1.286-3.155,8.286-3.156,7,0c28.233-34.427,76.479-53.069,127-62c0.178-6.232,7.664-4.738,12-9
		c0.748-3.081-3.447-1.219-2-5c1.333,0,2.667,0,4,0c-2.531-9.411-0.723-10.737-2-19c5.057,0.671,7.565-2.293,10,1
		c-0.605-2.396-1.438-4.562-1-8c-0.274-3.51-3.726,2.51-4-1c0.826-2.826-1.409-2.591-1-5c4.553-0.447,6.728-3.272,10-5
		c-6.258-2.547-9.659-9.706-8-15c5.693,0.744,4.449,3.417,10,3c-1.089-3.531-0.916-12.761,3-17c4.518,2.126-0.799,7.662,2,12
		c1.202-2.465,2.927-4.407,5-6c-5.904-0.938-2.23-5.239-5-9c-0.846-2.595-4.387,1.924-6-1c2.086-4.416,3.558-3.276,0-7
		c3.686-2.314,9.125-2.875,13-5c0.409-2.409-1.826-2.174-1-5c3.008-1.008,1.772,2.228,2,4c2.436-0.564,5.144-0.856,5-4
		c-2.83-2.84-5.725-1.787-10-1c-2.954-5.084,0.764-4.725-2-10c4.854-2.65,9.66,3.692,12-3c-1.807-3.097-3.062-0.534-7-1
		c1.151-4.602,2.771-5.967,0-10c3.341,0.993,5.987,2.68,9,4c2.761-2.165,3.136-5.938,4-10c2.174-1.45,6.734,6.146,10,1
		c-0.388-4.751-4.064-1.031-6-5c-0.977-3.96-0.354-7.075,2-10c-3.271-8.854-2.268-16.709-6-29c-1.608-5.296-5.856-9.674-7-14
		c-0.663-2.51,0.631-5.575,0-8c-0.688-2.644-2.831-3.283-4-6c-1.499-3.484-0.809-8.657-2-12c-2.502-7.021-9.386-11.888-9-20
		c-10.98-20.02-26.037-35.963-36-57c-2.667,0-5.333,0-8,0c-8.866,11.829-23.456,23.173-39,25c-5.913-6.087-13.171-10.829-26-10
		c-6.087-5.913-7.375-16.625-14-22c1.184-6.659-1.221-13.54-2-21c10.071-10.595,14.673-26.66,22-40
		c-14.801-9.199-25.402-22.597-45-27c-3.97-2.03-8.288-3.712-14-4c-5.927-1.073-11.317-2.683-18-3c-0.334,0-0.666,0-1,0
		c-4.873-4.699-15.355-5.058-21-4c-0.891-0.777-2.258-1.075-4-1c-7.867,0.254-21.702-1.219-29,4c-0.334,0-0.667,0-1,0
		c-8.249,2.91-18.965,0.98-24,5c-0.333,0-0.667,0-1,0c-2,0-4,0-6,0c4.302-1.364,9.84-1.493,11-6c14.43,3.565,32.578-5.532,47-6
		c31.073,7.961,74.97,8.966,93,33c6.921,0.746,9.375,5.958,15,8c-7.958,13.708-12.328,31.005-23,42c0.472,14.736,7.082,25.486,13,39
		c8.208,2.912,23.617,2.491,28,12c17.369-3.63,28.966-13.034,38-25c4.225,0.025,6.458-1.935,10,0c2.356,5.644,3.054,12.947,10,14
		c-1.394,7.34,8.716,13.153,14,21c2.743,4.073,2.925,9.162,5,13c2.993,5.537,5.679,8.651,9,16c4.684,10.363,9.609,20.371,14,31
		c0,2.333,0,4.667,0,7c10.247,16.492,9.28,39.327,20,54c2.826,20.176,12.471,38.86,12,59c1.315,2.685,2.685,5.315,4,8
		c0.563,20.879,8.683,39.453,6,61c-1.429,11.479-3.836,21.113-6,34c-1.367,8.143-0.203,14.875-4,23c-0.591,1.264-3.376,2.268-4,4
		c-2.458,6.825-2.482,14.445-7,20c-2.771,3.408-7.367,4.022-9,11c-0.521,2.229,1.088,5.294,1,7c-0.379,7.322-7.816,10.74-7,18
		c-12.542,5.791-17.812,18.854-31,24c-3.213,10.12-10.437,16.229-17,23c-19.965,3.368-27.577,19.09-33,37
		c-12.964,2.087-17.092,18.173-34,13c6.408-8.925,12.706-17.961,23-23c5.384-11.686,16.27-24.993,13-46
		c-1.098-7.053-6.685-14.555-4-23c2.381-1.952,9.275,0.609,10-3c-9.904-13.429-26.886-19.781-30-40c-4.748-6.101-18.453-7.482-26-5
		c-10.772-7.277-33.104-2.672-43,5c-0.476,11.34,9.114,11.374,15,14c-16.193,8.474-25.156,24.177-31,43c1.214,1.786,0.183,5.817,2,7
		c-7.781,20.808,8.156,34.363,15,51c2.409-0.409,2.174,1.826,5,1c3.432,10.568,16.966,11.034,23,19
		c-28.166,4.545-46.738,21.005-75,28c-7.972-1.445-11.988,0.446-19,2c-5.919-5.507-13.007-5.107-20-9
		c-5.627-3.133-9.415-10.309-15-13c-3.384-1.631-7.973-0.463-11-2c-2.158-1.096-3.542-4.878-6-6c-10.814-4.938-26.118-2.597-37-7
		c-13.92-2.884-27.003-3.438-38-7c-19.922-6.453-22.021-27.735-25-50c-0.864-3.47-3.953-4.714-6-7c0.41-2.409-1.827-2.174-1-5
		c-17.65-17.35-23.464-46.535-44-61c-10.12,7.184-34.995-7.118-33,10c1.149,9.864,9.851,5.545,19,4c-2.347,8.391-11.004,10.045-9,19
		c2.675,11.953,33.394,13.373,45,18c7.7,14.166,20.348,22.136,21,41c-6.651,9.349-13.567,18.433-19,29
		c3.497,4.17,5.077,10.257,10,13c6.631-3.369,13.96-6.04,20-10c13.337,11.413,34.942,9.632,50,18c0.526,11.278-9.125,13.695-8,23
		c1.154,9.548,11.472,9.589,16,19c10.285,1.384,20.71,12.871,34,13c0.225,0.002,3.541-2.08,4-2c3.42,0.598,5.913,4.492,9,5
		c5.347,0.88,10.605-3.709,17,1c16.112-0.042,24.37-1.564,42-4c5.347-2.989,4.794-8.803,4-16c4.562,0.562,4.229-3.77,9-3
		c-0.868,24.289,24.983,17.743,35,7c1.051-8.282,1.454-17.213,2-26c6.543-7.79,19.287-4.87,29-8c9.426,10.423,28.695,8.309,42,6
		c-9.448,7.64-21.021,8.809-31,17c-3.948,1.281-2.42-2.914-5-3c-2.278,2.263,0.678,4.397,2,6c-8.742,1.045-16.148,11.312-26,15
		c-6.468,2.422-14.145,2.498-21,5c-36.885,13.461-95.235,30.616-143,13c-3.049,0.826-5.091,0.118-6,1
		c-50.815-19.518-85.101-55.565-131-80c-4.825-7.176-12.532-11.468-18-18c3.286-12.771,1.147-19.422-6-31
		c-4.022-6.516-9.274-13.108-18-13c-0.889-2.111-3.044-2.956-3-6c-9.107-2.941-19.572-0.938-24,6c-11.262-3.618-12.928-16.413-17-26
		c-13.87-32.654-31.857-60.145-37-98c-5.045-37.136-2.094-70.392,4-107c1.781-10.7,4.465-21.931,10-30c0-2,0-4,0-6
		c4.38-13.286,12.522-22.812,20-33c26.957-60.376,78.079-96.589,128-134c1.988,2.89,7.807,6.112,11,2c-3.129-1.205-5.148-3.518-5-8
		c0.8-4.2,7.377-2.623,8-7C641.987,950.013,639.271,950.729,640,948z M633,1384c-3.634-1.134-6.56-4.517-11-2
		c1.368,13.299,13.665,15.669,15,29c4.564,1.074,7.968,2.913,7,7c2.928-0.898,3.072-0.898,6,0
		C652.006,1398.994,636.81,1397.19,633,1384z M700,1495c-1.53,3.073,6.53,3.073,5,0C704.743,1492.659,700.606,1494.424,700,1495z
		 M947,1327c5.797,18.33,16.126,35.978,38,41c0.591-2.076,1.924-3.409,4-4c-1.526-5.672,0.208-6.75,2-11
		c-6.692,0.002,2.706-9.033-3-12c4.211-3.789,5.333-10.667,12-12c2.596-9.784-1.59-16.753-8-19c-5.717-2.004-15.593,2.748-15-2
		c-3.716,1.285-9.999,4.206-13,3c0.873-1.764,3.347-3.097,0-4c-5.589,0.033-8.463-5.604-19-3c-1.837-1.163,0.525-6.526-4-5
		c-2.896,0.56,1.534,1.56,1,3c-5.423,0.412-5.315,0.493-9,3c-0.553-1.78-0.514-4.153-2-5c0.599,2.599-0.401,3.599-3,3
		c2.666,7.007,9.397,10.637,7,20C939.201,1324.133,942.662,1326.004,947,1327z M1014,1248c-1.008,3.008,2.228,1.772,4,2c0-1,0-2,0-3
		C1016.258,1246.925,1014.89,1247.223,1014,1248z M982,1268c-33.654,6.679-61.773,18.893-87,34c-1.802,5.865-7.188,8.146-7,16
		c1.496,1.171,4.09,1.243,5,3c13.888-9.408,26.604-23.311,44-30c18.451-7.096,36.624-4.78,58-7c10.272-6.728,17.413-16.586,28-23
		c3.375-0.025,4.451,5.255,8,2c3.609-3.687,0.52-8.069-1-12C1008.297,1250.527,1005.573,1273.59,982,1268z M971,1383
		c2.358,2.447,1.86-1.493,5-1c-0.111-2.555-1.833-3.5-3-5C972.424,1379.091,970.521,1379.854,971,1383z M840,1412
		c-0.801,13.134,2.871,21.796,8,29C875.64,1443.273,856.692,1396.46,840,1412z M887,1458c0.057-0.61,0.149-1.184,1-1
		c0-0.667,0-1.333,0-2c-1.503-0.72-4.211-0.762-5,0C884.336,1455.997,884.964,1457.703,887,1458z"/>
	<path fill-rule="evenodd" clip-rule="evenodd" fill="#C3086A" d="M826,864c5.645-1.058,16.127-0.699,21,4
		C840.118,864.738,833.53,864.846,826,864z"/>
	<path fill-rule="evenodd" clip-rule="evenodd" fill="#C3086A" d="M793,867c7.298-5.219,21.133-3.746,29-4
		C812.026,865.392,802.377,863.162,793,867z"/>
	<path fill-rule="evenodd" clip-rule="evenodd" fill="#C3086A" d="M848,868c6.683,0.317,12.073,1.927,18,3
		C858.428,871.572,853.451,869.548,848,868z"/>
	<path fill-rule="evenodd" clip-rule="evenodd" fill="#C3086A" d="M880,875c19.598,4.403,30.199,17.801,45,27
		c-7.327,13.34-11.929,29.405-22,40c0.779,7.46,3.184,14.341,2,21c6.625,5.375,7.913,16.087,14,22c12.829-0.829,20.087,3.913,26,10
		c15.544-1.827,30.134-13.171,39-25c2.667,0,5.333,0,8,0c9.963,21.037,25.02,36.98,36,57c-0.386,8.112,6.498,12.979,9,20
		c1.191,3.343,0.501,8.516,2,12c1.169,2.717,3.312,3.356,4,6c0.631,2.425-0.663,5.49,0,8c1.144,4.326,5.392,8.704,7,14
		c3.732,12.291,2.729,20.146,6,29c-2.354,2.925-2.977,6.04-2,10c1.936,3.969,5.612,0.249,6,5c-3.266,5.146-7.826-2.45-10-1
		c-0.864,4.062-1.239,7.835-4,10c-3.013-1.32-5.659-3.007-9-4c2.771,4.033,1.151,5.398,0,10c3.938,0.466,5.193-2.097,7,1
		c-2.34,6.692-7.146,0.35-12,3c2.764,5.275-0.954,4.916,2,10c4.275-0.787,7.17-1.84,10,1c0.144,3.144-2.564,3.436-5,4
		c-0.228-1.772,1.008-5.008-2-4c-0.826,2.826,1.409,2.591,1,5c-3.875,2.125-9.314,2.686-13,5c3.558,3.724,2.086,2.584,0,7
		c1.613,2.924,5.154-1.595,6,1c2.77,3.761-0.904,8.062,5,9c-2.073,1.593-3.798,3.535-5,6c-2.799-4.338,2.518-9.874-2-12
		c-3.916,4.239-4.089,13.469-3,17c-5.551,0.417-4.307-2.256-10-3c-1.659,5.294,1.742,12.453,8,15c-3.272,1.728-5.447,4.553-10,5
		c-0.409,2.409,1.826,2.174,1,5c0.274,3.51,3.726-2.51,4,1c-0.438,3.438,0.395,5.604,1,8c-2.435-3.293-4.943-0.329-10-1
		c1.277,8.263-0.531,9.589,2,19c-1.333,0-2.667,0-4,0c-1.447,3.781,2.748,1.919,2,5c-4.336,4.262-11.822,2.768-12,9
		c-50.521,8.931-98.767,27.573-127,62c1.286-3.156-8.286-3.155-7,0c-1.247,5.784,3.326,0.234,4,3c-0.601,2.732-5.129,1.537-5,5
		c1.177,0.156,2.839-0.172,3,1c-1.567,2.099-4.153,3.18-5,6c4.335,4.232,7.072,17.187,13,23c-12.029,10.752-11.574,37.13-14,50
		c-2.774-6.724-14.416-8.133-22-2c-5.333,24.022,12.125,35.326,19,55c6.64,0.91,10.847,5.367,20,3
		c-11.396,19.558-40.835,18.596-63,23c-11.362-5.867-25.327-7.597-34-18c-9.41,0.743-13.354-3.979-18-8
		c-10.8-0.111-18.571-7.761-30-4c-18.752-8.706-51.121-5.907-62-25c-3.021-12.313-7.051-24.329-6-34
		c-18.843-21.823-30.73-50.604-49-73c-16.503,6.887-37.918-10.479-40,14c2.983,7.921,13.971,4.566,19,4
		c-14.29,9.098-4.856,25.468,6,31c0.144,3.144-2.564,3.436-5,4c-1.063,3.729,3.75,1.583,3,5c-2.967,0.366-4.933,1.733-6,4
		c5.347-1.166,1.325,4.062,0,5c2.182,1.151,6.468,0.198,7,3c-1.427-0.39-1.687-1.2-3,0c6.786,12.442,8.612,20.361,5,34
		c6.732-0.541,1.913,4.253,3,9c2.48-0.146,4.853-0.187,5,2c-4.585,3.557,3.3,9.684-4,12c-3.985-1.948-7.784-3.38-10,2
		c6.885,2.031,7.303,1.986,13-1c1.288,2.358-0.131,1.86,1,5c-6.889-2.381-2.09,1.463-7,3c-4.813-6.933-19.325-9.234-19-18
		c-6.44,1.106-6.67-3.996-10-6c6.262-11.303-1.594-15.534-5-25c-3.675-10.213-10.396-18.787-20-19c-1.948-11.449-25.503-7.396-29,0
		c-7.373-4.938-10.667-14.104-14-22c-6.447-15.276-15.493-30.172-20-47c-15.354-23.464-15.174-57.531-19-89
		c-1.546-12.715-2.95-24.366-1-37c1.311-8.49,5.253-16.354,6-25c1.386-16.047,2.974-28.274,10-39c-0.051-4.385-0.699-9.366,3-10
		c-10.018,26.315-15.092,57.574-18,91c1.519,2.814,6.481,2.186,8,5c3.844-0.879-0.178-4.017,0-7c4.46-3.206,7.716-7.617,10-13
		c-0.407-3.378-3.877,2.661-3-2c3.604,1.521,6.372-5.912,7-1c3.305-1.5-2.078-2.445-1-5c2.09-0.424,2.648,0.686,4,1
		c-2.977-5.708,4.538-6.71,8-9c-3.009-10.427,5.322-11.329,1-19c2.279,0.279,3.759-0.241,4-2c3.14-0.473,2.642,2.691,5,3
		c-1.803-3.324,1.65-6.106-3-7c3.416-5.124,5.655-5.279,8-11c1.68,3.779,4.799,0.349,7-1c0.58-3.246-0.681-4.652-1-7
		c2.323-1.976,2.677-1.976,5,0c2.775-1.496-1.736-4.09,1-5c2.036-2.006,2.664-0.261,4,1c1.834-0.486,4.993-8.097,1-8
		c0.658-1.342,2.138-1.862,4-2c0.467-2.134-1.429-1.905-3-2c0.868-4.622,9.734-3.763,6-10c2.651,0.016,5.888-0.555,6,2
		c1.763-0.903,3.097-2.236,4-4c-2.737-4.026-0.096-6.495,0-12c2.929,3.601,6.634,0.523,12,2c-0.592-3.469-4.936-2.469-7-2
		c1.595-6.576,8.128-7.073,10-11c3.156-0.489,3.531,1.802,7,1c-0.225-4.191-3.171,0.588-4-3c0.152-2.581,8.332-2.245,5-5
		c1.617-3.128,1.243,3.976,5,2c2.059-2.776-5.589-4.373-5-9c4.527-1.861,1.739,3.595,4,4c5.036-0.032,0.991-2.94,2-7
		c2.561,0.105,4.767,0.566,6,2c3.923-6.25,2.43-10.947,6-14c0.872-3.872-4.366-1.634-3-6c3.992-0.658,2.928,3.738,6,4
		c0.836-4.61,6.275-5.73,11-10c0.409-2.409-1.826-2.174-1-5c2.631-1.209,3.791-0.685,7,1c-0.438-3.438,0.395-5.604,1-8
		c4.338,0.789,7.277-2.822,9,1c2.251-0.416-0.15-5.483,3-5c-0.707-2.627-4.693-1.974-6-4c6.141-1.525,3.314-12.019,12-11
		c-0.107,4.328-5.464,4.602,0,7c1.178-4.195,5.81-1.598,12-4c-2.691-2.442-8.774,2.212-9-4c3.059,0.726,2.941-1.726,6-1
		c0.977,1.023,1.977,2.023,3,3c0.804-0.529,1.624-1.043,3-1c-0.54-20.803,28.034-20.44,37-35c3.458,1.945,10.505,0.21,11-4
		c2.544,0.122,3.878,1.456,4,4c2.719-0.631,4.876-4.83,8-2c4.835-4.869,9.787-7.023,18-6c-0.334-2.333-1.025-4.309-3-5
		c0.162-1.172,1.823-0.844,3-1c0.646-3.98-2.646-4.02-2-8c1.583-0.083,3.814,0.481,4-1c1.334,3.092,5.275,4.908,9,8
		c-1.895-2.515-2.951-5.77,1-7c-4.418-1.915-7.241-5.426-11-8c5.881-8.001,21.568-6.54,33-7c0.545-3.301,4.17-2.622,10-3
		c2.259,3.866-1.856,3.944-3,7c0.162,1.172,1.823,0.844,3,1c2.995-0.658-0.956-2.138,0-4c5.019,2.934,11.116-0.58,14-3
		c-2.803-3.537-12.39,1.563-14-2c-2.666-3.057,4.609-4.681,8-5c5.949,6.532,11.626,2.252,19,1c-0.406,1.927-3.877,0.79-3,4
		c0.712,2.622,5.708,0.958,6,4c0.571-2.762,3.548-3.119,6-4c0.127-1.794-1.225-2.109-1-4c-3.031-0.106-2.809,5.207-6,2
		c-0.325-3.383,6.364-4.892,4-7c2.258-3.286,7.119,2.247,8-2c2.655,0.345,3.375,2.625,4,5c-3.059,0.726-2.941-1.726-6-1
		c0.665,4.002,6.432,2.901,11,3c1.223,4.557-2.743,3.923-2,8c3.821,0.821,1.179-4.821,5-4c-0.456-3.14-3.565-6.935-2-9
		c-1.701-0.368-1.887,0.78-2,2c-1.269-2.171-0.237-2.225-2-5c2.223,0.777,3.899,2.101,7,2c4.538-1.242-1.728-2.908,1-5
		c5.626,1.041,11.861,1.472,13,7c4.346-1.415,2.334-3.601,2-7c1.182-1.151,3.535-1.132,6-1c0.11,1.654-6.159,3.444-1,4
		c0.182,2.182-0.818,3.182-3,3c1.009,3.528,1.729,1.831,4,3c1.275-1.446-1.755-2.234,0-6c7.965,0.628,11.939,0.912,19-3
		c0,1.333,0,2.667,0,4c4.811,0.68,11.581-0.441,8-5c-2.433,4.906-5.972,0.342-4-4c3.027-1.376,3.572,0.476,8,0
		c-2.009,2.039,0.441,1.961,1,4c1.732-1.935,8.191,0.858,8-3c-0.862-0.733-5.206,0.266-7-2c4.759-7.647,12.697,6.462,20,0
		c0.859,0.807,0.594,2.739,2,3c1.759-0.241,2.279-1.721,2-4c2.078,0.56,2.119,1.56,1,3c2.182,0.087,6.469-2.737,7-1
		c-0.016,3.424-2.6-0.138-3,4c0.443,0.89,0.878,1.789,2,2c6.106-2.239,7.523-9.473,12-18c1.039-1.979,7.204-8.257,7-10
		c-0.589-5.017-10.685-6.746-14-9c-6.768-4.602-12.101-12.727-21-16C885.992,876.894,881.239,878.422,880,875z M883,933
		c0.207,6.78,5.004,2.049,7,0C886.351,933.888,884.674,931.234,883,933z M854,940c4.538,1.871,1.36-3.973,5-3
		c0.054-1.72-0.77-2.564-2-3C857.541,937.541,853.459,936.458,854,940z M873,946c1.161,0.839,2.681,1.319,5,1
		c1.293-5.707,11.071-2.928,13-8C886.543,939.092,877.898,943.073,873,946z M808,949c0-1.333,0-2.667,0-4
		c-3.146,1.146-2.43-1.57-4-2C801.48,945.813,806.932,946.719,808,949z M781,946c0.334,2.333,1.025,4.309,3,5
		c0.898-1.768,2.414-2.919,3-5C785.131,944.042,783.338,945.691,781,946z M849,950c-0.305,2.638,2.088,2.579,4,3
		c0-1.333,0-2.667,0-4C851.258,948.925,849.891,949.224,849,950z M819,954c-0.421-1.913-0.362-4.304-3-4
		C815.721,952.612,815.662,955.004,819,954z M752,954c-0.301,2.635,1.385,3.282,4,3c-1.598-3.38,4.244-4.267,1-6
		C755.188,951.854,754.242,953.576,752,954z M795,959c-0.309-2.337-1.958-4.131,0-6c-2.828-0.839-6.172-1.161-9-2
		C787.916,956.733,791.393,956.486,795,959z M778,960c-2.615,0.282-4.302-0.365-4-3c-2.992,0.007-4.203,1.797-5,4
		c1.852,3.276,7.892-3.436,7,3c3.741-4.372,5.688-1.303,11,0c0-1.667,0-3.333,0-5c-2.409-0.41-2.174,1.827-5,1
		c0.049-3.382-2.328-4.338-4-6c1.557,0.08,0.693-2.908,0-1C775.771,956.012,776.172,957.139,778,960z M824,965
		c3.164-1.374,3.343-0.218,7,0c-1.817-3.165-4.741-2.245-4-6C822.775,959.623,823.326,961.221,824,965z M878,964
		c0-1.333,0-2.667,0-4c-1,0-2,0-3,0C874.718,962.615,875.365,964.302,878,964z M734,968c0.606,0.576,4.744,2.34,5,0
		c-2.63,0.296-0.787-3.879-4-3C735.043,966.376,734.529,967.196,734,968z M897,970c1.667,0,3.333,0,5,0c0-1,0-2,0-3
		C898.859,966.526,897.914,968.247,897,970z M838,976c-0.07-2.929-0.362-5.638-4-5C834.625,973.375,835.345,975.655,838,976z
		 M900,979c1.481,1.497,5.169,0.093,5-3c-3.761,2.11-3.539-0.51-6-2C898.507,977.14,902.447,976.642,900,979z M695,1055
		c5.211-2.896,12.935-0.681,18-3c6.689-3.063,17.071-16.69,18-21c2.809-13.035-20.799-31.395-25-42c-0.776-0.224-1.973-0.027-2-1
		c-10.542-1.208-16.633,2.034-25,3c-9.582,11.348-27.92,11.259-32,27c-1.973,7.612,1.722,13.438,0,23c1.387,3.279,5.339,3.994,7,7
		c-1.234,12.233,12.344,9.656,13,20c5.977,0.69,10.999,2.335,18,2C689.188,1065.855,690.21,1058.543,695,1055z M963,1064
		c-15.799-1.372-14.24,23.808-2,25c9.068,0.884,11.73-8.795,14-17C968.157,1069.379,968.327,1064.463,963,1064z M846,1121
		c-8.631,3.758-5.457,14.666-11,22c3.904,6.429,6.935,13.732,18,13c4.633-6.7,15.703-6.963,20-14c-0.312-8.688-2.412-15.588-12-15
		c-1.19-2.143-1.079-5.588-3-7C853.484,1122.738,849.38,1119.528,846,1121z M950,1166c-5.127,17.454,15.855,34.658,35,37
		c5.922-4.581,8.781-6.809,17-8c3.585-12.182,6.489-24.142,4-38c-4.941-4.059-13.556-4.444-15-12
		C976.868,1144.545,953.367,1154.536,950,1166z M510,1203c4.501,5.019,6.503,11.338,5,20c4.68,10.333,13.95,20.414,27,17
		c1.975-0.517,14.059-8.378,17-13c5.881-9.242,0.583-14.917-1-23c-0.864-4.411,0.079-9.239-1-12c-3.399-8.693-13.91-15.344-18-21
		C510.119,1166.821,513.254,1184.675,510,1203z M712,1354c2.404-0.237,8.768-5.145,13-7c20.974-9.196,41.981-15.68,47-37
		c-5.773-17.467-38.978-18.673-43-2c-16.583,1.083-24.513,10.82-38,15C683.605,1340.227,697.126,1355.471,712,1354z M812,1277
		c-14.48-11.187-27.915-23.419-49-28c-3.699-5.301-8.854-9.146-11-16c-7.416-4-15.877-12.011-27-9c-1.554,7.054,5.021,13.284,7,20
		c-3.9,2.433-5.003,7.663-10,9c0.966,5.115,0.808,6.945-1,11c6.775-0.044,0.703,7.74,5,11c13.174,3.941,29.146,17.771,46,18
		c2.111,8.222,15.445,5.221,17,14c-15.532,1.135-20.658,12.676-26,24c-15.49,9.177-33.848,15.485-49,25c0,2.333,0,4.667,0,7
		c4.534-0.219,12.319-2.93,15,1c-6.228,15.53,3.084,29.389-1,42c-9.52,2.147-16.71,6.623-19,16c7.401,4.932,13.028,11.639,22,15
		c-0.239,1.427-1.647,1.687-2,3c6.466,0.337,0.711,5.838,4,6c10.732-3.474,20.372,7.449,33,2c7.217,8.75,23.061,6.348,34,4
		c10.338-12.996,27.604-19.062,27-43c-8.991-5.596-17.693-14.281-26-15c2.496-7.073-1.905-17.111,1-25
		c5.401-0.835,10.672-3.504,15,0c4.357-4.72,12.944-2.426,20-6c1.15-7.231,6.414-4.204,10-9c0.76-8.506,0.976-11.861,0-19
		c-6.344,0.504-6.529-5.236-11-4c2.368-2.632,5.623-4.377,6-9c-4.368-8.697-26.552-4.693-24-17c4.439-0.105,5.869,2.798,11,2
		c0.485-1.182,1.066-2.268,2-3C827.706,1291.961,815.534,1288.8,812,1277z M602,1319c-2.503-1.275-3.13,0.509-4-1
		c-0.715-2.716,4.715,0.715,4-2c-3.027-0.307-3.573-3.094-8-2c0.172,3.839-5.172,2.161-5,6c0.895,1.771,4.059,1.274,3,5
		c2.833-0.167,4.167-1.833,7-2c0.737,2.263,3.812,2.188,4,5c8.413-5.781,22.049,0.437,20,7c2.503-0.125,3.13-1.908,4,1
		c2.143,6.297,4.991,20.264,13,24c-0.06,6.488,8.718,19.316,15,25c4.199,3.799,7.591,3.078,4,7c3.747,2.587,5.521,7.145,9,10
		c-0.443-4.734-3.848-5.939-1-14c-1.453-0.547-5.168,1.169-5-1c0.279-2.318,2.671-2.299,4-1c-3.06-9.287-8.478-15.594-5-25
		c-4.37-7.115-4.057-14.702-7-23c-1.904-2.096-7.418-0.582-6-6c-3.808,0.475-6.242-0.424-7-3c0.933-1.067,3.689-0.311,3-3
		c-9.163-0.17-13.207-5.46-17-11c-2.984,0.016-3.4,2.6-6,3c-3.219-4.038-16.609,0.12-14-8c-1.496,0.17-3.69-0.357-4,1
		C604.985,1312.091,602.871,1317.458,602,1319z M566,1345c-0.67,4.334,5.03,3.081,4-1C568.258,1343.925,566.89,1344.223,566,1345z"
		/>
	<path fill-rule="evenodd" clip-rule="evenodd" fill="#DE0A7E" d="M793,867c9.377-3.838,19.026-1.608,29-4
		c1.742-0.075,3.109,0.223,4,1c7.53,0.846,14.118,0.738,21,4c0.334,0,0.666,0,1,0c5.451,1.548,10.428,3.572,18,3
		c5.712,0.288,10.03,1.97,14,4c1.239,3.422,5.992,1.894,9,3c8.899,3.273,14.232,11.398,21,16c3.315,2.254,13.411,3.983,14,9
		c0.204,1.743-5.961,8.021-7,10c-4.477,8.527-5.894,15.761-12,18c-1.122-0.211-1.557-1.11-2-2c0.4-4.138,2.984-0.576,3-4
		c-0.531-1.737-4.818,1.087-7,1c1.119-1.44,1.078-2.44-1-3c0.279,2.279-0.241,3.759-2,4c-1.406-0.261-1.141-2.193-2-3
		c-7.303,6.462-15.241-7.647-20,0c1.794,2.266,6.138,1.267,7,2c0.191,3.858-6.268,1.065-8,3c-0.559-2.039-3.009-1.961-1-4
		c-4.428,0.476-4.973-1.376-8,0c-1.972,4.342,1.567,8.906,4,4c3.581,4.559-3.189,5.68-8,5c0-1.333,0-2.667,0-4
		c-7.061,3.912-11.035,3.628-19,3c-1.755,3.766,1.275,4.554,0,6c-2.271-1.169-2.991,0.528-4-3c2.182,0.182,3.182-0.818,3-3
		c-5.159-0.556,1.11-2.346,1-4c-2.465-0.132-4.818-0.151-6,1c0.334,3.399,2.346,5.585-2,7c-1.139-5.528-7.374-5.959-13-7
		c-2.728,2.092,3.538,3.758-1,5c-3.101,0.101-4.777-1.223-7-2c1.763,2.775,0.731,2.829,2,5c0.113-1.22,0.299-2.368,2-2
		c-1.565,2.065,1.544,5.86,2,9c-3.821-0.821-1.179,4.821-5,4c-0.743-4.077,3.223-3.443,2-8c-4.568-0.099-10.335,1.002-11-3
		c3.059-0.726,2.941,1.726,6,1c-0.625-2.375-1.345-4.655-4-5c-0.881,4.247-5.742-1.286-8,2c2.364,2.108-4.325,3.617-4,7
		c3.191,3.207,2.969-2.106,6-2c-0.225,1.891,1.127,2.206,1,4c-2.452,0.881-5.429,1.238-6,4c-0.292-3.042-5.288-1.378-6-4
		c-0.877-3.21,2.594-2.073,3-4c-7.374,1.252-13.051,5.532-19-1c-3.391,0.319-10.666,1.943-8,5c1.61,3.563,11.197-1.537,14,2
		c-2.884,2.42-8.981,5.934-14,3c-0.956,1.862,2.995,3.342,0,4c-1.177-0.156-2.838,0.172-3-1c1.144-3.056,5.259-3.134,3-7
		c-5.83,0.378-9.455-0.301-10,3c-11.432,0.46-27.119-1.001-33,7c3.759,2.574,6.582,6.085,11,8c-3.951,1.23-2.895,4.485-1,7
		c-3.725-3.092-7.666-4.908-9-8c-0.186,1.481-2.417,0.917-4,1c-0.646,3.98,2.646,4.02,2,8c-1.177,0.156-2.838-0.172-3,1
		c1.975,0.691,2.666,2.667,3,5c-8.213-1.023-13.165,1.131-18,6c-3.124-2.83-5.281,1.369-8,2c-0.122-2.544-1.456-3.878-4-4
		c-0.495,4.21-7.542,5.945-11,4c-8.966,14.56-37.54,14.197-37,35c-1.376-0.043-2.196,0.471-3,1c-1.023-0.977-2.023-1.977-3-3
		c-3.059-0.726-2.941,1.726-6,1c0.226,6.212,6.309,1.558,9,4c-6.19,2.402-10.822-0.195-12,4c-5.464-2.398-0.107-2.672,0-7
		c-8.686-1.019-5.859,9.475-12,11c1.307,2.026,5.293,1.373,6,4c-3.15-0.483-0.749,4.584-3,5c-1.723-3.822-4.662-0.211-9-1
		c-0.605,2.396-1.438,4.562-1,8c-3.209-1.685-4.369-2.209-7-1c-0.826,2.826,1.409,2.591,1,5c-4.725,4.27-10.164,5.39-11,10
		c-3.072-0.262-2.008-4.658-6-4c-1.366,4.366,3.872,2.128,3,6c-3.57,3.053-2.077,7.75-6,14c-1.233-1.434-3.439-1.895-6-2
		c-1.009,4.06,3.036,6.968-2,7c-2.261-0.405,0.527-5.861-4-4c-0.589,4.627,7.059,6.224,5,9c-3.757,1.976-3.383-5.128-5-2
		c3.332,2.755-4.848,2.419-5,5c0.829,3.588,3.775-1.191,4,3c-3.469,0.802-3.844-1.489-7-1c-1.872,3.927-8.405,4.424-10,11
		c2.064-0.469,6.408-1.469,7,2c-5.366-1.477-9.071,1.601-12-2c-0.096,5.505-2.737,7.974,0,12c-0.903,1.764-2.237,3.097-4,4
		c-0.112-2.555-3.349-1.984-6-2c3.734,6.237-5.132,5.378-6,10c1.571,0.095,3.467-0.134,3,2c-1.862,0.138-3.342,0.658-4,2
		c3.993-0.097,0.834,7.514-1,8c-1.336-1.261-1.964-3.006-4-1c-2.736,0.91,1.775,3.504-1,5c-2.323-1.976-2.677-1.976-5,0
		c0.319,2.348,1.58,3.754,1,7c-2.201,1.349-5.32,4.779-7,1c-2.345,5.721-4.584,5.876-8,11c4.65,0.894,1.197,3.676,3,7
		c-2.358-0.309-1.86-3.473-5-3c-0.241,1.759-1.721,2.279-4,2c4.322,7.671-4.009,8.573-1,19c-3.462,2.29-10.977,3.292-8,9
		c-1.352-0.314-1.91-1.424-4-1c-1.078,2.555,4.305,3.5,1,5c-0.628-4.912-3.396,2.521-7,1c-0.877,4.661,2.593-1.378,3,2
		c-2.284,5.383-5.54,9.794-10,13c-0.178,2.983,3.844,6.121,0,7c-1.519-2.814-6.481-2.186-8-5c2.908-33.426,7.982-64.685,18-91
		c0-0.333,0-0.667,0-1c4.9-11.434,14.178-18.488,18-31c-0.043-1.377,0.471-2.195,1-3c4.042-5.624,6.833-12.501,11-18
		c0.192-3.474,3.537-3.797,4-7c4.094-5.239,8.57-10.096,13-15c0-0.333,0-0.667,0-1c15.158-14.176,27.304-31.363,44-44
		c3.933-3.401,8.492-6.175,12-10c10.458-10.542,25.327-16.673,35-28c0.333,0,0.667,0,1,0c1.44-0.56,2.44-1.56,3-3
		c4.054,4.352,13.395,5.774,16-1c-0.147-2.186-2.52-2.147-5-2c0.086-1.419,0.165-2.832-1-3c0-1.333,0-2.667,0-4c1,0,2,0,3,0
		c3.113-3.22,9.079-3.587,12-7c-2.01-3.27-8.187-0.83-10-2c0-0.333,0-0.667,0-1s0-0.667,0-1c2.848-10.485,12.128-14.538,18-22
		c-0.182-2.181,0.818-3.182,3-3c6.242-8.092,18.799-9.867,25-18c1.352-0.314,1.91-1.423,4-1c6.316-2.684,16.776-1.224,16-11
		c1.71,0.044,2.59-0.743,3-2c0.333,0,0.667,0,1,0c3.928-3.739,10.843-4.49,17-6c0.333,0,0.667,0,1,0c10.355-5.979,23.897-8.77,38-11
		c0.333,0,0.667,0,1,0c8.149-1.517,17.643-1.69,24-5C792.333,867,792.666,867,793,867z M598,1051c-1.007,2.66-4.903,2.431-6,5
		C595.881,1056.037,600.436,1055.266,598,1051z M801,914c12.486,0.153,19.836-4.831,19-18C809.847,886.663,789.622,901.862,801,914z
		 M841,925c0.284-1.184-0.092-4.925-1-7C839.982,919.668,836.747,925.302,841,925z M842,930c8.142-0.871,9.806-5.062,16-2
		c-1.782-3.551-2.879-7.788-7-9C849.643,924.31,844.317,925.65,842,930z M817,927c1.742-0.924,5.367,0.034,5-3
		C819.137,923.803,816.542,923.875,817,927z M824,929c2.692-1.641,8.165-0.502,9-4C831.447,923.839,823.976,925.266,824,929z
		 M707,969c-1.227,4.894,5.071,2.262,7,4c0.521-1.479,1.479-2.521,2-4c-0.776-0.224-1.973-0.027-2-1c0.555,0.003,1.135-0.81,0-1
		C713.33,969.454,708.181,970.062,707,969z M636,1014c2.319,0.319,3.839-0.161,5-1c0.054-1.72-0.77-2.564-2-3
		C639.296,1012.63,635.121,1010.787,636,1014z"/>
	<path fill-rule="evenodd" clip-rule="evenodd" fill="#C3086A" d="M502,1096c-3.822,12.512-13.1,19.566-18,31
		C487.998,1114.665,496.719,1107.053,502,1096z"/>
	<path fill-rule="evenodd" clip-rule="evenodd" fill="#C3086A" d="M503,1093c2.888-6.778,5.885-13.448,11-18
		C509.833,1080.499,507.042,1087.376,503,1093z"/>
	<path fill-rule="evenodd" clip-rule="evenodd" fill="#C3086A" d="M518,1068c2.692-6.641,8.053-10.614,13-15
		C526.57,1057.904,522.094,1062.761,518,1068z"/>
	<path fill-rule="evenodd" clip-rule="evenodd" fill="#C3086A" d="M531,1052c13.963-15.37,26.494-32.173,44-44
		C558.304,1020.637,546.158,1037.824,531,1052z"/>
	<path fill-rule="evenodd" clip-rule="evenodd" fill="#C3086A" d="M587,998c9.386-11.614,24.305-17.695,35-28
		C612.327,981.327,597.458,987.458,587,998z"/>
	<path fill-rule="evenodd" clip-rule="evenodd" fill="#C3086A" d="M623,970c0.903-1.763,2.237-3.097,4-4
		c1.805,3.681,11.969,6.767,13,0c-1.163-1.837-5.307-0.693-4-5c1.165,0.168,1.086,1.581,1,3c2.48-0.147,4.853-0.186,5,2
		c-2.605,6.774-11.946,5.352-16,1C625.44,968.44,624.44,969.44,623,970z"/>
	<path fill-rule="evenodd" clip-rule="evenodd" fill="#C3086A" d="M639,957c1.618-4.049,7.405-3.928,10-7
		c-3.726-2.001-6.549,1.276-9-2c0-0.333,0-0.667,0-1c0.333,0,0.667,0,1,0c0,0.333,0,0.667,0,1c1.813,1.17,7.99-1.27,10,2
		C648.079,953.413,642.113,953.78,639,957z"/>
	<path fill-rule="evenodd" clip-rule="evenodd" fill="#C3086A" d="M641,946c1.787-11.546,11.023-15.644,18-22
		C653.128,931.462,643.848,935.515,641,946z"/>
	<path fill-rule="evenodd" clip-rule="evenodd" fill="#C3086A" d="M662,921c5.415-8.918,17.302-11.364,25-18
		C680.799,911.133,668.242,912.908,662,921z"/>
	<path fill-rule="evenodd" clip-rule="evenodd" fill="#C3086A" d="M691,902c5.874-0.793,7.216-6.117,15-5
		c-0.729-4.729,0.586-7.414,4-8c-0.41,1.257-1.29,2.044-3,2C707.776,900.776,697.316,899.316,691,902z"/>
	<path fill-rule="evenodd" clip-rule="evenodd" fill="#C3086A" d="M711,889c3.278-4.389,8.968-6.365,17-6
		C721.843,884.51,714.928,885.261,711,889z"/>
	<path fill-rule="evenodd" clip-rule="evenodd" fill="#C3086A" d="M767,872c-14.103,2.23-27.645,5.021-38,11
		c7.239-6.761,19.514-8.485,31-11c0.333,0,0.667,0,1,0C763,872,765,872,767,872z"/>
	<path fill-rule="evenodd" clip-rule="evenodd" fill="#C3086A" d="M792,867c-6.357,3.31-15.851,3.483-24,5
		C773.035,867.98,783.751,869.91,792,867z"/>
	<path fill-rule="evenodd" clip-rule="evenodd" fill="#830741" d="M704,887c-8.493-2.173-13.26-8.074-18-14
		C691.228,860.149,704.775,875.628,704,887z M702,886c1.036-11.036-5.691-14.309-12-18C683.286,877.545,697.613,881.122,702,886z"/>
	<path fill-rule="evenodd" clip-rule="evenodd" fill="#C3086A" d="M690,868c6.309,3.691,13.036,6.964,12,18
		C697.613,881.122,683.286,877.545,690,868z M690,870c-3.007,7.026,6.138,10.514,11,13C701.192,875.305,694.228,870.004,690,870z"/>
	<path fill-rule="evenodd" clip-rule="evenodd" fill="#C3086A" d="M820,896c0.836,13.169-6.514,18.153-19,18
		C789.622,901.862,809.847,886.663,820,896z M819,897c-4.318-5.728-15.236-0.819-19,3c0,3.667,0,7.333,0,11
		C809.138,915.501,820.082,908.902,819,897z"/>
	<path fill-rule="evenodd" clip-rule="evenodd" fill="#830741" d="M800,911c0-3.667,0-7.333,0-11c3.764-3.819,14.682-8.728,19-3
		C820.082,908.902,809.138,915.501,800,911z M802,899c-1.897,4.187-1.321,11.085,2,13c8.363-1.304,14.586-4.748,14-15
		C813.938,892.731,806.417,897.493,802,899z"/>
	<path fill-rule="evenodd" clip-rule="evenodd" fill="#830741" d="M933,908c3.093-0.093,2.98,3.02,3,6
		c7.117,10.549,25.263,10.071,28,25c8.209,2.458,9.678,11.655,16,16c-6.851,12.816-15.722,23.612-30,29
		c-9.34-2.327-15.657-7.676-26-9c-7.207-9.735-13.562-19.374-11-32C915.188,932.216,929.656,919.119,933,908z M939,920
		c-2.585-2.748-3.649-7.018-6-10c-2.188,3.478-4.43,6.903-6,11c0.003,1.003-0.811,1.19-1,2c0,0.667,0,1.333,0,2
		c-2.68,6.32-8.418,9.582-11,16c0,4.333,0,8.667,0,13c-0.92,6.269,6.295,13.027,9,19c5.43,0.904,10.367,2.3,14,5
		c0.334,0,0.666,0,1,0c2.768,1.599,9.443,4.511,12,3c0.333,0,0.667,0,1,0c4.681-0.986,7.803-3.531,10-7c0.333,0,0.667,0,1,0
		c1.763-0.903,3.097-2.237,4-4c4.938-2.612,12.801-14.144,8-17c-0.211-1.122-1.109-1.557-2-2c0-0.333,0-0.667,0-1
		c-8.975-8.358-13.845-20.822-26-26c-3.078,0.745-1.922-2.745-5-2C941.739,920.594,939.807,920.86,939,920z"/>
	<path fill-rule="evenodd" clip-rule="evenodd" fill="#C3086A" d="M927,921c1.57-4.097,3.812-7.522,6-11
		c2.351,2.982,3.415,7.252,6,10c-3.191-0.142-2.969-3.698-6-4C929.63,916.296,930.1,920.434,927,921z"/>
	<path fill-rule="evenodd" clip-rule="evenodd" fill="#B596AF" d="M927,921c3.1-0.566,2.63-4.704,6-5c3.031,0.302,2.809,3.858,6,4
		c0.807,0.86,2.739,0.594,3,2c-4.121-0.546-6.202-3.131-9-5c-2.951,1.382-4.049,4.618-7,6C926.189,922.19,927.003,922.003,927,921z"
		/>
	<path fill-rule="evenodd" clip-rule="evenodd" fill="#4FE6FC" d="M942,922c3.078-0.745,1.922,2.745,5,2
		c10.853,6.48,15.983,18.683,26,26c0,0.333,0,0.667,0,1c5.269,4.077-2.488,8.526-1,11c0,0.333,0,0.667,0,1
		c-2.225,4.442-7.397,5.936-9,11c-0.333,0-0.667,0-1,0c-2.496,3.17-7.178,4.155-10,7c-0.333,0-0.667,0-1,0
		c-4.381-0.619-7.405-2.595-12-3c-0.334,0-0.666,0-1,0c-2.449-4.218-8.599-4.735-14-6c-2.389-6.611-7.489-10.511-9-18
		c0-4.333,0-8.667,0-13c3.399-5.601,9.578-8.422,11-16c0-0.667,0-1.333,0-2c2.951-1.382,4.049-4.618,7-6
		C935.798,918.869,937.879,921.454,942,922z"/>
	<path fill-rule="evenodd" clip-rule="evenodd" fill="#B596AF" d="M947,924c12.155,5.178,17.025,17.642,26,26
		C962.983,942.683,957.853,930.48,947,924z"/>
	<path fill-rule="evenodd" clip-rule="evenodd" fill="#B596AF" d="M973,951c0.891,0.443,1.789,0.878,2,2c-0.003,1.003,0.81,1.19,1,2
		c-0.192,3.474-3.537,3.796-4,7C970.512,959.526,978.269,955.077,973,951z"/>
	<path fill-rule="evenodd" clip-rule="evenodd" fill="#B596AF" d="M972,963c0.617,4.618-3.777,4.223-5,7
		c-0.903,1.763-2.237,3.097-4,4C964.603,968.936,969.775,967.442,972,963z"/>
	<path fill-rule="evenodd" clip-rule="evenodd" fill="#B596AF" d="M952,981c2.822-2.845,7.504-3.83,10-7
		C959.803,977.469,956.681,980.014,952,981z"/>
	<path fill-rule="evenodd" clip-rule="evenodd" fill="#B596AF" d="M939,978c4.595,0.405,7.619,2.381,12,3
		C948.443,982.511,941.768,979.599,939,978z"/>
	<path fill-rule="evenodd" clip-rule="evenodd" fill="#B596AF" d="M915,954c1.511,7.489,6.611,11.389,9,18
		c5.401,1.265,11.551,1.782,14,6c-3.633-2.7-8.57-4.096-14-5C921.295,967.027,914.08,960.269,915,954z"/>
	<path fill-rule="evenodd" clip-rule="evenodd" fill="#B596AF" d="M915,941c2.582-6.418,8.32-9.68,11-16
		C924.578,932.578,918.399,935.399,915,941z"/>
	<path fill-rule="evenodd" clip-rule="evenodd" fill="#C3086A" d="M967,970c1.223-2.777,5.617-2.382,5-7c0-0.333,0-0.667,0-1
		c0.463-3.204,3.808-3.526,4-7c-0.19-0.81-1.003-0.997-1-2C979.801,955.856,971.938,967.388,967,970z"/>
	<path fill-rule="evenodd" clip-rule="evenodd" fill="#DE0A7E" d="M891,939c-1.929,5.072-11.707,2.293-13,8
		c-2.319,0.319-3.839-0.161-5-1C877.898,943.073,886.543,939.092,891,939z"/>
	<path fill-rule="evenodd" clip-rule="evenodd" fill="#DE0A7E" d="M778,953c0.693-1.908,1.557,1.08,0,1c1.672,1.662,4.049,2.618,4,6
		c2.826,0.827,2.591-1.41,5-1c0,1.667,0,3.333,0,5c-5.312-1.303-7.259-4.372-11,0c0.892-6.436-5.148,0.276-7-3
		c0.797-2.203,2.008-3.993,5-4c-0.302,2.635,1.385,3.282,4,3C776.172,957.139,775.771,956.012,778,953z"/>
	<path fill-rule="evenodd" clip-rule="evenodd" fill="#C3086A" d="M714,967c1.135,0.19,0.555,1.003,0,1c0.027,0.973,1.224,0.776,2,1
		c-0.521,1.479-1.479,2.521-2,4c-1.929-1.738-8.227,0.894-7-4C708.181,970.062,713.33,969.454,714,967z"/>
	<path fill-rule="evenodd" clip-rule="evenodd" fill="#DE0A7E" d="M899,974c2.461,1.49,2.239,4.11,6,2c0.169,3.093-3.519,4.497-5,3
		C902.447,976.642,898.507,977.14,899,974z"/>
	<path fill-rule="evenodd" clip-rule="evenodd" fill="#830741" d="M685,1070c-7.001,0.335-12.023-1.31-18-2
		c-0.656-10.344-14.234-7.767-13-20c-1.661-3.006-5.613-3.721-7-7c1.722-9.562-1.973-15.388,0-23c4.08-15.741,22.418-15.652,32-27
		c8.367-0.966,14.458-4.208,25-3c0.027,0.973,1.224,0.776,2,1c4.201,10.605,27.809,28.965,25,42c-0.929,4.31-11.311,17.937-18,21
		c-5.065,2.319-12.789,0.104-18,3C690.21,1058.543,689.188,1065.855,685,1070z M707,991c-9.581-3.758-18.94-0.781-28,2
		c-8.846,10.44-27.461,10.127-31,25c-1.717,7.215,2.601,14.188,1,23c1.104,3.229,5.224,3.443,6,7c-1.476,8.835,11.692,9.812,13,19
		c4.824,0.843,9.965,1.369,15,2c6.968-8.798,12.519-21.729,29-18c6.233-6.101,11.835-12.831,18-19
		C727.112,1013.554,713.577,1005.756,707,991z"/>
	<path fill-rule="evenodd" clip-rule="evenodd" fill="#830741" d="M683,1004c2.32-2.083-1.121-4.217,2-6
		c13.265-4.606,20.802,4.399,27,11c2.031,2.162,10.044,9.744,11,14c1.882,8.381-4.138,17.813-12,21c-5.312,2.153-12.408,0.026-17,3
		c-5.161,3.342-6.24,14.27-13,15c-19.231-4.725-31.6-29.296-21-49C667.981,1010.314,673.465,1005.131,683,1004z M719,1020
		c-3.185-1.482-3.899-5.434-7-7c-0.408-2.925-3.422-3.245-5-5c-0.333,0-0.667,0-1,0c-1.762-4.238-6.705-5.295-8-10
		c-3.562,1.772-11.549-0.882-12,4c0,0.333,0,0.667,0,1c-0.333,0-0.667,0-1,0c0.466,5.8-8.156,2.511-11,5c-0.333,0-0.667,0-1,0
		c-4.398,3.602-11.212,4.788-13,11c-2.851,3.759-3.244,8.44-2,14c0.553,1.78,0.514,4.153,2,5c-0.43,5.43,3.986,6.014,3,12
		c1.314,1.02,3.686,0.98,5,2c0.333,0,0.667,0,1,0c1.815,4.852,6.945,6.389,12,8c0.333,0,0.667,0,1,0c6.56-3.569,3.768-10.295,10-14
		c2.323-2.344,8.09-1.243,11-3c3.249-0.084,6.151-0.516,8-2c2.436-0.564,5.144-0.856,5-4
		C721.056,1034.477,722.114,1025.114,719,1020z"/>
	<path fill-rule="evenodd" clip-rule="evenodd" fill="#C3086A" d="M712,1013c3.101,1.566,3.815,5.518,7,7
		C714.587,1019.746,713.785,1015.881,712,1013z"/>
	<path fill-rule="evenodd" clip-rule="evenodd" fill="#B596AF" d="M707,1008c1.578,1.755,4.592,2.075,5,5
		c1.785,2.881,2.587,6.746,7,7c3.114,5.114,2.056,14.477-3,17C726.293,1025.371,711.833,1016.305,707,1008z"/>
	<path fill-rule="evenodd" clip-rule="evenodd" fill="#B596AF" d="M686,1002c0.451-4.882,8.438-2.228,12-4
		c1.295,4.705,6.238,5.762,8,10c-2.954-2.713-6.707-4.626-8-9C694.193,1000.193,688.23,999.231,686,1002z"/>
	<path fill-rule="evenodd" clip-rule="evenodd" fill="#B596AF" d="M686,1003c-0.04,5.627-6.383,4.95-12,5
		c2.844-2.489,11.466,0.8,11-5C685.333,1003,685.667,1003,686,1003z"/>
	<path fill-rule="evenodd" clip-rule="evenodd" fill="#4FE6FC" d="M716,1037c0.144,3.144-2.564,3.436-5,4
		c-14.932-1.399-24.083,4.901-28,17c-8.346-0.987-12.24-6.427-18-10c2.808-6.035-3.767-8.931-6-13c0.373-6.729,1.298-10.061,2-18
		c3.451-3.549,9.343-4.657,12-9c0.333,0,0.667,0,1,0c5.617-0.05,11.96,0.627,12-5c0-0.333,0-0.667,0-1c2.23-2.769,8.193-1.807,12-3
		c1.293,4.374,5.046,6.287,8,9c0.333,0,0.667,0,1,0C711.833,1016.305,726.293,1025.371,716,1037z"/>
	<path fill-rule="evenodd" clip-rule="evenodd" fill="#B596AF" d="M673,1008c-2.657,4.343-8.549,5.451-12,9
		c-0.702,7.939-1.627,11.271-2,18c2.233,4.069,8.808,6.965,6,13c5.76,3.573,9.654,9.013,18,10c3.917-12.099,13.068-18.399,28-17
		c-1.849,1.484-4.751,1.916-8,2c-4.732-0.065-9.843-0.51-11,3c-6.232,3.705-3.44,10.431-10,14c-0.333,0-0.667,0-1,0
		c-2.827-3.84-9.238-4.096-12-8c-0.333,0-0.667,0-1,0c-0.87-1.464-1.497-3.17-4-3c2.361-5.596-1.346-7.814-4-11
		c-1.486-0.847-1.447-3.22-2-5c0.61-4.622,0.79-8.129,2-14C661.788,1012.788,668.602,1011.602,673,1008z"/>
	<path fill-rule="evenodd" clip-rule="evenodd" fill="#C3086A" d="M660,1019c-1.21,5.871-1.39,9.378-2,14
		C656.756,1027.44,657.149,1022.759,660,1019z"/>
	<path fill-rule="evenodd" clip-rule="evenodd" fill="#C3086A" d="M660,1038c2.654,3.186,6.361,5.404,4,11
		c2.503-0.17,3.13,1.536,4,3c-1.314-1.02-3.686-0.98-5-2C663.986,1044.014,659.57,1043.43,660,1038z"/>
	<path fill-rule="evenodd" clip-rule="evenodd" fill="#C3086A" d="M669,1052c2.762,3.904,9.173,4.16,12,8
		C675.945,1058.389,670.815,1056.852,669,1052z"/>
	<path fill-rule="evenodd" clip-rule="evenodd" fill="#C3086A" d="M692,1046c1.157-3.51,6.268-3.065,11-3
		C700.09,1044.757,694.323,1043.656,692,1046z"/>
	<path fill-rule="evenodd" clip-rule="evenodd" fill="#830741" d="M975,1072c-2.27,8.205-4.932,17.884-14,17
		c-12.24-1.192-13.799-26.372,2-25C968.327,1064.463,968.157,1069.379,975,1072z M963,1065c-15.58-0.251-11.598,22.868-1,23
		c6.32,0.078,9.754-7.396,11-15C969.761,1070.239,966.949,1067.051,963,1065z"/>
	<path fill-rule="evenodd" clip-rule="evenodd" fill="#830741" d="M494,1090c1.53,3.909-4.362,8.028-7,11
		c-8.075-2.771-23.833-18.73-12-22C483.592,1076.626,486.58,1087.633,494,1090z M475,1089c4.473,3.527,5.491,10.51,13,11
		c0.8-4.2,4.864-5.136,5-10c-6.46-2.54-9.16-8.84-17-10c-2.488,1.512-4.572,3.428-5,7c1.427,0.239,1.687,1.646,3,2
		C474.333,1089,474.667,1089,475,1089z"/>
	<path fill-rule="evenodd" clip-rule="evenodd" fill="#C3086A" d="M474,1089c-1.313-0.354-1.573-1.761-3-2
		c0.428-3.572,2.512-5.488,5-7c7.84,1.16,10.54,7.46,17,10c-0.136,4.864-4.2,5.8-5,10c-7.509-0.49-8.527-7.473-13-11
		c5.562,1.771,6.077,8.59,12,10c1.158-3.509,5.056-4.277,5-9c-6.387-1.947-9.009-7.657-16-9
		C472.859,1082.329,470.705,1086.658,474,1089z"/>
	<path fill-rule="evenodd" clip-rule="evenodd" fill="#830741" d="M858,1120c1.921,1.412,1.81,4.857,3,7
		c9.588-0.588,11.688,6.312,12,15c-4.297,7.037-15.367,7.3-20,14c-11.065,0.732-14.096-6.571-18-13c5.543-7.334,2.369-18.242,11-22
		C849.38,1119.528,853.484,1122.738,858,1120z M858,1130c1.494-3.166,1.239-7.873-2-9c-1.525,3.142-7.669,1.664-12,2
		c-4.446,4.887-3.835,14.832-7,21c4.784,3.883,5.868,11.465,15,11c4.767-6.233,14.499-7.501,20-13c-1.156-6.511-1.677-13.657-9-14
		c-3.369,1.631-4.268,5.732-9,6c-1.069,3.736,2.483,2.851,2,6c-5.1-0.1-2.158,7.842-9,6C842.037,1138.778,847.278,1127.849,858,1130
		z M854,1138c-2.892-1.603-1.209-3.737,0-6c-8.61-2.927-10.284,13.115-4,13C849.754,1141.778,850.969,1140.093,854,1138z"/>
	<path fill-rule="evenodd" clip-rule="evenodd" fill="#830741" d="M991,1145c1.444,7.556,10.059,7.941,15,12
		c2.489,13.858-0.415,25.818-4,38c-8.219,1.191-11.078,3.419-17,8c-19.145-2.342-40.127-19.546-35-37
		C953.367,1154.536,976.868,1144.545,991,1145z M952,1163c0,5,0,10,0,15c7.309,8.884,16.837,25.351,32,23
		c5.749-0.892,8.01-8.247,16-7c3.771-9.562,4.924-21.743,5-35c-3.505-5.828-15.059-3.607-15-13
		C971.155,1145.489,964.143,1156.81,952,1163z"/>
	<path fill-rule="evenodd" clip-rule="evenodd" fill="#830741" d="M997,1163c4.377,8.665-1.456,15.692-3,24
		c-11.768,12.283-27.479,2.5-34-9c-0.066-6.066,1.819-10.181,3-15c6.031,3.217,8.375-4.954,14-6
		C984.833,1155.544,989.643,1160.531,997,1163z M995,1177c8.179-10.586-7.274-20.569-18-18c-3.797,1.203-6.234,3.766-9,6
		c-0.333,0-0.667,0-1,0c-14.202,9.79,8.534,35.938,21,22c0.333,0,0.667,0,1,0c3.983-0.684,4.32-5.013,6-8
		C995,1178.333,995,1177.667,995,1177z"/>
	<path fill-rule="evenodd" clip-rule="evenodd" fill="#B596AF" d="M977,1159c10.726-2.569,26.179,7.414,18,18
		c-3.335-3.656,1.918-3.299,2-6C997.226,1163.598,986.003,1159.345,977,1159z"/>
	<path fill-rule="evenodd" clip-rule="evenodd" fill="#4FE6FC" d="M968,1165c2.766-2.234,5.203-4.797,9-6
		c9.003,0.345,20.226,4.598,20,12c-0.082,2.701-5.335,2.344-2,6c0,0.667,0,1.333,0,2c-2.244,2.422-3.851,5.482-6,8
		c-0.333,0-0.667,0-1,0C974.202,1198.431,954.692,1174.625,968,1165z"/>
	<path fill-rule="evenodd" clip-rule="evenodd" fill="#B596AF" d="M995,1179c-1.68,2.987-2.017,7.316-6,8
		C991.149,1184.482,992.756,1181.422,995,1179z"/>
	<path fill-rule="evenodd" clip-rule="evenodd" fill="#B596AF" d="M968,1165c-13.308,9.625,6.202,33.431,20,22
		c-12.466,13.938-35.202-12.21-21-22C967.333,1165,967.667,1165,968,1165z"/>
	<path fill-rule="evenodd" clip-rule="evenodd" fill="#830741" d="M539,1171c4.09,5.656,14.601,12.307,18,21
		c1.079,2.761,0.136,7.589,1,12c1.583,8.083,6.881,13.758,1,23c-2.941,4.622-15.025,12.483-17,13c-13.05,3.414-22.32-6.667-27-17
		c1.503-8.662-0.499-14.981-5-20C513.254,1184.675,510.119,1166.821,539,1171z M518,1216c0.461,2.168-1.329,5.104-1,7
		c1.72,9.906,14.068,16.304,22,16c1.689-0.064,17.73-9.18,20-15c3.146-8.068-1.363-12.068-3-20c-3.445-16.696-8.616-23.559-18-31
		c-7.727-3.117-15.76,0.468-21,3C508.225,1192.17,515.395,1203.74,518,1216z"/>
	<path fill-rule="evenodd" clip-rule="evenodd" fill="#830741" d="M541,1216c-13.955-1.684-23.8-20.179-16-34
		c12.719-0.053,15.438,9.896,25,13c3.171,19.379,2.987,39.903-19,35c0.709-4.909-4.584-3.809-2-8
		C532.785,1219.785,542.041,1223.04,541,1216z M540,1221c-1.904,0.429-2.512,2.154-5,2c-1.333,0-2.667,0-4,0
		c0.643,3.024,1.562,5.771,5,6c10.258,0.673,18.18-10.808,12-20c0-1,0-2,0-3c0.18-5.314,2.094-8.656-3-10c0-1,0-2,0-3
		c-3.059,0.726-2.941-1.726-6-1c0-0.333,0-0.667,0-1c-3.062-2.604-5.057-6.276-10-7c-1,0-2,0-3,0c-1.554,2.041-3.869,6.631-2,9
		c1.344,12.655,11.083,16.917,19,23c0.154,2.488-1.571,3.096-2,5C540.667,1221,540.333,1221,540,1221z"/>
	<path fill-rule="evenodd" clip-rule="evenodd" fill="#C3086A" d="M535,1223c-0.839,1.16-1.319,2.681-1,5
		c0.776,0.224,1.973,0.027,2,1c-3.438-0.229-4.357-2.976-5-6C532.333,1223,533.667,1223,535,1223z"/>
	<path fill-rule="evenodd" clip-rule="evenodd" fill="#B596AF" d="M548,1209c6.18,9.192-1.742,20.673-12,20
		c-0.027-0.973-1.224-0.776-2-1c-0.319-2.319,0.161-3.84,1-5c2.488,0.154,3.096-1.571,5-2c-0.239,2.761-3.718,2.281-5,4
		c3.378,7.811,10.376-2.517,14-4C549.017,1216.65,549.331,1212.003,548,1209z"/>
	<path fill-rule="evenodd" clip-rule="evenodd" fill="#B596AF" d="M529,1184c4.943,0.724,6.938,4.396,10,7c0,0.333,0,0.667,0,1
		C534.983,1190.017,533.318,1185.682,529,1184z"/>
	<path fill-rule="evenodd" clip-rule="evenodd" fill="#4FE6FC" d="M524,1193c-1.869-2.369,0.446-6.959,2-9c1,0,2,0,3,0
		c4.318,1.682,5.983,6.017,10,8c3.059-0.726,2.941,1.726,6,1c0,1,0,2,0,3c4.355,2.21,0.754,6.344,3,10c0,1,0,2,0,3
		c1.331,3.003,1.017,7.65,1,12c-3.624,1.483-10.622,11.811-14,4c1.282-1.719,4.761-1.239,5-4c0.333,0,0.667,0,1,0
		c10.413-8.621-7.551-8.687-13-17C525.016,1199.447,528.553,1196.133,524,1193z"/>
	<path fill-rule="evenodd" clip-rule="evenodd" fill="#B596AF" d="M524,1193c4.553,3.133,1.016,6.447,4,11
		c5.449,8.313,23.413,8.379,13,17c0.429-1.904,2.154-2.512,2-5C535.083,1209.917,525.344,1205.655,524,1193z"/>
	<path fill-rule="evenodd" clip-rule="evenodd" fill="#B596AF" d="M545,1196c5.094,1.344,3.18,4.686,3,10
		C545.754,1202.344,549.355,1198.21,545,1196z"/>
	<path fill-rule="evenodd" clip-rule="evenodd" fill="#830741" d="M831,1304c-0.934,0.732-1.515,1.818-2,3
		c-5.131,0.798-6.561-2.105-11-2c-2.552,12.307,19.632,8.303,24,17c-0.377,4.623-3.632,6.368-6,9c4.471-1.236,4.656,4.504,11,4
		c0.976,7.139,0.76,10.494,0,19c-3.586,4.796-8.85,1.769-10,9c-7.056,3.574-15.643,1.28-20,6c-4.328-3.504-9.599-0.835-15,0
		c-2.905,7.889,1.496,17.927-1,25c8.307,0.719,17.009,9.404,26,15c0.604,23.938-16.662,30.004-27,43c-10.939,2.348-26.783,4.75-34-4
		c-12.628,5.449-22.268-5.474-33-2c-3.289-0.162,2.466-5.663-4-6c0.353-1.313,1.761-1.573,2-3c-8.972-3.361-14.599-10.068-22-15
		c2.29-9.377,9.48-13.853,19-16c4.084-12.611-5.228-26.47,1-42c-2.681-3.93-10.466-1.219-15-1c0-2.333,0-4.667,0-7
		c15.152-9.515,33.51-15.823,49-25c5.342-11.324,10.468-22.865,26-24c-1.555-8.779-14.889-5.778-17-14
		c-16.854-0.229-32.826-14.059-46-18c-4.297-3.26,1.775-11.044-5-11c1.808-4.055,1.966-5.885,1-11c4.997-1.337,6.1-6.567,10-9
		c-1.979-6.716-8.554-12.946-7-20c11.123-3.011,19.584,5,27,9c2.146,6.854,7.301,10.699,11,16c21.085,4.581,34.52,16.813,49,28
		C815.534,1288.8,827.706,1291.961,831,1304z M810,1277c-9.868-5.033-16.217-14.33-28-20c-6.15-2.96-14.459-2.438-20-6
		c-6.124-3.938-7.526-11.895-12-17c-7.009-3.421-14.346-11.522-24-9c1.885,11.782,10.939,16.394,13,28
		c14.074,5.926,21.262,18.738,41,19c17.323,9.677,23.26,30.74,48,33C829.133,1292.462,812.472,1289.248,810,1277z M765,1331
		c-11.129,6.536-25.217,13.384-38,18c-5.528,1.996-12.028,5.415-11,11c3.562,1.01,13.274,0.425,17,1
		c-11.257,19.681,0.723,48.558,13,61c19.504,19.767,52.396-6.818,55-33c0.489-4.92-2.437-15.418-1-22
		c-6.922-7.377-11.119-21.809-23-23c-6.992-0.701-11.703,5.993-19,5c6.569-10.675,22.444-12.172,33-18c3.575-1.974,3.615-5.301,8-6
		c5.35-0.853,13.452,3.856,20,4c8.508,0.187,15.824-0.98,21-8C816.755,1311.362,771.981,1297.635,765,1331z M799,1430
		c10.608,11.712,29.518-1.992,25-21C809.44,1397.524,804.637,1420.371,799,1430z"/>
	<path fill-rule="evenodd" clip-rule="evenodd" fill="#DE0A7E" d="M603,1311c0.31-1.357,2.504-0.83,4-1
		c-2.609,8.12,10.781,3.962,14,8c2.6-0.4,3.016-2.984,6-3c3.793,5.54,7.837,10.83,17,11c0.689,2.689-2.067,1.933-3,3
		c0.758,2.576,3.192,3.475,7,3c-1.418,5.418,4.096,3.904,6,6c2.943,8.298,2.63,15.885,7,23c-3.478,9.406,1.94,15.713,5,25
		c-1.329-1.299-3.721-1.318-4,1c-0.168,2.169,3.547,0.453,5,1c-2.848,8.061,0.557,9.266,1,14c-3.479-2.855-5.253-7.413-9-10
		c3.591-3.922,0.199-3.201-4-7c-6.282-5.684-15.06-18.512-15-25c-8.009-3.736-10.857-17.703-13-24c-0.87-2.908-1.497-1.125-4-1
		c2.049-6.563-11.587-12.781-20-7c-0.188-2.812-3.263-2.737-4-5c-2.833,0.167-4.167,1.833-7,2c1.059-3.726-2.105-3.229-3-5
		c-0.172-3.839,5.172-2.161,5-6c4.427-1.094,4.973,1.693,8,2c0.715,2.715-4.715-0.716-4,2c0.87,1.509,1.497-0.275,4,1
		C602.871,1317.458,604.985,1312.091,603,1311z M631,1335c0.575,6.128,4.604-0.21,5-3c-2.133-0.579-5.447-3.441-6,0
		C632.016,1332.289,634.335,1337.901,631,1335z"/>
	<path fill-rule="evenodd" clip-rule="evenodd" fill="#830741" d="M624,1367c-8.563-1.038-13.388-7.94-21-7
		c-0.312-6.646,2.271-10.396,4-15C616.762,1347.643,624.499,1357.404,624,1367z M608,1347c-1.464,3.202-3.427,5.906-3,11
		c9.012-0.679,9.743,6.924,18,7C620.674,1356.325,616.204,1349.797,608,1347z"/>
	<path fill-rule="evenodd" clip-rule="evenodd" fill="#830741" d="M901,1358c16.068-13.114,44.696,1.032,48,13
		c-4.988-4.678-11.775-7.558-16-13C922.7,1357.803,908.082,1358.277,901,1358z"/>
	<path fill-rule="evenodd" clip-rule="evenodd" fill="#830741" d="M899,1358c-6.807,10.261-20.176,23.274-16,38
		c-7.605-1.271-3.229,9.438-6,13C864.008,1395.798,878.783,1359.229,899,1358z M891,1364c-14.072,5.317-21.957,27.272-15,42
		C877.072,1391.492,885.746,1377.498,891,1364z"/>
	<path fill-rule="evenodd" clip-rule="evenodd" fill="#830741" d="M921,1369c-2.729,6.271-10.751,7.249-20,7
		C902.466,1367.794,913.905,1368.871,921,1369z M903,1375c6.038-0.296,11.304-1.363,14-5C910.856,1370.19,904.501,1370.168,903,1375
		z"/>
	<path fill-rule="evenodd" clip-rule="evenodd" fill="#270110" d="M840,1321c-5.176,7.02-12.492,8.187-21,8
		c-6.548-0.144-14.65-4.853-20-4c-4.385,0.699-4.425,4.026-8,6c-10.556,5.828-26.431,7.325-33,18c7.297,0.993,12.008-5.701,19-5
		c11.881,1.191,16.078,15.623,23,23c-1.437,6.582,1.489,17.08,1,22c-2.604,26.182-35.496,52.767-55,33
		c-12.277-12.442-24.257-41.319-13-61c-3.726-0.575-13.438,0.01-17-1c-1.028-5.585,5.472-9.004,11-11
		c12.783-4.616,26.871-11.464,38-18C771.981,1297.635,816.755,1311.362,840,1321z M768,1399c17.096,0.196,21.191-30.574-1-29
		C749.114,1371.27,752.497,1398.822,768,1399z M751,1371c7.426-3.574,15.834-6.166,22-11
		C763.476,1354.189,753.568,1363.387,751,1371z M734,1376c4.411-1.923,4.29-8.377,6-13C732.941,1362.275,735.512,1371.179,734,1376z
		 M788,1391c3.571,0.222,4.51-5.195,3-7c-1,0-2,0-3,0C788.34,1387.101,785.686,1388.777,788,1391z M749,1399
		c-2.644-4.409,2.151-10.099-3-12C742.773,1389.52,744.36,1398.387,749,1399z M759,1408c4.558,8.143,21.3,0.344,20-6
		C774.057,1405.724,766.089,1406.422,759,1408z"/>
	<path fill-rule="evenodd" clip-rule="evenodd" fill="#B596AF" d="M767,1370c22.191-1.574,18.096,29.196,1,29
		C752.497,1398.822,749.114,1371.27,767,1370z M755,1385c0.802,27.335,39.279,6.279,23-10c0.016,0.016-5.914-5.741-15-3
		C757.604,1373.628,754.849,1379.846,755,1385z"/>
	<path fill-rule="evenodd" clip-rule="evenodd" fill="#DE0A7E" d="M885,1374c-1.457,3.21-3.178,6.155-7,7
		C880.332,1378.665,880.478,1374.145,885,1374z"/>
	<path fill-rule="evenodd" clip-rule="evenodd" fill="#830741" d="M916,1378c-15.79,1.313-23.347,18.762-17,32
		c3.615,7.541,13.397,10.364,17,16c17.796,2.91,32.636-20.901,17-30c-1.384-3.283-5.406-3.927-8-6c6.191,1.475,9.844,5.489,15,8
		c0.204,3.129-0.675,7.342,1,9c3.502,0.169,3.148-3.519,5-5c-0.332-14.407-30.238-24.324-36-9c1.512,2.089,3.428-3.839,7-3
		c-3.422,2.244-6.774,4.559-9,8c-0.282-1.615,0.945-1.722,1-3c-4.1,0.031-5.211,6.812-4,9c0.86,1.908,0.594-1.08,2-1
		c-0.581,3.914,0.86,5.807,2,8c-4.999-1.334-5.871-6.796-6-13c2.327-3.34,6.603-4.73,7-10c10.505-9.201,30.855-1.756,36,9
		c1.816-13.728-12.363-22.337-28-19c39.072-12.782,38.083,51.896,8,52c-0.316-3.983,4.625-2.708,5-6
		C900.805,1440.42,879.496,1380.507,916,1378z M943,1414c0.889-2.111,3.045-2.955,3-6C941.869,1406.281,940.639,1412.533,943,1414z"
		/>
	<path fill-rule="evenodd" clip-rule="evenodd" fill="#C3086A" d="M909,1412c-14.381-4.373-2.114-26.59,8-30
		c10.915,0.418,18.71,3.956,26,8c-1.562-13.358-25.945-13.507-39-7c-11.921,15.822-1.581,34.409,12,41
		c8.328-1.339,17.559-1.774,20-9c-1.066-2.272-3.033,2.872-6,2c0-0.333,0-0.667,0-1c-0.184-0.851,0.39-0.943,1-1
		c3.472,0.089,6.905-5.027,4-8c2.164-3.143-0.715-8.154-2-11c15.636,9.099,0.796,32.91-17,30c-3.603-5.636-13.385-8.459-17-16
		c-6.347-13.238,1.21-30.687,17-32c0.667,0,1.333,0,2,0c15.637-3.337,29.816,5.272,28,19c-5.145-10.756-25.495-18.201-36-9
		c-0.397,5.27-4.673,6.66-7,10c0.129,6.204,1.001,11.666,6,13C909,1411.333,909,1411.667,909,1412z"/>
	<path fill-rule="evenodd" clip-rule="evenodd" fill="#DE0A7E" d="M930,1416c0,0.333,0,0.667,0,1c2.967,0.872,4.934-4.272,6-2
		c-2.441,7.226-11.672,7.661-20,9c-13.581-6.591-23.921-25.178-12-41c13.055-6.507,37.438-6.358,39,7c-7.29-4.044-15.085-7.582-26-8
		c-10.114,3.41-22.381,25.627-8,30C911.896,1417.804,923.143,1420.058,930,1416z"/>
	<path fill-rule="evenodd" clip-rule="evenodd" fill="#270110" d="M907,1403c-1.406-0.08-1.14,2.908-2,1c-1.211-2.188-0.1-8.969,4-9
		c-0.055,1.278-1.282,1.385-1,3C908.826,1400.826,906.591,1400.591,907,1403z"/>
	<path fill-rule="evenodd" clip-rule="evenodd" fill="#830741" d="M746,1387c5.151,1.901,0.356,7.591,3,12
		C744.36,1398.387,742.773,1389.52,746,1387z"/>
	<path fill-rule="evenodd" clip-rule="evenodd" fill="#830741" d="M888,1388c-5.252,33.429,14.211,44.971,41,51
		c-14.228,14.387-42.144-6.343-45-23C882.422,1406.798,884.501,1396.6,888,1388z M887,1394c-10.371,22.772,11.862,47.523,28,49
		c3.619,0.331,9.657,0.109,12-4C903.021,1434.761,883.072,1423.033,887,1394z"/>
	<path fill-rule="evenodd" clip-rule="evenodd" fill="#B596AF" d="M917,1390c2.667,0,5.333,0,8,0c2.594,2.073,6.616,2.717,8,6
		c1.285,2.846,4.164,7.857,2,11c-0.467,3.533-2.525,5.475-4,8c-0.61,0.057-1.184,0.149-1,1c-6.857,4.058-18.104,1.804-21-4
		c0-0.333,0-0.667,0-1c-1.14-2.193-2.581-4.086-2-8c-0.409-2.409,1.826-2.174,1-5C910.226,1394.559,913.578,1392.244,917,1390z
		 M908,1404c-0.577,20.703,32.007,15.271,26-5c-0.06-0.2-3.805-6.934-9-8C914.576,1388.861,908.229,1395.809,908,1404z"/>
	<path fill-rule="evenodd" clip-rule="evenodd" fill="#DE0A7E" d="M924,1439c-11.634,5.898-22.698-3.214-28-10
		C903.691,1430.065,913.479,1440.453,924,1439z"/>
	<path fill-rule="evenodd" clip-rule="evenodd" fill="#830741" d="M523,1401c4.646-1.354,9.89-2.109,16-2
		c-0.022,2.355,1.723,2.944,1,6c13.626,2.497,18.357,18.809,21,29C542.647,1428.687,529.611,1418.056,523,1401z M550,1428
		c0.803,2.121,4.116,3.899,6,2c-0.908-2.759-0.311-7.022-2-9c0-0.333,0-0.667,0-1c-2.238-6.096-6.81-9.857-13-12
		c-1.757-0.91-1.829-3.504-3-5c-0.923-3.743-8.03-1.303-12-2c2.213,12.453,11.646,17.688,19,25
		C546.904,1426.429,547.512,1428.154,550,1428z"/>
	<path fill-rule="evenodd" clip-rule="evenodd" fill="#B596AF" d="M554,1421c1.689,1.978,1.092,6.241,2,9
		c-1.884,1.899-5.197,0.121-6-2c1.904,0.429,2.512,2.154,5,2C553.156,1426.3,553.726,1426.401,554,1421z"/>
	<path fill-rule="evenodd" clip-rule="evenodd" fill="#B596AF" d="M541,1408c6.19,2.143,10.762,5.904,13,12
		C550.897,1414.77,545.792,1411.541,541,1408z"/>
	<path fill-rule="evenodd" clip-rule="evenodd" fill="#B596AF" d="M538,1403c-2.147-1.854-7.325-0.675-11-1
		c2.556,11.444,12.058,15.942,18,24c-7.354-7.312-16.787-12.547-19-25C529.97,1401.697,537.077,1399.257,538,1403z"/>
	<path fill-rule="evenodd" clip-rule="evenodd" fill="#830741" d="M779,1402c1.3,6.344-15.442,14.143-20,6
		C766.089,1406.422,774.057,1405.724,779,1402z M764,1410c4.506-0.494,8.627-1.373,11-4C771.28,1407.28,765.361,1406.361,764,1410z"
		/>
	<path fill-rule="evenodd" clip-rule="evenodd" fill="#C3086A" d="M927,1439c-2.343,4.109-8.381,4.331-12,4
		c-16.138-1.477-38.371-26.228-28-49C883.072,1423.033,903.021,1434.761,927,1439z M896,1429c5.302,6.786,16.366,15.898,28,10
		C913.479,1440.453,903.691,1430.065,896,1429z M895,1426c-2.671,0.004-2.173-3.16-5-3C889.514,1425.582,893.536,1428.669,895,1426z
		"/>
	<path fill-rule="evenodd" clip-rule="evenodd" fill="#830741" d="M951,1435c-0.272,6.138-7.813,7.409-12,12
		c-4.33,4.748-4.926,11.675-13,13c-17.154,2.815-34.368-11.851-41-25c11.706,3.821,13.738,15.253,27,16
		C927.448,1451.871,937.853,1439.672,951,1435z M893,1442c-0.848,2.942,2.708,6.498,4,4C895.551,1444.782,895.66,1442.006,893,1442z
		 M906,1452c9.965,10.937,30.39,5.643,31-7C929.521,1450.178,914.293,1453.743,906,1452z"/>
	<path fill-rule="evenodd" clip-rule="evenodd" fill="#C3086A" d="M937,1445c-0.61,12.643-21.035,17.937-31,7
		C914.293,1453.743,929.521,1450.178,937,1445z"/>
	<path fill-rule="evenodd" clip-rule="evenodd" fill="#C3086A" d="M883,1455c0.789-0.762,3.497-0.72,5,0c0,0.667,0,1.333,0,2
		c-0.851-0.184-0.943,0.39-1,1C884.964,1457.703,884.336,1455.997,883,1455z"/>
	<path fill-rule="evenodd" clip-rule="evenodd" fill="#270110" d="M925,1390c-2.667,0-5.333,0-8,0c-3.572-0.839-5.488,5.089-7,3
		c5.762-15.324,35.668-5.407,36,9c-1.852,1.481-1.498,5.169-5,5c-1.675-1.658-0.796-5.871-1-9
		C934.844,1395.489,931.191,1391.475,925,1390z"/>
	<path fill-rule="evenodd" clip-rule="evenodd" fill="#4FE6FC" d="M538,1403c1.171,1.496,1.243,4.09,3,5
		c4.792,3.541,9.897,6.77,13,12c0,0.333,0,0.667,0,1c-0.274,5.401-0.844,5.3,1,9c-2.488,0.154-3.096-1.571-5-2
		c-2.488,0.154-3.096-1.571-5-2c-5.942-8.058-15.444-12.556-18-24C530.675,1402.325,535.853,1401.146,538,1403z"/>
	<path fill-rule="evenodd" clip-rule="evenodd" fill="#830741" d="M788,1384c1,0,2,0,3,0c1.51,1.805,0.571,7.222-3,7
		C785.686,1388.777,788.34,1387.101,788,1384z"/>
	<path fill-rule="evenodd" clip-rule="evenodd" fill="#830741" d="M750,1478c9.152,3.515,17.065,8.269,23,15
		c0.688,2.688-2.067,1.933-3,3c4.18,0.967,6.616,0.724,10,4c-1.849,1.484-4.751,1.915-8,2c-0.658,3.657,2.164,3.836,2,7
		c-4.291-2.042-10.236-2.43-13-6c-9.921,4.152-13.144-5.824-21-5C741.403,1489.402,747.48,1485.48,750,1478z M759,1501
		c1.004-3.338-1.388-3.279-4-3C754.699,1500.635,756.385,1501.282,759,1501z"/>
</g>
</svg>
