<?xml version="1.0" encoding="utf-8"?>
<!-- Generator: Adobe Illustrator 15.0.0, SVG Export Plug-In . SVG Version: 6.00 Build 0)  -->
<!DOCTYPE svg PUBLIC "-//W3C//DTD SVG 1.1//EN" "http://www.w3.org/Graphics/SVG/1.1/DTD/svg11.dtd">
<svg version="1.1" id="Layer_1" xmlns="http://www.w3.org/2000/svg" xmlns:xlink="http://www.w3.org/1999/xlink" x="0px" y="0px"
	 width="60px" height="60px" viewBox="0 0 60 60" enable-background="new 0 0 60 60" xml:space="preserve">
<g>
	<path fill="#F594DE" d="M30.634,0.523c0.074,0.306-0.454,0.306-0.379,0C30.444,0.515,30.49,0.381,30.634,0.523z"/>
	<path fill="#F594DE" d="M29.419,0.827c0.076,0,0.152,0,0.229,0c0.021,0.198-0.028,0.326-0.229,0.303
		C29.419,1.029,29.419,0.928,29.419,0.827z"/>
	<path fill="#FFFFFF" d="M24.332,6.142c-0.134,0.199-0.549,0.199-0.684,0C23.68,5.697,24.388,5.477,24.332,6.142z"/>
	<path fill="#F594DE" d="M34.051,9.939c-0.607,0.22-1.138-0.068-1.67-0.152C31.109,7.094,35.913,7.538,34.051,9.939z M33.064,8.952
		c0.103,0.023,0.145,0.108,0.303,0.076c-0.064-0.242,0.12-0.235,0.152-0.38C33.236,8.618,33.074,8.709,33.064,8.952z"/>
	<path fill="#FFFFFF" d="M33.52,8.648c-0.032,0.145-0.217,0.138-0.152,0.38c-0.158,0.032-0.2-0.052-0.303-0.076
		C33.074,8.709,33.236,8.618,33.52,8.648z"/>
	<path fill="#B114D8" d="M18.181,9.863c0.049-0.28-0.098-0.756,0.076-0.911C18.208,9.232,18.355,9.708,18.181,9.863z"/>
	<path fill="#F594DE" d="M22.433,14.647c-0.147,0.156-0.237,0.371-0.532,0.38c-0.593-0.213-1.254-0.539-0.911-1.291
		c0.062-0.136,0.33-0.208,0.456-0.38c0.158,0.12,0.504,0.053,0.684,0.152c0.002,0.074,0.093,0.059,0.151,0.076
		C22.174,14.097,22.471,14.204,22.433,14.647z"/>
	<path fill="#F594DE" d="M19.092,13.963c0.193,0.008,0.18,0.283,0.076,0.38C18.93,14.291,19.069,14.141,19.092,13.963z"/>
	<path fill="#770F91" d="M21.446,15.027c0.087-0.107,0.533,0.07,0.531,0.304C21.643,15.386,21.667,15.084,21.446,15.027z"/>
	<path fill="#F594DE" d="M19.624,16.394c0.189-0.008,0.235-0.142,0.379,0c0,0.051,0,0.101,0,0.152
		C19.889,16.692,19.339,16.646,19.624,16.394z"/>
	<path fill="#F594DE" d="M20.079,17.685c-0.012-0.089-0.12-0.083-0.228-0.076c0.063-0.272-0.171-0.367,0-0.531
		c0.238,0.015,0.311,0.196,0.456,0.303C20.186,17.437,20.325,17.752,20.079,17.685z"/>
	<path fill="#F594DE" d="M34.051,17.988c0.183-0.35,0.445-0.618,0.988-0.607c0.479,0.423,0.301,0.893-0.077,1.291
		c-0.269,0.263-0.226,0.837-0.455,1.139c-0.474,0.463-1.135,0.739-1.671,1.139c-0.276,0.001-0.34,0.215-0.531,0.304
		c0.085,0.193,0.188,0.37,0.304,0.531c1.201,1.235,0.226,3.172-0.987,3.721c-1.037,0.66-2.956,0.706-3.645-0.303
		c-0.276,0.154-0.263,0.597-0.759,0.531c-0.439-0.317,0.073-0.876-0.228-1.139c-0.028-1.562,0.622-2.062,1.443-2.733
		c0.292-0.238,0.574-0.57,0.835-0.76c0.941-0.684,2.495-0.255,3.113-1.138c0.188,0.011,0.315-0.04,0.38-0.152
		c0.633-0.202,0.909-0.761,1.139-1.367C34.032,18.374,34.066,18.206,34.051,17.988z M29.875,25.354
		c1.095-0.207,2.274-0.755,2.354-1.974c0.049-0.738-0.362-1.208-0.986-1.595c-0.513-0.084-0.617,0.21-0.987,0.076
		c-0.279,0.404-0.73,0.637-1.215,0.835c0.17,0.415-0.236,0.729-0.531,0.911c-0.15-0.052,0.019-0.423-0.152-0.455
		C27.195,24.143,28.511,25.496,29.875,25.354z"/>
	<path fill="#F594DE" d="M27.142,17.76c0.362-0.134,0.968-0.376,1.442-0.152c0,0.025,0,0.051,0,0.076
		c-0.085,0.486-0.631,0.232-0.911,0.228c-0.666-0.011-1.804,0.979-2.126,0.228C25.92,17.772,26.751,17.929,27.142,17.76z"/>
	<path fill="#F594DE" d="M23.192,18.595c-0.085-0.091-0.217-0.137-0.152-0.379c0.098-0.104,0.33-0.075,0.532-0.076
		c0.025,0,0.051,0,0.076,0c0.082,0.125,0.678,0.125,0.759,0c0.294-0.015,0.56-0.003,0.76,0.076c-0.145,0.387-0.753,0.31-1.139,0.456
		c-0.209-0.226-0.527,0.127-0.759-0.076C23.244,18.595,23.218,18.595,23.192,18.595z"/>
	<path fill="#F594DE" d="M27.597,18.824c0.697,0.039,1.032-0.285,1.595-0.38c0.09,0.545-0.37,0.542-0.683,0.683
		c-0.233-0.228-0.553,0.102-0.759,0.152c-0.062-0.053-0.208-0.118-0.229,0c-0.306,0.054-0.351-0.155-0.531-0.228
		C26.912,18.696,27.56,19.064,27.597,18.824z"/>
	<path fill="#F594DE" d="M26.23,19.583c-0.342,0.454-1.118-0.053-1.594,0.456c-0.77-0.329-1.348,0-2.278-0.228
		c-0.077-0.687,0.655-0.431,0.987-0.304c0.652-0.539,1.288,0.374,2.05-0.152C25.688,19.417,26.142,19.316,26.23,19.583z"/>
	<path fill="#770F91" d="M28.584,19.659c-0.193,0.491-0.722,0.291-1.215,0.38c-1.256,0.226-2.828,0.996-4.101,0
		c0.591-0.189,1.318,0.23,2.126,0.152C26.446,20.088,27.448,19.468,28.584,19.659z"/>
	<path fill="#F594DE" d="M20.915,20.039c0.259-0.006,0.225,0.281,0.228,0.531C21.099,20.359,20.761,20.214,20.915,20.039z"/>
	<path fill="#FFFFFF" d="M43.695,20.039c0.28-0.099,0.302,0.449,0.151,0.531C43.55,20.559,43.625,20.229,43.695,20.039z"/>
	<path fill="#560D67" d="M33.596,20.874c-0.024,0.456-0.295,0.667-0.684,0.759C32.631,21.187,33.174,20.617,33.596,20.874z"/>
	<path fill="#FFFFFF" d="M28.356,23.152c0.17,0.032,0.002,0.403,0.152,0.455c0.295-0.182,0.701-0.496,0.531-0.911
		c0.485-0.199,0.936-0.431,1.215-0.835c0.371,0.134,0.475-0.16,0.987-0.076c0.624,0.387,1.035,0.856,0.986,1.595
		c-0.079,1.219-1.258,1.767-2.354,1.974C28.511,25.496,27.195,24.143,28.356,23.152z M30.026,23.076
		c-1.063-0.463-1.482,1.532-0.303,1.518c0.025,0,0.05,0,0.076,0c0.825,0.354,1.205-1.39,0.304-1.518
		C30.077,23.076,30.052,23.076,30.026,23.076z"/>
	<path fill="#F594DE" d="M40.582,23.379c-0.45-0.107-0.853-0.262-1.14-0.532c0-0.076,0-0.151,0-0.228
		c0.056-0.232-0.131-0.224-0.075-0.456c0.464-0.241,1.126-0.433,1.594-0.076c0.021,0.274,0.02,0.525-0.304,0.456
		c0.09,0.113,0.095,0.311,0.229,0.379C40.808,23.098,40.729,23.273,40.582,23.379z"/>
	<path fill="#FFFFFF" d="M30.255,23.379c0,0.076,0,0.152,0,0.228c-0.102,0-0.203,0-0.304,0
		C29.928,23.407,30.056,23.358,30.255,23.379z"/>
	<path fill="#FFFFFF" d="M21.37,26.417c-0.038-0.606-0.326-1.667,0.304-1.519c0-0.379,0-0.759,0-1.139
		c1.657-0.486,3.596,0.455,3.493,1.823C25.06,27.01,22.426,26.991,21.37,26.417z M23.876,25.43c0.025,0,0.051,0,0.076,0
		c0.066-0.882-1.411-1.155-1.595-0.304c0,0.025,0,0.051,0,0.076c-0.521,1.036,1.556,1.418,1.519,0.303
		C23.876,25.48,23.876,25.455,23.876,25.43z"/>
	<path fill="#FFFFFF" d="M23.269,24.974c0.123-0.021,0.131,0.072,0.228,0.076c0.022,0.2-0.105,0.249-0.304,0.228
		C23.16,25.119,23.245,25.077,23.269,24.974z"/>
	<path fill="#F594DE" d="M34.127,26.645c0.193-0.288,0.393-0.151,0.835-0.228c1.333-0.229,2.589-1.837,3.19-0.684
		c-0.144,0.288-0.404,0.458-0.608,0.684c-0.131,1.438-1.017,2.122-1.67,3.038c-0.565,1.038-2.793,1.253-4.177,0.835
		c-0.561-0.169-1.12-0.725-1.671-0.76c-0.234-0.015-0.751,0.124-1.062,0.228c-1.078,0.36-2.595,0.899-3.569,1.139
		c-0.548,0.135-1.139,0.246-1.443-0.152c0.346-0.605,1.23-1.028,2.05-0.911c1.01-0.57,2.11-0.581,3.341-0.911
		c0.363,0.009,0.713,0.005,0.912-0.152c0.298-0.174,0.569-0.178,0.834-0.228c0.104-0.052-0.065-0.231,0.153-0.304
		c0.668-0.344,1.068-0.956,2.05-0.987c0.11-0.042,0.393,0.089,0.38-0.076c0.215,0.063,0.196-0.107,0.379-0.076
		c0-0.126,0-0.253,0-0.38C34.098,26.716,34.142,26.709,34.127,26.645z M36.86,26.72c0-0.101,0-0.202,0-0.303
		C36.568,26.357,36.568,26.78,36.86,26.72z M35.874,28.467c0.017-0.143-0.085-0.167-0.076-0.303
		c0.579-0.129,0.512-0.906,0.911-1.215c-0.009-0.093-0.022-0.18-0.151-0.152c-1.069,1.259-3.743,0.914-4.48,2.506
		C33.476,29.857,35.183,29.448,35.874,28.467z"/>
	<path fill="#770F91" d="M31.849,25.582c-0.625,1.706-3.268,1.392-4.176,0.151c-0.055-0.207,0.151-0.152,0.152-0.304
		C28.834,26.239,30.397,26.46,31.849,25.582z"/>
	<path fill="#FFFFFF" d="M32.077,29.302c0.737-1.592,3.411-1.247,4.48-2.506c0.129-0.028,0.143,0.06,0.151,0.152
		c-0.399,0.309-0.332,1.085-0.911,1.215c-0.009,0.136,0.093,0.16,0.076,0.303C35.183,29.448,33.476,29.857,32.077,29.302z"/>
	<path fill="#560D67" d="M21.901,27.708c0.372,0.034,0.654,0.156,1.063,0.151C22.77,27.95,21.873,28.093,21.901,27.708z"/>
	<path fill="#560D67" d="M24.104,27.708c-0.009,0.148-0.524,0.408-0.532,0.076C23.75,27.759,23.857,27.664,24.104,27.708z"/>
	<path fill="#C817F3" d="M44.379,28.011c0.133,0.069,0.264,0.142,0.227,0.38C44.369,28.426,44.364,28.229,44.379,28.011z"/>
	<path fill="#770F91" d="M32.988,30.517c-0.22,0.236-0.807,0.104-1.062,0.304c-0.908-0.559-2.912-0.488-4.177-0.076
		c-0.75,0.245-2.002,1.233-3.038,0.455c0.548-0.419,1.264-0.351,1.974-0.531c1.131-0.288,2.257-0.827,3.797-0.683
		C31.355,30.067,32.032,30.678,32.988,30.517z"/>
	<path fill="#FFFFFF" d="M21.978,31.353c0.127,0,0.253,0,0.38,0c0.024,0.176-0.013,0.291-0.076,0.38
		C22.151,31.635,21.983,31.575,21.978,31.353z"/>
	<path fill="#C817F3" d="M44.53,34.693c0.168,0.01,0.032,0.322,0.075,0.455c-0.101,0-0.202,0-0.303,0
		C44.194,34.812,44.56,34.95,44.53,34.693z"/>
	<path fill="#C817F3" d="M44.074,36.82c0.301-0.098,0.185,0.221,0.38,0.227C44.324,37.27,44.019,37.035,44.074,36.82z"/>
	<path fill="#F594DE" d="M38.987,37.73c0.462-0.052,0.61-0.662,1.063-0.759c0.763-0.162,1.43,0.26,1.441,0.987
		c0.018,0.96-1.232,1.361-2.201,0.911c-0.307-0.175-0.56-0.402-0.684-0.76C38.747,37.997,38.797,37.794,38.987,37.73z"/>
	<path fill="#F594DE" d="M21.598,42.896c-0.215-0.509-0.078-0.831,0.152-1.216c0.582-0.051,1.026,0.037,1.291,0.304
		c0.036,0.768-0.001,1.522-0.911,1.519C21.889,43.362,21.756,43.116,21.598,42.896z"/>
	<path fill="#FFFFFF" d="M42.632,45.629c0.177,0.231-0.093,0.525-0.38,0.531C42.35,45.954,42.277,45.577,42.632,45.629z"/>
	<path fill="#F594DE" d="M27.369,50.943c0.447-0.705,1.289-0.716,2.05-0.228c0.408,0.84,0.255,2.116-0.531,2.354
		C27.708,53.426,26.872,52.209,27.369,50.943z M28.204,52.235c0.344,0.039,0.496-0.112,0.456-0.457
		C28.34,51.484,28.002,52.008,28.204,52.235z"/>
	<path fill="#FFFFFF" d="M13.929,50.943c0.157,0.065,0.08,0.529,0,0.608C13.602,51.478,13.695,51.05,13.929,50.943z"/>
	<path fill="#FFFFFF" d="M28.66,51.778c0.041,0.345-0.111,0.496-0.456,0.457C28.002,52.008,28.34,51.484,28.66,51.778z"/>
	<path fill="#F594DE" d="M17.573,56.639c-0.471-0.061-0.827-0.236-0.835-0.76c0.228,0,0.456,0,0.683,0
		c0.075,0.104,0.203,0.151,0.304,0.229C17.75,56.359,17.737,56.574,17.573,56.639z"/>
	<path fill="#F594DE" d="M18.637,56.79c0.111,0.066,0.24,0.114,0.228,0.304c-0.101,0-0.203,0-0.304,0
		C18.528,56.936,18.613,56.894,18.637,56.79z"/>
	<path fill="#F594DE" d="M18.105,11.306c0,0.329,0,0.658,0,0.987c0.196,0.083,0.31,0.248,0.38,0.456
		c-0.068,0.16-0.211,0.245-0.304,0.38c0.341,0.57,0.274,1.548,0.836,1.898c0.233,0.201-0.269,0.295,0,0.531
		c0.082,0.176,0.31-0.371,0.531-0.076c0.033,0.068,0.066,0.136,0.152,0.152c-0.058,0.195-0.243,0.264-0.532,0.228
		c0.266,1.279,0.708,2.38,1.063,3.569c0.049,0.227,0.162-0.073,0.303,0c-0.203,0.553-0.084,0.911,0,1.519
		c-0.477-1.812-1.17-4.132-1.822-6.075C18.356,13.814,17.775,12.812,18.105,11.306z"/>
	<path fill="#F594DE" d="M19.32,33.175c0.628-1.777,1.345-3.464,1.595-5.619c-0.794-0.915-1.098-2.721-0.38-3.949
		c-0.539-0.322-1.199-0.521-1.594-0.987c0.243-0.465,0.655-0.763,1.291-0.835c0.01,0.188,0.011,0.366-0.076,0.456
		c0.1,0.078,0.28,0.075,0.379,0.152c0.233-0.386-0.097-0.863,0-1.367c0.332,0.117,1.057,0.323,0.835,1.063
		c-0.238-0.101-0.487-0.344-0.228-0.531c-0.58-0.099-0.438,0.523-0.456,0.987c0.232,0.055,0.224-0.131,0.456-0.076
		c0.033,0.119,0.239,0.064,0.151,0.304c0.152-0.126,0.563,0.006,0.684-0.152c0.025,0,0.051,0,0.076,0
		c2.365-0.411,4.409,0.953,3.645,3.265c-0.61,0.529-1.082,1.196-1.898,1.519c-0.675,0.169-1.183,0.146-1.974,0.076
		c-0.346,0.093-0.24-0.266-0.456-0.304c-0.231,0.2-0.084,0.433-0.076,0.759c-0.101,0.076-0.229,0.125-0.303,0.228
		c-0.229-0.117-0.2,0.393-0.076,0.379c0.279,0.269,0.065,0.58,0.152,1.063c-0.146,0.154-0.305,0.177-0.532,0.076
		c-0.121,0.299,0.328,0.026,0.304,0.228c-0.133,0.436-0.448,0.219-0.532,0.684c0.069,0.207,0.141-0.202,0.379-0.076
		c-0.04,0.213-0.111,0.395-0.152,0.608c0.329,0,0.189-0.47,0.532-0.456c0.706-0.456,2.163-0.238,2.506,0.531
		c-0.212,0.928-0.467,1.812-1.595,1.823c-0.434-0.148-0.949-0.215-1.215-0.531c-0.114-0.216-0.307-0.352-0.304-0.684
		c-0.7,0.059-0.261,0.887-0.607,1.366c-0.308,0.105-0.24-0.164-0.456-0.151C19.408,33.111,19.379,33.158,19.32,33.175z
		 M25.167,25.582c0.103-1.368-1.836-2.309-3.493-1.823c0,0.379,0,0.759,0,1.139c-0.629-0.148-0.342,0.913-0.304,1.519
		C22.426,26.991,25.06,27.01,25.167,25.582z M22.281,31.732c0.063-0.089,0.101-0.204,0.076-0.38c-0.126,0-0.253,0-0.38,0
		C21.983,31.575,22.151,31.635,22.281,31.732z"/>
	<path fill="#F594DE" d="M13.169,49.273c0.164,0.064,0.269,0.187,0.229,0.455c0.167-0.086,0.31-0.196,0.607-0.151
		c0.464-0.497-0.087-0.868-0.76-0.684c0.13-0.174,0.58-0.027,0.835-0.076c1.232-5.703,3.624-10.247,5.239-15.566
		c-0.018,0.474,0.21,0.702,0.304,1.062c-0.003,0.25-0.375,0.131-0.304,0.457c-0.035,0.312,0.191-0.061,0.304,0.151
		c-0.08,0.604-0.61,0.757-0.684,1.366c-0.168,0.211-0.124,0.407-0.076,0.684c-1.03,0.395-0.52,1.86-1.291,2.506
		c-0.118,0.271,0.258,0.046,0.228,0.228c-0.536,1.012-0.659,2.188-1.291,2.962c-0.049,0.378-0.038,0.323,0.076,0.606
		c-0.884,0.198-0.21,1.599-1.063,1.898c0.221,1.084-0.502,1.023-0.456,2.052c-0.16,0.067-0.224,0.23-0.455,0.227
		c0.011,0.999,0.138,1.531-0.076,2.658c-0.065-0.014-0.072,0.03-0.076,0.075c0.601,0.318,0.415,1.46,0.456,1.975
		c-0.382,0.484-0.077,0.784,0.152,1.216c-0.254,0.252,0.591,0.589,0.607,1.062c0.314,0.018,0.223,0.485,0.532,0.304
		c0.042,0.169-0.145,0.108-0.152,0.229c-0.101,0.076-0.283,0.071-0.304,0.227c-0.133,0.498,0.386,0.88,0.911,0.608
		c-0.267,0.717,0.412,0.82,0.835,1.063c0.605,0.355,1.241,0.683,1.822,1.062c0.05,0.102,0.163,0.142,0.304,0.152
		c0.084-0.085,0.067-0.453-0.229-0.38c0.346-0.545,1.391,0.081,0.912,0.684c0.406,0.128,0.33-0.228,0.607-0.229
		c0.709,0.751,1.897,0.573,2.961,0.911c0.23,0.176,0.783,0.027,1.139,0.077c0.056,0.07,0.138,0.114,0.228,0.151
		c0.232,0.403,0.858-0.03,1.139-0.076c0.312,0.06,0.39-0.116,0.684-0.075c0.091,0.135,0.545-0.008,0.684-0.077
		c0.262,0.027,0.404,0.09,0.607-0.076c0.399,0.046,0.652-0.056,0.987-0.075c1.314-0.253,2.676-0.807,3.873-1.519
		c0.354-0.279,0.577-0.688,1.14-0.76c0.339-0.952,1.49-1.091,1.974-1.898c0.624-0.529,0.861-1.099,1.291-1.898
		c0.119-0.032,0.064-0.239,0.304-0.151c0.729-1.705,2.006-3.511,2.962-5.24c0.232-0.298,0.288-0.774,0.531-1.062
		c-0.303-0.912,0.396-1.269,0.759-1.746c-0.301-0.809,0.605-0.793,0.531-1.595c0.033-0.145,0.218-0.138,0.152-0.38
		c0.27-0.516,0.319-1.251,0.684-1.67c0.292,0.064,0.344,0.226,0.456-0.077c0.073,1.328-0.936,2.088-0.835,3.113
		c0.066,0.682,1.134,1.142,0.683,2.202c-0.856,0.537-1.669,1.116-2.506,1.671c-3.116,5.414-5.776,11.284-13.592,11.997
		c0.139-0.29-0.588-0.201-0.76-0.151c-0.046,0.3,0.417,0.089,0.607,0.151c-0.912,0.127-2.38,0.154-3.189-0.075
		c0.326-0.214-0.665-0.364-0.379-0.076c-1.952-0.11-3.262-0.76-4.936-1.822c-1.955-1.24-3.752-1.933-4.48-4.176
		c-0.061-0.265,0.113-0.292,0.076-0.532c-1.006-0.336-2.082-0.601-2.354-1.67C12.58,50.834,13.544,50.116,13.169,49.273z
		 M13.929,51.552c0.08-0.079,0.157-0.543,0-0.608C13.695,51.05,13.602,51.478,13.929,51.552z M40.582,49.122
		c0.017-0.191,0.385-0.419,0.228-0.532C40.778,48.766,40.327,48.91,40.582,49.122z M38.759,51.476
		c-0.03,0.183,0.139,0.164,0.077,0.38c0.285-0.019,0.295-0.312,0.379-0.532C38.976,51.287,39.043,51.557,38.759,51.476z
		 M37.772,53.525c0.072,0.275-0.328,0.077-0.38,0.229c-0.018,0.144,0.085,0.167,0.076,0.303
		C37.662,54.02,37.922,53.656,37.772,53.525z M36.633,55.349c0.045-0.159,0.159-0.246,0.228-0.38
		c-0.104,0.003-0.166-0.036-0.228-0.076C36.57,55.035,36.353,55.287,36.633,55.349z M29.571,59.601
		c0.132-0.07,0.407,0.003,0.379-0.229C29.733,59.357,29.536,59.363,29.571,59.601z M42.252,46.16c0.287-0.006,0.557-0.3,0.38-0.531
		C42.277,45.577,42.35,45.954,42.252,46.16z"/>
	<path fill="#F594DE" d="M18.105,11.23c-0.247-4.069,1.366-6.278,3.265-8.201c1.653-0.662,3.102-2,5.24-2.278
		c0.696-0.091,1.472,0.034,2.202-0.152c0.58-0.147,1.221-0.741,2.051-0.531c0.498,0.125,1.525,1.447,2.05,1.822
		c1.032,0.737,1.693,1.307,2.506,1.898c3.274,4.192,6.224,8.71,7.441,14.959c0.894,0.145,1.529,0.546,1.975,1.139
		c-0.02,1.019-0.69,1.386-1.139,1.975c0.205,3.201,1.419,6.55,1.062,10.099c-0.294,2.929,0.022,6.288-0.759,8.884
		c-0.014-0.112-0.184-0.069-0.304-0.075c-0.057-0.071-0.139-0.115-0.229-0.151c0.33-4.074,0.755-7.009,0.532-11.391
		c0.182,0.03-0.043-0.346,0.228-0.228c-0.272-0.54-0.388-1.599-0.38-1.974c0.481,0.015,0.348,0.357,0.228,0.684
		c0.263,0.06,0.321-0.084,0.456-0.152c-0.293-0.973-0.205-2.327-0.835-2.962c0.201-0.67-0.046-1.613-0.076-2.657
		c-0.359-0.27-0.428,0.09-0.684,0c-0.085-0.294-0.255-0.65-0.151-0.912c0.175-0.024,0.291,0.012,0.38,0.076
		c-0.254-0.41-0.403-0.837-0.229-1.367c-0.342-0.088-0.082,0.425-0.455,0.304c-0.128-0.126-0.061-0.446-0.076-0.684
		c0.188-0.01,0.365-0.012,0.455,0.076c-0.115-0.392-0.179-0.834-0.455-1.063c-0.304,0.115,0.102,0.28-0.076,0.456
		c-0.776-0.401,0.953-1.868-0.456-2.126c-0.088-0.421,0.484-0.811,0-1.291c-0.065-0.224-0.112,0.177-0.303,0.076
		c-0.071-0.61,0.138-1.248-0.38-1.215c0.273-0.337,0.01-1.074-0.38-1.215c0.125-0.339-0.017-0.935-0.304-1.367
		c-0.069-0.104-0.239-0.129-0.304-0.228c-0.097-0.147,0.043-0.521-0.304-0.456c0.147-0.412-0.091-0.782-0.38-0.759
		c-0.132-0.805-0.481-1.391-1.14-1.67c-0.062-0.214,0.107-0.197,0.077-0.379c-0.714-1.186-1.533-2.265-2.354-3.342
		c-0.118-0.143-0.296,0.109-0.456-0.076c0.272-1.057-1.428-1.181-1.746-2.126c-0.413,0.024-0.4-0.209-0.759-0.076
		c-0.064-0.088-0.101-0.204-0.076-0.38c-0.195,0.006-0.08,0.325-0.38,0.228c-0.18-0.579-0.35-1.169-0.987-1.291
		c-0.176,0.25,0.396,0.278,0.531,0.456c-0.356,0.659-1.558-0.175-1.215-0.911c0.263-0.061,0.32,0.084,0.455,0.152
		c-0.305-0.39-0.74-0.576-1.366-0.608c-0.18,0.048,0.012,0.467-0.152,0.532c-0.421,0.092-0.461-0.197-0.683-0.304
		c-0.283,0.147-0.561,0.3-0.987,0.304c-0.03,0.182,0.346-0.042,0.228,0.228c-0.298,0.02-0.483-0.074-0.608-0.228
		c-3.071,0.194-5.106,1.424-6.91,2.885c-0.555,0.506-1.38,1.069-1.215,2.051c-0.103,0.15-0.53-0.024-0.531,0.228
		c-0.041,0.061-0.08,0.124-0.076,0.228c-0.287,0.236-0.173,0.422-0.076,0.76c-0.218-0.015-0.415-0.01-0.38,0.228
		c-0.184,0.576-0.434,1.084-0.456,1.823c-0.174,0.154-0.027,0.63-0.076,0.911c0,0.076,0,0.152,0,0.228
		c0.116,0.275-0.063,0.621,0,1.063c0,0.025,0,0.051,0,0.076C18.155,11.23,18.13,11.23,18.105,11.23z M44.605,28.391
		c0.037-0.238-0.094-0.311-0.227-0.38C44.364,28.229,44.369,28.426,44.605,28.391z M44.303,35.148c0.101,0,0.202,0,0.303,0
		c-0.043-0.133,0.093-0.445-0.075-0.455C44.56,34.95,44.194,34.812,44.303,35.148z M44.454,37.047
		c-0.195-0.006-0.079-0.324-0.38-0.227C44.019,37.035,44.324,37.27,44.454,37.047z M43.847,38.49
		c0.159,0.044,0.217,0.188,0.456,0.152c0-0.177,0-0.354,0-0.532C44.01,38.096,43.866,38.231,43.847,38.49z M43.847,20.57
		c0.15-0.082,0.129-0.63-0.151-0.531C43.625,20.229,43.55,20.559,43.847,20.57z"/>
	<path fill="#C817F3" d="M20.991,3.636c1.803-1.461,3.839-2.691,6.91-2.885c0.125,0.154,0.31,0.247,0.608,0.228
		c0.118-0.27-0.258-0.045-0.228-0.228c0.427-0.003,0.704-0.157,0.987-0.304c0.222,0.107,0.262,0.396,0.683,0.304
		c0.164-0.064-0.028-0.484,0.152-0.532c0.626,0.032,1.062,0.218,1.366,0.608c-0.135-0.068-0.192-0.212-0.455-0.152
		c-0.343,0.735,0.858,1.57,1.215,0.911c-0.136-0.178-0.707-0.206-0.531-0.456c0.638,0.122,0.808,0.712,0.987,1.291
		c0.3,0.098,0.185-0.221,0.38-0.228c-0.024,0.176,0.012,0.292,0.076,0.38c0.358-0.134,0.346,0.1,0.759,0.076
		c0.318,0.945,2.019,1.069,1.746,2.126c0.16,0.185,0.338-0.067,0.456,0.076c0.821,1.077,1.641,2.156,2.354,3.342
		c0.03,0.183-0.14,0.165-0.077,0.379c0.658,0.279,1.008,0.866,1.14,1.67c0.289-0.023,0.527,0.347,0.38,0.759
		c0.347-0.065,0.207,0.309,0.304,0.456c0.064,0.098,0.234,0.124,0.304,0.228c0.287,0.432,0.429,1.027,0.304,1.367
		c0.39,0.141,0.653,0.877,0.38,1.215c0.518-0.033,0.309,0.605,0.38,1.215c0.19,0.101,0.237-0.3,0.303-0.076
		c0.484,0.48-0.088,0.87,0,1.291c1.409,0.259-0.32,1.725,0.456,2.126c0.178-0.176-0.228-0.341,0.076-0.456
		c0.276,0.229,0.34,0.672,0.455,1.063c-0.09-0.088-0.268-0.086-0.455-0.076c0.016,0.238-0.052,0.558,0.076,0.684
		c0.373,0.121,0.113-0.393,0.455-0.304c-0.175,0.53-0.025,0.957,0.229,1.367c-0.089-0.063-0.205-0.1-0.38-0.076
		c-0.104,0.262,0.066,0.617,0.151,0.912c0.256,0.09,0.324-0.27,0.684,0c0.03,1.044,0.277,1.987,0.076,2.657
		c0.63,0.635,0.542,1.989,0.835,2.962c-0.135,0.067-0.193,0.211-0.456,0.152c0.12-0.326,0.254-0.668-0.228-0.684
		c-0.008,0.375,0.107,1.435,0.38,1.974c-0.271-0.118-0.046,0.258-0.228,0.228c0.223,4.382-0.202,7.317-0.532,11.391
		c0.09,0.036,0.172,0.08,0.229,0.151c-0.207,0.056-0.153-0.15-0.305-0.151c0.088-0.86,0.191-1.267,0.076-2.127
		c-0.085-0.008-0.117,0.11-0.151,0c-0.141,0.012-0.047,0.257-0.151,0.304c-0.179-0.233-0.074-0.059-0.229,0.076
		c-0.136,0.01-0.178-0.075-0.151-0.228c-0.376,0.503-1.057,0.59-1.443,0.986c-0.683,0.149-1.606-0.233-2.05-0.759
		c0.969,0.45,2.219,0.049,2.201-0.911c-0.012-0.728-0.679-1.149-1.441-0.987c-0.453,0.097-0.602,0.707-1.063,0.759
		c0.406-0.857,1.313-1.217,2.126-1.67c0.059,0.017,0.088,0.063,0.076,0.151c0.53-2.091,0.117-5.431,0.607-7.365
		c-0.069-0.469,0.017-0.959,0.152-1.291c-0.086-0.008-0.118,0.11-0.152,0c-0.005-0.143,0.058-0.161,0.152-0.076
		c-0.038-0.417-0.185-0.317,0.075-0.607c-0.35-0.843,0.768-1.332,0.304-1.975c0.361-0.058,0.258-0.213,0.456-0.531
		c-0.863-0.578,0.227-1.119-0.456-1.747c0.019-0.108,0.125-0.128,0.152-0.228c-0.019-0.117-0.125-0.011-0.152,0.076
		c-0.476-0.908-1.11-1.188-1.442-1.975c-0.06,0.017-0.089,0.064-0.076,0.152c-0.128-0.126-0.325-0.413-0.152-0.607
		c-0.133,0.018-0.173,0.13-0.151,0.303c-0.176-0.021-0.175-0.203-0.076-0.303c-0.755-0.429-1.265-2.04-1.974-2.961
		c-0.163-0.212-0.525-0.298-0.229-0.304c-0.527-0.962-1.331-1.975-1.898-3.113c-0.102,0-0.202,0-0.304,0
		c-1.394-2.049-3.88-3.004-5.087-5.239c-1.241-0.48-1.678-1.765-2.886-2.278c0.037-0.239-0.233-0.171-0.152-0.455
		c-0.848-0.231-1.552-1.203-2.505-1.063C25.38,4.41,25.262,4.3,25.015,4.32c-0.03,0.182,0.346-0.042,0.228,0.228
		c-0.077,0-0.091-0.062-0.152-0.076c-0.007,0.332,0.401,1.037,0.456,1.747c0.041-1.013-1.779-1.773-2.885-1.139
		c0.459-0.401,1.117-0.605,1.746-0.836c-0.049-0.102-0.162-0.141-0.303-0.152c0.222-0.192,0.467,0.239,0.835,0.152
		c-0.991-0.587-1.985-1.077-2.733-1.367C21.69,3.02,21.32,3.308,20.991,3.636z M30.255,0.523c-0.075,0.306,0.454,0.306,0.379,0
		C30.49,0.381,30.444,0.515,30.255,0.523z M29.419,1.13c0.201,0.023,0.25-0.105,0.229-0.303c-0.076,0-0.152,0-0.229,0
		C29.419,0.928,29.419,1.029,29.419,1.13z M32.381,9.787c0.532,0.083,1.062,0.372,1.67,0.152
		C35.913,7.538,31.109,7.094,32.381,9.787z"/>
	<path fill="#B114D8" d="M39.291,38.87c0.443,0.525,1.367,0.908,2.05,0.759c0.387-0.396,1.067-0.483,1.443-0.986
		c-0.026,0.152,0.016,0.237,0.151,0.228c0.154-0.135,0.05-0.31,0.229-0.076c0.104-0.047,0.011-0.292,0.151-0.304
		c0.034,0.11,0.066-0.008,0.151,0c0.115,0.86,0.012,1.267-0.076,2.127c0.151,0.001,0.098,0.207,0.305,0.151
		c0.12,0.006,0.29-0.037,0.304,0.075c0,0.026,0,0.051,0,0.076c-0.112,0.303-0.164,0.142-0.456,0.077c0-0.026,0-0.051,0-0.077
		c-0.418,0.394-0.522,1.098-0.684,1.747c0.065,0.242-0.119,0.235-0.152,0.38c-0.046,0.611-0.632,0.684-0.683,1.29
		c-0.951-0.152-1.833,1.553-0.911,2.354c-0.099,0.23-0.144,0.515-0.228,0.759c-0.956,1.729-2.233,3.535-2.962,5.24
		c-0.239-0.088-0.185,0.119-0.304,0.151c0.228-0.354,0.485-0.678,0.607-1.139c-1.587-0.474-1.934-2.389-1.898-3.721
		c0.068-2.715,0.968-6.379,1.975-9.567c0.003-0.13-0.057-0.197-0.151-0.229c1.514-3.23,2.186-8.685,0-12.149
		c-0.76,0.303-0.521,1.606-1.215,1.974c0,0.127,0,0.253,0,0.38c-0.418,0.292-0.695,0.723-1.063,1.063
		c0.653-0.916,1.539-1.599,1.67-3.038c0.204-0.226,0.465-0.396,0.608-0.684c-0.602-1.154-1.857,0.454-3.19,0.684
		c-0.442,0.076-0.642-0.06-0.835,0.228c0.019-0.361,0.441-0.317,0.835-0.304c0.728-0.438,1.732-0.597,2.354-1.139
		c0.177,0,0.354,0,0.531,0c-0.396-2.316-2.062-4.545-2.277-7.29c-0.202,0.254-0.324,0.587-0.608,0.759
		c0.378-0.398,0.556-0.868,0.077-1.291c-0.543-0.011-0.806,0.258-0.988,0.607c0.028-0.504,0.47-0.594,0.836-0.759
		c-0.858-2.797-2.789-4.879-4.404-7.138c-0.298-0.191-0.681-0.346-0.987-0.607c-0.968-0.823-1.708-1.827-2.81-2.278
		C25.596,6.76,25.039,7.526,23.8,7.661c-0.222-0.132-0.47-0.239-0.683-0.38c-0.323-0.044-0.502,0.055-0.759,0.076
		c-0.176-0.127-0.187-0.421-0.38-0.531c0.172-0.335,0.254-0.617,0.152-0.912c-0.28-0.803-1.648-0.706-2.126-0.987
		c-0.204,0.285-0.041,0.557-0.152,0.835c-0.174,0.08-0.458,0.048-0.607,0.152c0.001-0.252,0.429-0.077,0.531-0.228
		c-0.165-0.981,0.66-1.544,1.215-2.051c0.329-0.328,0.699-0.616,1.215-0.759c0.749,0.29,1.743,0.78,2.733,1.367
		c-0.368,0.087-0.613-0.344-0.835-0.152c0.141,0.011,0.254,0.05,0.303,0.152c-0.629,0.231-1.287,0.435-1.746,0.836
		c-0.519,0.453-0.634,1.664-0.304,2.202c0.503-0.002,0.653-0.358,1.139-0.379C23.471,7.23,23.601,7.405,23.8,7.509
		c0.318-0.037,0.59-0.12,0.836-0.228c-0.075-0.32-0.094-0.384,0.076-0.607c0.38,0.143,0.576-0.059,0.835-0.228
		c0-0.076,0-0.152,0-0.228c-0.055-0.709-0.462-1.415-0.456-1.747c0.062,0.015,0.076,0.076,0.152,0.076
		c0.118-0.271-0.258-0.046-0.228-0.228c0.247-0.02,0.365,0.09,0.38,0.304c0.953-0.139,1.657,0.832,2.505,1.063
		c-0.081,0.284,0.188,0.216,0.152,0.455c1.208,0.513,1.645,1.798,2.886,2.278c1.207,2.235,3.693,3.19,5.087,5.239
		c0.102,0,0.202,0,0.304,0c0.567,1.139,1.371,2.151,1.898,3.113c-0.297,0.006,0.065,0.092,0.229,0.304
		c0.709,0.922,1.219,2.533,1.974,2.961c-0.099,0.101-0.1,0.282,0.076,0.303c-0.021-0.173,0.019-0.285,0.151-0.303
		c-0.173,0.195,0.024,0.481,0.152,0.607c-0.013-0.088,0.017-0.135,0.076-0.152c0.332,0.787,0.967,1.066,1.442,1.975
		c0.027-0.087,0.134-0.193,0.152-0.076c-0.027,0.1-0.134,0.12-0.152,0.228c0.683,0.627-0.407,1.168,0.456,1.747
		c-0.198,0.318-0.095,0.473-0.456,0.531c0.464,0.643-0.653,1.132-0.304,1.975c-0.26,0.29-0.113,0.191-0.075,0.607
		c-0.095-0.085-0.157-0.066-0.152,0.076c0.034,0.11,0.066-0.008,0.152,0c-0.136,0.332-0.222,0.821-0.152,1.291
		c-0.49,1.934-0.077,5.274-0.607,7.365c0.012-0.088-0.018-0.135-0.076-0.151c-0.812,0.453-1.72,0.812-2.126,1.67
		c-0.19,0.063-0.24,0.267-0.38,0.38C38.731,38.468,38.984,38.695,39.291,38.87z M40.582,23.379c0.241,0.154,0.535-0.538,0.228-0.759
		c0.193-0.009,0.294-0.11,0.304-0.304c0.031-0.183-0.139-0.166-0.076-0.379c-0.733-0.304-1.098-0.096-1.67,0.076
		c-0.092,0.212-0.088,0.462,0.075,0.607c0,0.076,0,0.152,0,0.228C39.729,23.118,40.132,23.272,40.582,23.379z M21.522,3.636
		c0.193-0.009,0.294-0.11,0.303-0.303c-0.103-0.024-0.145-0.108-0.303-0.076C21.424,3.356,21.424,3.537,21.522,3.636z"/>
	<path fill="#C817F3" d="M21.522,3.257c0.158-0.032,0.201,0.052,0.303,0.076c-0.009,0.193-0.11,0.294-0.303,0.303
		C21.424,3.537,21.424,3.356,21.522,3.257z"/>
	<path fill="#C817F3" d="M42.859,42.667c0.161-0.649,0.266-1.354,0.684-1.747c0,0.026,0,0.051,0,0.077
		C43.179,41.416,43.129,42.151,42.859,42.667z"/>
	<path fill="#C817F3" d="M42.707,43.047c0.074,0.802-0.832,0.786-0.531,1.595c-0.362,0.478-1.062,0.834-0.759,1.746
		c-0.243,0.288-0.299,0.765-0.531,1.062c0.084-0.244,0.129-0.528,0.228-0.759c-0.922-0.802-0.04-2.507,0.911-2.354
		C42.075,43.73,42.661,43.658,42.707,43.047z"/>
	<path fill="#B114D8" d="M33.899,18.444c-0.229,0.605-0.506,1.165-1.139,1.367c0.018-0.134,0.131-0.173,0.304-0.152
		C33.318,19.229,33.664,18.892,33.899,18.444z"/>
	<path fill="#B114D8" d="M26.989,24.594c-0.396-1.756,0.677-2.499,1.519-3.265c0.391-0.357,0.878-0.787,1.215-0.912
		c0.977-0.363,2.122,0.179,2.658-0.455c-0.618,0.883-2.172,0.455-3.113,1.138c-0.261,0.189-0.544,0.521-0.835,0.76
		C27.611,22.532,26.961,23.033,26.989,24.594z"/>
	<path fill="#9811BA" d="M26.989,24.594c0.301,0.263-0.211,0.822,0.228,1.139c0.496,0.065,0.483-0.377,0.759-0.531
		c0.689,1.009,2.607,0.963,3.645,0.303c1.372-0.292,2.343-2.717,0.987-3.721c-0.116-0.161-0.219-0.338-0.304-0.531
		c0.191-0.088,0.255-0.303,0.531-0.304c-0.332,0.254-0.248,0.805,0.152,0.911c0.726-0.566,1.423-1.16,1.822-2.05
		c-0.017-0.097-0.227-0.099-0.229,0c-0.024,0-0.05,0-0.075,0c0.229-0.302,0.187-0.876,0.455-1.139
		c0.284-0.172,0.406-0.505,0.608-0.759c0.215,2.745,1.881,4.974,2.277,7.29c-0.177,0-0.354,0-0.531,0
		c-0.622,0.542-1.627,0.701-2.354,1.139c-0.394-0.014-0.816-0.057-0.835,0.304c0.015,0.064-0.029,0.072-0.076,0.076
		c-0.065,0.212-0.196,0.36-0.379,0.456c0.013,0.165-0.27,0.034-0.38,0.076c-0.87-0.16-1.532,0.543-2.05,0.987
		c-0.219,0.073-0.05,0.252-0.153,0.304c-0.265,0.05-0.536,0.054-0.834,0.228c-0.286,0.068-0.687,0.022-0.912,0.152
		c-1.23,0.33-2.331,0.341-3.341,0.911c-0.82-0.117-1.705,0.306-2.05,0.911c0.304,0.397,0.895,0.287,1.443,0.152
		c0.974-0.24,2.491-0.779,3.569-1.139c0.312-0.104,0.828-0.243,1.062-0.228c0.551,0.035,1.11,0.59,1.671,0.76
		c1.384,0.417,3.611,0.202,4.177-0.835c0.368-0.341,0.646-0.771,1.063-1.063c0-0.126,0-0.253,0-0.38
		c0.694-0.368,0.455-1.671,1.215-1.974c2.186,3.465,1.514,8.919,0,12.149c0.095,0.031,0.154,0.099,0.151,0.229
		c-1.007,3.188-1.906,6.853-1.975,9.567c-0.035,1.332,0.312,3.247,1.898,3.721c-0.122,0.461-0.38,0.785-0.607,1.139
		c-0.43,0.8-0.667,1.369-1.291,1.898c0.119-0.412,0.512-0.552,0.608-0.986c-2.152-1.812-5.01-3.061-7.366-3.57
		c-0.236-0.097,0.215-0.097,0.228,0c-0.48-0.421-1.583-0.321-2.126-1.139c-0.074,0.002-0.059,0.094-0.076,0.152
		c-0.313-0.495-1.687-0.857-1.898-1.443c-0.033-0.112-0.097,0.031-0.228,0c0.088-0.364-1.009-0.923-0.835-1.594
		c-0.535-0.028-0.329-0.729-0.684-1.14c0.279-0.209,0.002-0.595,0.152-0.835c-0.136-0.01-0.16,0.093-0.304,0.076
		c-0.194-0.801,0.08-1.427-0.228-1.898c0.027-0.119,0.134,0.066,0.152-0.076c-0.311-0.972-0.034-1.998-0.152-2.962
		c-0.006-0.245-0.086-0.594-0.228-1.062c0.298,0.128,0.139-0.307,0.076-0.836c0.25,0.155-0.015-0.789,0.152-0.91
		c-0.033-0.113-0.097,0.03-0.228,0c-0.042-0.32,0.198-0.989-0.228-1.443c0.065-0.93,0.485-1.161,0-1.746
		c-0.392,0.29-0.608,0.501-0.987,0.151c0.126-0.151,0.204-0.353,0.455-0.38c-0.083-0.246-0.49,0.204-0.607-0.075
		c1.127-0.012,1.383-0.896,1.595-1.823c-0.237-0.86-1.852-1.184-2.506-0.531c-0.343-0.014-0.203,0.456-0.532,0.456
		c0.041-0.213,0.112-0.395,0.152-0.608c-0.238-0.126-0.31,0.283-0.379,0.076c0.084-0.464,0.398-0.248,0.532-0.684
		c0.024-0.201-0.425,0.071-0.304-0.228c0.227,0.101,0.386,0.078,0.532-0.076c-0.086-0.483,0.127-0.794-0.152-1.063
		c0.524,0.062,0.104,0.602,0.379,0.912c0.505-0.124,0.612-0.243,1.063-0.152c0.049-0.184,0.001-0.336-0.152-0.456
		c1.319-0.579,3.009-0.788,3.265-2.43c-0.651,0.235-0.875,0.897-1.671,0.987c0.817-0.322,1.288-0.99,1.898-1.519
		c1.334-2.251-1.464-4.257-3.645-3.265c-0.025,0-0.051,0-0.076,0c-0.518,0.032-0.547,0.045-0.835-0.152
		c-0.232-0.055-0.224,0.131-0.456,0.076c0.018-0.464-0.124-1.086,0.456-0.987c-0.26,0.187-0.011,0.43,0.228,0.531
		c0.221-0.74-0.504-0.946-0.835-1.063c0-0.025,0-0.051,0-0.076c-0.084-0.608-0.203-0.966,0-1.519c-0.141-0.073-0.254,0.227-0.303,0
		c-0.355-1.189-0.798-2.291-1.063-3.569c0.289,0.036,0.474-0.032,0.532-0.228c-0.085-0.016-0.119-0.084-0.152-0.152
		c0-0.05,0-0.101,0-0.151c-0.315-0.087-0.296,0.16-0.531,0.151c0-0.206,0.319-0.355,0-0.455c-0.562-0.35-0.495-1.329-0.836-1.898
		c0.093-0.135,0.236-0.22,0.304-0.38c-0.024-0.282-0.493-0.772-0.304-1.519c0-0.025,0-0.051,0-0.076c0.048-0.27,0.287-0.938,0-1.063
		c0-0.076,0-0.152,0-0.228c0.175-0.155,0.028-0.63,0.076-0.911c0.021-0.738,0.272-1.247,0.456-1.823
		c0.074-0.002,0.059-0.093,0.076-0.152c0.176,0.024,0.292-0.012,0.38-0.076c0.105-0.308-0.165-0.241-0.151-0.456
		c0.102-0.05,0.141-0.162,0.151-0.304c-0.003-0.104,0.036-0.167,0.076-0.228c0.149-0.104,0.434-0.072,0.607-0.152
		c0.111-0.279-0.052-0.55,0.152-0.835c0.478,0.281,1.847,0.184,2.126,0.987c0.102,0.294,0.02,0.577-0.152,0.912
		c0.193,0.11,0.204,0.403,0.38,0.531c0.257-0.021,0.436-0.12,0.759-0.076c0.213,0.141,0.461,0.248,0.683,0.38
		c1.239-0.135,1.796-0.901,2.886-0.456c1.102,0.451,1.841,1.455,2.81,2.278c0.307,0.261,0.689,0.416,0.987,0.607
		c1.615,2.259,3.546,4.34,4.404,7.138c-0.366,0.165-0.808,0.255-0.836,0.759c0.016,0.218-0.019,0.386-0.151,0.456
		c-0.235,0.448-0.581,0.785-0.835,1.215c-0.173-0.021-0.286,0.018-0.304,0.152c-0.064,0.112-0.191,0.164-0.38,0.152
		c-0.536,0.634-1.681,0.092-2.658,0.455c-0.336,0.125-0.824,0.555-1.215,0.912C27.667,22.096,26.593,22.838,26.989,24.594z
		 M27.825,25.43c-0.001,0.151-0.207,0.097-0.152,0.304c0.908,1.241,3.551,1.555,4.176-0.151
		C30.397,26.46,28.834,26.239,27.825,25.43z M30.482,29.986c-1.54-0.144-2.666,0.396-3.797,0.683
		c-0.71,0.181-1.426,0.112-1.974,0.531c1.036,0.778,2.287-0.21,3.038-0.455c1.265-0.413,3.269-0.483,4.177,0.076
		c0.256-0.2,0.843-0.068,1.062-0.304C32.032,30.678,31.355,30.067,30.482,29.986z M18.864,10.015
		c0.035-0.238-0.066-0.339-0.304-0.304c0,0.102,0,0.203,0,0.304C18.662,10.015,18.763,10.015,18.864,10.015z M18.637,13.28
		c0.009,0.193,0.11,0.294,0.304,0.304C19.144,13.408,18.848,13.041,18.637,13.28z M22.13,13.508
		c-0.18-0.099-0.525-0.032-0.684-0.152c-0.126,0.172-0.394,0.244-0.456,0.38c-0.343,0.752,0.318,1.078,0.911,1.291
		c0.295-0.009,0.384-0.224,0.532-0.38C22.505,14.395,22.436,13.634,22.13,13.508z M19.168,14.343
		c0.104-0.097,0.117-0.372-0.076-0.38C19.069,14.141,18.93,14.291,19.168,14.343z M19.244,15.027c0.101,0,0.202,0,0.304,0
		c0-0.101,0-0.203,0-0.304C19.339,14.487,19.007,14.817,19.244,15.027z M21.978,15.331c0.001-0.233-0.444-0.411-0.531-0.304
		C21.667,15.084,21.643,15.386,21.978,15.331z M20.003,16.545c0-0.051,0-0.101,0-0.152c-0.145-0.142-0.19-0.008-0.379,0
		c-0.137-0.01-0.178,0.075-0.152,0.228C19.535,16.686,20.065,16.83,20.003,16.545z M20.307,17.38
		c-0.105-0.365-0.241-0.227-0.38-0.531c0.166-0.048,0.242,0.215,0.228-0.076c-0.102,0-0.203,0-0.304,0
		c-0.095,0.394-0.147,0.45-0.076,0.912c0.102,0,0.203,0,0.304,0C20.325,17.752,20.186,17.437,20.307,17.38z M28.584,17.608
		c-0.317-0.341-1.243-0.115-1.442,0.152c-0.39,0.168-1.221,0.012-1.595,0.38c0.322,0.751,1.46-0.239,2.126-0.228
		c0.28,0.005,0.826,0.259,0.911-0.228C28.584,17.659,28.584,17.634,28.584,17.608z M23.572,18.14
		c-0.129-0.197-0.533-0.033-0.607,0.076c-0.015,0.217-0.009,0.415,0.228,0.379c0.025,0,0.051,0,0.076,0
		c0.163,0.286,0.418,0.027,0.759,0.076c0.386-0.146,0.995-0.068,1.139-0.456c-0.2-0.079-0.466-0.091-0.76-0.076
		c-0.253,0-0.506,0-0.759,0C23.623,18.14,23.598,18.14,23.572,18.14z M24.939,18.595c-0.239-0.086-0.185,0.12-0.303,0.152
		c-0.375,0.005-0.824-0.064-0.836,0.304C24.2,19.334,25.365,18.405,24.939,18.595z M28.508,19.127
		c0.313-0.142,0.773-0.138,0.683-0.683c-0.563,0.095-0.898,0.418-1.595,0.38c-0.238,0.015-0.558-0.052-0.684,0.076
		c-0.034,0.316,0.368,0.59,0.607,0.379c0.02-0.118,0.167-0.053,0.229,0C28.151,19.378,28.136,19.059,28.508,19.127z M25.395,19.355
		c-0.762,0.525-1.398-0.387-2.05,0.152c-0.332-0.127-1.064-0.383-0.987,0.304c0.931,0.228,1.508-0.101,2.278,0.228
		c0.477-0.508,1.252-0.001,1.594-0.456C26.478,19.33,25.543,19.211,25.395,19.355z M25.395,20.19
		c-0.808,0.079-1.536-0.341-2.126-0.152c1.272,0.996,2.844,0.226,4.101,0c0.493-0.089,1.022,0.111,1.215-0.38
		C27.448,19.468,26.446,20.088,25.395,20.19z M21.143,20.57c-0.003-0.25,0.031-0.537-0.228-0.531
		C20.761,20.214,21.099,20.359,21.143,20.57z M35.722,29.986c0.061-0.218,0.509-0.048,0.456-0.38
		C35.845,29.505,35.604,29.887,35.722,29.986z"/>
	<path fill="#B114D8" d="M31.621,25.505c1.213-0.548,2.188-2.486,0.987-3.721C33.964,22.789,32.993,25.213,31.621,25.505z"/>
	<path fill="#B114D8" d="M34.051,26.72c0,0.127,0,0.253,0,0.38c-0.183-0.031-0.164,0.139-0.379,0.076
		C33.854,27.081,33.985,26.933,34.051,26.72z"/>
	<path fill="#B114D8" d="M33.292,27.252c-0.981,0.031-1.382,0.644-2.05,0.987C31.76,27.795,32.422,27.092,33.292,27.252z"/>
	<path fill="#B114D8" d="M29.343,28.923c0.225-0.129,0.625-0.084,0.912-0.152C30.057,28.928,29.707,28.932,29.343,28.923z"/>
	<path fill="#770F91" d="M18.94,36.288c0.259-0.424,0.609-0.757,0.759-1.291c0.023-0.199-0.105-0.249-0.304-0.227
		c0.055-0.25,0.372-0.236,0.38-0.532c-0.167-0.288-0.371-0.54-0.38-0.987c0.135-0.142,0.222,0.033,0.38,0.076
		c0.306-0.32,0.419-0.912,0.456-1.292c0.143,0.187,0.275,0.383,0.531,0.457c0.266,0.316,0.781,0.383,1.215,0.531
		c0.118,0.279,0.524-0.171,0.607,0.075c-0.251,0.027-0.329,0.229-0.455,0.38c0.379,0.35,0.595,0.139,0.987-0.151
		c0.485,0.585,0.065,0.816,0,1.746c0.426,0.454,0.186,1.123,0.228,1.443c0.13,0.03,0.194-0.113,0.228,0
		c-0.167,0.121,0.098,1.065-0.152,0.91c0.063,0.529,0.223,0.964-0.076,0.836c0.142,0.469,0.221,0.817,0.228,1.062
		c0.118,0.964-0.159,1.99,0.152,2.962c-0.018,0.143-0.125-0.043-0.152,0.076c0.308,0.472,0.034,1.098,0.228,1.898
		c0.144,0.017,0.168-0.086,0.304-0.076c-0.15,0.24,0.127,0.626-0.152,0.835c0.355,0.41,0.148,1.111,0.684,1.14
		c-0.174,0.671,0.923,1.229,0.835,1.594c0.13,0.031,0.194-0.112,0.228,0c0.211,0.586,1.585,0.948,1.898,1.443
		c0.017-0.059,0.002-0.15,0.076-0.152c0.543,0.817,1.646,0.718,2.126,1.139c-0.012-0.097-0.463-0.097-0.228,0
		c2.356,0.51,5.214,1.758,7.366,3.57c-0.097,0.435-0.489,0.574-0.608,0.986c-0.483,0.808-1.635,0.946-1.974,1.898
		c-0.562,0.071-0.785,0.48-1.14,0.76c0.318-0.694,1.199-0.826,1.519-1.52c-0.212-0.347-0.642-0.45-0.987-0.606
		c-1.185-0.538-2.453-1.428-3.721-1.519c-0.832-0.061-1.151,0.216-1.67,0.151c-0.889-0.11-1.045-0.597-1.823-1.291
		c-0.496-0.442-1.54-0.776-2.354-0.987c-0.068-0.361-0.651-0.264-0.835-0.684c-0.407,0.091-1.234-0.572-1.215-0.683
		c-0.753-0.396-1.333-0.57-1.747-1.216c-0.062,0.065-0.208,0.045-0.228,0.152c-0.497-0.455-1.386-0.942-1.975-0.987
		c-0.106-0.026-0.006-0.134,0.076-0.151c-0.457-0.286-1.253,0.271-1.67-0.229c-0.117,0.173-0.187,0.173-0.304,0
		c-0.281,0.192-0.892,0.29-1.442,0.455c0.217,0.408-0.201,0.599-0.076,1.14c0.34,0.35,0.719,0.605,0.835,1.063
		c0.241,0.956-0.49,1.632-0.759,2.43c0.082,0.103,0.48,0.271,0.228,0.456c-0.229-0.432-0.534-0.731-0.152-1.216
		c0.308-0.489,0.178-1.767-0.379-2.05c0.214-1.127,0.087-1.659,0.076-2.658c0.231,0.004,0.295-0.159,0.455-0.227
		c-0.047-1.028,0.677-0.968,0.456-2.052c0.853-0.3,0.18-1.7,1.063-1.898c-0.113-0.283-0.125-0.229-0.076-0.606
		c0.632-0.773,0.755-1.95,1.291-2.962c0.03-0.182-0.346,0.043-0.228-0.228c0.771-0.646,0.261-2.111,1.291-2.506
		C18.816,36.695,18.772,36.499,18.94,36.288z M22.13,43.502c1.397,0.444,1.492-2.631-0.456-1.898
		c-0.203,0.376-0.468,0.904-0.076,1.292C21.756,43.116,21.889,43.362,22.13,43.502z M28.052,53.297
		c2.365,0.771,2.434-3.829-0.152-2.96C26.765,51.002,27.045,52.97,28.052,53.297z"/>
	<path fill="#B114D8" d="M21.066,30.669c0.654-0.652,2.269-0.329,2.506,0.531C23.229,30.431,21.772,30.213,21.066,30.669z"/>
	<path fill="#B114D8" d="M22.054,22.62c2.18-0.992,4.979,1.014,3.645,3.265C26.462,23.573,24.419,22.209,22.054,22.62z"/>
	<path fill="#B114D8" d="M21.143,22.468c0.288,0.197,0.317,0.184,0.835,0.152c-0.12,0.158-0.531,0.025-0.684,0.152
		C21.381,22.533,21.175,22.587,21.143,22.468z"/>
	<path fill="#B114D8" d="M19.017,15.027c0.319,0.1,0,0.249,0,0.455c0.235,0.008,0.216-0.238,0.531-0.151c0,0.05,0,0.101,0,0.151
		c-0.222-0.295-0.449,0.252-0.531,0.076C18.748,15.322,19.25,15.228,19.017,15.027z"/>
	<path fill="#B114D8" d="M18.181,11.23c-0.188,0.747,0.28,1.237,0.304,1.519c-0.07-0.208-0.184-0.373-0.38-0.456
		c0-0.329,0-0.658,0-0.987c0-0.025,0-0.051,0-0.076C18.13,11.23,18.155,11.23,18.181,11.23z"/>
	<path fill="#B114D8" d="M19.168,6.142c-0.01,0.142-0.05,0.254-0.151,0.304c-0.013,0.215,0.257,0.148,0.151,0.456
		c-0.088,0.063-0.204,0.1-0.38,0.076c-0.017,0.059-0.002,0.15-0.076,0.152c-0.035-0.237,0.162-0.243,0.38-0.228
		C18.995,6.564,18.881,6.378,19.168,6.142z"/>
	<path fill="#B114D8" d="M18.181,11.154c-0.063-0.442,0.116-0.788,0-1.063C18.468,10.216,18.229,10.884,18.181,11.154z"/>
	<path fill="#B114D8" d="M18.561,10.015c0-0.102,0-0.203,0-0.304c0.238-0.035,0.339,0.066,0.304,0.304
		C18.763,10.015,18.662,10.015,18.561,10.015z"/>
	<path fill="#B114D8" d="M18.94,13.584c-0.193-0.009-0.294-0.111-0.304-0.304C18.848,13.041,19.144,13.408,18.94,13.584z"/>
	<path fill="#B114D8" d="M22.13,13.508c0.306,0.126,0.375,0.887,0.303,1.139c0.038-0.443-0.259-0.55-0.152-1.063
		C22.223,13.567,22.132,13.582,22.13,13.508z"/>
	<path fill="#F594DE" d="M19.548,14.723c0,0.102,0,0.203,0,0.304c-0.102,0-0.203,0-0.304,0
		C19.007,14.817,19.339,14.487,19.548,14.723z"/>
	<path fill="#B114D8" d="M19.624,16.394c-0.285,0.252,0.265,0.298,0.379,0.152c0.062,0.284-0.468,0.14-0.532,0.076
		C19.446,16.469,19.487,16.384,19.624,16.394z"/>
	<path fill="#B114D8" d="M20.079,17.685c-0.101,0-0.202,0-0.304,0c-0.071-0.461-0.019-0.518,0.076-0.912c0.101,0,0.202,0,0.304,0
		c0.014,0.291-0.062,0.028-0.228,0.076c0.139,0.305,0.275,0.167,0.38,0.531c-0.145-0.107-0.218-0.288-0.456-0.303
		c-0.171,0.164,0.063,0.259,0,0.531C19.959,17.602,20.067,17.596,20.079,17.685z"/>
	<path fill="#B114D8" d="M27.142,17.76c0.2-0.267,1.125-0.493,1.442-0.152C28.109,17.384,27.504,17.626,27.142,17.76z"/>
	<path fill="#B114D8" d="M23.192,18.595c-0.237,0.035-0.243-0.162-0.228-0.379c0.075-0.108,0.478-0.273,0.607-0.076
		c-0.202,0-0.434-0.029-0.532,0.076C22.976,18.458,23.107,18.504,23.192,18.595z"/>
	<path fill="#B114D8" d="M23.269,18.595c0.232,0.203,0.55-0.149,0.759,0.076C23.687,18.622,23.432,18.881,23.269,18.595z"/>
	<path fill="#770F91" d="M23.8,19.051c0.012-0.368,0.461-0.299,0.836-0.304c0.119-0.033,0.064-0.239,0.303-0.152
		C25.365,18.405,24.2,19.334,23.8,19.051z"/>
	<path fill="#B114D8" d="M27.597,18.824c-0.037,0.241-0.685-0.128-0.607,0.228c0.181,0.072,0.226,0.281,0.531,0.228
		c-0.24,0.211-0.641-0.063-0.607-0.379C27.039,18.772,27.359,18.839,27.597,18.824z"/>
	<path fill="#B114D8" d="M28.508,19.127c-0.372-0.068-0.357,0.251-0.759,0.152C27.955,19.229,28.275,18.899,28.508,19.127z"/>
	<path fill="#B114D8" d="M25.395,19.355c0.148-0.144,1.083-0.025,0.835,0.228C26.142,19.316,25.688,19.417,25.395,19.355z"/>
	<path fill="#770F91" d="M32.836,20.95c0.536-0.4,1.197-0.676,1.671-1.139c0.025,0,0.051,0,0.075,0c0.002-0.099,0.212-0.097,0.229,0
		c-0.399,0.891-1.097,1.484-1.822,2.05C32.588,21.754,32.504,21.204,32.836,20.95z M32.912,21.633
		c0.389-0.093,0.659-0.303,0.684-0.759C33.174,20.617,32.631,21.187,32.912,21.633z"/>
	<path fill="#9811BA" d="M20.991,28.164c0.074-0.103,0.202-0.152,0.303-0.228c-0.008-0.326-0.155-0.559,0.076-0.759
		c0.216,0.038,0.109,0.396,0.456,0.304C21.352,27.512,21.434,28.1,20.991,28.164z"/>
	<path fill="#C817F3" d="M40.582,23.379c0.146-0.106,0.226-0.281,0.304-0.456c-0.134-0.069-0.139-0.266-0.229-0.379
		c0.323,0.069,0.324-0.182,0.304-0.456c-0.468-0.356-1.13-0.165-1.594,0.076c-0.056,0.232,0.131,0.223,0.075,0.456
		c-0.163-0.145-0.167-0.396-0.075-0.607c0.572-0.172,0.937-0.379,1.67-0.076c-0.062,0.214,0.107,0.196,0.076,0.379
		c-0.01,0.193-0.11,0.294-0.304,0.304C41.117,22.842,40.823,23.533,40.582,23.379z"/>
	<path fill="#F594DE" d="M29.723,24.594c-1.179,0.014-0.76-1.981,0.303-1.518C28.868,22.898,28.811,24.467,29.723,24.594z"/>
	<path fill="#F594DE" d="M29.799,24.594c0.837,0.125,1.046-1.284,0.304-1.442c0-0.025,0-0.051,0-0.076
		C31.004,23.205,30.624,24.948,29.799,24.594z"/>
	<path fill="#560D67" d="M29.723,24.594c-0.912-0.127-0.855-1.696,0.303-1.518c0.025,0,0.051,0,0.076,0c0,0.024,0,0.05,0,0.076
		c0.743,0.159,0.534,1.568-0.304,1.442C29.773,24.594,29.749,24.594,29.723,24.594z M29.875,23.607c0.097,0.104,0.358,0.104,0.456,0
		c0.005-0.132-0.017-0.236-0.076-0.303C29.995,23.272,29.822,23.326,29.875,23.607z"/>
	<path fill="#F594DE" d="M30.255,23.304c0.059,0.067,0.081,0.171,0.076,0.303c-0.097,0.104-0.358,0.104-0.456,0
		C29.822,23.326,29.995,23.272,30.255,23.304z M29.951,23.607c0.101,0,0.203,0,0.304,0c0-0.076,0-0.151,0-0.228
		C30.056,23.358,29.928,23.407,29.951,23.607z"/>
	<path fill="#F594DE" d="M22.357,25.126c0.184-0.852,1.661-0.579,1.595,0.304c-0.025,0-0.051,0-0.076,0
		C23.901,24.6,22.613,24.423,22.357,25.126z"/>
	<path fill="#F594DE" d="M22.357,25.202c-0.249,1.117,1.446,1.174,1.519,0.303C23.914,26.62,21.836,26.238,22.357,25.202z"/>
	<path fill="#F594DE" d="M23.572,25.05c0.045,0.323-0.32,0.236-0.456,0.379c-0.086-0.067,0.013-0.59,0.304-0.532
		C23.454,24.966,23.487,25.034,23.572,25.05z M23.192,25.278c0.199,0.021,0.327-0.028,0.304-0.228
		c-0.097-0.004-0.105-0.098-0.228-0.076C23.245,25.077,23.16,25.119,23.192,25.278z"/>
	<path fill="#B114D8" d="M36.86,26.417c0,0.101,0,0.202,0,0.303C36.568,26.78,36.568,26.357,36.86,26.417z"/>
	<path fill="#770F91" d="M36.178,29.606c0.053,0.332-0.396,0.162-0.456,0.38C35.604,29.887,35.845,29.505,36.178,29.606z"/>
	<path fill="#560D67" d="M15.067,53.374c0.252-0.185-0.146-0.354-0.228-0.456c0.269-0.798,1-1.474,0.759-2.43
		c-0.116-0.458-0.495-0.714-0.835-1.063c-0.125-0.541,0.293-0.731,0.076-1.14c0.551-0.165,1.162-0.263,1.442-0.455
		c0.117,0.173,0.187,0.173,0.304,0c0.417,0.499,1.214-0.058,1.67,0.229c-0.083,0.018-0.182,0.125-0.076,0.151
		c0.589,0.045,1.478,0.532,1.975,0.987c0.02-0.107,0.167-0.087,0.228-0.152c0.414,0.646,0.993,0.819,1.747,1.216
		c-0.019,0.11,0.808,0.773,1.215,0.683c0.184,0.42,0.767,0.322,0.835,0.684c0.814,0.211,1.858,0.545,2.354,0.987
		c0.777,0.694,0.934,1.181,1.823,1.291c0.519,0.064,0.838-0.212,1.67-0.151c1.268,0.091,2.536,0.98,3.721,1.519
		c0.346,0.156,0.775,0.26,0.987,0.606c-0.319,0.693-1.2,0.825-1.519,1.52c-1.196,0.712-2.558,1.266-3.873,1.519
		c-0.204-0.149-0.748,0.009-0.987,0.075c-0.204,0.166-0.345,0.104-0.607,0.076c-0.277-0.023-0.495,0.013-0.684,0.077
		c-0.294-0.041-0.371,0.135-0.684,0.075c-0.466-0.087-0.732,0.346-1.139,0.076c-0.09-0.037-0.172-0.081-0.228-0.151
		c-0.23-0.176-0.783-0.027-1.139-0.077c-1.064-0.338-2.252-0.16-2.961-0.911c-0.278,0.001-0.202,0.356-0.607,0.229
		c0.479-0.603-0.565-1.229-0.912-0.684c0.033,0.119,0.239,0.064,0.152,0.304c-0.062-0.04-0.124-0.08-0.228-0.076
		c-0.582-0.38-1.217-0.707-1.822-1.062c-0.002-0.075-0.093-0.06-0.152-0.077c0.017-0.108,0.227-0.026,0.228-0.151
		c0.164-0.064,0.176-0.279,0.152-0.531c-0.101-0.077-0.229-0.125-0.304-0.229c-0.334-0.062-1.015-0.269-1.215,0
		c-0.191-0.188-0.499-0.26-0.456-0.684c0.021-0.155,0.203-0.15,0.304-0.227c0.076,0,0.152,0,0.228,0
		c-0.026-0.354-0.295-0.465-0.607-0.532C15.659,53.963,14.813,53.626,15.067,53.374z M18.561,57.094c0.101,0,0.203,0,0.304,0
		c0.013-0.189-0.117-0.237-0.228-0.304C18.613,56.894,18.528,56.936,18.561,57.094z"/>
	<path fill="#9811BA" d="M20.763,32.492c-0.256-0.074-0.389-0.271-0.531-0.457c-0.037,0.38-0.15,0.972-0.456,1.292
		c-0.158-0.043-0.245-0.218-0.38-0.076c0.009,0.447,0.213,0.699,0.38,0.987c-0.008,0.296-0.325,0.282-0.38,0.532
		c0.199-0.022,0.327,0.027,0.304,0.227c-0.15,0.534-0.5,0.867-0.759,1.291c0.074-0.609,0.604-0.763,0.684-1.366
		c-0.113-0.212-0.339,0.16-0.304-0.151c-0.071-0.326,0.301-0.207,0.304-0.457c-0.094-0.36-0.322-0.589-0.304-1.062
		c0-0.025,0-0.051,0-0.076c0.06-0.017,0.088-0.063,0.076-0.151c0.216-0.013,0.148,0.257,0.456,0.151
		c0.346-0.479-0.092-1.308,0.607-1.366C20.456,32.141,20.648,32.276,20.763,32.492z"/>
	<path fill="#9811BA" d="M14.536,50.108c0.558,0.283,0.688,1.561,0.379,2.05c-0.041-0.515,0.146-1.656-0.456-1.975
		C14.464,50.139,14.471,50.095,14.536,50.108z"/>
	<path fill="#9811BA" d="M15.675,54.437c0.312,0.067,0.581,0.179,0.607,0.532c-0.076,0-0.151,0-0.228,0
		c0.007-0.12,0.193-0.06,0.152-0.229C15.898,54.922,15.989,54.454,15.675,54.437z"/>
	<path fill="#C817F3" d="M40.81,48.59c0.157,0.113-0.211,0.341-0.228,0.532C40.327,48.91,40.778,48.766,40.81,48.59z"/>
	<path fill="#B114D8" d="M39.215,51.323c-0.084,0.221-0.094,0.514-0.379,0.532c0.062-0.216-0.107-0.197-0.077-0.38
		C39.043,51.557,38.976,51.287,39.215,51.323z"/>
	<path fill="#B114D8" d="M37.469,54.057c0.009-0.136-0.094-0.159-0.076-0.303c0.052-0.151,0.452,0.047,0.38-0.229
		C37.922,53.656,37.662,54.02,37.469,54.057z"/>
	<path fill="#770F91" d="M36.633,54.893c0.062,0.04,0.124,0.079,0.228,0.076c-0.068,0.134-0.183,0.221-0.228,0.38
		C36.353,55.287,36.57,55.035,36.633,54.893z"/>
	<path fill="#770F91" d="M27.597,59.903c-0.19-0.062-0.654,0.148-0.607-0.151c0.171-0.05,0.899-0.139,0.76,0.151
		C27.698,59.903,27.647,59.903,27.597,59.903z"/>
	<path fill="#770F91" d="M25.243,59.297c0.406,0.27,0.673-0.163,1.139-0.076C26.102,59.267,25.476,59.7,25.243,59.297z"/>
	<path fill="#9811BA" d="M22.13,43.502c0.91,0.004,0.946-0.751,0.911-1.519c-0.264-0.267-0.708-0.354-1.291-0.304
		c-0.229,0.385-0.367,0.707-0.152,1.216c-0.393-0.388-0.127-0.916,0.076-1.292C23.622,40.871,23.527,43.946,22.13,43.502z"/>
	<path fill="#770F91" d="M28.356,58.992c0.239-0.066,0.783-0.225,0.987-0.075C29.008,58.937,28.756,59.038,28.356,58.992z"/>
	<path fill="#9811BA" d="M27.065,59.146c0.189-0.064,0.407-0.101,0.684-0.077C27.611,59.138,27.157,59.28,27.065,59.146z"/>
	<path fill="#770F91" d="M19.396,57.702c0.296-0.073,0.313,0.295,0.229,0.38c-0.142-0.011-0.254-0.051-0.304-0.152
		c0.104-0.004,0.167,0.036,0.228,0.076C19.635,57.767,19.429,57.821,19.396,57.702z"/>
	<path fill="#770F91" d="M15.751,55.195c-0.043,0.424,0.265,0.495,0.456,0.684c0.2-0.269,0.881-0.062,1.215,0
		c-0.228,0-0.456,0-0.683,0c0.008,0.523,0.364,0.699,0.835,0.76c-0.001,0.125-0.21,0.043-0.228,0.151
		c0.059,0.018,0.15,0.002,0.152,0.077c-0.423-0.243-1.102-0.347-0.835-1.063C16.137,56.075,15.618,55.693,15.751,55.195z"/>
	<path fill="#9811BA" d="M27.9,50.337c2.585-0.869,2.517,3.731,0.152,2.96C27.045,52.97,26.765,51.002,27.9,50.337z M28.888,53.07
		c0.787-0.238,0.939-1.515,0.531-2.354c-0.761-0.488-1.603-0.478-2.05,0.228C26.872,52.209,27.708,53.426,28.888,53.07z"/>
	<path fill="#B114D8" d="M23.648,18.14c0.253,0,0.506,0,0.759,0C24.326,18.266,23.73,18.266,23.648,18.14z"/>
	<path fill="#770F91" d="M20.915,28.543c-0.124,0.013-0.153-0.497,0.076-0.379c0.443-0.063,0.361-0.651,0.835-0.684
		c0.791,0.07,1.299,0.093,1.974-0.076c0.796-0.089,1.02-0.752,1.671-0.987c-0.256,1.642-1.946,1.851-3.265,2.43
		c0.153,0.12,0.201,0.272,0.152,0.456c-0.452-0.09-0.559,0.029-1.063,0.152C21.018,29.145,21.438,28.605,20.915,28.543z
		 M22.965,27.859c-0.41,0.004-0.692-0.118-1.063-0.151C21.873,28.093,22.77,27.95,22.965,27.859z M23.572,27.784
		c0.007,0.333,0.522,0.073,0.532-0.076C23.857,27.664,23.75,27.759,23.572,27.784z"/>
	<path fill="#770F91" d="M23.876,59.068c0.356,0.05,0.909-0.099,1.139,0.077C24.659,59.096,24.106,59.244,23.876,59.068z"/>
	<path fill="#770F91" d="M29.951,59.372c0.028,0.231-0.248,0.158-0.379,0.229C29.536,59.363,29.733,59.357,29.951,59.372z"/>
	<path fill="#770F91" d="M24.028,59.752c-0.286-0.288,0.706-0.138,0.379,0.076C24.32,59.764,24.204,59.729,24.028,59.752z"/>
	<path fill="#C817F3" d="M44.303,38.11c0,0.178,0,0.355,0,0.532c-0.239,0.036-0.297-0.108-0.456-0.152
		C43.866,38.231,44.01,38.096,44.303,38.11z"/>
	<path fill="#560D67" d="M22.357,25.126c0.256-0.703,1.544-0.526,1.519,0.304c0,0.025,0,0.05,0,0.076
		c-0.073,0.871-1.768,0.814-1.519-0.303C22.357,25.177,22.357,25.151,22.357,25.126z M23.42,24.898
		c-0.291-0.059-0.39,0.465-0.304,0.532c0.135-0.144,0.501-0.056,0.456-0.379C23.487,25.034,23.454,24.966,23.42,24.898z"/>
	<path fill="#F594DE" d="M22.661,5.08c1.106-0.634,2.926,0.126,2.885,1.139c0,0.076,0,0.152,0,0.228
		c-0.259,0.168-0.455,0.371-0.835,0.228c-0.169,0.224-0.15,0.288-0.076,0.607C24.39,7.39,24.118,7.472,23.8,7.509
		c-0.199-0.104-0.329-0.279-0.303-0.607c-0.486,0.021-0.636,0.377-1.139,0.379C22.027,6.743,22.142,5.532,22.661,5.08z
		 M23.648,6.142c0.134,0.199,0.55,0.199,0.684,0C24.388,5.477,23.68,5.697,23.648,6.142z"/>
</g>
</svg>
