<?xml version="1.0" encoding="utf-8"?>
<!-- Generator: Adobe Illustrator 15.0.0, SVG Export Plug-In . SVG Version: 6.00 Build 0)  -->
<!DOCTYPE svg PUBLIC "-//W3C//DTD SVG 1.1//EN" "http://www.w3.org/Graphics/SVG/1.1/DTD/svg11.dtd">
<svg version="1.1" id="Purple_Germ_xA0_Image_1_" xmlns="http://www.w3.org/2000/svg" xmlns:xlink="http://www.w3.org/1999/xlink"
	 x="0px" y="0px" width="1536px" height="1460px" viewBox="0 0 1536 1460" enable-background="new 0 0 1536 1460"
	 xml:space="preserve">
<g>
	<path fill-rule="evenodd" clip-rule="evenodd" fill="#F594DE" d="M806,329c0.977,4.027-5.977,4.027-5,0
		C803.487,328.891,804.096,327.126,806,329z"/>
	<path fill-rule="evenodd" clip-rule="evenodd" fill="#F594DE" d="M790,333c1,0,2,0,3,0c0.282,2.615-0.365,4.301-3,4
		C790,335.667,790,334.333,790,333z"/>
	<path fill-rule="evenodd" clip-rule="evenodd" fill="#FFFFFF" d="M723,403c-1.764,2.622-7.236,2.622-9,0
		C714.416,397.136,723.738,394.235,723,403z"/>
	<path fill-rule="evenodd" clip-rule="evenodd" fill="#F594DE" d="M851,453c-8.011,2.899-14.98-0.903-22-2
		C812.263,415.535,875.52,421.382,851,453z M838,440c1.352,0.314,1.91,1.423,4,1c-0.857-3.19,1.574-3.093,2-5
		C840.268,435.601,838.133,436.799,838,440z"/>
	<path fill-rule="evenodd" clip-rule="evenodd" fill="#FFFFFF" d="M844,436c-0.426,1.907-2.857,1.81-2,5
		c-2.09,0.423-2.648-0.686-4-1C838.133,436.799,840.268,435.601,844,436z"/>
	<path fill-rule="evenodd" clip-rule="evenodd" fill="#B114D8" d="M642,452c0.638-3.695-1.295-9.961,1-12
		C642.362,443.695,644.295,449.961,642,452z"/>
	<path fill-rule="evenodd" clip-rule="evenodd" fill="#F594DE" d="M698,515c-1.947,2.053-3.12,4.88-7,5
		c-7.812-2.807-16.522-7.093-12-17c0.815-1.786,4.344-2.731,6-5c2.089,1.578,6.641,0.693,9,2c0.027,0.972,1.224,0.776,2,1
		C694.582,507.751,698.505,509.162,698,515z"/>
	<path fill-rule="evenodd" clip-rule="evenodd" fill="#F594DE" d="M654,506c2.544,0.102,2.363,3.727,1,5
		C651.865,510.309,653.696,508.333,654,506z"/>
	<path fill-rule="evenodd" clip-rule="evenodd" fill="#770F91" d="M685,520c1.15-1.407,7.015,0.928,7,4
		C687.594,524.739,687.903,520.763,685,520z"/>
	<path fill-rule="evenodd" clip-rule="evenodd" fill="#F594DE" d="M661,538c2.488-0.109,3.096-1.874,5,0c0,0.667,0,1.333,0,2
		C664.49,541.935,657.25,541.325,661,538z"/>
	<path fill-rule="evenodd" clip-rule="evenodd" fill="#F594DE" d="M667,555c-0.168-1.165-1.581-1.086-3-1
		c0.828-3.589-2.255-4.838,0-7c3.132,0.201,4.088,2.579,6,4C668.405,551.738,670.228,555.895,667,555z"/>
	<path fill-rule="evenodd" clip-rule="evenodd" fill="#F594DE" d="M851,559c2.393-4.608,5.856-8.144,13-8
		c6.31,5.572,3.974,11.751-1,17c-3.544,3.457-2.979,11.021-6,15c-6.235,6.098-14.939,9.727-22,15c-3.651,0.015-4.491,2.843-7,4
		c1.123,2.544,2.456,4.877,4,7c15.816,16.262,2.971,41.776-13,49c-13.661,8.69-38.931,9.294-48-4c-3.635,2.032-3.467,7.866-10,7
		c-5.784-4.177,0.967-11.543-3-15c-0.373-20.564,8.19-27.16,19-36c3.839-3.139,7.565-7.505,11-10c12.397-9.006,32.857-3.357,41-15
		c2.483,0.15,4.15-0.517,5-2c8.339-2.662,11.977-10.023,15-18C850.746,564.08,851.207,561.874,851,559z M796,656
		c14.421-2.73,29.953-9.953,31-26c0.635-9.722-4.782-15.904-13-21c-6.748-1.109-8.113,2.769-13,1c-3.675,5.325-9.612,8.388-16,11
		c2.234,5.461-3.105,9.592-7,12c-1.973-0.694,0.246-5.58-2-6C760.708,640.052,778.031,657.873,796,656z"/>
	<path fill-rule="evenodd" clip-rule="evenodd" fill="#F594DE" d="M760,556c4.777-1.77,12.75-4.958,19-2c0,0.333,0,0.667,0,1
		c-1.116,6.408-8.312,3.062-12,3c-8.769-0.149-23.754,12.89-28,3C743.925,556.155,754.872,558.218,760,556z"/>
	<path fill-rule="evenodd" clip-rule="evenodd" fill="#F594DE" d="M708,567c-1.129-1.205-2.854-1.812-2-5
		c1.289-1.378,4.344-0.99,7-1c0.333,0,0.667,0,1,0c1.078,1.655,8.922,1.655,10,0c3.863-0.197,7.369-0.036,10,1
		c-1.906,5.094-9.924,4.076-15,6c-2.752-2.975-6.938,1.666-10-1C708.667,567,708.333,567,708,567z"/>
	<path fill-rule="evenodd" clip-rule="evenodd" fill="#F594DE" d="M766,570c9.176,0.509,13.588-3.746,21-5
		c1.182,7.181-4.871,7.129-9,9c-3.07-3.004-7.279,1.338-10,2c-0.807-0.693-2.739-1.556-3,0c-4.034,0.701-4.616-2.05-7-3
		C756.985,568.318,765.512,573.179,766,570z"/>
	<path fill-rule="evenodd" clip-rule="evenodd" fill="#F594DE" d="M748,580c-4.507,5.983-14.724-0.694-21,6
		c-10.132-4.327-17.739,0.001-30-3c-1.006-9.049,8.634-5.675,13-4c8.597-7.093,16.965,4.922,27-2
		C740.854,577.813,746.839,576.494,748,580z"/>
	<path fill-rule="evenodd" clip-rule="evenodd" fill="#770F91" d="M779,581c-2.54,6.471-9.507,3.833-16,5
		c-16.54,2.974-37.246,13.118-54,0c7.778-2.494,17.363,3.036,28,2C750.838,586.653,764.044,578.483,779,581z"/>
	<path fill-rule="evenodd" clip-rule="evenodd" fill="#F594DE" d="M678,586c3.409-0.076,2.961,3.706,3,7
		C680.425,590.226,675.971,588.323,678,586z"/>
	<path fill-rule="evenodd" clip-rule="evenodd" fill="#FFFFFF" d="M978,586c3.708-1.296,3.973,5.921,2,7
		C976.081,592.859,977.08,588.515,978,586z"/>
	<path fill-rule="evenodd" clip-rule="evenodd" fill="#560D67" d="M845,597c-0.332,6.001-3.886,8.78-9,10
		C832.294,601.121,839.445,593.618,845,597z"/>
	<path fill-rule="evenodd" clip-rule="evenodd" fill="#FFFFFF" d="M776,627c2.246,0.42,0.027,5.306,2,6
		c3.895-2.408,9.234-6.539,7-12c6.388-2.612,12.325-5.675,16-11c4.887,1.769,6.252-2.109,13-1c8.218,5.096,13.635,11.278,13,21
		c-1.047,16.047-16.579,23.27-31,26C778.031,657.873,760.708,640.052,776,627z M798,626c-14.01-6.1-19.527,20.177-4,20
		c0.333,0,0.667,0,1,0c10.864,4.659,15.87-18.303,4-20C798.667,626,798.333,626,798,626z"/>
	<path fill-rule="evenodd" clip-rule="evenodd" fill="#F594DE" d="M937,630c-5.921-1.413-11.222-3.445-15-7c0-1,0-2,0-3
		c0.726-3.059-1.726-2.941-1-6c6.119-3.167,14.829-5.692,21-1c0.271,3.604,0.25,6.917-4,6c1.171,1.496,1.243,4.09,3,5
		C939.965,626.299,938.935,628.602,937,630z"/>
	<path fill-rule="evenodd" clip-rule="evenodd" fill="#FFFFFF" d="M801,630c0,1,0,2,0,3c-1.333,0-2.667,0-4,0
		C796.698,630.365,798.385,629.718,801,630z"/>
	<path fill-rule="evenodd" clip-rule="evenodd" fill="#FFFFFF" d="M684,670c-0.508-7.979-4.284-21.947,4-20c0-5,0-10,0-15
		c21.825-6.4,47.354,5.989,46,24C732.586,677.813,697.906,677.56,684,670z M717,657c0.333,0,0.667,0,1,0
		c0.869-11.617-18.582-15.21-21-4c0,0.333,0,0.667,0,1c-6.858,13.652,20.496,18.68,20,4C717,657.667,717,657.333,717,657z"/>
	<path fill-rule="evenodd" clip-rule="evenodd" fill="#FFFFFF" d="M709,651c1.615-0.282,1.722,0.945,3,1
		c0.301,2.635-1.385,3.282-4,3C707.576,652.91,708.686,652.352,709,651z"/>
	<path fill-rule="evenodd" clip-rule="evenodd" fill="#F594DE" d="M852,673c2.546-3.787,5.165-1.995,11-3
		c17.555-3.024,34.091-24.192,42-9c-1.877,3.79-5.309,6.025-8,9c-1.723,18.944-13.386,27.948-22,40
		c-7.445,13.673-36.781,16.502-55,11c-7.382-2.229-14.753-9.541-22-10c-3.089-0.196-9.896,1.627-14,3
		c-14.195,4.749-34.17,11.839-47,15c-7.213,1.777-14.993,3.245-19-2c4.558-7.967,16.197-13.541,27-12
		c13.309-7.506,27.796-7.647,44-12c4.787,0.121,9.399,0.066,12-2c3.934-2.291,7.491-2.335,11-3c1.348-0.681-0.871-3.045,2-4
		c8.812-4.521,14.074-12.593,27-13c1.453-0.547,5.169,1.168,5-1c2.826,0.826,2.591-1.409,5-1c0-1.667,0-3.333,0-5
		C851.61,673.943,852.184,673.851,852,673z M888,674c0-1.333,0-2.667,0-4C884.149,669.212,884.149,674.788,888,674z M875,697
		c0.225-1.891-1.127-2.206-1-4c7.629-1.704,6.739-11.927,12-16c-0.113-1.22-0.299-2.368-2-2c-14.08,16.586-49.298,12.035-59,33
		C843.421,715.307,865.903,709.915,875,697z"/>
	<path fill-rule="evenodd" clip-rule="evenodd" fill="#770F91" d="M822,659c-8.244,22.479-43.045,18.344-55,2
		c-0.729-2.729,1.987-2.013,2-4C782.301,667.653,802.88,670.57,822,659z"/>
	<path fill-rule="evenodd" clip-rule="evenodd" fill="#FFFFFF" d="M825,708c9.702-20.965,44.92-16.414,59-33
		c1.701-0.368,1.887,0.78,2,2c-5.261,4.073-4.371,14.296-12,16c-0.127,1.794,1.225,2.109,1,4
		C865.903,709.915,843.421,715.307,825,708z"/>
	<path fill-rule="evenodd" clip-rule="evenodd" fill="#560D67" d="M691,687c4.89,0.444,8.607,2.059,14,2
		C702.436,690.19,690.622,692.076,691,687z"/>
	<path fill-rule="evenodd" clip-rule="evenodd" fill="#560D67" d="M720,687c-0.12,1.963-6.903,5.38-7,1
		C715.348,687.681,716.753,686.42,720,687z"/>
	<path fill-rule="evenodd" clip-rule="evenodd" fill="#C817F3" d="M987,691c1.753,0.914,3.475,1.859,3,5
		C986.876,696.458,986.803,693.863,987,691z"/>
	<path fill-rule="evenodd" clip-rule="evenodd" fill="#770F91" d="M837,724c-2.898,3.102-10.632,1.369-14,4
		c-11.948-7.357-38.338-6.436-55-1c-9.878,3.223-26.364,16.238-40,6c7.221-5.533,16.65-4.621,26-7c14.896-3.791,29.722-10.889,50-9
		C815.493,718.07,824.42,726.107,837,724z"/>
	<path fill-rule="evenodd" clip-rule="evenodd" fill="#FFFFFF" d="M692,735c1.667,0,3.333,0,5,0c0.319,2.319-0.161,3.839-1,5
		C694.286,738.714,692.068,737.933,692,735z"/>
	<path fill-rule="evenodd" clip-rule="evenodd" fill="#C817F3" d="M989,779c2.209,0.125,0.425,4.242,1,6c-1.333,0-2.667,0-4,0
		C984.573,780.573,989.384,782.384,989,779z"/>
	<path fill-rule="evenodd" clip-rule="evenodd" fill="#C817F3" d="M983,807c3.948-1.281,2.42,2.914,5,3
		C986.287,812.919,982.263,809.832,983,807z"/>
	<path fill-rule="evenodd" clip-rule="evenodd" fill="#F594DE" d="M916,819c6.092-0.682,8.031-8.728,14-10
		c10.053-2.144,18.839,3.427,19,13c0.213,12.64-16.233,17.936-29,12c-4.04-2.294-7.369-5.298-9-10
		C912.837,822.503,913.493,819.826,916,819z"/>
	<path fill-rule="evenodd" clip-rule="evenodd" fill="#F594DE" d="M687,887c-2.83-6.701-1.016-10.93,2-16
		c7.668-0.668,13.517,0.483,17,4c0.469,10.117-0.013,20.047-12,20C690.838,893.162,689.084,889.916,687,887z"/>
	<path fill-rule="evenodd" clip-rule="evenodd" fill="#FFFFFF" d="M964,923c2.33,3.061-1.219,6.925-5,7
		C960.283,927.283,959.325,922.325,964,923z"/>
	<path fill-rule="evenodd" clip-rule="evenodd" fill="#F594DE" d="M763,993c5.887-9.282,16.979-9.427,27-3
		c5.365,11.06,3.362,27.874-7,31C767.464,1025.687,756.449,1009.668,763,993z M774,1010c4.529,0.529,6.529-1.471,6-6
		C775.796,1000.116,771.334,1007.014,774,1010z"/>
	<path fill-rule="evenodd" clip-rule="evenodd" fill="#FFFFFF" d="M586,993c2.065,0.859,1.055,6.961,0,8
		C581.696,1000.032,582.921,994.391,586,993z"/>
	<path fill-rule="evenodd" clip-rule="evenodd" fill="#FFFFFF" d="M780,1004c0.529,4.529-1.471,6.529-6,6
		C771.334,1007.014,775.796,1000.116,780,1004z"/>
	<path fill-rule="evenodd" clip-rule="evenodd" fill="#F594DE" d="M634,1068c-6.2-0.801-10.891-3.109-11-10c3,0,6,0,9,0
		c0.982,1.352,2.668,1.998,4,3C636.318,1064.318,636.151,1067.151,634,1068z"/>
	<path fill-rule="evenodd" clip-rule="evenodd" fill="#F594DE" d="M648,1070c1.464,0.869,3.169,1.497,3,4c-1.333,0-2.667,0-4,0
		C646.577,1071.91,647.686,1071.353,648,1070z"/>
	<path fill-rule="evenodd" clip-rule="evenodd" fill="#F594DE" d="M641,471c0,4.333,0,8.667,0,13c2.58,1.087,4.074,3.26,5,6
		c-0.897,2.103-2.773,3.227-4,5c4.492,7.508,3.611,20.389,11,25c3.078,2.654-3.529,3.896,0,7c1.087,2.314,4.084-4.888,7-1
		c0.443,0.89,0.878,1.789,2,2c-0.758,2.576-3.192,3.475-7,3c3.495,16.838,9.321,31.346,14,47c0.658,2.995,2.138-0.956,4,0
		c-2.68,7.283-1.108,11.996,0,20c-6.283-23.856-15.411-54.415-24-80C644.31,504.028,636.652,490.844,641,471z"/>
	<path fill-rule="evenodd" clip-rule="evenodd" fill="#F594DE" d="M657,759c8.266-23.401,17.707-45.626,21-74
		c-10.453-12.039-14.457-35.83-5-52c-7.092-4.241-15.798-6.869-21-13c3.205-6.128,8.625-10.042,17-11c0.132,2.465,0.151,4.818-1,6
		c1.314,1.02,3.686,0.98,5,2c3.06-5.093-1.272-11.37,0-18c4.364,1.541,13.909,4.26,11,14c-3.141-1.329-6.416-4.538-3-7
		c-7.637-1.304-5.769,6.897-6,13c3.059,0.726,2.941-1.726,6-1c0.43,1.57,3.146,0.854,2,4c2.004-1.663,7.417,0.083,9-2
		c0.333,0,0.667,0,1,0c31.151-5.406,58.06,12.557,48,43c-8.041,6.959-14.247,15.753-25,20c-8.895,2.229-15.584,1.915-26,1
		c-4.561,1.227-3.16-3.507-6-4c-3.042,2.637-1.108,5.706-1,10c-1.332,1.001-3.018,1.648-4,3c-3.019-1.542-2.631,5.175-1,5
		c3.682,3.537,0.863,7.641,2,14c-1.926,2.025-4.023,2.325-7,1c-1.602,3.936,4.318,0.348,4,3c-1.756,5.741-5.894,2.887-7,9
		c0.914,2.719,1.859-2.664,5-1c-0.532,2.801-1.468,5.199-2,8c4.332-0.001,2.486-6.181,7-6c9.293-6.004,28.482-3.137,33,7
		c-2.791,12.209-6.15,23.851-21,24c-5.712-1.955-12.504-2.829-16-7c-1.504-2.83-4.044-4.623-4-9c-9.218,0.777-3.439,11.682-8,18
		c-4.048,1.382-3.163-2.171-6-2C658.163,758.162,657.779,758.779,657,759z M734,659c1.354-18.011-24.175-30.4-46-24c0,5,0,10,0,15
		c-8.284-1.947-4.508,12.021-4,20C697.906,677.56,732.586,677.813,734,659z M696,740c0.839-1.161,1.319-2.681,1-5
		c-1.667,0-3.333,0-5,0C692.068,737.933,694.286,738.714,696,740z"/>
	<path fill-rule="evenodd" clip-rule="evenodd" fill="#F594DE" d="M576,971c2.152,0.849,3.537,2.463,3,6c2.194-1.14,4.086-2.581,8-2
		c6.119-6.542-1.15-11.43-10-9c1.711-2.288,7.633-0.367,11-1c16.227-75.107,47.723-134.943,69-205c-0.239,6.239,2.761,9.239,4,14
		c-0.039,3.294-4.941,1.726-4,6c-0.468,4.113,2.514-0.785,4,2c-1.041,7.959-8.024,9.976-9,18c-2.215,2.767-1.632,5.354-1,9
		c-13.56,5.194-6.847,24.495-17,33c-1.555,3.555,3.396,0.604,3,3c-7.054,13.327-8.68,28.818-17,39c-0.647,4.978-0.486,4.255,1,8
		c-11.635,2.6-2.765,21.037-14,25c2.911,14.271-6.626,13.456-6,27c-2.111,0.889-2.956,3.045-6,3c0.15,13.149,1.827,20.166-1,35
		c-0.851-0.184-0.943,0.39-1,1c7.912,4.185,5.462,19.223,6,26c-5.03,6.37-1.022,10.315,2,16c-3.353,3.316,7.784,7.762,8,14
		c4.136,0.23,2.937,6.391,7,4c0.55,2.217-1.91,1.424-2,3c-1.329,1.004-3.721,0.945-4,3c-1.744,6.545,5.087,11.579,12,8
		c-3.512,9.44,5.43,10.801,11,14c7.971,4.696,16.337,8.996,24,14c0.658,1.342,2.138,1.862,4,2c1.118-1.103,0.893-5.968-3-5
		c4.56-7.176,18.319,1.078,12,9c5.347,1.68,4.336-2.997,8-3c9.341,9.879,24.987,7.542,39,12c3.025,2.308,10.314,0.353,15,1
		c0.733,0.934,1.818,1.516,3,2c3.064,5.318,11.306-0.393,15-1c4.118,0.785,5.132-1.535,9-1c1.203,1.78,7.184-0.083,9-1
		c3.46,0.354,5.322,1.17,8-1c5.265,0.598,8.592-0.741,13-1c17.309-3.324,35.239-10.618,51-20c4.654-3.68,7.604-9.062,15-10
		c4.466-12.534,19.636-14.364,26-25c8.208-6.973,11.338-14.473,17-25c1.57-0.43,0.854-3.146,4-2c9.587-22.452,26.406-46.231,39-69
		c3.071-3.929,3.799-10.201,7-14c-3.984-12.013,5.229-16.711,10-23c-3.967-10.639,7.96-10.438,7-21c0.426-1.907,2.857-1.81,2-5
		c3.543-6.791,4.198-16.469,9-22c3.848,0.851,4.526,2.988,6-1c0.97,17.493-12.315,27.495-11,41c0.874,8.975,14.938,15.031,9,29
		c-11.277,7.057-21.975,14.691-33,22c-41.045,71.289-76.067,148.6-179,158c1.837-3.825-7.746-2.66-10-2c-0.611,3.943,5.49,1.177,8,2
		c-12.005,1.665-31.351,2.021-42-1c4.286-2.812-8.757-4.809-5-1c-25.705-1.449-42.965-10.009-65-24
		c-25.735-16.341-49.411-25.452-59-55c-0.802-3.469,1.489-3.844,1-7c-13.241-4.426-27.42-7.913-31-22
		C568.242,991.547,580.938,982.102,576,971z M586,1001c1.055-1.039,2.065-7.141,0-8C582.921,994.391,581.696,1000.032,586,1001z
		 M937,969c0.223-2.511,5.068-5.508,3-7C939.589,964.322,933.648,966.226,937,969z M913,1000c-0.409,2.409,1.826,2.174,1,5
		c3.763-0.237,3.899-4.101,5-7C915.851,997.517,916.736,1001.069,913,1000z M900,1027c0.957,3.624-4.316,1.017-5,3
		c-0.225,1.891,1.127,2.206,1,4C898.556,1033.498,901.979,1028.722,900,1027z M885,1051c0.586-2.08,2.102-3.232,3-5
		c-1.377,0.043-2.195-0.471-3-1C884.171,1046.884,881.309,1050.196,885,1051z M792,1107c1.742-0.924,5.367,0.034,5-3
		C794.137,1103.803,791.542,1103.876,792,1107z M959,930c3.781-0.075,7.33-3.939,5-7C959.325,922.325,960.283,927.283,959,930z"/>
	<path fill-rule="evenodd" clip-rule="evenodd" fill="#F594DE" d="M641,470c-3.257-53.59,17.99-82.677,43-108
		c21.773-8.72,40.849-26.343,69-30c9.168-1.191,19.384,0.447,29-2c7.639-1.944,16.074-9.753,27-7c6.559,1.653,20.097,19.067,27,24
		c13.596,9.715,22.299,17.208,33,25c43.122,55.212,81.955,114.711,98,197c11.763,1.904,20.133,7.2,26,15
		c-0.255,13.411-9.092,18.242-15,26c2.715,42.149,18.691,86.257,14,133c-3.871,38.573,0.293,82.806-10,117
		c-0.186-1.48-2.417-0.917-4-1c-0.733-0.934-1.818-1.515-3-2c4.344-53.636,9.936-92.291,7-150c2.396,0.396-0.555-4.555,3-3
		c-3.58-7.108-5.1-21.059-5-26c6.337,0.206,4.573,4.712,3,9c3.458,0.792,4.222-1.112,6-2c-3.864-12.802-2.701-30.632-11-39
		c2.653-8.822-0.594-21.243-1-35c-4.732-3.545-5.631,1.186-9,0c-1.122-3.873-3.354-8.552-2-12c2.319-0.319,3.84,0.161,5,1
		c-3.338-5.4-5.294-11.028-3-18c-4.5-1.167-1.079,5.587-6,4c-1.675-1.659-0.796-5.871-1-9c2.465-0.132,4.818-0.151,6,1
		c-1.519-5.148-2.356-10.977-6-14c-4.004,1.508,1.351,3.681-1,6c-10.225-5.279,12.544-24.596-6-28c-1.164-5.543,6.369-10.681,0-17
		c-0.869-2.954-1.497,2.32-4,1c-0.925-8.035,1.815-16.436-5-16c3.599-4.442,0.123-14.151-5-16c1.643-4.472-0.209-12.315-4-18
		c-0.91-1.365-3.146-1.705-4-3c-1.273-1.933,0.57-6.864-4-6c1.938-5.429-1.199-10.31-5-10c-1.734-10.599-6.349-18.318-15-22
		c-0.826-2.826,1.409-2.591,1-5c-9.394-15.606-20.177-29.823-31-44c-1.555-1.886-3.896,1.435-6-1c3.583-13.928-18.812-15.56-23-28
		c-5.439,0.316-5.271-2.754-10-1c-0.839-1.161-1.319-2.681-1-5c-2.58,0.086-1.052,4.281-5,3c-2.367-7.632-4.6-15.4-13-17
		c-2.312,3.291,5.212,3.657,7,6c-4.695,8.676-20.521-2.314-16-12c3.458-0.792,4.222,1.112,6,2c-4.027-5.127-9.762-7.584-18-8
		c-2.375,0.625,0.155,6.155-2,7c-5.547,1.214-6.075-2.592-9-4c-3.73,1.936-7.38,3.953-13,4c-0.396,2.396,4.555-0.555,3,3
		c-3.924,0.257-6.36-0.973-8-3c-40.446,2.554-67.252,18.748-91,38c-7.304,6.665-18.175,14.076-16,27c-1.349,1.985-6.981-0.315-7,3
		c-0.529,0.804-1.043,1.624-1,3c-3.781,3.107-2.28,5.554-1,10c-2.863-0.197-5.458-0.125-5,3c-2.418,7.582-5.718,14.281-6,24
		c-2.295,2.039-0.362,8.305-1,12c0,1,0,2,0,3c1.526,3.621-0.833,8.172,0,14c0,0.333,0,0.667,0,1C641.667,470,641.333,470,641,470z
		 M990,696c0.475-3.141-1.247-4.086-3-5C986.803,693.863,986.876,696.458,990,696z M986,785c1.333,0,2.667,0,4,0
		c-0.575-1.758,1.209-5.875-1-6C989.384,782.384,984.573,780.573,986,785z M988,810c-2.58-0.086-1.052-4.281-5-3
		C982.263,809.832,986.287,812.919,988,810z M980,829c2.091,0.576,2.854,2.479,6,2c0-2.333,0-4.667,0-7
		C982.14,823.806,980.254,825.588,980,829z M980,593c1.973-1.079,1.708-8.296-2-7C977.08,588.515,976.081,592.859,980,593z"/>
	<path fill-rule="evenodd" clip-rule="evenodd" fill="#C817F3" d="M679,370c23.748-19.252,50.554-35.446,91-38
		c1.64,2.027,4.076,3.257,8,3c1.555-3.555-3.396-0.604-3-3c5.62-0.047,9.27-2.064,13-4c2.925,1.408,3.453,5.214,9,4
		c2.155-0.845-0.375-6.375,2-7c8.238,0.416,13.973,2.873,18,8c-1.778-0.888-2.542-2.792-6-2c-4.521,9.686,11.305,20.676,16,12
		c-1.788-2.343-9.312-2.709-7-6c8.4,1.6,10.633,9.368,13,17c3.948,1.281,2.42-2.914,5-3c-0.319,2.319,0.161,3.839,1,5
		c4.729-1.754,4.561,1.316,10,1c4.188,12.44,26.583,14.072,23,28c2.104,2.435,4.445-0.886,6,1c10.823,14.177,21.606,28.394,31,44
		c0.409,2.409-1.826,2.174-1,5c8.651,3.682,13.266,11.401,15,22c3.801-0.31,6.938,4.571,5,10c4.57-0.864,2.727,4.067,4,6
		c0.854,1.295,3.09,1.635,4,3c3.791,5.685,5.643,13.528,4,18c5.123,1.849,8.599,11.558,5,16c6.815-0.436,4.075,7.965,5,16
		c2.503,1.32,3.131-3.954,4-1c6.369,6.319-1.164,11.457,0,17c18.544,3.404-4.225,22.721,6,28c2.351-2.319-3.004-4.492,1-6
		c3.644,3.023,4.481,8.852,6,14c-1.182-1.151-3.535-1.132-6-1c0.204,3.129-0.675,7.341,1,9c4.921,1.587,1.5-5.167,6-4
		c-2.294,6.972-0.338,12.6,3,18c-1.16-0.839-2.681-1.319-5-1c-1.354,3.448,0.878,8.127,2,12c3.369,1.186,4.268-3.545,9,0
		c0.406,13.757,3.653,26.178,1,35c8.299,8.368,7.136,26.198,11,39c-1.778,0.888-2.542,2.792-6,2c1.573-4.288,3.337-8.794-3-9
		c-0.1,4.941,1.42,18.892,5,26c-3.555-1.555-0.604,3.396-3,3c2.936,57.709-2.656,96.364-7,150c1.182,0.485,2.267,1.066,3,2
		c-2.729,0.729-2.013-1.987-4-2c1.141-11.318,2.52-16.682,1-28c-1.122-0.102-1.557,1.453-2,0c-1.85,0.15-0.613,3.387-2,4
		c-2.342-3.068-0.971-0.776-3,1c-1.795,0.129-2.34-0.993-2-3c-4.947,6.629-13.907,7.771-19,13c-8.985,1.972-21.158-3.07-27-10
		c12.767,5.936,29.213,0.64,29-12c-0.161-9.573-8.947-15.144-19-13c-5.969,1.272-7.908,9.318-14,10
		c5.359-11.307,17.302-16.031,28-22c0.779,0.221,1.162,0.838,1,2c6.985-27.532,1.548-71.527,8-97c-0.915-6.184,0.223-12.628,2-17
		c-1.122-0.102-1.557,1.454-2,0c-0.054-1.871,0.77-2.117,2-1c-0.49-5.482-2.424-4.175,1-8c-4.599-11.097,10.102-17.539,4-26
		c4.756-0.767,3.391-2.804,6-7c-11.365-7.612,2.997-14.738-6-23c0.239-1.427,1.646-1.687,2-3c-0.239-1.535-1.646-0.147-2,1
		c-6.267-11.963-14.628-15.643-19-26c-0.779,0.221-1.163,0.837-1,2c-1.684-1.666-4.274-5.432-2-8c-1.759,0.241-2.279,1.721-2,4
		c-2.318-0.279-2.299-2.671-1-4c-9.952-5.638-16.654-26.855-26-39c-2.145-2.787-6.914-3.92-3-4c-6.956-12.68-17.529-26.009-25-41
		c-1.333,0-2.667,0-4,0c-18.354-26.979-51.098-39.569-67-69c-16.341-6.326-22.091-23.242-38-30c0.483-3.15-3.069-2.264-2-6
		c-11.172-3.04-20.445-15.833-33-14c-0.187-2.813-1.74-4.26-5-4c-0.396,2.396,4.555-0.555,3,3c-1.003,0.003-1.19-0.81-2-1
		c-0.095,4.371,5.277,13.659,6,23c0.525-13.337-23.426-23.354-38-15c6.051-5.282,14.704-7.963,23-11c-0.658-1.342-2.138-1.862-4-2
		c2.928-2.536,6.152,3.138,11,2c-13.05-7.734-26.142-14.185-36-18C688.212,361.878,683.338,365.671,679,370z M801,329
		c-0.977,4.027,5.977,4.027,5,0C804.096,327.126,803.487,328.891,801,329z M790,337c2.635,0.301,3.282-1.385,3-4c-1,0-2,0-3,0
		C790,334.333,790,335.667,790,337z M829,451c7.02,1.097,13.989,4.899,22,2C875.52,421.382,812.263,415.535,829,451z"/>
	<path fill-rule="evenodd" clip-rule="evenodd" fill="#B114D8" d="M920,834c5.842,6.93,18.015,11.972,27,10
		c5.093-5.229,14.053-6.371,19-13c-0.34,2.007,0.205,3.129,2,3c2.029-1.776,0.658-4.068,3-1c1.387-0.613,0.15-3.85,2-4
		c0.443,1.453,0.878-0.102,2,0c1.52,11.318,0.141,16.682-1,28c1.987,0.013,1.271,2.729,4,2c1.583,0.083,3.814-0.48,4,1
		c0,0.334,0,0.666,0,1c-1.474,3.988-2.152,1.851-6,1c0-0.333,0-0.667,0-1c-5.5,5.167-6.882,14.451-9,23c0.857,3.19-1.574,3.093-2,5
		c-0.622,8.045-8.335,8.998-9,17c-12.529-2.011-24.14,20.433-12,31c-1.297,3.036-1.885,6.781-3,10
		c-12.594,22.769-29.413,46.548-39,69c-3.146-1.146-2.43,1.57-4,2c3-4.666,6.394-8.939,8-15c-20.901-6.233-25.456-31.459-25-49
		c0.904-35.754,12.739-84.002,26-126c0.044-1.711-0.743-2.59-2-3c19.932-42.534,28.788-114.372,0-160
		c-10.006,3.994-6.85,21.151-16,26c0,1.667,0,3.333,0,5c-5.489,3.844-9.148,9.518-14,14c8.614-12.052,20.277-21.056,22-40
		c2.691-2.975,6.123-5.21,8-9c-7.909-15.192-24.445,5.976-42,9c-5.835,1.005-8.454-0.787-11,3c0.24-4.759,5.817-4.183,11-4
		c9.566-5.767,22.808-7.859,31-15c2.333,0,4.667,0,7,0c-5.233-30.501-27.156-59.845-30-96c-2.658,3.342-4.262,7.739-8,10
		c4.974-5.249,7.31-11.428,1-17c-7.144-0.144-10.607,3.392-13,8c0.361-6.639,6.168-7.832,11-10c-11.305-36.841-36.72-64.254-58-94
		c-3.925-2.519-8.958-4.562-13-8c-12.748-10.841-22.49-24.062-37-30c-14.35-5.872-21.686,4.224-38,6c-2.925-1.741-6.188-3.146-9-5
		c-4.257-0.591-6.614,0.719-10,1c-2.316-1.684-2.453-5.547-5-7c2.261-4.406,3.35-8.122,2-12c-3.681-10.578-21.708-9.298-28-13
		c-2.688,3.75-0.533,7.333-2,11c-2.288,1.045-6.032,0.635-8,2c0.019-3.315,5.651-1.015,7-3c-2.175-12.924,8.696-20.335,16-27
		c4.338-4.329,9.212-8.122,16-10c9.858,3.815,22.95,10.266,36,18c-4.848,1.138-8.072-4.536-11-2c1.862,0.138,3.342,0.658,4,2
		c-8.296,3.037-16.949,5.718-23,11c-6.834,5.965-8.347,21.915-4,29c6.63-0.037,8.608-4.726,15-5c-0.33,4.33,1.378,6.622,4,8
		c4.183-0.484,7.762-1.572,11-3c-0.975-4.216-1.23-5.058,1-8c5.002,1.883,7.585-0.777,11-3c0-1,0-2,0-3
		c-0.723-9.341-6.095-18.629-6-23c0.81,0.19,0.997,1.003,2,1c1.555-3.555-3.396-0.604-3-3c3.26-0.26,4.813,1.187,5,4
		c12.555-1.833,21.828,10.96,33,14c-1.069,3.736,2.483,2.85,2,6c15.909,6.758,21.659,23.674,38,30
		c15.902,29.431,48.646,42.021,67,69c1.333,0,2.667,0,4,0c7.471,14.991,18.044,28.32,25,41c-3.914,0.08,0.855,1.213,3,4
		c9.346,12.145,16.048,33.362,26,39c-1.299,1.329-1.318,3.721,1,4c-0.279-2.279,0.241-3.759,2-4c-2.274,2.568,0.316,6.334,2,8
		c-0.163-1.163,0.221-1.779,1-2c4.372,10.357,12.733,14.037,19,26c0.354-1.147,1.761-2.535,2-1c-0.354,1.313-1.761,1.573-2,3
		c8.997,8.262-5.365,15.388,6,23c-2.609,4.196-1.244,6.233-6,7c6.102,8.461-8.599,14.903-4,26c-3.424,3.825-1.49,2.518-1,8
		c-1.23-1.117-2.054-0.871-2,1c0.443,1.454,0.878-0.102,2,0c-1.777,4.372-2.915,10.816-2,17c-6.452,25.473-1.015,69.468-8,97
		c0.162-1.162-0.221-1.779-1-2c-10.698,5.969-22.641,10.693-28,22c-2.507,0.826-3.163,3.503-5,5
		C912.631,828.702,915.96,831.706,920,834z M937,630c3.185,2.027,7.053-7.076,3-10c2.545-0.122,3.878-1.456,4-4
		c0.409-2.409-1.826-2.174-1-5c-9.671-3.996-14.457-1.268-22,1c-1.191,2.787-1.145,6.085,1,8c0,1,0,2,0,3
		C925.778,626.555,931.079,628.587,937,630z M686,370c2.544-0.122,3.878-1.456,4-4c-1.352-0.314-1.91-1.423-4-1
		C684.717,366.314,684.717,368.686,686,370z"/>
	<path fill-rule="evenodd" clip-rule="evenodd" fill="#C817F3" d="M686,365c2.09-0.423,2.648,0.686,4,1
		c-0.122,2.544-1.456,3.878-4,4C684.717,368.686,684.717,366.314,686,365z"/>
	<path fill-rule="evenodd" clip-rule="evenodd" fill="#C817F3" d="M967,884c2.118-8.549,3.5-17.833,9-23c0,0.333,0,0.667,0,1
		C971.198,867.531,970.543,877.209,967,884z"/>
	<path fill-rule="evenodd" clip-rule="evenodd" fill="#C817F3" d="M965,889c0.96,10.562-10.967,10.361-7,21
		c-4.771,6.289-13.984,10.987-10,23c-3.201,3.799-3.929,10.071-7,14c1.115-3.219,1.703-6.964,3-10c-12.14-10.567-0.529-33.011,12-31
		C956.665,897.998,964.378,897.045,965,889z"/>
	<path fill-rule="evenodd" clip-rule="evenodd" fill="#B114D8" d="M849,565c-3.023,7.977-6.661,15.338-15,18
		c0.241-1.759,1.721-2.279,4-2C841.338,575.338,845.904,570.904,849,565z"/>
	<path fill-rule="evenodd" clip-rule="evenodd" fill="#B114D8" d="M758,646c-5.217-23.13,8.921-32.911,20-43
		c5.156-4.695,11.576-10.358,16-12c12.859-4.774,27.94,2.357,35-6c-8.143,11.643-28.603,5.994-41,15c-3.435,2.495-7.161,6.861-11,10
		C766.19,618.84,757.627,625.436,758,646z"/>
	<path fill-rule="evenodd" clip-rule="evenodd" fill="#9811BA" d="M758,646c3.967,3.457-2.784,10.823,3,15
		c6.533,0.866,6.365-4.968,10-7c9.069,13.294,34.339,12.69,48,4c18.073-3.852,30.849-35.785,13-49c-1.544-2.123-2.877-4.456-4-7
		c2.509-1.157,3.349-3.985,7-4c-4.378,3.351-3.274,10.597,2,12c9.555-7.446,18.73-15.27,24-27c-0.227-1.274-2.984-1.311-3,0
		c-0.334,0-0.666,0-1,0c3.021-3.979,2.456-11.543,6-15c3.738-2.261,5.342-6.658,8-10c2.844,36.155,24.767,65.499,30,96
		c-2.333,0-4.667,0-7,0c-8.192,7.141-21.434,9.233-31,15c-5.183-0.183-10.76-0.759-11,4c0.184,0.851-0.39,0.943-1,1
		c-0.871,2.795-2.596,4.738-5,6c0.169,2.168-3.547,0.453-5,1c-11.448-2.107-20.174,7.154-27,13c-2.871,0.955-0.652,3.319-2,4
		c-3.509,0.665-7.066,0.709-11,3c-3.767,0.9-9.035,0.298-12,2c-16.204,4.353-30.691,4.494-44,12c-10.803-1.541-22.442,4.033-27,12
		c4.007,5.245,11.787,3.777,19,2c12.83-3.161,32.805-10.251,47-15c4.104-1.373,10.911-3.196,14-3c7.247,0.459,14.618,7.771,22,10
		c18.219,5.502,47.555,2.673,55-11c4.852-4.482,8.511-10.156,14-14c0-1.667,0-3.333,0-5c9.15-4.849,5.994-22.006,16-26
		c28.788,45.628,19.932,117.466,0,160c1.257,0.41,2.044,1.289,2,3c-13.261,41.998-25.096,90.246-26,126
		c-0.456,17.541,4.099,42.767,25,49c-1.606,6.061-5,10.334-8,15c-5.662,10.527-8.792,18.027-17,25c1.567-5.433,6.735-7.265,8-13
		c-28.336-23.855-65.975-40.289-97-47c-3.104-1.283,2.837-1.283,3,0c-6.32-5.557-20.838-4.235-28-15c-0.973,0.027-0.776,1.225-1,2
		c-4.123-6.517-22.221-11.286-25-19c-0.437-1.484-1.28,0.395-3,0c1.156-4.803-13.289-12.162-11-21c-7.047-0.377-4.324-9.595-9-15
		c3.675-2.762,0.031-7.835,2-11c-1.794-0.127-2.109,1.225-4,1c-2.554-10.538,1.052-18.791-3-25c0.353-1.567,1.761,0.876,2-1
		c-4.092-12.802-0.443-26.313-2-39c-0.085-3.233-1.127-7.828-3-14c3.935,1.682,1.841-4.046,1-11c3.292,2.03-0.194-10.397,2-12
		c-0.437-1.484-1.28,0.395-3,0c-0.56-4.21,2.612-13.01-3-19c0.858-12.253,6.391-15.292,0-23c-5.16,3.821-8.011,6.602-13,2
		c1.662-2.005,2.685-4.648,6-5c-1.091-3.239-6.458,2.69-8-1c14.85-0.149,18.209-11.791,21-24c-3.125-11.334-24.39-15.591-33-7
		c-4.514-0.181-2.668,5.999-7,6c0.532-2.801,1.468-5.199,2-8c-3.141-1.664-4.086,3.719-5,1c1.106-6.113,5.244-3.259,7-9
		c0.318-2.652-5.602,0.936-4-3c2.977,1.325,5.074,1.025,7-1c-1.137-6.359,1.682-10.463-2-14c6.897,0.82,1.363,7.92,5,12
		c6.648-1.627,8.052-3.19,14-2c0.652-2.422,0.021-4.422-2-6c17.371-7.629,39.622-10.378,43-32c-8.568,3.099-11.513,11.82-22,13
		c10.753-4.247,16.959-13.041,25-20c17.573-29.648-19.29-56.069-48-43c-0.333,0-0.667,0-1,0c-6.818,0.429-7.204,0.593-11-2
		c-3.059-0.726-2.941,1.726-6,1c0.231-6.103-1.637-14.304,6-13c-3.416,2.462-0.141,5.671,3,7c2.909-9.74-6.636-12.459-11-14
		c0-0.333,0-0.667,0-1c-1.108-8.004-2.68-12.717,0-20c-1.862-0.956-3.342,2.995-4,0c-4.679-15.654-10.505-30.162-14-47
		c3.808,0.475,6.242-0.424,7-3c-1.122-0.211-1.557-1.11-2-2c0-0.667,0-1.333,0-2c-4.146-1.146-3.896,2.104-7,2
		c-0.004-2.717,4.205-4.683,0-6c-7.389-4.611-6.508-17.492-11-25c1.227-1.773,3.103-2.897,4-5c-0.311-3.708-6.482-10.169-4-20
		c0-0.333,0-0.667,0-1c0.627-3.559,3.776-12.348,0-14c0-1,0-2,0-3c2.295-2.039,0.362-8.305,1-12c0.282-9.719,3.582-16.418,6-24
		c0.973-0.027,0.776-1.224,1-2c2.319,0.319,3.839-0.161,5-1c1.382-4.048-2.17-3.163-2-6c1.342-0.658,1.862-2.138,2-4
		c-0.043-1.376,0.471-2.196,1-3c1.968-1.365,5.712-0.955,8-2c1.467-3.667-0.688-7.25,2-11c6.292,3.702,24.319,2.422,28,13
		c1.35,3.878,0.261,7.594-2,12c2.547,1.453,2.684,5.316,5,7c3.386-0.281,5.743-1.591,10-1c2.812,1.854,6.075,3.259,9,5
		c16.314-1.776,23.65-11.872,38-6c14.51,5.938,24.252,19.159,37,30c4.042,3.438,9.075,5.481,13,8c21.28,29.746,46.695,57.159,58,94
		c-4.832,2.168-10.639,3.361-11,10c0.207,2.874-0.254,5.08-2,6c-3.096,5.904-7.662,10.338-11,16c-2.279-0.279-3.759,0.241-4,2
		c-0.85,1.483-2.517,2.15-5,2c-7.06,8.357-22.141,1.226-35,6c-4.424,1.642-10.844,7.305-16,12
		C766.921,613.089,752.783,622.87,758,646z M769,657c-0.013,1.987-2.729,1.271-2,4c11.955,16.344,46.756,20.479,55-2
		C802.88,670.57,782.301,667.653,769,657z M804,717c-20.278-1.889-35.104,5.209-50,9c-9.35,2.379-18.779,1.467-26,7
		c13.636,10.238,30.122-2.777,40-6c16.662-5.436,43.052-6.357,55,1c3.368-2.631,11.102-0.898,14-4
		C824.42,726.107,815.493,718.07,804,717z M651,454c0.464-3.131-0.869-4.464-4-4c0,1.333,0,2.667,0,4
		C648.333,454,649.667,454,651,454z M648,497c0.122,2.544,1.456,3.878,4,4C654.673,498.683,650.79,493.854,648,497z M694,500
		c-2.359-1.307-6.911-0.422-9-2c-1.656,2.269-5.185,3.214-6,5c-4.522,9.907,4.188,14.193,12,17c3.88-0.12,5.053-2.947,7-5
		C698.954,511.683,698.035,501.654,694,500z M655,511c1.363-1.273,1.544-4.898-1-5C653.696,508.333,651.865,510.309,655,511z
		 M656,520c1.333,0,2.667,0,4,0c0-1.333,0-2.667,0-4C657.244,512.888,652.888,517.244,656,520z M692,524c0.015-3.072-5.85-5.407-7-4
		C687.903,520.763,687.594,524.739,692,524z M666,540c0-0.667,0-1.333,0-2c-1.904-1.874-2.512-0.109-5,0
		c-1.795-0.129-2.34,0.993-2,3C659.835,541.851,666.815,543.74,666,540z M670,551c-1.381-4.811-3.178-2.987-5-7
		c2.182-0.637,3.182,2.834,3-1c-1.333,0-2.667,0-4,0c-1.251,5.186-1.941,5.925-1,12c1.333,0,2.667,0,4,0
		C670.228,555.895,668.405,551.738,670,551z M779,554c-4.172-4.496-16.364-1.517-19,2c-5.128,2.218-16.075,0.155-21,5
		c4.246,9.89,19.231-3.149,28-3c3.688,0.062,10.884,3.408,12-3C779,554.667,779,554.333,779,554z M713,561
		c-1.706-2.6-7.016-0.428-8,1c-0.197,2.863-0.125,5.458,3,5c0.333,0,0.667,0,1,0c2.144,3.759,5.507,0.354,10,1
		c5.076-1.924,13.094-0.906,15-6c-2.631-1.036-6.137-1.197-10-1c-3.333,0-6.667,0-10,0C713.667,561,713.333,561,713,561z M731,567
		c-3.146-1.146-2.43,1.57-4,2c-4.929,0.071-10.848-0.848-11,4C721.263,576.729,736.601,564.495,731,567z M778,574
		c4.129-1.871,10.182-1.819,9-9c-7.412,1.254-11.824,5.509-21,5c-3.129,0.205-7.341-0.675-9,1c-0.449,4.159,4.834,7.775,8,5
		c0.261-1.556,2.193-0.693,3,0C773.302,577.302,773.104,573.103,778,574z M737,577c-10.035,6.922-18.403-5.093-27,2
		c-4.366-1.675-14.006-5.049-13,4c12.261,3.001,19.868-1.327,30,3c6.276-6.694,16.493-0.017,21-6
		C751.266,576.664,738.962,575.108,737,577z M737,588c-10.637,1.036-20.222-4.494-28-2c16.754,13.118,37.46,2.974,54,0
		c6.493-1.167,13.46,1.471,16-5C764.044,578.483,750.838,586.653,737,588z M681,593c-0.039-3.294,0.409-7.076-3-7
		C675.971,588.323,680.425,590.226,681,593z M873,717c0.798-2.869,6.705-0.628,6-5C874.621,710.678,871.443,715.7,873,717z"/>
	<path fill-rule="evenodd" clip-rule="evenodd" fill="#B114D8" d="M819,658c15.971-7.224,28.816-32.738,13-49
		C849.849,622.215,837.073,654.148,819,658z"/>
	<path fill-rule="evenodd" clip-rule="evenodd" fill="#B114D8" d="M851,674c0,1.667,0,3.333,0,5c-2.409-0.409-2.174,1.826-5,1
		C848.404,678.738,850.129,676.795,851,674z"/>
	<path fill-rule="evenodd" clip-rule="evenodd" fill="#B114D8" d="M841,681c-12.926,0.407-18.188,8.479-27,13
		C820.826,688.154,829.552,678.893,841,681z"/>
	<path fill-rule="evenodd" clip-rule="evenodd" fill="#B114D8" d="M789,703c2.965-1.702,8.233-1.1,12-2
		C798.399,703.066,793.787,703.121,789,703z"/>
	<path fill-rule="evenodd" clip-rule="evenodd" fill="#770F91" d="M652,800c3.41-5.59,8.025-9.975,10-17
		c0.301-2.635-1.385-3.282-4-3c0.718-3.282,4.896-3.104,5-7c-2.199-3.801-4.888-7.112-5-13c1.768-1.857,2.919,0.435,5,1
		c4.026-4.214,5.52-12.006,6-17c1.881,2.452,3.626,5.041,7,6c3.496,4.171,10.288,5.045,16,7c1.542,3.69,6.909-2.239,8,1
		c-3.315,0.352-4.338,2.995-6,5c4.989,4.602,7.84,1.821,13-2c6.391,7.708,0.858,10.747,0,23c5.612,5.99,2.44,14.79,3,19
		c1.72,0.395,2.563-1.484,3,0c-2.194,1.603,1.292,14.03-2,12c0.841,6.954,2.935,12.682-1,11c1.873,6.172,2.915,10.767,3,14
		c1.557,12.687-2.092,26.198,2,39c-0.239,1.876-1.647-0.567-2,1c4.052,6.209,0.446,14.462,3,25c1.891,0.225,2.206-1.127,4-1
		c-1.969,3.165,1.675,8.238-2,11c4.676,5.405,1.953,14.623,9,15c-2.289,8.838,12.156,16.197,11,21c1.72,0.395,2.563-1.484,3,0
		c2.779,7.714,20.877,12.483,25,19c0.224-0.775,0.027-1.973,1-2c7.162,10.765,21.68,9.443,28,15c-0.163-1.283-6.104-1.283-3,0
		c31.025,6.711,68.664,23.145,97,47c-1.265,5.735-6.433,7.567-8,13c-6.364,10.636-21.534,12.466-26,25
		c-7.396,0.938-10.346,6.32-15,10c4.196-9.138,15.786-10.88,20-20c-2.805-4.579-8.459-5.939-13-8c-15.605-7.081-32.317-18.795-49-20
		c-10.958-0.791-15.157,2.845-22,2c-11.698-1.444-13.768-7.862-24-17c-6.526-5.828-20.281-10.223-31-13
		c-0.896-4.753-8.58-3.479-11-9c-5.361,1.187-16.249-7.531-16-9c-9.919-5.217-17.544-7.516-23-16c-0.807,0.86-2.739,0.594-3,2
		c-6.548-5.995-18.249-12.41-26-13c-1.401-0.354-0.086-1.761,1-2c-6.012-3.764-16.499,3.575-22-3c-1.54,2.267-2.46,2.267-4,0
		c-3.707,2.534-11.742,3.809-19,6c2.862,5.364-2.643,7.867-1,15c4.489,4.595,9.477,7.968,11,14c3.179,12.592-6.456,21.489-10,32
		c1.068,1.344,6.32,3.574,3,6c-3.022-5.685-7.03-9.63-2-16c4.053-6.454,2.344-23.272-5-27c2.827-14.834,1.15-21.851,1-35
		c3.044,0.045,3.889-2.111,6-3c-0.626-13.544,8.911-12.729,6-27c11.235-3.963,2.365-22.4,14-25c-1.486-3.745-1.647-3.022-1-8
		c8.32-10.182,9.946-25.673,17-39c0.396-2.396-4.555,0.555-3-3c10.153-8.505,3.44-27.806,17-33
		C650.368,805.354,649.785,802.767,652,800z M694,895c18.4,5.854,19.644-34.655-6-25c-2.672,4.946-6.171,11.908-1,17
		C689.084,889.916,690.838,893.162,694,895z M772,1024c31.135,10.146,32.043-50.436-2-39C755.038,993.767,758.738,1019.678,772,1024
		z"/>
	<path fill-rule="evenodd" clip-rule="evenodd" fill="#B114D8" d="M680,726c8.61-8.591,29.875-4.334,33,7
		C708.482,722.863,689.293,719.996,680,726z"/>
	<path fill-rule="evenodd" clip-rule="evenodd" fill="#B114D8" d="M693,620c28.71-13.069,65.573,13.352,48,43
		C751.06,632.557,724.151,614.594,693,620z"/>
	<path fill-rule="evenodd" clip-rule="evenodd" fill="#B114D8" d="M681,618c3.796,2.593,4.182,2.429,11,2
		c-1.583,2.083-6.996,0.337-9,2C684.146,618.854,681.43,619.57,681,618z"/>
	<path fill-rule="evenodd" clip-rule="evenodd" fill="#B114D8" d="M653,520c4.205,1.317-0.004,3.283,0,6
		c3.104,0.104,2.854-3.146,7-2c0,0.667,0,1.333,0,2c-2.916-3.888-5.913,3.314-7,1C649.471,523.896,656.078,522.654,653,520z"/>
	<path fill-rule="evenodd" clip-rule="evenodd" fill="#B114D8" d="M642,470c-2.482,9.831,3.689,16.292,4,20
		c-0.926-2.74-2.42-4.913-5-6c0-4.333,0-8.667,0-13c0-0.333,0-0.667,0-1C641.333,470,641.667,470,642,470z"/>
	<path fill-rule="evenodd" clip-rule="evenodd" fill="#B114D8" d="M655,403c-0.138,1.862-0.658,3.342-2,4
		c-0.17,2.837,3.382,1.952,2,6c-1.161,0.839-2.681,1.319-5,1c-0.224,0.776-0.027,1.973-1,2c-0.458-3.125,2.137-3.197,5-3
		C652.72,408.554,651.219,406.107,655,403z"/>
	<path fill-rule="evenodd" clip-rule="evenodd" fill="#B114D8" d="M642,469c-0.833-5.828,1.526-10.379,0-14
		C645.776,456.652,642.627,465.441,642,469z"/>
	<path fill-rule="evenodd" clip-rule="evenodd" fill="#B114D8" d="M647,454c0-1.333,0-2.667,0-4c3.131-0.464,4.464,0.869,4,4
		C649.667,454,648.333,454,647,454z"/>
	<path fill-rule="evenodd" clip-rule="evenodd" fill="#B114D8" d="M652,501c-2.544-0.122-3.878-1.456-4-4
		C650.79,493.854,654.673,498.683,652,501z"/>
	<path fill-rule="evenodd" clip-rule="evenodd" fill="#B114D8" d="M694,500c4.035,1.654,4.954,11.683,4,15
		c0.505-5.838-3.418-7.249-2-14C695.224,500.776,694.027,500.972,694,500z"/>
	<path fill-rule="evenodd" clip-rule="evenodd" fill="#F594DE" d="M660,516c0,1.333,0,2.667,0,4c-1.333,0-2.667,0-4,0
		C652.888,517.244,657.244,512.888,660,516z"/>
	<path fill-rule="evenodd" clip-rule="evenodd" fill="#B114D8" d="M661,538c-3.75,3.325,3.49,3.935,5,2c0.815,3.74-6.165,1.851-7,1
		C658.66,538.993,659.205,537.871,661,538z"/>
	<path fill-rule="evenodd" clip-rule="evenodd" fill="#B114D8" d="M667,555c-1.333,0-2.667,0-4,0c-0.941-6.075-0.251-6.814,1-12
		c1.333,0,2.667,0,4,0c0.182,3.834-0.818,0.363-3,1c1.822,4.013,3.619,2.189,5,7c-1.912-1.421-2.868-3.799-6-4
		c-2.255,2.162,0.828,3.411,0,7C665.419,553.914,666.832,553.835,667,555z"/>
	<path fill-rule="evenodd" clip-rule="evenodd" fill="#B114D8" d="M760,556c2.636-3.517,14.828-6.496,19-2
		C772.75,551.042,764.777,554.23,760,556z"/>
	<path fill-rule="evenodd" clip-rule="evenodd" fill="#B114D8" d="M708,567c-3.125,0.458-3.197-2.137-3-5c0.984-1.428,6.294-3.6,8-1
		c-2.656,0.01-5.711-0.378-7,1C705.146,565.188,706.871,565.795,708,567z"/>
	<path fill-rule="evenodd" clip-rule="evenodd" fill="#B114D8" d="M709,567c3.062,2.666,7.248-1.975,10,1
		C714.507,567.354,711.144,570.759,709,567z"/>
	<path fill-rule="evenodd" clip-rule="evenodd" fill="#770F91" d="M716,573c0.152-4.848,6.071-3.929,11-4c1.57-0.43,0.854-3.146,4-2
		C736.601,564.495,721.263,576.729,716,573z"/>
	<path fill-rule="evenodd" clip-rule="evenodd" fill="#B114D8" d="M766,570c-0.488,3.179-9.015-1.682-8,3
		c2.384,0.95,2.966,3.701,7,3c-3.166,2.775-8.449-0.841-8-5C758.659,569.325,762.871,570.205,766,570z"/>
	<path fill-rule="evenodd" clip-rule="evenodd" fill="#B114D8" d="M778,574c-4.896-0.897-4.698,3.302-10,2
		C770.721,575.338,774.93,570.996,778,574z"/>
	<path fill-rule="evenodd" clip-rule="evenodd" fill="#B114D8" d="M737,577c1.962-1.892,14.266-0.336,11,3
		C746.839,576.494,740.854,577.813,737,577z"/>
	<path fill-rule="evenodd" clip-rule="evenodd" fill="#770F91" d="M835,598c7.061-5.273,15.765-8.902,22-15c0.334,0,0.666,0,1,0
		c0.016-1.311,2.773-1.274,3,0c-5.27,11.73-14.445,19.554-24,27C831.726,608.597,830.622,601.351,835,598z M836,607
		c5.114-1.22,8.668-3.999,9-10C839.445,593.618,832.294,601.121,836,607z"/>
	<path fill-rule="evenodd" clip-rule="evenodd" fill="#9811BA" d="M679,693c0.982-1.352,2.668-1.999,4-3
		c-0.108-4.294-2.042-7.363,1-10c2.84,0.493,1.439,5.227,6,4C683.764,684.431,684.833,692.167,679,693z"/>
	<path fill-rule="evenodd" clip-rule="evenodd" fill="#C817F3" d="M937,630c1.935-1.398,2.965-3.701,4-6
		c-1.757-0.91-1.829-3.504-3-5c4.25,0.917,4.271-2.396,4-6c-6.171-4.692-14.881-2.167-21,1c-0.726,3.059,1.726,2.941,1,6
		c-2.145-1.915-2.191-5.213-1-8c7.543-2.268,12.329-4.996,22-1c-0.826,2.826,1.409,2.591,1,5c-0.122,2.544-1.455,3.878-4,4
		C944.053,622.924,940.185,632.027,937,630z"/>
	<path fill-rule="evenodd" clip-rule="evenodd" fill="#F594DE" d="M794,646c-15.527,0.177-10.01-26.1,4-20
		C782.736,623.659,781.99,644.325,794,646z"/>
	<path fill-rule="evenodd" clip-rule="evenodd" fill="#F594DE" d="M795,646c11.021,1.652,13.771-16.908,4-19c0-0.333,0-0.667,0-1
		C810.87,627.697,805.864,650.659,795,646z"/>
	<path fill-rule="evenodd" clip-rule="evenodd" fill="#560D67" d="M794,646c-12.01-1.675-11.264-22.341,4-20c0.333,0,0.667,0,1,0
		c0,0.333,0,0.667,0,1c9.771,2.092,7.021,20.652-4,19C794.667,646,794.333,646,794,646z M796,633c1.278,1.368,4.722,1.368,6,0
		c0.075-1.742-0.224-3.11-1-4C797.582,628.582,795.302,629.302,796,633z"/>
	<path fill-rule="evenodd" clip-rule="evenodd" fill="#F594DE" d="M801,629c0.776,0.89,1.075,2.258,1,4
		c-1.278,1.368-4.722,1.368-6,0C795.302,629.302,797.582,628.582,801,629z M797,633c1.333,0,2.667,0,4,0c0-1,0-2,0-3
		C798.385,629.718,796.698,630.365,797,633z"/>
	<path fill-rule="evenodd" clip-rule="evenodd" fill="#F594DE" d="M697,653c2.418-11.21,21.869-7.617,21,4c-0.333,0-0.667,0-1,0
		C717.337,646.073,700.372,643.744,697,653z"/>
	<path fill-rule="evenodd" clip-rule="evenodd" fill="#F594DE" d="M697,654c-3.277,14.712,19.042,15.456,20,4
		C717.496,672.68,690.142,667.652,697,654z"/>
	<path fill-rule="evenodd" clip-rule="evenodd" fill="#F594DE" d="M713,652c0.595,4.262-4.221,3.113-6,5
		c-1.137-0.881,0.167-7.776,4-7C711.443,650.89,711.878,651.789,713,652z M708,655c2.615,0.282,4.301-0.365,4-3
		c-1.278-0.055-1.385-1.282-3-1C708.686,652.352,707.576,652.91,708,655z"/>
	<path fill-rule="evenodd" clip-rule="evenodd" fill="#B114D8" d="M888,670c0,1.333,0,2.667,0,4
		C884.149,674.788,884.149,669.212,888,670z"/>
	<path fill-rule="evenodd" clip-rule="evenodd" fill="#770F91" d="M879,712c0.705,4.372-5.202,2.131-6,5
		C871.443,715.7,874.621,710.678,879,712z"/>
	<path fill-rule="evenodd" clip-rule="evenodd" fill="#560D67" d="M601,1025c3.32-2.426-1.932-4.656-3-6
		c3.544-10.511,13.179-19.408,10-32c-1.523-6.032-6.511-9.405-11-14c-1.643-7.133,3.862-9.636,1-15c7.258-2.191,15.293-3.466,19-6
		c1.54,2.267,2.46,2.267,4,0c5.501,6.575,15.988-0.764,22,3c-1.086,0.239-2.401,1.646-1,2c7.751,0.59,19.452,7.005,26,13
		c0.261-1.406,2.193-1.14,3-2c5.456,8.484,13.081,10.783,23,16c-0.249,1.469,10.639,10.187,16,9c2.42,5.521,10.104,4.247,11,9
		c10.719,2.777,24.474,7.172,31,13c10.232,9.138,12.302,15.556,24,17c6.843,0.845,11.042-2.791,22-2
		c16.683,1.205,33.395,12.919,49,20c4.541,2.061,10.195,3.421,13,8c-4.214,9.12-15.804,10.862-20,20
		c-15.761,9.382-33.691,16.676-51,20c-2.688-1.97-9.849,0.113-13,1c-2.678,2.17-4.54,1.354-8,1c-3.643-0.31-6.508,0.159-9,1
		c-3.868-0.535-4.882,1.785-9,1c-6.138-1.137-9.649,4.556-15,1c-1.182-0.484-2.267-1.066-3-2c-3.025-2.308-10.314-0.353-15-1
		c-14.013-4.458-29.659-2.121-39-12c-3.664,0.003-2.653,4.68-8,3c6.319-7.922-7.44-16.176-12-9c0.43,1.57,3.146,0.854,2,4
		c-0.804-0.529-1.624-1.043-3-1c-7.663-5.004-16.029-9.304-24-14c-0.027-0.973-1.224-0.776-2-1c0.226-1.44,2.985-0.35,3-2
		c2.151-0.849,2.318-3.682,2-7c-1.332-1.002-3.018-1.648-4-3c-4.403-0.81-13.367-3.54-16,0c-2.515-2.485-6.566-3.434-6-9
		c0.279-2.055,2.671-1.996,4-3c1,0,2,0,3,0c-0.357-4.643-3.897-6.104-8-7C608.784,1032.762,597.647,1028.316,601,1025z M647,1074
		c1.333,0,2.667,0,4,0c0.169-2.503-1.536-3.131-3-4C647.686,1071.353,646.577,1071.91,647,1074z"/>
	<path fill-rule="evenodd" clip-rule="evenodd" fill="#9811BA" d="M676,750c-3.374-0.959-5.119-3.548-7-6
		c-0.48,4.994-1.974,12.786-6,17c-2.081-0.565-3.232-2.857-5-1c0.112,5.888,2.801,9.199,5,13c-0.104,3.896-4.282,3.718-5,7
		c2.615-0.282,4.301,0.365,4,3c-1.975,7.025-6.59,11.41-10,17c0.976-8.024,7.959-10.041,9-18c-1.486-2.785-4.468,2.113-4-2
		c-0.941-4.274,3.961-2.706,4-6c-1.239-4.761-4.239-7.761-4-14c0-0.333,0-0.667,0-1c0.779-0.221,1.163-0.838,1-2
		c2.837-0.171,1.952,3.382,6,2c4.561-6.318-1.218-17.223,8-18C671.956,745.377,674.496,747.17,676,750z"/>
	<path fill-rule="evenodd" clip-rule="evenodd" fill="#9811BA" d="M594,982c7.344,3.728,9.053,20.546,5,27
		c-0.538-6.777,1.912-21.815-6-26C593.057,982.39,593.149,981.816,594,982z"/>
	<path fill-rule="evenodd" clip-rule="evenodd" fill="#9811BA" d="M609,1039c4.103,0.896,7.643,2.357,8,7c-1,0-2,0-3,0
		c0.09-1.576,2.55-0.783,2-3C611.937,1045.391,613.136,1039.23,609,1039z"/>
	<path fill-rule="evenodd" clip-rule="evenodd" fill="#C817F3" d="M940,962c2.068,1.492-2.777,4.489-3,7
		C933.648,966.226,939.589,964.322,940,962z"/>
	<path fill-rule="evenodd" clip-rule="evenodd" fill="#B114D8" d="M919,998c-1.101,2.899-1.237,6.763-5,7
		c0.826-2.826-1.409-2.591-1-5C916.736,1001.069,915.851,997.517,919,998z"/>
	<path fill-rule="evenodd" clip-rule="evenodd" fill="#B114D8" d="M896,1034c0.127-1.794-1.225-2.109-1-4
		c0.684-1.983,5.957,0.624,5-3C901.979,1028.722,898.556,1033.498,896,1034z"/>
	<path fill-rule="evenodd" clip-rule="evenodd" fill="#770F91" d="M885,1045c0.805,0.529,1.623,1.043,3,1
		c-0.898,1.768-2.414,2.92-3,5C881.309,1050.196,884.171,1046.884,885,1045z"/>
	<path fill-rule="evenodd" clip-rule="evenodd" fill="#770F91" d="M766,1111c-2.51-0.823-8.611,1.943-8-2
		c2.254-0.66,11.837-1.825,10,2C767.333,1111,766.667,1111,766,1111z"/>
	<path fill-rule="evenodd" clip-rule="evenodd" fill="#770F91" d="M735,1103c5.351,3.556,8.862-2.137,15-1
		C746.306,1102.607,738.064,1108.318,735,1103z"/>
	<path fill-rule="evenodd" clip-rule="evenodd" fill="#9811BA" d="M694,895c11.987,0.047,12.469-9.883,12-20
		c-3.483-3.517-9.332-4.668-17-4c-3.016,5.07-4.83,9.299-2,16c-5.171-5.092-1.672-12.054,1-17
		C713.644,860.345,712.4,900.854,694,895z"/>
	<path fill-rule="evenodd" clip-rule="evenodd" fill="#770F91" d="M776,1099c3.151-0.887,10.312-2.97,13-1
		C784.592,1098.259,781.265,1099.598,776,1099z"/>
	<path fill-rule="evenodd" clip-rule="evenodd" fill="#9811BA" d="M759,1101c2.492-0.841,5.357-1.31,9-1
		C766.184,1100.917,760.203,1102.78,759,1101z"/>
	<path fill-rule="evenodd" clip-rule="evenodd" fill="#770F91" d="M658,1082c3.893-0.968,4.118,3.897,3,5
		c-1.862-0.138-3.342-0.658-4-2c1.376-0.043,2.196,0.471,3,1C661.146,1082.854,658.43,1083.57,658,1082z"/>
	<path fill-rule="evenodd" clip-rule="evenodd" fill="#770F91" d="M610,1049c-0.566,5.566,3.485,6.515,6,9
		c2.633-3.54,11.597-0.81,16,0c-3,0-6,0-9,0c0.109,6.891,4.8,9.199,11,10c-0.015,1.65-2.774,0.56-3,2c0.776,0.224,1.973,0.027,2,1
		c-5.57-3.199-14.512-4.56-11-14C615.087,1060.579,608.256,1055.545,610,1049z"/>
	<path fill-rule="evenodd" clip-rule="evenodd" fill="#9811BA" d="M770,985c34.043-11.436,33.135,49.146,2,39
		C758.738,1019.678,755.038,993.767,770,985z M783,1021c10.362-3.126,12.365-19.94,7-31c-10.021-6.427-21.113-6.282-27,3
		C756.449,1009.668,767.464,1025.687,783,1021z"/>
	<path fill-rule="evenodd" clip-rule="evenodd" fill="#B114D8" d="M714,561c3.333,0,6.667,0,10,0
		C722.922,562.655,715.078,562.655,714,561z"/>
	<path fill-rule="evenodd" clip-rule="evenodd" fill="#770F91" d="M678,698c-1.631,0.175-2.019-6.542,1-5
		c5.833-0.833,4.764-8.569,11-9c10.416,0.915,17.105,1.229,26-1c10.487-1.18,13.432-9.901,22-13c-3.378,21.622-25.629,24.371-43,32
		c2.021,1.578,2.652,3.578,2,6c-5.948-1.19-7.352,0.373-14,2C679.363,705.92,684.897,698.82,678,698z M705,689
		c-5.393,0.059-9.11-1.556-14-2C690.622,692.076,702.436,690.19,705,689z M713,688c0.097,4.38,6.88,0.963,7-1
		C716.753,686.42,715.348,687.681,713,688z"/>
	<path fill-rule="evenodd" clip-rule="evenodd" fill="#770F91" d="M717,1100c4.686,0.647,11.975-1.308,15,1
		C727.314,1100.353,720.025,1102.308,717,1100z"/>
	<path fill-rule="evenodd" clip-rule="evenodd" fill="#770F91" d="M797,1104c0.367,3.034-3.258,2.076-5,3
		C791.542,1103.876,794.137,1103.803,797,1104z"/>
	<path fill-rule="evenodd" clip-rule="evenodd" fill="#770F91" d="M719,1109c-3.757-3.809,9.286-1.812,5,1
		C722.839,1109.161,721.319,1108.681,719,1109z"/>
	<path fill-rule="evenodd" clip-rule="evenodd" fill="#C817F3" d="M986,824c0,2.333,0,4.667,0,7c-3.146,0.479-3.909-1.424-6-2
		C980.254,825.588,982.14,823.806,986,824z"/>
	<path fill-rule="evenodd" clip-rule="evenodd" fill="#560D67" d="M697,653c3.372-9.256,20.337-6.927,20,4c0,0.333,0,0.667,0,1
		c-0.958,11.456-23.277,10.712-20-4C697,653.667,697,653.333,697,653z M711,650c-3.833-0.776-5.137,6.119-4,7
		c1.779-1.887,6.595-0.738,6-5C711.878,651.789,711.443,650.89,711,650z"/>
	<path fill-rule="evenodd" clip-rule="evenodd" fill="#F594DE" d="M701,389c14.574-8.354,38.525,1.663,38,15c0,1,0,2,0,3
		c-3.415,2.223-5.998,4.883-11,3c-2.23,2.942-1.975,3.784-1,8c-3.238,1.428-6.817,2.516-11,3c-2.622-1.378-4.33-3.67-4-8
		c-6.392,0.274-8.37,4.963-15,5C692.653,410.915,694.166,394.965,701,389z M714,403c1.764,2.622,7.236,2.622,9,0
		C723.738,394.235,714.416,397.136,714,403z"/>
</g>
</svg>
