<?xml version="1.0" encoding="utf-8"?>
<!-- Generator: Adobe Illustrator 15.0.0, SVG Export Plug-In . SVG Version: 6.00 Build 0)  -->
<!DOCTYPE svg PUBLIC "-//W3C//DTD SVG 1.1//EN" "http://www.w3.org/Graphics/SVG/1.1/DTD/svg11.dtd">
<svg version="1.1" id="start_x5F_arrow_xA0_Image_1_"
	 xmlns="http://www.w3.org/2000/svg" xmlns:xlink="http://www.w3.org/1999/xlink" x="0px" y="0px" width="176px" height="176px"
	 viewBox="0 0 176 176" enable-background="new 0 0 176 176" xml:space="preserve">
<radialGradient id="SVGID_1_" cx="84.8564" cy="88.1426" r="71.3806" gradientUnits="userSpaceOnUse">
	<stop  offset="0" style="stop-color:#E71400"/>
	<stop  offset="1" style="stop-color:#E75D00"/>
</radialGradient>
<path fill="url(#SVGID_1_)" d="M137.059,63.259c10.902-18.06,5.102-41.539-12.958-52.442c-18.06-10.904-41.539-5.102-52.442,12.957
	c-9.877,16.36-6.045,37.166,8.188,49.043l-31.885,52.812l-9.412-5.683l-5.7,25.512l-5.699,25.513l19.921-16.926l19.922-16.927
	l-9.225-5.567l31.869-52.786C106.822,85.965,127.142,79.684,137.059,63.259z"/>
<g>
	<path fill="#FFFFFF" d="M76.524,33.058l3.349-0.384c0.16,1.062,0.542,2.068,1.742,2.77c0.951,0.557,1.682,0.604,2.074-0.066
		c0.299-0.512,0.056-0.985-0.583-1.713l-1.134-1.302c-1.405-1.604-2.02-3.385-0.864-5.36c1.383-2.364,4.052-2.434,6.186-1.186
		c2.115,1.236,2.836,2.676,3.057,3.918l-2.958,0.849c-0.194-0.801-0.518-1.461-1.47-2.02c-0.777-0.454-1.371-0.327-1.649,0.148
		c-0.268,0.458-0.138,0.842,0.331,1.376l1.278,1.458c1.934,2.198,2.075,3.818,1.086,5.512c-1.291,2.204-3.596,2.986-6.769,1.13
		C77.5,36.61,76.688,34.478,76.524,33.058z"/>
	<path fill="#FFFFFF" d="M93.851,33.462l-3.176-1.856l1.58-2.698l9.558,5.592l-1.578,2.698L97.06,35.34l-5.437,9.296l-3.209-1.877
		L93.851,33.462z"/>
	<path fill="#FFFFFF" d="M96.651,47.575l-3.142-1.836l12.976-8.791c0.127-0.092,0.231-0.031,0.212,0.124l-1.316,15.61l-3.316-1.939
		l0.14-1.292l-4.515-2.641L96.651,47.575z M102.943,42.925l-2.828,2.084l2.433,1.424L102.943,42.925z"/>
	<path fill="#FFFFFF" d="M116.05,58.922l-3.475-2.032l-0.067-3.732l-1.2-0.701l-1.608,2.751l-3.21-1.879l7.016-11.992l4.55,2.662
		c3.229,1.888,3.848,4.996,2.292,7.66c-1.013,1.728-2.577,2.66-4.44,2.61L116.05,58.922z M113.986,50.591
		c1.446,0.847,2.451,0.344,3.132-0.819c0.681-1.165,0.636-2.303-0.811-3.149l-1.182-0.691l-2.32,3.968L113.986,50.591z"/>
	<path fill="#FFFFFF" d="M125.56,52.009l-3.176-1.856l1.58-2.7l9.559,5.592l-1.578,2.698l-3.175-1.857l-5.438,9.296l-3.209-1.878
		L125.56,52.009z"/>
</g>
</svg>
